<svg viewBox="0 0 200 200" xmlns="http://www.w3.org/2000/svg">
  <defs>
    <linearGradient id="grad1" x1="0%" y1="0%" x2="100%" y2="0%">
      <stop offset="0%" style="stop-color:#fdf000;stop-opacity:1" />
      <stop offset="100%" style="stop-color:#f4a400;stop-opacity:1" />
    </linearGradient>
  </defs>
  <path fill="url(#grad1)"
    d="M40.1,-55.9C52.1,-46.4,62.1,-34.9,69.5,-20.6C77,-6.2,81.9,11,78.5,26.8C75.1,42.6,63.5,56.9,49,66.8C34.5,76.6,17.3,81.9,3.3,77.4C-10.7,72.9,-21.4,58.6,-34,48.1C-46.5,37.6,-60.8,31,-68.7,19.4C-76.5,7.7,-77.8,-9,-71.4,-21.5C-64.9,-34,-50.8,-42.2,-37.6,-51.4C-24.5,-60.5,-12.2,-70.5,0.9,-71.7C14,-72.9,28,-65.4,40.1,-55.9Z"
    transform="translate(100 100)" />
</svg>