<?xml version="1.0" encoding="UTF-8"?>
<svg xmlns="http://www.w3.org/2000/svg" viewBox="0 0 101.45 85.6">
  <defs>
    <style>
      .cls-1 {
        fill: #58c6d5;
        opacity: .51;
      }

      .cls-2, .cls-3 {
        fill: #507b7a;
      }

      .cls-4 {
        isolation: isolate;
      }

      .cls-5 {
        opacity: .7;
      }

      .cls-5, .cls-6, .cls-7, .cls-8 {
        fill: #f9f9f9;
      }

      .cls-9 {
        fill: #7dafac;
        mix-blend-mode: screen;
        opacity: .36;
      }

      .cls-6 {
        opacity: .58;
      }

      .cls-6, .cls-8 {
        mix-blend-mode: overlay;
      }

      .cls-3 {
        mix-blend-mode: multiply;
        opacity: .59;
      }

      .cls-8 {
        opacity: .43;
      }
    </style>
  </defs>
  <g class="cls-4">
    <g id="Layer_2" data-name="Layer 2">
      <g id="icons_planets">
        <g>
          <g>
            <g>
              <path class="cls-1" d="M14.35,70.58c-1.73,6.04-7.34,1.34-5.62-4,.3-.94,1.56-1.8,1.75-2.76,.16-.79-.33-1.28-.24-2.01,.29-2.27-.97-3.28,2.12-5.06,.11,.28,.01,.55,.11,.83,2.43-1.1,3.41-4.47,4.84-6.56,2.48-3.63,5.35-7.69,9.03-10.17-.35,3.12-3.7,5.57-4.24,8.73,2.44,.58,8.04-7.21,10.6-8.63-1.3,2.41-3.36,4.73-4.18,7.39,1.72-.19,2.76-1.81,3.99-3.05,3.84-3.89,7.82-7.43,11.91-11.06,4.96-4.4,12.66-14.96,19.56-16.14-2.53,3.54-5.4,7.6-8.46,10.69,1.92-.41,3.5-1.68,5.15-2.67-.81,.72-1.29,1.72-1.86,2.59,5.16-.62,10.81-7.24,14.21-10.53,6.82-6.61,13.35-13.11,21.46-18.18-6.56,5.52-10.1,11.04-12.74,15.89,3.18-1.05,5.71-3.4,8.7-4.85-2.01,3.23-4.78,6.57-7.58,9.15,7.29-2.88,12.68-8.3,18.57-13.18-1.15,6.93-9.9,12.49-13.42,18.46,2.77-.46,5.52-2.97,7.82-4.59-2.89,4.56-6.16,8.39-10.11,12.05-2.84,2.63-7.33,5.21-9.35,8.03,6.38-1.75,10.93-7.61,16.87-9.98-4.59,7.78-15,14.39-22.81,18.36-4.89,2.49-9.98,4.16-15.06,6.19-2.06,.83-5.63,1.79-6.74,3.92,3.05,.76,6.85-1.89,9.59-2.99,4.2-1.69,8.41-3.25,12.67-4.79-3.17,3.14-7.66,4.65-11.12,7.42,3.55,.17,7.28-1.57,10.35-3.18-11.14,7.98-23.91,14.22-36.29,20.02-3.82,1.79-8.46,4.4-12.84,3.91-3.73-.42-6-3.04-6.64-9.25Z"/>
              <path class="cls-8" d="M42.56,50.24c-4.37,2.77-9.69,3.97-12.51,8.77-2.44,4.15,1.78,4.87,5.01,3.74,4.98-1.74,6.38-6.48,10.08-9.31,.54,1.92,3.04,.35,4.04-.57,1.77,4.27,9.7-4.3,11.36-5.78,1.2,7.33,12.5-4.86,13.55-7.16,1.11-2.44,2.2-4.83,4.44-6.61,1.93-1.53,4.62-1.59,5.02-4.59-.79,.19-1.83,0-2.61,.27,2.32-6.33,11.27-7.73,14.42-13.65-3.34,.44-6.31,3.62-9.05,5.38-4.01,2.57-8.37,5.12-12.69,7.13,1.46-2.21,4.89-4.46,5.64-6.72-4.2-.24-9.32,7.98-12.29,10.51-2.55,2.17-5.27,4.17-7.8,6.34,1.55,.07,3-1.34,3.99-2.54-3.14-1.13-7.03,2.86-8.19,5.48,.65-.93,1-2.06,.96-3.17-4.1-.01-8.61,9.2-13.39,12.47Z"/>
              <path class="cls-6" d="M24.01,50.45c-1.67,2.13-6.14,6.04-1.62,7.41,4.88,1.48,7.95-6.25,11.26-8.27-.19,.54-.15,.97-.26,1.46,2.61-.09,4.78-3.7,6.25-5.6,2.94-3.83,5.83-7.09,9.89-9.72-.85,.84-1,1.7-1.02,2.77,5.96,.32,15.37-8.26,19.14-12.4-4.85,2.39-9.76,5.63-14.93,7.67,.83-1.7,1.9-3.33,2.2-5.21-3.3,.33-9.67,6.42-12.19,8.7-4.13,3.73-7.93,7.97-12.49,11.23,.25-.31,.52-.59,.77-.89-2.39,.68-3.53,3.32-5.4,4.77-.24-.72-.94-1.35-1.05-2.22-.82,.57-1.43,1.32-.56,.33Z"/>
              <path class="cls-6" d="M23.37,59.14c1.22-5.79,9.78-13.57,15.05-15.79-.68,1.64-1.74,3.27-2.23,4.89,2.55-.36,3.77-3.24,6.18-3.93-.18,1.19-.6,2.3-.94,3.45,.14,.27,.36,.37,.66,.3,4.73-4.82,9.44-9.32,14.88-13.4-1.87,2.32-3.97,5.05-4.55,8.03,3.58-1.36,6.12-5.15,9.57-7.03-.56,2.19-2.15,4.79-3.15,6.99,5.11,.58,14.43-11.33,17.35-15.09,.77,5.14-4.35,7.79-6.2,11.79,2.96,.29,5.34-2.99,7.71-4.37,.46,2.8-5.27,7.18-7.13,8.91,1.65,.31,3.68-.95,5.41-1.6-3.54,3.78-8.7,5.59-13.37,7.53-11.89,4.94-22.61,11.73-33.43,18.65l-5.8-9.34Z"/>
              <path class="cls-6" d="M29.81,70.09c-1.14,1-2.14,2.38-3.19,3.46,3.57,1.98,12.08-3.62,14.63-5.96-2.52,3.71,4.72-.15,5.32-.49,4.41-2.49,8.75-5.06,13.13-7.58-3.94-.38-8.28,3.23-12.25,3.9,.31-.13,2.69-1.8,3.51-2.58-2.96-.3-5.92,2.52-9.24,2.14,1.03-2.27,4.94-4.91,7.4-5.81-7.91,1.16-15.34,10.44-19.3,12.92Z"/>
              <path class="cls-6" d="M20.15,56.89c-.32,.06-.63,.05-.93-.03-.81-2.54-.14-4.31,2.21-5.6,4.47-2.46,2.11,.37,3.54,1.68,3.17,2.9,3.74-1.45,7.14-2.8,2.02-.8,3.3-.65,2.54,2.13,1.72,.38,3.66-1.17,5.12-2.07,.31,2.59-2.26,4.09-2.56,6.54,2.89,.59,6.23-.95,9.06-1.73-1.04,1.51-2.55,2.86-3.84,4.23,2.58,1.64,6.65-.82,9.64-.73-2.36,2.04-5.65,3.15-7.56,5.69,2.24,.18,4.87-.91,6.85-.39-6.54,7.99-16.9,11.14-26.69,12.07l-4.51-19Z"/>
              <g>
                <path class="cls-2" d="M28.41,72.02c1.86,1.61-.66,5.67-2.04,6.74-2.21,1.72-4.8,1.84-6.98-.06-1.21,1.04-3.96,1.41-4.35-.66-3.05,.41-6.17-.22-8.24-2.63-1.94-2.26-2.76-7.61,1.33-8.15-.86-.57-1.49-2.29-.47-2.97-3.92-4.86,6.36-12.99,10.59-8.05,0-.86,.54-2.42,1.57-1.77,1.74-5.91,14.4-.94,10.09,5.54,1.03-.35,1.83,.92,1.18,1.19,3.29,.27,8.24,3.21,7.33,7.06-.57,2.44-3.23,4.79-5.83,4.66-1.56-.08-2.74-.21-4.17-.9Z"/>
                <path class="cls-3" d="M13.3,55.77c-2.44,.49-4.61,4.19-2.55,6.29,.99,1,6.56,1.69,5.42-.53,2.5,1.12,4.67-2.36,2.21-2.51,2.58-1.73-4.04-3.78-5.09-3.24Z"/>
                <path class="cls-3" d="M11.71,72.65c1.44-.81-2.1-4.62-3.34-1.68-.47,1.11,.45,2.39,1.27,3.08,.71,.59,2.48,1.24,1.94-.27,.34,.61,1.13,.87,1.74,.34,1-.88-1.17-1.25-1.76-1.63l.16,.16Z"/>
                <path class="cls-3" d="M11.39,75.51c1.17,2.81,3.62,.85,.48-.16l-.48,.16Z"/>
                <path class="cls-3" d="M22.22,69.94c1.57-1.78,.66-5.06-1.98-5.35-3.6-.39-5.39,5.25-2.65,7.28-.57,1.35-1.39,2.61,.41,3.57,1.41,.75,3.39-.3,2.29-1.96,.61,.92,1.49,.4,1.43-.64,3.6,3.28,3.71-4.25,.5-2.91Z"/>
                <path class="cls-3" d="M25.24,60.23c-2.55,.33,.34,4.23,.31,1.81,1.17,1.61,2.73-2.2,2.72-3.11-.06-4.18-5.42-1.64-3.03,.99v.32Z"/>
                <path class="cls-3" d="M22.22,58.16c-.22,.79-.5,2.75,.88,2.55,1.27-.18,1.1-2.4-.24-2.4l-.64-.16Z"/>
                <path class="cls-3" d="M30.02,67.24c-1.04-.2-1.98-1.83-1.28-2.71,1.11-1.4,3.09,.42,2.9,1.74,1.41-1.96,3.65-.41,3.36,1.64-.28,1.98-3.74,3.82-5.27,2.25-.05,.71-1.68,.55-2.27,.1-2-1.52,.17-2.75,1.6-3.18l.96,.16Z"/>
                <path class="cls-3" d="M26.2,66.76c-.66-.79-.19-2.49,.92-1.27,.81,.89,.01,2.37-1.08,1.43l.16-.16Z"/>
                <path class="cls-3" d="M25.88,74.56c-.28,.5-.6,1.65-1.31,1.88-1.01,.32-1.56-.86-2.52-.76-2.31,.22-.58,3.26,1.24,2.4,.55,2.71,3.31-1.35,3.57-2.39,3.15-.3-1.4-6.36-.83-.65l-.16-.48Z"/>
                <path class="cls-3" d="M13.94,69.62c1.81-2.58-3.13-5.39-2.85-2.67-.32-.88-2.07-4.53-2.73-2.33-.43,1.44,2.56,4.5,3.64,5.27,.02,0,.09-.23,.14-.26,.29,.81,.1,2.52,1.16,2.87,2.36,.78,.59-2.54,.64-2.88Z"/>
                <path class="cls-3" d="M23.17,54.18c-1.37-1.25-2.21,.81-1.13,1.56-.4-.12-.96-.05-1.4-.1-.24,2.42,3.25-.5,3.64-1.4,.24,.52,1.54,.98,2,.41,.95-1.15-2.35-2.37-3.28-.62l.16,.16Z"/>
                <path class="cls-9" d="M10.12,57.05c-1.6-.07-3.24,3.68-1.61,3.85-1.29,1.74,1.56,3.87,3.01,2.23,.7,1.95,3.51,3.25,4.19,.66,1.03,.4,2.12-.15,2.07-1.32,2.33,.85,4.41-2.95,2.85-3.01-.4-.01-1.25,1.4-1.76,1.57-.56,.19-1.57-.32-2.08,0-.49,.32-.32,1.25-.78,1.65-.78,.68-1.68,.31-2.64-.02-2.82-.98-4.43-2.22-3.26-5.64Z"/>
                <path class="cls-9" d="M8.53,68.67c-1.36-1.74-3.08,.49-1.77,1.87-.58,.55-.59,3.43,.74,3.06,.85-.23,.31-2.93,.13-3.51,.88,.05,1.49-.73,1.67-1.55-.19-.16-.19-.09-.43-.18-.18,.1-.24,.26-.19,.47l-.16-.16Z"/>
                <path class="cls-9" d="M15.85,68.19c.35-.64,1.37-2.95-.08-2.87-1.71,.1-.98,3.04-.29,3.79-.86,.7-.98,3.58,.25,4.14,2.66,1.21,.18-3.84-.04-4.42l.16-.64Z"/>
                <path class="cls-9" d="M24.92,64.53c1.58-3.9-5.05,.79-1.09,1.92,.12,0,.12-.02,0-.03-.91,.7-.37,2.52,.81,2.54,2.15,.03,.58-3.38,.12-4.27l.16-.16Z"/>
                <path class="cls-9" d="M27.95,55.45c-.55-.91-1.92-.27-1.65,.78-.57-.37-1.31-.34-1.98-.44-.09,.26-.31,.42-.38,.72-.68-.88-3.08-.97-2.86,.56,.25,1.68,2.69,.44,3.35-.13,.75,1.02,5.4-.14,3.51-1.49Z"/>
                <path class="cls-9" d="M28.41,61.82c.37-.5,.83-1.01,.93-1.58-.27,.07-.57,.01-.85,.1,1-1.4,2.1-4.28-.54-4.55,.61-.59,.99-1.25,1.12-1.94-2.81-2.52-8.17-3.08-9.25,.62-1.03-.65-1.57,.91-1.57,1.77-3.76-4.39-12.3,1.55-11.39,6.33,.73,.91,1.92,1.57,3.09,2.15-.67,.54-2.75-.63-2.5,1.09,.12,.84,3.17,2.13,1.49,2.7-.64,.22-1.28-.75-2.24-.09-1.22,.83-.96,2.54-.38,3.69,1.46,2.92,7.8,4.73,6.99-.38,.21,.46,.53,.56,.8,.86,1.19-1.88,1.2-3.8,1.31-5.93,.64,.65,1.47,.56,2.18-.04,.6,2.99,2.6,3.71,5.51,2.54,2.51-1.01,2.17-2.59,1.52-4.93,2.25,1.04,4.05,5.84,7.33,3.11,2.47-2.06-1.04-5.68-3.51-5.51Z"/>
                <path class="cls-3" d="M31.09,61.19c.65-.27-.14-1.54-1.18-1.19,4.31-6.49-8.35-11.45-10.09-5.54-1.03-.65-1.57,.91-1.57,1.77-.78-.91-1.77-1.38-2.84-1.5-.11,.72,.34,.42,1.01,1.19,.81,.94,.84,1.23,.83,2.4,0,1.06-.32,2.9,1.91,2.06,2.08-.77,1.95-4.82,4.96-4.47,2.76,.32,1.35,3.66,.04,4.82,3.07-.65,1.09,7.43-3.33,5.1-.31,1.63,1.88,1.92,3.06,1.89,.4,0,.79-.05,1.17-.12-.82,2.75-3.94,2.88-6.78,2.32-.13,1.25,.23,3.37-1.78,3.07,.47,2.51-2.57,2.52-3.63,.78-.22,1.46-2.16,1.85-3.39,1.87-1.06,.01-2.03-.19-2.92-.57,.08,.11,.16,.22,.25,.32,2.07,2.42,5.2,3.04,8.24,2.63,.39,2.08,3.15,1.7,4.35,.66,2.18,1.9,4.77,1.78,6.98,.06,1.38-1.07,3.89-5.13,2.04-6.74,1.43,.69,2.62,.82,4.17,.9,2.61,.13,5.26-2.22,5.83-4.66,.9-3.86-4.04-6.79-7.33-7.06Zm.82,3.16c-.55,2.39-2.61,2.5-4.53,2.2,.68-.57,1.17-1.34,1.38-2.34,.25-1.17-.06-2.48,.36-3.54,1.48,.82,3.35,1.21,2.79,3.68Z"/>
                <path class="cls-3" d="M13.9,57.31c-.07,.05,0,.16,.07,.12,1.59-.97,2.11,1.88,.78,2.3-.56,.18-1.22-.13-1.81-.05-.08,.01-.11,.12-.02,.15,.76,.21,.47,1.01,.08,1.44-.34,.37-.74,.56-1.25,.48-1.13-.18-1.63-1.46-1.6-2.47,.08-2.15,2.15-3.27,4.1-3.17,0,0,0,0,0,0-1.58-.17-3.29,.51-3.95,2.05-.51,1.19-.29,3.05,1.04,3.63,.9,.4,2.43-.39,2.23-1.52-.03-.18-.12-.28-.24-.4-.01-.01-.03-.03-.05-.04,.2,.02,.52,.05,.59,.06,.51,.07,1,.17,1.38-.26,.9-1.02,.12-3.31-1.35-2.28Z"/>
                <path class="cls-3" d="M10.06,69.99c-.7-.27-1.46,.23-1.71,.9-.52,1.36,.88,3.67,2.41,3.63,.16,0,.15-.22,0-.24-1.29-.17-2.56-1.87-2.22-3.18,.29-1.08,1.39-1.15,2.11-.47,.45,.43,.78,.96,1.22,1.39,0,0,.02,0,.01-.01-.53-.67-.96-1.69-1.81-2.02Z"/>
                <path class="cls-3" d="M13.43,71.11c-.96,.17-.71-.94-1.09-1.49-.49-.7-1.37-1.13-1.98-1.71-.73-.68-1.55-1.43-1.81-2.43-.05-.18-.21-.69-.08-.85,.25-.32,.7,.03,.94,.24,.41,.34,.7,.83,.98,1.28,.03,.05,.11,0,.08-.05-.39-.86-1.04-1.84-2.09-1.81-.04,0-.1,.03-.11,.08-.27,1.88,1.3,3.37,2.67,4.42,.47,.36,1.1,.72,1.31,1.31,.1,.28,.08,.6,.2,.88,.21,.49,.58,.56,1.05,.34,.12-.06,.03-.22-.08-.2Z"/>
                <path class="cls-3" d="M19.58,73.39c-.44,.58-1.46,1.77-1.82,.43-.18-.66,0-1.53,.66-1.85,.09-.05,.08-.18,0-.23-.89-.52-1.66-1.56-1.91-2.56-.09-.35-.09-2.07,.72-1.45,.4,.31,.34,1,.18,1.4-.02,.05,.06,.08,.08,.03,.28-.48,.32-1.16-.12-1.57-.28-.27-.63-.26-.88,.05-1.02,1.28,.49,3.41,1.62,4.2-.71,.5-.88,1.64-.49,2.39,.63,1.2,1.75-.01,2.14-.74,.06-.12-.1-.21-.18-.1Z"/>
                <path class="cls-3" d="M22.57,58.75c-.35-.17-.65,.08-.8,.39-.31,.67,.28,1.77,1.1,1.46,.06-.02,.04-.12-.03-.1-.59,.17-1.06-.61-.95-1.12,.07-.32,.35-.65,.69-.42,.25,.17,.37,.5,.37,.8,0,.09,.14,.09,.14,0,0-.38-.16-.82-.52-1Z"/>
                <path class="cls-3" d="M25.38,53.14c-.48-.13-.92-.04-1.37,.15-.3,.12-.84,.57-1.17,.53-.23-.03-.18-.17-.49-.12-.32,.05-.56,.24-.73,.51-.25,.4-.27,.92,0,1.26-.85,.05-1.16,1.16-.12,1.11,.02,0,.03-.04,0-.04-.34-.05-.74-.39-.42-.74,.22-.23,.58-.19,.84-.09,.11,.04,.18-.13,.08-.19-.81-.46-.15-1.81,.65-1.54,.13,.04,.12,.15,.3,.15,.25,0,.7-.43,.93-.53,.26-.12,.5-.22,.79-.26,.46-.05,1.58,.1,1.24,.96-.05,.12,.15,.2,.21,.09,.33-.63-.15-1.09-.76-1.25Z"/>
                <path class="cls-3" d="M25.5,57.11c-.99,.76-.75,1.99-.11,2.88-.89,.35-1.34,1.32-.75,2.22,.38,.57,.93,.68,1.15,.2,.63,.83,1.49-.96,1.55-1.69,0-.13-.16-.13-.2-.03-.15,.37-.83,2.34-1.26,1.28-.06-.15-.28-.13-.29,.04-.07,1.03-.86-.18-.9-.48-.09-.69,.31-1.14,.96-1.33,.1-.03,.13-.15,.06-.23-.66-.78-1-1.92-.09-2.67,.64-.52,1.44-.45,1.8,.33,.02,.05,.1,.01,.08-.04-.25-.96-1.3-1.02-2.01-.48Z"/>
                <path class="cls-3" d="M23.43,76.45c-.37-.44-.89-1.02-1.53-.91-.48,.08-.79,.51-.76,.99,.05,.8,1.15,1.88,1.87,1.04,.07-.08-.02-.21-.12-.15-.33,.19-.63,.25-.96,.03-.28-.19-.49-.51-.55-.85-.07-.45,.23-.87,.71-.87,.49,0,.99,.42,1.3,.75,.02,.03,.06-.01,.04-.04Z"/>
                <path class="cls-3" d="M12.83,75.98c-.3-.37-.77-.54-1.23-.62-.08-.01-.12,.05-.09,.12,.18,.42,.57,.88,.98,1.1,.04,.02,.08-.02,.06-.06-.1-.2-.28-.34-.43-.49-.15-.15-.28-.3-.38-.48,.38,.07,.78,.21,1.09,.44,.01,0,.02,0,.01-.02Z"/>
                <path class="cls-3" d="M29.42,69.55c-.51,.38-1.44,1.07-2.02,.42-.79-.88,.28-2.06,1.04-2.47,.02-.01,.01-.05-.01-.05-1.04,.13-1.88,1.67-1.26,2.57,.57,.83,1.88,.31,2.37-.35,.05-.07-.05-.18-.12-.12Z"/>
                <path class="cls-3" d="M29.02,64.34c-.87,.41-.71,1.89,.28,2.03,0,0,.02,0,0-.02-.29-.23-.56-.44-.67-.81-.14-.48,.11-.95,.61-1.08,.9-.23,1.75,.61,2.04,1.36,.03,.08,.17,.08,.16-.02-.08-.99-1.51-1.9-2.43-1.46Z"/>
                <path class="cls-3" d="M12.95,58.12c-.37-.27-.85-.14-1.15,.16-.29,.27-.65,.94-.29,1.3,.34,.34,.99,.02,1.09-.39,.1-.41-.26-.56-.53-.28-.06,.06,.02,.14,.08,.11,.38-.16,.27,.23,.07,.39-.14,.11-.43,.19-.58,.04-.1-.1-.08-.32-.06-.44,.1-.45,.58-.98,1.09-.82,.61,.19,.4,.89,.11,1.25-.28,.34-.69,.6-1.14,.63-.93,.06-1.32-.9-.96-1.66,.32-.67,1.19-1.64,1.9-.87,0,0,.03,0,.02-.01-.68-.95-1.77,.19-2.08,.9-.4,.9,.19,1.92,1.22,1.79,.78-.1,2.2-1.37,1.21-2.09Z"/>
                <path class="cls-3" d="M11.15,72.52c-.11-.54-.5-1.03-.91-1.38-.24-.21-.72-.51-1.04-.29-.58,.39,.25,1.65,.5,2.05,.25,.41,1.27,1.81,1.71,.78,.14-.33,0-.76-.25-1.15Zm-.31,1.3c-.36-.03-.7-.57-.87-.84-.31-.46-.67-1.02-.77-1.57-.14-.82,.8-.36,1.12-.06,.3,.28,.63,.68,.78,1.09-.3-.43-.72-.81-1.04-.92-.05-.02-.11,.02-.12,.07-.13,.63,.51,1.18,.93,1.56,.05,.05,.14,.03,.16-.04,.03-.12,.03-.22,0-.31,.2,.39,.42,1.08-.2,1.02Zm-.16-1.3c.09,.13,.16,.21,.18,.34-.31-.32-.94-1.03-.75-1.11,.13-.05,.49,.4,.69,.67-.07-.05-.17,.03-.12,.11Z"/>
                <path class="cls-3" d="M20.04,65.69c-.98-.79-1.3,.59-.94,1.33,.17,.35,.75,.93,1.13,.46,.28-.34-.1-.83-.45-.89-.09-.02-.17,.12-.07,.16,.13,.04,.24,.12,.33,.24-.06,.58-.28,.6-.68,.08-.13-.19-.21-.48-.22-.71-.02-.37,.14-.81,.6-.64,.14,.05,.25,.18,.35,.29,.58,.64,.77,2.67-.62,2.21-.79-.26-1.18-1.1-1.05-1.89,.15-.91,.84-1.42,1.73-1.47,.02,0,.02-.02,0-.02-1.09-.12-1.91,.79-1.9,1.85,0,.86,.93,2.19,1.94,1.72,1-.46,.52-2.19-.14-2.72Z"/>
                <path class="cls-3" d="M27.31,57.8c-.32-.4-.83-.43-1.21-.07-.45,.43-.38,1.15-.23,1.74,0,.01,0,.02,0,.03-.06,.43-.1,1.03,.18,1.4,.29,.37,.72,.39,1.04,.07,.76-.74,.89-2.33,.23-3.17Zm-1.19,2.8c-.13-.31-.09-.75-.04-1.07,.04-.26,.24-1.17,.62-.77,.14,.14,.14,.53,.15,.71,0,.05,.03,.3-.01,.35-.11,.14-.32,.01-.17-.26,.04-.07-.06-.16-.12-.09-.17,.2-.4,.89,.07,.92,.52,.03,.46-.94,.42-1.21-.04-.32-.17-.84-.6-.75-.36,.08-.49,.58-.55,.93-.06-.35-.09-.72,0-1.05,.21-.76,1.04-.91,1.39-.22,.37,.73,.3,1.6-.06,2.32-.23,.45-.8,.92-1.1,.2Z"/>
                <path class="cls-3" d="M22.48,79.2c-.8,.87-1.58-.28-1.61-1.04,0-.07-.09-.14-.15-.09-.43,.32-1.08,.18-1.19-.41-.01-.07-.12-.09-.17-.04-.46,.47-.74-.22-.88-.45-.03-.05-.08-.06-.13-.03-.41,.17-.57,.49-.82,.84-.38,.55-1.07,.66-1.49,.03-.16-.24-.24-.52-.41-.75-.01-.02-.06,0-.05,.02,.27,.69,.81,1.86,1.75,1.19,.19-.13,.3-.34,.43-.52,.09-.13,.18-.31,.31-.41,.38-.28,.33-.07,.5,.16,.1,.13,.21,.29,.38,.33,.15,.03,.27-.1,.37-.08,.19,.03,.39,.49,.76,.54,.18,.02,.25-.03,.42-.04,.2-.02,.15-.12,.18-.1,.06,.05,.1,.4,.14,.48,.33,.76,1.22,1.36,1.79,.48,.05-.08-.06-.16-.12-.1Z"/>
                <path class="cls-3" d="M20.53,75.58c-.02-.06-.11-.07-.13,0-.05,.2-.06,.38-.16,.58-.16,.31-.79,.95-1.1,.15-.03-.07-.12-.11-.18-.05-.3,.4-.7,.42-1.19,.05-.04-.05-.13-.04-.16,.02-.71,1.29-2.38,.45-2.06-.88,0-.02-.02-.03-.03,0-.28,.69-.01,1.43,.72,1.69,.3,.11,.64,.1,.93-.04,.17-.08,.26-.23,.41-.33,.12-.07,.16-.11,.18-.13-.01,.02,0,.08,.21,.11,.17,.02,.24,.09,.43,.07,.18-.01,.44-.26,.56-.25,.14,.01,.29,.32,.54,.34,.61,.05,1.2-.78,1.03-1.33Z"/>
                <path class="cls-3" d="M37.56,66.43c-.23-1.49-1.68-2.32-3.08-2.15,.62-.78-.58-1.77-1.48-1.27-.1,.06-.01,.21,.09,.16,.67-.35,2.06,.45,1.04,1.18-.09,.06-.04,.21,.08,.18,1.17-.29,2.41,.18,2.96,1.3,.6,1.24-.11,2.35-1.28,2.85-.04,.02-.06,.08-.05,.11,.22,.56,.25,1.1-.43,1.3-.35,.11-.73,.13-1.09,.18-.06,0-.1,.04-.1,.1-.09,1.24-.88,1.52-1.99,1.61-1.25,.1-2.5-.07-3.5-.89-.04-.03-.11-.05-.14,0-.39,.5-1.27,.68-1.68,.06-.04-.05-.11-.07-.16-.02-.43,.45-.88-.14-1.1-.4-.05-.06-.18-.01-.17,.07,.1,.96,.31,2,.07,2.96-.46,1.79-2.61,1.68-3.55,.32,0,0-.02,0-.02,0,.6,1.13,2.25,1.74,3.25,.71,.9-.93,.65-2.48,.5-3.68,.17,.19,.37,.37,.6,.41,.2,.04,.38-.14,.53-.11,.23,.04,.42,.31,.72,.33,.37,.03,.61-.12,.94-.26,.17-.07,.11-.11,.31-.07,.22,.05,.53,.34,.75,.43,.47,.2,.97,.31,1.47,.35,.8,.07,1.88,.08,2.61-.3,.23-.12,.41-.29,.54-.51,.24-.41,.06-.8,.59-.96,.49-.14,1.16-.08,1.39-.65,.13-.32-.15-.74,.02-1,.06-.09,.41-.23,.5-.29,.16-.12,.31-.25,.43-.4,.38-.46,.54-1.05,.45-1.64Z"/>
                <path class="cls-9" d="M13.86,55.06c-1.04-.06-2.32,.94-3.13,1.49-1.16,.79-2.28,1.7-2.81,3.06-.43,1.12-.25,2.38,.6,3.24,1.3,1.31,2.44,1.1,4.05,.8-1.02,2.6,2.07,2.36,3.76,1.67,1.5-.61,3.53-1.79,3.26-3.71-.22-1.56-2.06-1.42-3.27-1.48,.21-.93,1.06-1.55,.97-2.61-.13-1.54-1.58-2.28-3.43-2.47Z"/>
                <path class="cls-9" d="M10.2,69.31c-.88-2.19-3.79-2-4.5,.21-.48,1.49,.19,3.66,1.37,4.67,.8,.69,2.21,.83,3.2,.47,2.69-.97,1.52-3.68-.06-5.36Z"/>
                <path class="cls-9" d="M22.38,52.19c-1.58,.49-2.45,3.06-1.08,4.33,.71,.65,2.38-.21,2.82-.89,.69-1.09-.27-2.88-1.74-3.44Z"/>
                <path class="cls-9" d="M18.8,55.06c-.04,.73,.04,3.53,1,3.66,1.74,.22-.02-4.11-1-3.66Z"/>
                <path class="cls-9" d="M29.86,67c-.87,.66-2.39-.21-3.02-.88-1.43-1.5,.24-3.13,1.77-3.71,2.05-.77,4.44,.03,5.97,1.54,2.33,2.32-1.49,4.11-4.71,3.04Z"/>
                <path class="cls-9" d="M23.41,72.89c-.85-.66-.81-1.78-2.09-2.12-1.19-.31-1.9,.12-2.06,1.41-.19,1.59,.75,3.61,1.98,4.6,2.16,1.75,3.45-.46,3.29-2.62l-1.11-1.27Z"/>
                <path class="cls-9" d="M16.41,75.2c-.51,.24-1.02,1.99-.66,2.57,.18,.29,.62,.5,.96,.39,1.03-.34,.28-1.95,.02-2.56l-.32-.4Z"/>
                <path class="cls-9" d="M30.97,60.31c-.54-.17-2.03-.05-2.15,.68-.19,1.22,2.88,.08,1.91-.6l.24-.08Z"/>
              </g>
              <path class="cls-6" d="M93.9,15.67c-10.92,4.03-18.6,13.94-29.25,18.63-1.19,.52-2.02,.12-3.22,1.27-.93,.89-.75,1.88-1.35,2.65-1.47,1.9-4.18,4.09-6.33,6.04-5.07,4.61-12.09,6.79-17.82,10.46-2.74,1.76-8.77,4.02-9.98,7.29,4.3-.1,9.82-4.81,13.36-7.08,4.88-3.14,10.15-6.09,14.73-9.57-.41,.54-.46,1.35-.78,1.91,4.87,2.43,11.62-9.02,14.58-10.7,9.39-5.3,17.62-13.85,26.06-20.91Z"/>
              <path class="cls-6" d="M34.54,38.22c-5.01,1.59-3.15,9.05,2.79,2.78-.75,1.22-.68,2.5,.6,3.11,2.01,.96,4.79-2.33,5.86-3.44,5.98-6.16,9.49-14.44,16.82-19.37-.69,.72-.94,1.75-1.38,2.55,2.65,1.11,5.6-1.6,7.41-3.25-1.83,3.41-4.57,11.02,1.99,7.36,6.3-3.52,12.64-12.85,15.42-19.39-5.18,3.32-8.15,11.26-14.28,13.56-.21-3.42,3.51-6.8,2.21-10.31-4.45-1.33-5.93,4.73-9.05,6.33,.1-.63-.25-1.38-.2-1.99-5.03-.96-11,8.42-13.77,11.69-2.98,3.52-8.12,9.07-14.42,10.37Z"/>
              <path class="cls-6" d="M18.79,59.37c1.53-8.37-16.45,1.17-8.31,6.37C3.52,63.5-.02,74.19,6.11,74.33c-3.76,4.38,6.57,6,9.28,1.88-.05,2.08,1.91,2.52,3.7,2.19,2.79,7.97,14.39-2.96,8.59-7.15,2.74,5.31,4.88-1.75,5.58-3.53,.98-2.51,2.67-2.73,.59-5.8-2.6-3.83-9.27-1.99-15.07-2.56Z"/>
              <path class="cls-6" d="M17.4,53.77c-.98-3.67-6.16-4.01-8.18-.93-4.83,7.36,11.75,11.97,8.18,.29v.64Z"/>
              <path class="cls-6" d="M35.61,73.96c5.63-2.03,.49-8.29-1.01-4.55-5.82-2.63-5.56,9.01-.9,6.92-1.37,.45-2.03,1.54-1.32,2.82,1.98,3.57,6.31-2.29,7.11-3.58l-3.86-1.61Z"/>
              <path class="cls-6" d="M3.08,69.13c2,.85,2.53-1.66,2.25-3.38-.42-2.58-3.15-2.61-2.59-.51-.03,.04,.67-.9,.65-.88-4.69-1.54-4.32,8.09-.1,8.69-2.47,3.7,1.97,9.32,4.16,5.68,.29,.19-.33,.34,.51,.46,3.09-1.47,.26-6.12-2.58-5.86,3.11-1.23,.73-4.33-1.98-3.24l-.32-.97Z"/>
              <path class="cls-6" d="M23.05,81.69c1.88-2.82-3-4.43-2.18-.66,.71-1.73-1.97-2.66-3.57-2.02-1.42-4.66-8.03,5.1-.73,4.33,.06,4.8,5.94,.56,7.6,0,1.79-.6,3.07,1.49,5.44-.73,1.16-1.09,1.72-2.09,1.15-2.47,2.55-3.36-4.64-1.33-5.77-.71l-1.93,2.25Z"/>
            </g>
            <path class="cls-7" d="M61.61,35.45c-2.33,.27-3.86,2.66-5.32,4.24-.57,.62-1.92,2.19-2.89,2.15-1.54-.07-.83-.96-.56-1.35,.14-.21,.31-.4,.42-.62,.18-.36,.22-.65,.12-1.04-.03-.1-.14-.16-.24-.14-3.43,.84-6.17,3.23-8.29,5.96-.68,.88-1.24,1.85-1.99,2.67-.19,.21-.47,.56-.74,.66-.78,.3-.9-.58-.79-1.17,.14-.76,.54-1.44,.62-2.23,0-.07-.07-.14-.14-.14-1.05,.07-1.99,.81-2.7,1.55-.35,.37-2.03,2.81-2.44,2.01-.32-.62,.82-2.46,1.05-3,.22-.53,.6-1.2,.48-1.79-.01-.06-.08-.09-.14-.08-2.09,.51-3.63,2.43-5.14,3.83-1.77,1.63-3.07,3.92-5.23,5.09,0,0,0,0,0,0,2.24-.85,3.64-3.4,5.35-4.96,1.03-.94,1.99-1.96,3.13-2.78,.26-.19,1.32-1.03,1.67-.89,.33,.13-.17,1.08-.29,1.36-.29,.68-1.7,2.9-1.03,3.61,.77,.81,2.19-1.55,2.54-1.95,.38-.43,.82-.82,1.3-1.16,.26-.18,.91-.73,1.21-.16,.07,.13-.29,.81-.34,.95-.22,.62-.62,1.74,.05,2.25,.97,.73,2.19-1.13,2.64-1.74,1.55-2.09,3.08-4.13,5.24-5.65,.62-.44,1.28-.83,1.97-1.16,.35-.16,2.04-1.14,1.79-.12-.18,.73-1.15,1.16-.79,2.03,.69,1.69,3.27-.54,3.92-1.2,1.02-1.02,1.88-2.18,2.93-3.17,.46-.44,1.26-1.29,1.94-1.35,.51-.04,.23,.22,.1,.6-.13,.36-.35,.7-.47,1.07-.04,.12,.14,.19,.2,.08,.42-.67,.82-1.29,1.05-2.05,.03-.11-.06-.26-.18-.24Z"/>
            <path class="cls-7" d="M44.2,56.79c.8-.75,2.08-1.76,2-3,0-.12-.11-.2-.23-.18-1.47,.29-2.78,1.04-4.12,1.67-1.12,.52-2.45,1.57-3.74,1.54-1.21-.03-.47-1.04-.1-1.68,.36-.61,.76-1.19,1.14-1.79,.59-.95,1.12-1.93,1.11-3.07,0-.14-.14-.2-.26-.15-3.47,1.63-7.04,4.57-8.5,8.19-.02,.06,.07,.09,.1,.04,1.61-3.38,4.95-6.18,8.3-7.8-.17,2.31-2.41,3.95-2.95,6.17-.02,.07,.01,.17,.08,.21,.97,.49,1.99,.13,2.92-.29,1.38-.62,2.71-1.37,4.09-2,.24-.11,1.32-.73,1.65-.6,.17-.13,.22-.1,.13,.09-.02,.18-.08,.35-.19,.51-.3,.61-.88,1.12-1.36,1.58-.81,.78-1.8,1.51-2.34,2.52-.05,.09-.02,.19,.07,.25,.67,.44,1.44,.01,2.15-.32-1.14,1.23-2.3,2.53-3.16,3.95-.07,.11,.09,.24,.19,.14,1.33-1.4,2.45-2.99,3.76-4.41,.12-.13,0-.35-.18-.3-.42,.1-2.37,1.01-2.36,.61,.02-.52,1.46-1.55,1.81-1.88Z"/>
            <path class="cls-7" d="M76.27,27.27c-.02-.1-.14-.15-.22-.13-1.19,.25-1.85,1.76-2.31,2.75-.73,1.56-1.12,3.66-2.62,4.67-.85,.57-1.9,.53-2.83,.9-.87,.34-1.63,.97-2.34,1.56-1.69,1.41-3.13,3.08-4.58,4.72-1.34,1.52-2.68,3.07-4.25,4.37-.59,.49-1.24,1-1.94,1.33-.62,.29-.88,.39-1.36-.44-.1-.17-.02-.3-.16-.47-.66-.81-2.39,.24-3.02,.63-1.66,1.02-3.13,2.71-5.2,2.82-.02,0-.02,.03,0,.03,1.47-.01,2.6-.74,3.78-1.56,.65-.45,1.29-.94,1.99-1.3,.35-.18,.77-.39,1.17-.46,.42-.07,.69-.37,1.1,.36,.04,.07-.02,.19,.02,.27,.4,.72,.77,.88,1.61,.55,.99-.38,1.89-1.14,2.68-1.84,3.04-2.69,5.3-6.14,8.42-8.75,.91-.76,1.78-1.39,2.94-1.69,.81-.21,1.58-.3,2.28-.81,1.08-.78,1.54-2.1,2.02-3.29,.3-.76,.62-1.51,1.01-2.23,.23-.42,1.35-2.29,1.49-1.27,.11,.86-.52,2.09-.85,2.85-.32,.74-.69,1.45-1.05,2.17-.08,.16,.14,.29,.24,.14,1.03-1.57,2.28-3.97,1.97-5.9Z"/>
            <path class="cls-7" d="M67.68,25.58c-.02-.09-.12-.14-.21-.12-4.25,.95-7.21,4.73-10.8,6.92-.62,.38-1.25,.74-1.9,1.07-.55,.28-2.21,1.21-2.16,.05,.03-.67,.93-1.79,1.3-2.37,.52-.8,1.18-1.48,1.08-2.49,0-.09-.07-.15-.16-.16-3.09-.32-5.88,2.84-7.77,4.86-1.19,1.27-2.31,2.6-3.59,3.79-1.83,1.7-3.85,3.17-5.66,4.9,0,0,0,.01,0,0,2.96-2.28,5.87-4.54,8.38-7.32,1.97-2.18,4.44-5.28,7.48-5.88,.51-.1,1-.27,.98,.4-.02,.45-.49,.96-.74,1.31-.4,.56-.75,1.16-1.09,1.75-.26,.46-1.06,1.54-.44,2.03,.49,.38,1.42-.08,1.88-.27,1.01-.43,1.97-1,2.9-1.58,1.56-.97,2.95-2.16,4.38-3.31,.9-.72,1.81-1.42,2.79-2.01,.41-.25,.83-.48,1.26-.68,.15-.07,2.42-1.12,1.58,.04-.08,.11,.1,.25,.19,.15,.33-.39,.42-.57,.3-1.08Z"/>
            <path class="cls-7" d="M27.63,46.48c-1.89,.31-2.77,2.51-4.18,3.58-.37,.28-1.33,.92-1.74,.56-.36-.31,.15-1.87,.25-2.26,.41-1.53,1.09-2.98,1.91-4.33,.07-.11-.09-.23-.18-.14-2.65,2.81-5.17,5.97-6.58,9.6-.02,.06,.08,.1,.1,.04,1.57-3.21,3.5-6.08,5.92-8.72,0,0,.02-.02,.03-.04-.07,.14-.14,.28-.21,.42-.28,.55-.53,1.12-.75,1.69-.49,1.26-.84,2.58-.79,3.94,0,.07,.05,.12,.12,.12,2.19,.09,3.23-2.09,4.63-3.38,.08-.07,1.22-1,1.34-.83,.11,.16-.77,1.57-.85,1.74-.28,.61-.64,1.39-.13,1.97,.08,.1,.25-.03,.18-.14-.7-1,.8-2.68,1.1-3.68,.03-.1-.07-.17-.16-.16Z"/>
            <path class="cls-7" d="M69.72,41.01c-1.04,.33-2.17,1.43-2.68,2.38-.56,1.06-.08,2.01,1.13,1.1,.71-.53,.77-2.14-.1-1.07-.08,.1,.05,.23,.14,.14,.1,.01,.21,.03,.31,.04-.11,.37-.34,.61-.69,.73-.39,.17-.72,.27-.79-.18-.06-.37,.39-.92,.62-1.2,.44-.54,1.03-1.07,1.63-1.43,.46-.27,1.03-.54,1.28,.17,.17,.49-.21,1.27-.44,1.67-.52,.93-1.33,1.72-2.14,2.4-.69,.58-1.43,1.14-2.24,1.54-.44,.22-.97,.41-1.46,.43-.84,.03-1.06-.81-.75-1.48,.79-1.73,2.88-2.63,3.38-4.53,.02-.07-.02-.13-.09-.16-1.65-.61-3.83,1.89-4.87,2.86-.89,.83-1.62,1.78-2.41,2.7-.48,.56-.98,1.12-1.55,1.59-.36,.3-1.49,1.3-1.38,.24,0-.1-.12-.17-.2-.11-1.02,.71-1.64,1.81-2.61,2.57-.63,.49-1.3,.73-2.09,.64-.74-.09-2.44-.59-1.43-1.77,.05-.05-.03-.13-.08-.08-1.11,1.18,.51,1.96,1.61,2.09,.86,.1,1.62-.24,2.28-.78,.47-.38,.83-.87,1.23-1.31,.21-.23,.41-.45,.64-.66,.34-.32,.36-.5,.43,.09,.01,.09,.07,.14,.17,.13,1.73-.34,2.95-2.18,3.99-3.44,1.13-1.36,2.43-2.64,3.87-3.68,.35-.25,.73-.51,1.13-.69,.56-.25,1.35-.51,.83,.43-.58,1.04-1.62,1.79-2.38,2.7-.53,.63-1.58,2.17-.5,2.78,1.18,.67,3-.65,3.88-1.29,1.34-.99,3.03-2.4,3.4-4.13,.19-.87-.05-1.76-1.07-1.43Z"/>
            <path class="cls-7" d="M91.93,25.38c-1.88,.09-2.96,2.14-3.86,3.54-.29,.45-.56,.92-.92,1.32-.13,.14-.78,.88-1.01,.78-.44-.18,.1-.93,.24-1.14,.6-.91,1.54-1.5,1.69-2.65,0-.06-.05-.12-.1-.13-1.86-.4-2.84,1.08-3.5,2.61-.4,.93-.69,1.91-1.28,2.74-1.04,1.46-2.78,2.75-4.65,2.43-.05,0-.07,.06-.02,.07,2.23,.69,4.51-1.37,5.42-3.25,.45-.92,.72-1.91,1.22-2.8,.33-.59,.75-1.18,1.39-1.46,.52-.23,1.17-.42,1,.54-.06,.36-.54,.72-.78,.99-.31,.37-1.48,1.56-1.07,2.12,.31,.43,.85,.04,1.16-.21,1.8-1.46,2.38-5.08,5.07-5.29,.14-.01,.14-.23,0-.22Z"/>
            <path class="cls-7" d="M84.73,20.34c-.38,.35-2.55,2.33-2.42,.87,.01-.13-.14-.17-.23-.13-.67,.29-1.2,.86-1.72,1.36-.48,.47-1.79,2.04-2.39,1.44-.39-.39,0-.64,.31-1.03,.19-.24,.39-.48,.56-.74,.24-.38,.47-.78,.33-1.24-.02-.06-.08-.12-.14-.11-3.27,.37-5.77,3.28-7.72,5.67-1.73,2.11-3.9,6.65-7.14,6.18,0,0-.01,0,0,.01,2.25,.79,4.2-1.9,5.36-3.41,1.92-2.53,3.89-5.29,6.61-7.04,.6-.39,1.44-.96,2.19-.99,1.14-.05,.1,1.02-.24,1.45-.27,.35-.95,.99-.72,1.51,.7,1.55,3.75-2.01,4.21-2.37,.76-.59,.21-.24,.54,.19,.14,.19,.3,.23,.53,.22,.83-.04,1.77-1.1,2.26-1.68,.08-.1-.05-.24-.15-.15Z"/>
            <path class="cls-7" d="M58.11,60.16c-1.54,0-2.92,.92-4.1,1.82-.57,.44-1.11,.92-1.71,1.33-.35,.24-.75,.52-1.16,.64-.75,.22-.87,.18-.5-.59,.06-.13-.01-.25-.15-.26-1.34-.12-2.62,1.67-3.56,2.39-1.13,.87-2.88,1.54-4.32,1.2-2-.47-1.08-2.25,.28-2.8,0,0,0-.02,0-.01-1.95,.39-2.39,2.69-.21,3.12,1.48,.29,3.17-.29,4.35-1.16,.87-.64,2.02-2.25,3.19-2.38-.08,.21-.16,.42-.25,.64-.04,.09,.04,.19,.12,.22,1.04,.37,2.12-.5,2.88-1.09,1.56-1.19,3.09-2.6,5.12-2.85,.13-.02,.14-.22,0-.22Z"/>
          </g>
          <path class="cls-1" d="M35.84,59.62c-.43,0-.43,.67,0,.67s.43-.67,0-.67Z"/>
          <path class="cls-1" d="M37.92,58.74c-.16,0-.16,.25,0,.25s.16-.25,0-.25Z"/>
          <path class="cls-1" d="M45.38,51.94c-.46,0-.47,.72,0,.72s.47-.72,0-.72Z"/>
          <path class="cls-1" d="M47.77,50.42c-.24,0-.24,.38,0,.38s.24-.38,0-.38Z"/>
          <path class="cls-1" d="M48.46,44.55c-.42,.42-.12,1.21,.49,1.19,.03,0,.07,0,.1,0,.33-.01,.59-.27,.6-.6,0-.03,0-.07,0-.1,.02-.62-.77-.91-1.19-.49Z"/>
          <path class="cls-1" d="M52.81,43.15c-.41-.21-.91-.07-1.26,.2-.32,.24-.49,.65-.27,1.02,.21,.35,.67,.47,1.02,.27,.38-.22,.76-.57,.77-1.03,0-.18-.1-.37-.26-.46Z"/>
          <path class="cls-1" d="M50.87,42.36c0,.14,.02,.24,.11,.35,.15,.2,.39,.2,.53,0,.09-.12,.1-.21,.11-.35,.03-.48-.77-.48-.75,0Z"/>
          <path class="cls-1" d="M32.85,56.82c-.58,0-.58,.89,0,.89s.58-.89,0-.89Z"/>
          <path class="cls-1" d="M34.74,55.27c-.53,0-.53,.82,0,.82s.53-.82,0-.82Z"/>
          <path class="cls-1" d="M33.3,52.58c-.43-.8-1.66-.11-1.2,.67,.44,.75,1.62,.09,1.2-.67Z"/>
          <path class="cls-1" d="M34.94,47.16c-.73,0-.73,1.14,0,1.14s.73-1.14,0-1.14Z"/>
          <path class="cls-1" d="M20.83,62.67c-.47,0-.47,.73,0,.73s.47-.73,0-.73Z"/>
          <path class="cls-1" d="M22.42,61.6c-.44,0-.44,.69,0,.69s.44-.69,0-.69Z"/>
          <path class="cls-1" d="M22.91,63.08c-1.22,0-1.23,1.9,0,1.9s1.23-1.9,0-1.9Z"/>
          <path class="cls-1" d="M15.16,65.36c-.47,0-.47,.73,0,.73s.47-.73,0-.73Z"/>
          <path class="cls-5" d="M14.07,57.08c-.62,0-1.21,.54-1.18,1.18,.03,.64,.52,1.18,1.18,1.18,.62,0,1.21-.54,1.18-1.18-.03-.64-.52-1.18-1.18-1.18Z"/>
          <path class="cls-5" d="M11.31,58.77s.03,.05,.05,.07c.06,.1,.19,.1,.26,0,.02-.02,.03-.05,.05-.07,.26-.38-.61-.38-.35,0Z"/>
          <path class="cls-5" d="M14.07,61.47c-.48,0-.48,.75,0,.75s.48-.75,0-.75Z"/>
          <path class="cls-5" d="M15.16,60.9c-.32,0-.32,.5,0,.5s.32-.5,0-.5Z"/>
          <path class="cls-5" d="M13.37,75.5c-.47,0-.47,.73,0,.73s.47-.73,0-.73Z"/>
          <path class="cls-5" d="M9.77,76.3s-.02,.02-.04,.03c-.13,.12-.05,.33,.1,.38,.03,.01,.06,0,.1,0,.07,0,.11-.05,.15-.1,.19-.22-.1-.51-.32-.32Z"/>
          <path class="cls-5" d="M13.07,67.44c-.6,0-.6,.93,0,.93s.6-.93,0-.93Z"/>
          <path class="cls-5" d="M13.27,68.84c-.47,0-.47,.73,0,.73s.47-.73,0-.73Z"/>
          <path class="cls-5" d="M23.11,61.5c-.31,0-.31,.48,0,.48s.31-.48,0-.48Z"/>
          <path class="cls-5" d="M23.71,62.39c-.32,0-.32,.5,0,.5s.32-.5,0-.5Z"/>
          <path class="cls-5" d="M38.72,63.34c-.52,0-1.01,.45-.99,.99,.02,.54,.43,.99,.99,.99,.52,0,1.01-.45,.99-.99-.02-.54-.43-.99-.99-.99Z"/>
          <path class="cls-5" d="M41.15,64.08s-.06-.01-.09-.02c-.29-.05-.29,.4,0,.34,.03,0,.06-.01,.09-.02,.15-.03,.15-.28,0-.31Z"/>
          <path class="cls-5" d="M33.7,58.95c-1.03,0-1.03,1.6,0,1.6s1.03-1.6,0-1.6Z"/>
          <path class="cls-5" d="M35.76,58.25c-.29-.17-.53,.31-.19,.44,.25,.1,.42-.31,.19-.44Z"/>
          <path class="cls-5" d="M44.19,52.66c-.43,0-.43,.67,0,.67s.43-.67,0-.67Z"/>
          <path class="cls-5" d="M46.77,51.77s-.04,.06,0,.06,.04-.06,0-.06Z"/>
          <path class="cls-5" d="M39.42,42.62c-.3,0-.3,.47,0,.47s.3-.47,0-.47Z"/>
          <path class="cls-5" d="M41.18,41.18s-.02-.04-.03-.06c-.22-.41-.79,.16-.38,.38,.02,.01,.04,.02,.06,.03,.23,.13,.48-.13,.36-.36Z"/>
          <circle class="cls-5" cx="52.44" cy="50.41" r=".82"/>
          <path class="cls-5" d="M54.37,49.42l-.12,.07c-.21,.12,.08,.42,.2,.2l.07-.12c.06-.1-.06-.21-.15-.15Z"/>
          <path class="cls-5" d="M53.36,47.9c-.12-.45-.5-.77-.96-.83-.63-.08-1.17,.33-1.37,.91-.03,.1-.03,.2-.02,.3-.01,.31,.12,.63,.41,.77,.45,.22,.98,.36,1.45,.09,.43-.25,.63-.77,.5-1.25Z"/>
          <path class="cls-5" d="M55.82,44.18c-.47,0-.47,.73,0,.73s.47-.73,0-.73Z"/>
          <path class="cls-5" d="M64.85,35.52c-.21-.11-.37-.15-.6-.18-.3-.04-.6,.17-.77,.42-.28,.08-.55,.22-.74,.35-.61,.42-1.06,1.26-.83,2,.11,.34,.46,.69,.85,.65,1.19-.13,2.46-1.18,2.56-2.43,.02-.31-.19-.67-.47-.81Z"/>
          <path class="cls-5" d="M62.68,34.94c-.34,0-.34,.52,0,.52s.34-.52,0-.52Z"/>
          <path class="cls-5" d="M77.28,43.33c-.4,.11-1.01,.07-1.06,.62,0,.09,.09,.18,.18,.18,.46-.01,.57-.54,.91-.75,.03-.02,0-.06-.02-.05Z"/>
          <path class="cls-5" d="M57.36,53.83s-.05-.03-.07-.05c-.23-.15-.53,.05-.53,.31s.31,.46,.53,.31c.02-.02,.05-.03,.07-.05,.19-.13,.19-.39,0-.52Z"/>
          <path class="cls-5" d="M78.38,42.02s.03,.05,.04,.08c.03,.05,.1,.05,.13,0,.01-.03,.03-.05,.04-.08,.12-.23-.33-.23-.21,0Z"/>
          <path class="cls-5" d="M76.85,42.1s-.07,.06-.11,.08c-.12,.09,.04,.25,.13,.13,.03-.04,.06-.07,.08-.11,.04-.06-.04-.15-.1-.1Z"/>
          <path class="cls-5" d="M78.78,43.69c0-.43-.68-.55-.77-.1,0,.02,0,.04-.01,.06-.13,.58,.8,.68,.79,.11,0-.02,0-.04,0-.06Z"/>
          <path class="cls-5" d="M82.96,40.04s-.04,.06,0,.06,.04-.06,0-.06Z"/>
          <path class="cls-5" d="M84.06,35.59s-.04-.03-.05-.05c-.09-.08-.22-.08-.32,0-.02,.02-.04,.03-.05,.05-.2,.18-.04,.51,.21,.51s.41-.33,.21-.51Z"/>
          <path class="cls-5" d="M86.63,34.18s-.04,.06,0,.06,.04-.06,0-.06Z"/>
          <path class="cls-5" d="M88.42,32.49s-.04,.06,0,.06,.04-.06,0-.06Z"/>
          <path class="cls-5" d="M91.5,28.22c-.54,0-.54,.84,0,.84s.54-.84,0-.84Z"/>
          <path class="cls-5" d="M93.89,26.17c-.37,0-.37,.58,0,.58s.37-.58,0-.58Z"/>
          <path class="cls-5" d="M95.98,24.43c-.43,0-.43,.67,0,.67s.43-.67,0-.67Z"/>
          <path class="cls-5" d="M93.89,28.2c-.44,0-.44,.69,0,.69s.44-.69,0-.69Z"/>
          <path class="cls-5" d="M93.06,27.43c-.02-.32-.34-.59-.67-.49-.18,.06-.29,.15-.4,.31-.23,.35,.04,.81,.42,.86,.35,.05,.76-.3,.64-.68Z"/>
          <path class="cls-5" d="M90.31,38.26c-.42,0-.42,.65,0,.65s.42-.65,0-.65Z"/>
          <path class="cls-5" d="M93,35.17s-.04,.06,0,.06,.04-.06,0-.06Z"/>
          <path class="cls-5" d="M93.59,34.38s-.04,.06,0,.06,.04-.06,0-.06Z"/>
          <path class="cls-5" d="M93.29,35.47s-.04,.06,0,.06,.04-.06,0-.06Z"/>
          <path class="cls-5" d="M58.5,54.99c-.5,0-.5,.78,0,.78s.5-.78,0-.78Z"/>
          <path class="cls-5" d="M61.98,53.69c-.52,0-.52,.8,0,.8s.52-.8,0-.8Z"/>
          <path class="cls-5" d="M71.13,49.99c-.67,0-.67,1.04,0,1.04s.67-1.04,0-1.04Z"/>
          <path class="cls-5" d="M62.97,50.92c-.62,0-.62,.97,0,.97s.62-.97,0-.97Z"/>
          <path class="cls-5" d="M52.54,63.76c-.47,0-.87,.4-.87,.87s.4,.87,.87,.87,.87-.4,.87-.87-.4-.87-.87-.87Z"/>
          <path class="cls-5" d="M61.68,61.16c-.62,0-.62,.97,0,.97s.62-.97,0-.97Z"/>
          <path class="cls-5" d="M67.05,59.32c-.68,0-.68,1.06,0,1.06s.68-1.06,0-1.06Z"/>
          <path class="cls-5" d="M71.72,23.95c-.54,0-.54,.84,0,.84s.54-.84,0-.84Z"/>
          <path class="cls-5" d="M74.21,22.55s-.04,.06,0,.06,.04-.06,0-.06Z"/>
          <path class="cls-5" d="M85.48,10.94c-.07-.01-.14,0-.2,.04-.1,.07-.17,.14-.2,.26-.1,.39,.39,.69,.68,.4,.26-.26,.05-.68-.29-.69Z"/>
          <path class="cls-5" d="M88.42,8.15c-.41,0-.41,.63,0,.63s.41-.63,0-.63Z"/>
          <path class="cls-5" d="M87.03,6.47c-.38,0-.38,.6,0,.6s.38-.6,0-.6Z"/>
          <path class="cls-5" d="M87.37,8.96c-.38-.38-.96-.26-1.25,.16l-.03,.04c-.47,.68,.43,1.43,1.07,1.07,.02,0,.03-.02,.05-.03,.45-.25,.52-.9,.16-1.25Z"/>
          <path class="cls-5" d="M88.62,6.37c-.26,0-.26,.41,0,.41s.26-.41,0-.41Z"/>
          <path class="cls-5" d="M90.11,4.93c-.32,0-.32,.5,0,.5s.32-.5,0-.5Z"/>
          <path class="cls-5" d="M61.89,22.75s-.02,.03-.03,.04c-.07,.11-.07,.26,0,.37l.03,.04c.23,.37,.83,.23,.83-.23s-.6-.59-.83-.23Z"/>
          <path class="cls-5" d="M61.28,25.04s-.07,0-.1,0c-.8-.08-.8,1.32,0,1.25,.03,0,.07,0,.1,0,.79-.07,.79-1.16,0-1.23Z"/>
          <path class="cls-5" d="M62.78,24.52c-.44,0-.44,.69,0,.69s.44-.69,0-.69Z"/>
          <path class="cls-5" d="M64.47,21.85c-.48,0-.94,.42-.92,.92,.02,.5,.4,.92,.92,.92,.48,0,.94-.42,.92-.92-.02-.5-.4-.92-.92-.92Z"/>
          <path class="cls-5" d="M66.65,17.84c-.47,0-.47,.73,0,.73s.47-.73,0-.73Z"/>
          <path class="cls-5" d="M69.63,17.4c-.14,0-.14,.22,0,.22s.14-.22,0-.22Z"/>
          <path class="cls-5" d="M67.75,20.86s-.04,.06,0,.06,.04-.06,0-.06Z"/>
          <path class="cls-5" d="M58.4,22.32c-.46,0-.46,.71,0,.71s.46-.71,0-.71Z"/>
          <path class="cls-5" d="M55.62,27.15c-.64,0-.64,.99,0,.99s.64-.99,0-.99Z"/>
          <path class="cls-5" d="M70.23,13.4c-.42,0-.42,.65,0,.65s.42-.65,0-.65Z"/>
          <path class="cls-5" d="M70.47,15.2c-.98,0-.98,1.53,0,1.53s.98-1.53,0-1.53Z"/>
          <path class="cls-5" d="M67.28,15.71c-.29,.52,.54,.91,.77,.32,.17-.44-.53-.73-.77-.32Z"/>
          <path class="cls-5" d="M96.78,13.32c-.36-.36-1.03-.3-1.28,.16l-.04,.08c-.37,.7,.37,1.45,1.07,1.07l.08-.04c.47-.25,.52-.92,.16-1.28Z"/>
          <path class="cls-5" d="M98.16,11.26c-.49,0-.49,.76,0,.76s.49-.76,0-.76Z"/>
          <path class="cls-5" d="M100.45,12.01c-.3,0-.3,.47,0,.47s.3-.47,0-.47Z"/>
          <path class="cls-5" d="M96.08,17.31c-.64,0-.64,.99,0,.99s.64-.99,0-.99Z"/>
          <path class="cls-5" d="M94.46,19.62s-.02-.02-.03-.04c-.1-.14-.31-.28-.5-.2-.02,0-.04,.01-.05,.02-.32,.13-.41,.54-.1,.75,.03,.02,.06,.04,.08,.06,.34,.25,.84-.25,.59-.59Z"/>
          <path class="cls-5" d="M97.67,16c-.41,0-.41,.63,0,.63s.41-.63,0-.63Z"/>
          <path class="cls-5" d="M96.04,19.18s-.05-.02-.08-.04c-.51-.23-1.14,.04-1.14,.66s.63,.89,1.14,.66c.03-.01,.05-.02,.08-.04,.47-.21,.47-1.03,0-1.24Z"/>
          <path class="cls-5" d="M89.12,15.55c-.47,0-.47,.73,0,.73s.47-.73,0-.73Z"/>
          <path class="cls-5" d="M91.21,13.12c-.66,0-.66,1.03,0,1.03s.66-1.03,0-1.03Z"/>
          <path class="cls-5" d="M90.51,9.11c-.96,0-.96,1.49,0,1.49s.96-1.49,0-1.49Z"/>
          <path class="cls-5" d="M94.27,7.45c-.06-.09-.12-.17-.22-.23-.2-.11-.44-.05-.56,.15,0,0-.01,.02-.02,.03-.09,.15-.07,.29,0,.4,.18,.6,1.15,.16,.79-.35Z"/>
          <path class="cls-5" d="M92.9,10.43c-.41,0-.41,.63,0,.63s.41-.63,0-.63Z"/>
          <path class="cls-5" d="M82.16,38.35c-.68,0-.68,1.06,0,1.06s.68-1.06,0-1.06Z"/>
          <path class="cls-5" d="M86.43,36.17c-.94,0-.94,1.45,0,1.45s.94-1.45,0-1.45Z"/>
          <path class="cls-5" d="M93.89,31.38c-.95,0-.95,1.47,0,1.47s.95-1.47,0-1.47Z"/>
          <path class="cls-5" d="M91.26,34.46l-.05,.05c-.69,.6,.4,1.69,1,1,.02-.02,.03-.04,.05-.05,.59-.69-.31-1.59-.99-.99Z"/>
          <path class="cls-5" d="M93.79,33.66c-.44,0-.44,.69,0,.69s.44-.69,0-.69Z"/>
          <path class="cls-5" d="M86.53,40.04c-.68,0-.68,1.06,0,1.06s.68-1.06,0-1.06Z"/>
          <path class="cls-5" d="M84.15,41.78c-.74,0-.74,1.16,0,1.16s.74-1.16,0-1.16Z"/>
          <path class="cls-5" d="M75,19.85c-.56,0-.56,.88,0,.88s.56-.88,0-.88Z"/>
          <path class="cls-5" d="M77.09,18.07c-.68,0-.68,1.06,0,1.06s.68-1.06,0-1.06Z"/>
          <path class="cls-5" d="M74.01,14.37c-1.09,0-1.09,1.7,0,1.7s1.09-1.7,0-1.7Z"/>
          <path class="cls-5" d="M75.92,11.83l-.07-.05c-.19-.13-.45,.04-.45,.26s.26,.39,.45,.26l.07-.05c.16-.11,.16-.31,0-.42Z"/>
          <path class="cls-5" d="M77.59,11.99c-.44,0-.44,.69,0,.69s.44-.69,0-.69Z"/>
          <path class="cls-5" d="M76.39,15.14c-.88,0-.88,1.36,0,1.36s.88-1.36,0-1.36Z"/>
          <path class="cls-5" d="M38.72,34.32c-.17,.07-.29,.14-.38,.31-.19,.34,.01,.77,.4,.82,.34,.05,.66-.25,.62-.59,.04-.32-.33-.66-.64-.53Z"/>
          <path class="cls-5" d="M41.93,34.09l-.02-.07c-.03-.11-.12-.19-.22-.22-.02,0-.04-.01-.07-.02-.42-.11-.74,.42-.43,.73,.31,.31,.84,0,.73-.43Z"/>
          <path class="cls-5" d="M36.09,39.09l-.03-.04c-.14-.21-.49-.13-.49,.13s.35,.35,.49,.13c0-.01,.02-.03,.03-.04,.03-.05,.03-.13,0-.18Z"/>
          <path class="cls-5" d="M35.58,39.11c-.49-.38-1.3-.4-1.74,.1-.33,.38-.59,.92-.42,1.44,.17,.53,.61,.94,1.2,.95,.58,0,1-.32,1.3-.78,.36-.55,.15-1.33-.34-1.71Z"/>
          <path class="cls-5" d="M38.11,38.61s-.05,.03-.08,.04c-.25,.13-.25,.53,0,.66,.03,.01,.05,.03,.08,.04,.28,.15,.65-.03,.65-.37s-.36-.52-.65-.37Z"/>
          <path class="cls-5" d="M37.23,41.04c-.55,0-.55,.86,0,.86s.55-.86,0-.86Z"/>
          <path class="cls-5" d="M34.84,51.48c-.54,0-.54,.84,0,.84s.54-.84,0-.84Z"/>
          <path class="cls-5" d="M37.53,50.08s-.04,.06,0,.06,.04-.06,0-.06Z"/>
          <path class="cls-5" d="M33.55,55.35c-.42,0-.42,.65,0,.65s.42-.65,0-.65Z"/>
          <path class="cls-5" d="M37.63,74.66c-.13,0-.13,.21,0,.21s.13-.21,0-.21Z"/>
          <path class="cls-5" d="M37.71,76.15s-.02-.03-.03-.04c-.16-.24-.56-.15-.56,.15s.4,.4,.56,.15c0-.01,.02-.03,.03-.04,.04-.06,.04-.15,0-.22Z"/>
          <path class="cls-5" d="M39.81,75.03s-.04,.06,0,.06,.04-.06,0-.06Z"/>
          <path class="cls-5" d="M33.15,76.46c-.76,0-.76,1.17,0,1.17s.76-1.17,0-1.17Z"/>
          <path class="cls-5" d="M29.97,78.63c-.66,0-.66,1.03,0,1.03s.66-1.03,0-1.03Z"/>
          <path class="cls-5" d="M19.04,80.55c-.74,0-.74,1.16,0,1.16s.74-1.16,0-1.16Z"/>
          <path class="cls-5" d="M17.14,79.95c-.06-.22-.34-.29-.5-.13s-.08,.44,.13,.5c0,0,.01,0,.02,0,.1,.13,.28,.11,.34-.04,.04-.11,.04-.21,0-.33Z"/>
          <path class="cls-5" d="M14.66,79.71s-.04,.06,0,.06,.04-.06,0-.06Z"/>
          <path class="cls-5" d="M14.56,79.9s-.04,.06,0,.06,.04-.06,0-.06Z"/>
          <path class="cls-5" d="M14.17,81.3s-.04,.06,0,.06,.04-.06,0-.06Z"/>
          <path class="cls-5" d="M16.25,82.25c-.48,0-.48,.75,0,.75s.48-.75,0-.75Z"/>
          <path class="cls-5" d="M18.04,83.68s-.04,.06,0,.06,.04-.06,0-.06Z"/>
          <path class="cls-5" d="M19.14,82.96c-.84,0-.84,1.3,0,1.3s.84-1.3,0-1.3Z"/>
          <path class="cls-5" d="M21.32,82.46c-.59,0-.59,.91,0,.91s.59-.91,0-.91Z"/>
          <path class="cls-5" d="M17.84,82.06c-.34,0-.34,.52,0,.52s.34-.52,0-.52Z"/>
          <path class="cls-5" d="M25.1,81.12c-1.03,0-1.03,1.6,0,1.6s1.03-1.6,0-1.6Z"/>
          <path class="cls-5" d="M27.09,80.14c-.64,0-.64,.99,0,.99s.64-.99,0-.99Z"/>
          <path class="cls-5" d="M27.91,82s-.05-.03-.08-.04c-.2-.1-.45,.02-.45,.26s.25,.36,.45,.26c.03-.01,.05-.03,.08-.04,.16-.09,.16-.35,0-.43Z"/>
          <path class="cls-5" d="M14.96,79.31c-.67,0-.67,1.04,0,1.04s.67-1.04,0-1.04Z"/>
          <path class="cls-5" d="M21.32,78.88c-.72,0-.72,1.12,0,1.12s.72-1.12,0-1.12Z"/>
          <path class="cls-5" d="M7.51,77.45c-.25,0-.25,.39,0,.39s.25-.39,0-.39Z"/>
          <path class="cls-5" d="M9.4,77.25c-.52,0-.52,.8,0,.8s.52-.8,0-.8Z"/>
          <path class="cls-5" d="M5.02,73.16c-.41,0-.41,.63,0,.63s.41-.63,0-.63Z"/>
          <path class="cls-5" d="M4.23,69.58s-.02-.03-.03-.04c-.17-.26-.59-.16-.59,.16s.42,.42,.59,.16c0-.01,.02-.03,.03-.04,.04-.07,.04-.17,0-.24Z"/>
          <path class="cls-5" d="M5.02,69.57s-.04,.06,0,.06,.04-.06,0-.06Z"/>
          <path class="cls-5" d="M3.03,67.38c-.29,0-.29,.45,0,.45s.29-.45,0-.45Z"/>
          <path class="cls-5" d="M4.79,66.03s-.03-.02-.04-.03c-.07-.05-.18-.05-.25,0-.01,0-.03,.02-.04,.03-.28,.18-.17,.63,.17,.63s.45-.45,.17-.63Z"/>
          <path class="cls-5" d="M1.54,68.94c-.5,0-.97,.44-.95,.95,.02,.51,.42,.95,.95,.95,.5,0,.97-.44,.95-.95-.02-.52-.42-.95-.95-.95Z"/>
          <path class="cls-5" d="M2.34,65.02c-.52,0-.52,.8,0,.8s.52-.8,0-.8Z"/>
          <path class="cls-5" d="M5.12,74.6c-.85,0-.85,1.32,0,1.32s.85-1.32,0-1.32Z"/>
          <path class="cls-5" d="M5.02,76.9c-.71,0-.71,1.1,0,1.1s.71-1.1,0-1.1Z"/>
          <path class="cls-5" d="M10.69,54c-.5,0-.5,.78,0,.78s.5-.78,0-.78Z"/>
          <path class="cls-5" d="M12.87,53.33c-.47,0-.47,.73,0,.73s.47-.73,0-.73Z"/>
          <path class="cls-5" d="M13.09,55.24l-.03-.04c-.29-.46-1.04-.29-1.04,.28s.75,.74,1.04,.28c0-.01,.02-.03,.03-.04,.09-.14,.09-.34,0-.48Z"/>
          <path class="cls-5" d="M15.96,54.56s-.04,.06,0,.06,.04-.06,0-.06Z"/>
          <circle class="cls-5" cx="11.98" cy="51.8" r=".89"/>
          <path class="cls-5" d="M15.26,52.16c-.43,0-.43,.67,0,.67s.43-.67,0-.67Z"/>
          <path class="cls-5" d="M5.52,61.81c-.68,0-.68,1.06,0,1.06s.68-1.06,0-1.06Z"/>
          <path class="cls-5" d="M6.11,58.58c-1,0-1,1.55,0,1.55s1-1.55,0-1.55Z"/>
          <path class="cls-5" d="M33.95,78.9c-.7,0-.7,1.08,0,1.08s.7-1.08,0-1.08Z"/>
          <path class="cls-5" d="M31.07,75.9c-.34,0-.34,.52,0,.52s.34-.52,0-.52Z"/>
          <path class="cls-5" d="M33.95,74.1c-.85,0-.85,1.32,0,1.32s.85-1.32,0-1.32Z"/>
          <path class="cls-5" d="M36.29,76.69s-.06-.01-.09-.02c-.38-.07-.75,.17-.75,.58s.38,.65,.75,.58c.03,0,.06-.01,.09-.02,.55-.1,.55-1.01,0-1.11Z"/>
          <path class="cls-5" d="M30.07,73.48l-.03,.04c-.09,.14-.09,.36,0,.5,0,.01,.02,.03,.03,.04,.31,.46,1.07,.3,1.07-.29s-.76-.75-1.07-.29Z"/>
          <path class="cls-5" d="M38.32,71.9c-.23,0-.23,.35,0,.35s.23-.35,0-.35Z"/>
          <path class="cls-5" d="M41.6,70.3c-.5,0-.5,.78,0,.78s.5-.78,0-.78Z"/>
          <path class="cls-5" d="M39.56,68.93c-.2-.04-.36-.03-.56,0-.42,.08-.66,.59-.55,.97,.11,.41,.5,.59,.89,.56,.35,0,.67-.19,.77-.56,.11-.39-.13-.9-.55-.97Z"/>
          <path class="cls-5" d="M16.35,49.75c-.72,0-.72,1.12,0,1.12s.72-1.12,0-1.12Z"/>
          <path class="cls-5" d="M17.75,47.25c-.49,0-.49,.76,0,.76s.49-.76,0-.76Z"/>
          <path class="cls-5" d="M16.17,46.85s-.05,0-.07-.01c-.64-.1-1.25,.31-1.15,1.01,.09,.69,.79,.94,1.37,.67,.02-.01,.04-.02,.07-.03,.67-.31,.53-1.53-.22-1.65Z"/>
          <path class="cls-5" d="M20.03,44.31c-.56,0-.56,.88,0,.88s.56-.88,0-.88Z"/>
          <path class="cls-5" d="M22.02,42.44c-.41,0-.41,.63,0,.63s.41-.63,0-.63Z"/>
        </g>
      </g>
    </g>
  </g>
</svg>