<svg xmlns="http://www.w3.org/2000/svg" viewBox="0 0 68.84 68.84">
  <defs>
    <style>
      .cls-1,
      .cls-2,
      .cls-3,
      .cls-4,
      .cls-5,
      .cls-6,
      .cls-7 {
        opacity: .72;
      }

      .cls-1,
      .cls-8 {
        mix-blend-mode: multiply;
      }

      .cls-2 {
        fill: #edd8ab;
      }

      .cls-9 {
        isolation: isolate;
      }

      .cls-10,
      .cls-11,
      .cls-7 {
        fill: #96c4d1;
      }

      .cls-10,
      .cls-12 {
        opacity: .83;
      }

      .cls-3 {
        fill: #5c2000;
      }

      .cls-4 {
        fill: #913e12;
      }

      .cls-11 {
        opacity: .89;
      }

      .cls-13 {
        fill: #faeccf;
      }

      .cls-5 {
        fill: #c6aa89;
      }

      .cls-12 {
        fill: #205673;
      }

      .cls-12,
      .cls-14,
      .cls-15,
      .cls-16 {
        mix-blend-mode: overlay;
      }

      .cls-6 {
        fill: #f2902b;
      }

      .cls-14 {
        opacity: .3;
      }

      .cls-15 {
        opacity: .44;
      }

      .cls-17 {
        fill: #9f9cad;
      }

      .cls-16 {
        fill: #05afea;
        opacity: .21;
      }

      .cls-8 {
        opacity: .46;
      }

      .cls-18 {
        fill: #8d705c;
      }
    </style>
  </defs>
  <g class="cls-9">
    <g id="Layer_2" data-name="Layer 2">
      <g id="icons_planets">
        <g>
          <circle class="cls-18" cx="34.42" cy="34.42" r="34.41" transform="translate(-12.97 23.3) rotate(-31.8)" />
          <path class="cls-3"
            d="M68.76,32.16c-.12,0-.25,0-.37,0,.11-.16,.22-.33,.33-.49-.46-5.73-2.35-11.17-5.39-15.89-6.19-3.07-14.71-3.21-20.39-3.56l-35.39,.96c-.09,.01-.17,.04-.26,.05-2.98,3.81-5.2,8.3-6.38,13.32-2.39,10.19,.03,20.38,5.76,28.21,6.39,2.09,12.51,3.82,19.48,4.34,6.8,.51,13.83-.02,20.65-.02,2.16,0,4.39,.18,6.49-.32,3.03-.72,4.92-2.89,7.51-4.48,.89-.54,1.69-.9,2.48-1.15,2.1-3.24,3.69-6.89,4.63-10.87,.8-3.4,1.06-6.8,.84-10.12Z" />
          <path class="cls-11"
            d="M59.35,10.71c-2.43-.59-5.08-.59-7.77-.47-2.07,.1-4.46-.31-6.57-.1-.55,.05-.89-.72-1.51-.61-.55,.09-.87,1.2-1.59,1.34-1.19,.22-2.42-.1-3.62,.17-2.84,.65-3.73,1.13-6.52,.89-2.99-.26-5.93-.79-8.97-1.18-1.99-.26-3.53,.37-5.5,.26-1.83-.1-3.21-1.33-5.07-1.36-.5,0-1.22,.09-1.96,.25-1.75,1.72-3.34,3.64-4.7,5.73l1-.1c3.71,4.15,5.09,.03,9.02,.2,2.5,.11,6.59,5.77,8.04,1.33,.51,.21,1.25,.12,1.63,.26,.11-.32,.09-.6,.24-.94,3.18,.67,12.11,5.65,14.93,3.3,2.09-1.74-.19-2.29,2.64-3.14,.89-.26,4.27-.21,5.4,.32,1.17-1.59,6.54-1.37,8.43-1.02,1.88,.34,5.46,3.27,6.96,2.66,.09,.73,.79,1.36,.91,2.01,.35-.12,.65-.27,.91-.43-1.58-3.45-3.73-6.63-6.35-9.39Z" />
          <path class="cls-7"
            d="M67.76,25.9c-.26-1.01-.56-2.01-.91-2.99-.85,.08-1.69,.24-2.56-.07-1.37-.5-2.32-2.44-3.79-2.98-4.06-1.5-8.71-.2-12.76,.02-1.2,.07-2.38-.61-3.65-.33-1.19,.27-1.57,1.17-2.49,1.53-2.38,.94-5.53,1.46-8.15,1.03-1.24-.2-2.46-1.13-3.73-.93-1.5,.24-2.12,1.98-3.99,1.88-1.54-.08-1.76-1.23-3.02-1.61-1.48-.45-2.6,.13-4.01-.01-1.29-.13-2.4-1.1-3.5-1.18-1.5-.11-2.66,.7-4.01,.71-3.35,.02-5.49-1.38-7.66-1.74-.95,1.93-1.72,3.97-2.31,6.12,1.81-.78,3.8-1.83,5-1.59-.33,2.77,3.56,3.33,5.41,2.54,.29,6.07,8.62-.37,10.73-.36,2.17,0,11.36,7.48,12.36,2.58,.68,1.24,2.28,1.67,3.43,.58,1.07,.86,4.31,1.2,5.67,.69,1.82-.67,2.55-3.23,4.53-3.54,2.89-.44,7.08,4.12,9.18-.53,.2,2.79,7.02,2.52,10.21,.18Z" />
          <path class="cls-10"
            d="M68.64,30.82c-5.59-.71-11.15,.53-16.59,1.85-2.38,.58-10.77-.1-11.07,1.52-1.12-.55-2.85-.93-4.12-.62-.57,.14-1.67,1.55-1.94,1.54-1.36-.05-1.62-1.53-3.13-2-1.88-.57-2.62,.63-4.28,.83-2.76,.33-5.03-.58-7.97-.05-3.96,.72-5.47,.66-11.01,.32-2.44,.25-5.81-1.49-8.47-1.3-.15,3.35,.2,6.65,.98,9.8,3.22,.67,6.9,.38,10.04,1.15,5.81,1.42,12.96,2.03,19.14,1.2,3.63-.48,5.36-1.13,8.53,.38,1.74,.83,3.77,2.16,6.06,.6,1.06,2.72,4.08,.27,6.06,.2,1.96-.06,3.28,.29,5.67-.24,3.41-.76,7.77-1.53,11.28-3.27,.04-.16,.09-.31,.12-.47,.91-3.86,1.11-7.72,.72-11.45Z" />
          <path class="cls-7"
            d="M64.25,51.57c-2.99-.28-6.95,2.37-9.24,2.42-1.24-2.37-7.83,1.48-10.5,1.02-1.92-.33-3.17-2.14-4.86-2.25-1.76-.11-4.47,1.46-6.35,1.76-1.57,.25-3.39,.83-4.89,.18-.66-.28-1.45-1.82-2.08-1.96-1.11-.24-1.14,.54-2.3,.79-3.9,.85-11,3.31-14.98-.13-.78,.1-1.81,.38-2.81,.77,1.51,2.16,3.27,4.14,5.24,5.91,1.84-.3,3.58-.94,4.82-1.86,.45,2.06,2.46,2.03,4.22,2.2,1.02,.1,1.96-.31,2.74-.2,1.11,.16,2.65,.85,3.79,1.17,3.66,1.04,6.58,.6,10.37-.06,1.71-.3,5.32-1.72,6.85-1.41,1.35,.28,2.35,1.85,4.14,2.37,1.57,.46,3.57,.55,5.45,.49,4.2-2.88,7.77-6.7,10.38-11.23Z" />
          <path class="cls-6"
            d="M18.4,53.99c-3.35,1.9-13.62,.49-9.01-5.19,2.62-3.22,11.32-3.67,14.04-.47,2.96,3.48-1.18,4.08-4.07,5.02l-.96,.64Z" />
          <path class="cls-6"
            d="M53.78,54.95c-1.33-1.2-3.18-.26-4.73,.37-.09,.48-.11,1,0,1.48,1.69,.76,3.59,1.09,5.04-.26l-.32-1.59Z" />
          <path class="cls-6"
            d="M66.22,46.02c1.06-2.53-2.69-2.34-3.84-.75,.56-4.21-5.19-4.13-7.31-1.94-2.15-1.18-4.6-.26-6.38,1.28-1.7-2.55-4.65-1.69-6.93-.54-1.41-4.72-12.79-2.26-15.4,.35-4.45,4.46,9.18,4.61,11.83,3.31-.21,4.79,6.68,1.09,8.33-.08,2.01,1.49,4.29,1.65,5.92-.32,1.01,1.72,3.91,.91,4.76-.65,1.58,2.97,8.94,4.49,9.01-.66Z" />
          <path class="cls-6"
            d="M67.11,23.68c-1.29-.75-2.83-.58-3.75,1.67-1.85-1.59-6.58-5.26-7.9-1.12-2.67-2.03-3.21,.24-5.36,.59-1.91,.31-2.46-.55-4.45-.96-3.18-.65-3.21,1.04-6.02,2.1-3.05,1.15-4.55-.88-7.21-1.7-3.03-.94-3.99,1.05-6.37,1.07-1.64,0-2.55-1.87-4.38-1.58-.94,.15-1.67,1.64-2.64,1.82-1,.19-1.48-.5-2.21-.52-2.19-.07-4.83,.08-8.3-.07,1.61-3.13-3.49-4.31-5.19-1.95-.37-.29-.75-.52-1.13-.68-.51,1.36-.94,2.76-1.28,4.21-.4,1.71-.67,3.43-.8,5.13,2.48,.93,5.68,.58,7.7-.61,1.82,2.72,3.69,2.13,6.38,1.8,2.16-.26,5.22-.28,7.72-1.71,1.36,5.48,7.43,.35,10.36,.18,2.8-.17,4.82,2.07,8.09,1.37,2.4-.51,3.35-1.25,6.12-1.11,.9,.05,1.66,.52,2.57,.4,1.49-.19,2.32-1.51,3.46-1.73,1.87-.36,1.69,.39,3.64,1.04,3.25,1.09,3.68-.68,5.9-1.56,2.46-.97,2.07,.3,4.48,0,.83-.1,1.44-.33,1.88-.66-.29-1.85-.72-3.67-1.3-5.43Z" />
          <path class="cls-12"
            d="M68.74,36.92c-.76-.4-1.57-.78-2.22-1.34-.28,1.12-.46,2.4-.38,3.58-3.75,.39-5.9-4.3-10.15-3.92-.13,.88-.42,1.57-.11,2.48-1.29,.17-2.66-.16-3.78-.49,.06,.41-.16,.94-.11,1.35-2.53,.36-12.08-4.68-12.02-.57-2.44-.61-8.68-4.75-9.57,.01-1.39-1.27-3.38-1.18-3.16,.78-2.21-.85-4.55-1.31-5.59,.94-1.88-.82-8.83-6.05-9.28-1.15-1.09-.91-4.25-3.59-4.97-.86-.93-1.1-2.71-1.24-3.46,2.03,.52-1.79-2.18-4.43-3.93-4.33,.06,1.89,.27,3.75,.63,5.58,1.42,1.25,3.36,2.14,5.01,2.14,.88-2.96,3.86,.15,5.72,.77,3.58,1.19,4.17-.07,2.09-2.43,.16-.12,.59-.47,.74-.6,1.93,1.31,3.81,2.37,6.29,2.85,.7-2.21,1.25-2.11,3.62-1.75,1.01,.15,1.72,1.37,3.09,1.17,1.1-.16,1.85-1.62,2.74-2.11,2.45-1.36,4.51-1.63,7.07-.56,1.46,.61,3.77,3.64,4.48,1.05,1.57-.64,3,.27,3.76,1.36-.26-2.42,4.17-3.2,5.76-1.22-.05-.3-.06-.64-.08-.94,2.31,.8,6.64,1.64,6.13-1.51,1.75,1.98,3.4,3.52,5.59,.81,.96,1.72,2.83,1.98,4.89,2.27,.12-.52,.35-.95,.64-1.35,.26-1.35,.44-2.69,.54-4.03Z" />
          <path class="cls-12"
            d="M12.98,13.83c-.52-1.81-3.83-2.3-3.22-.06-1.32-.2-2.45,.42-2.87,1.66,1.2,1.91,4.19,.81,5.85,.4,.9-.22,1.85-1.03,2.8-1.07,.88-.03,1.24,1.03,2.54,.8,1.4,1.15,5.01-.08,6.85-.15,2.63-.1,5.82,1.95,8.09,.7,.46,2.13,3.09,1.77,4.26,.33,3.41,2.24,4.12-.18,6.8-.98,.67-.2,2.02,.57,2.92,.55,.86-.02,2.24-.58,3.04-.66,.26-.02,.69,.74,1.2,.68,.59-.06,1.61-.92,2.06-.92,1.04,0,1.58,.33,2.76,.58,1.76,.37,4.92,2.05,5.72-.25-1.3-2.01-4.95-2.27-6.95-2.23-.97,.02-2.53,.57-3.39,.49-.89-.09-1.14-.65-1.79-.74-2.49-.34-3.58,.7-5.93,.87-1.9,.14-3.53-1.01-5.49-.95-1.4,.04-3.13,.48-4.52,.68-3.96,.57-7.46-1.39-11.51,.25-1.08-1.35-8.66-.92-9.23,.04Z" />
          <path class="cls-5"
            d="M46.12,63.87c-3.81,.13-6.66-1.93-10.19-1.92-3.12,.02-6.31,.64-9.56,.64-3.21,0-7.1-2.21-9.83-1.54-.38,.84-1.03,1.32-1.84,1.56,.82,.57,1.66,1.11,2.53,1.62,.81-.2,1.6-.44,2.36-.44,1.14,0,2.65,.56,4.06,.88,7.42,1.66,13.61,1.3,21.04,.8,.87-.06,2.37,.13,3.99,.25,1.52-.7,2.99-1.5,4.4-2.41-2.32,.13-4.59,.48-6.96,.56Z" />
          <path class="cls-5"
            d="M37.6,8.29c2.35-.15,3.91-.6,6.29-.24,3.21,.48,5.46-.38,8.54-.4,1.87,0,3.18,.84,4.81,1.24,0-.09-.02-.18-.03-.27-1.17-1.03-2.41-1.99-3.72-2.86-3.62-.85-8.84-.44-10.87-.33-6.33,.34-12.12-.49-15.29-.64-1.95,.15-3.95,1.01-5.91,.97-1.45-.03-3-.67-4.62-.9-1.24,.74-2.44,1.56-3.58,2.45,.91,.09,1.66,.34,2.05,.93,5.45,1.92,11.63-.29,17.46-.28,1.82,0,3.12,.44,4.87,.33Z" />
          <path class="cls-2"
            d="M62.78,50.98c-.84,1.84-2.69,1.17-4.3,1.39-.56,.08-1,.26-1.46,.58-.36,.26-.67,.6-1.06,.81-.74,.4-1.44,.29-2.18,.03-1.55-.53-2.95-.53-4.56-.2-1.88,.38-3.62,.92-5.54,.35-1.77-.52-3.4-.96-5.27-.97-1.96,0-3.91,.17-5.87,.17-1.92,0-3.89-.32-5.63-1.19-1.65-.83-2.84-2.17-3.97-3.59-.81-1.01-1.59-2.14-2.76-2.79-1.36-.76-2.9-.64-4.38-.36-.19,.04-.15,.35,.05,.34,1.62-.09,3.34-.05,4.63,1.05,1.1,.94,1.89,2.25,2.83,3.34,2.41,2.8,5.74,4.02,9.39,3.9,2.04-.06,4.02-.59,6.07-.53,1,.03,2,.14,2.96,.44,1.03,.32,2.01,.8,3.09,.96,1.58,.22,3.03-.23,4.56-.53,1.06-.21,2.28-.4,3.34-.11,.84,.23,1.57,.65,2.47,.57,.78-.07,1.31-.5,1.91-.97,.96-.76,1.86-.73,3.02-.73,1.44,0,2.68-.28,3.2-1.77,.11-.31-.39-.53-.53-.22Z" />
          <path class="cls-2"
            d="M20.59,48.83c-1.7-1.67-5.06-1.81-7.26-1.59-2.3,.22-5.6,1.31-4.83,4.21,0,.03,.05,.02,.05,0-.39-4.81,7.83-4.27,10.55-2.97,.64,.31,1.51,.81,1.59,1.6,.1,.91-.91,1.77-1.61,2.18-1.23,.7-8.75,3.03-8.46,.07,.16-1.58,2.99-2.05,4.19-2.09,.6-.02,1.9-.05,2.35,.46,.31,.36,.13,.11-.09,.46-.24,.38-.82,.64-1.23,.79-.71,.26-1.47,.27-2.22,.22-.3-.02-.29,.43,0,.47,1.7,.2,3.25-.3,4.26-1.71,.06-.09,.03-.23-.04-.3-1.09-1.1-2.97-1.01-4.38-.72-1.17,.24-2.99,.83-3.32,2.17-.34,1.4,1.04,2.1,2.19,2.19,1.94,.16,4.08-.38,5.89-1.05,1.64-.61,4.2-2.58,2.36-4.39Z" />
          <path class="cls-2"
            d="M60.71,52.71c-1.1,.43-2.08,1.01-3.13,1.52-.79,.39-1.77,.82-2.64,.35-.41-.22-.71-.78-1.12-1.04-1.25-.78-2.83-.63-4.23-.43-2.76,.4-5.18,1.87-8.01,.94-2.13-.7-3.07-1.8-5.42-1.41-2.09,.35-5.23,2.76-7.34,2.1-1.31-.41-2.23-1.79-3.81-1.62-.51,.05-.79,.29-1.24,.52-1.4,.7-2.72,.87-4.27,.9-2.56,.04-4.96,.72-7.28,1.79-.24,.11-.08,.42,.12,.45,1.47,.19,2.48-.24,3.89-.62,1.66-.45,3.13-.31,4.81-.44,2.08-.16,3.63-1.82,5.59-.77,1.12,.6,1.67,1.32,3,1.23,2.76-.18,5.24-2.56,8.05-2.23,.97,.11,1.84,.81,2.71,1.19,1.08,.47,2.22,.77,3.4,.8,2.13,.05,4.14-.96,6.2-1.36,1.57-.31,2.85-.56,4.17,.43,.36,.27,.49,.55,.9,.71,1.99,.76,4.46-1.42,5.91-2.4,.3-.2,.12-.76-.26-.61Z" />
          <path class="cls-2"
            d="M38.55,52.93c-1.82-1.37-3.37-.29-5.39,.18-1.39,.32-2.15,.63-3.25-.42-.5-.48-.67-1-1.4-1.27-.85-.32-1.65,.04-2.52,.08-1.53,.07-1.78-.73-2.6-1.91-.88-1.26-1.63-2.82-2.9-3.74-1.36-.99-3.03-1.01-4.64-.91-.82,.05-1.64,.28-2.38-.15-.82-.47-.65-1.25-1.18-1.92-1.21-1.53-2.57-.3-3.98,0-2.63,.55-4.7-.31-7.08-1.14-.13-.04-.24,.09-.21,.21,.44,1.8,2.44,2.55,4.11,2.8,1.05,.16,2.13,.19,3.18,.09,.78-.07,1.91-.67,2.5-.2,.35,.28,.54,1.11,1.01,1.49,.5,.41,1.08,.78,1.71,.92,2.03,.45,4.29-.86,6.04,.72,1.41,1.27,2.1,3.29,3.34,4.72,1.05,1.21,2.42,1.16,3.87,.92,.8-.13,1-.31,1.69,.28,.12,.1,.22,.37,.34,.5,.4,.43,1.23,.8,1.82,.89,3.08,.43,4.32-4.01,7.78-1.92,.14,.09,.26-.12,.13-.22Z" />
          <path class="cls-2"
            d="M67.09,32.14c-1.71-1.72-4.9-1.24-6.86-.35-1.59,.72-2.95,1.95-4.68,2.36-1.71,.4-2.95-.43-4.58-.72-1.4-.24-2.72,.12-4.07,.46-1.72,.44-3.19,.6-4.97,.6-1.66,0-3.09,.64-4.68,1.07-2.2,.59-3.42,.1-5.27-.84-2.61-1.33-5.09,.3-7.66,.96-2.18,.56-3.65-.39-5.58-1.16-1.43-.56-2.65-.67-4.19-.52-3.94,.38-7.91,1.17-11.78-.1,0,0-.01,0,0,.01,2.75,1.34,5.12,2.21,8.22,1.98,1.45-.11,2.92-.29,4.36-.51,1.03-.16,1.87-.42,2.91-.18,.82,.2,1.37,.61,2.1,.99,2.55,1.32,4.69,.49,7.22-.44,.99-.36,2.06-.81,3.12-.53,.71,.18,1,.57,1.59,.95,.71,.47,1.43,.75,2.29,.86,1.28,.16,2.48-.16,3.69-.53,1.93-.58,3.53-.65,5.54-.75,3.12-.16,5.16-2.26,8.37-1.07,2,.74,3.54,.79,5.53-.16,1.38-.67,2.62-1.69,4.14-2.05,.97-.23,2.09-.18,3.03,.16,2.02,.72,1.09,2.1,.09,3.21-.27,.3-.01,.9,.43,.74,1.87-.7,3.5-2.62,1.71-4.43Z" />
          <path class="cls-2"
            d="M62.73,14.76c-.16-.17-.33-.33-.49-.49-.15-.15-.27-.4-.46-.49-.05-.03-.1,.02-.09,.07,.03,.22,.29,.44,.44,.59,.17,.17,.34,.29,.56,.38,.03,.01,.05-.03,.03-.05Z" />
          <path class="cls-2"
            d="M60.5,13.16c-.49-.33-1.04-.42-1.62-.32-.04,0-.02,.06,.02,.06,.56-.1,1.09,0,1.57,.32,.04,.03,.08-.04,.04-.06Z" />
          <path class="cls-2"
            d="M49.98,12.21c-2.83-2.51-5.12-1.32-8.38-.33-2.67,.81-5.03-.16-7.71-.07-2.03,.07-4.02,.64-6.02,.94-2.51,.38-5.08-.11-7.64,.06-2.47,.16-4.17-.13-6.41-1.1-1.83-.79-5.16-1.84-5.7,1.03-.06,.31,.29,.69,.6,.46,1.63-1.17,2.84-1.45,4.82-.84,1.12,.35,2.17,.93,3.33,1.13,1.6,.27,3.42-.07,5.02-.24,2.09-.21,4.01,.23,6.08,.2,1.86-.03,3.65-.73,5.5-.88,1.85-.15,3.63,.38,5.47,.39,1.61,0,2.98-.56,4.47-1.1,2.41-.88,4.21-.79,6.54,.37,.03,.01,.06-.02,.04-.05Z" />
          <path class="cls-2"
            d="M53.8,6.46c-2.66-1.3-4.68-.13-7.3,.61-2.2,.61-3.68-.35-5.64-1.13-1.55-.62-2.97-.62-4.57-.27-2.6,.56-4.81,.73-7.46,.38-1.71-.22-3.5-.53-5.22-.29-.96,.13-1.75,.52-2.66,.81-1.56,.51-2.43,.35-3.95-.1-1.07-.31-1.73-.22-2.56,.52-.52,.46,.04,1.26,.65,1.11,1.69-.4,3.07,.54,4.75,.44,1.69-.1,3.14-1.05,4.83-1.21,3.78-.37,7.16,1.01,10.97,.01,2.31-.61,3.71-.36,5.87,.47,1.2,.46,1.93,.6,3.16,.35,3.27-.66,5.65-2.8,9.13-1.63,.04,.01,.07-.05,.03-.07Z" />
          <path class="cls-2"
            d="M61.75,16.31c-2.63-.05-4.14-2.09-6.6-2.5-2.73-.45-4.93,1.56-7.76,.84-2.06-.53-3.25-.43-5.1,.62-1.29,.73-2.17,.09-3.52,.23-.85,.09-1.53,.59-2.23,1.03-1.74,1.1-2.92,1.32-4.86,.37-1.07-.53-2.08-1.2-3.24-1.51-1.87-.5-3.52-.16-5.31,.39-2.61,.81-4.45-.39-7.01-.82-2.37-.4-4.66-.07-6.99,.41-.05,0-.03,.08,.02,.07,3.36-.57,6.25-.66,9.38,.82,1.57,.74,2.69,1.04,4.41,.59,1.04-.27,2.08-.81,3.19-.75,1.49,.08,2.74,1.21,3.95,1.95,1.85,1.15,3.8,1.99,5.92,1.03,.93-.43,1.74-1.37,2.72-1.66,1.01-.3,2.03,.29,3.06,0,1.12-.31,1.73-1.41,2.89-1.7,1.22-.31,2.37,.37,3.55,.55,2.68,.41,5.11-1.76,7.7-.72,2.07,.82,3.43,2.38,5.82,2.14,.88-.09,.92-1.39,0-1.4Z" />
          <path class="cls-2"
            d="M26.34,29.23c-1.03-2.14-4.48-2.76-5.5-.36-.18,.42,.22,.98,.68,.68,.64-.4,1.44-.85,2.22-.74,.66,.1,1.9,.84,1.63,1.68-.41,1.27-3.25,1.04-4.21,.74-1.24-.39-2.03-1.34-2.81-2.33-.89-1.14-1.71-2.34-3.11-2.9-.94-.38-1.84-.32-2.83-.37-1.85-.09-2.6-.76-4.04-1.59-2.39-1.38-4.72,1.48-3.07,3.63,1.23,1.61,5.29,3.1,6.64,.94,.16-.25-.14-.47-.37-.37-1.75,.77-5.78,.78-6.22-1.8-.32-1.9,1.55-2.2,2.61-1.46,.32,.22,.55,.6,.87,.84,.8,.59,1.76,.91,2.74,1.01,1.36,.14,2.69-.18,3.93,.61,.91,.58,1.49,1.56,2.15,2.38,1.02,1.28,2.13,2.32,3.79,2.64,1.93,.37,6.3-.3,4.89-3.24Z" />
          <path class="cls-2"
            d="M53.31,26.3c-.25,.36,.09,.81,.47,.82,.97,.04,2.91,.18,1.54,1.66-.49,.53-2.44,.82-3.01,.48-.18-.11-.46-.83-.66-1.03-.81-.76-2.08-.97-3.11-1.22-1.36-.33-3.8-.45-2.22-2.21,.18-.2,.28-.56,.1-.8-2.21-2.92-6.24-1.83-8.68,.28-.24,.21-.18,.67,.1,.82,.84,.42,2.72,1.52,1.84,2.75-.91,1.26-3.86,.68-4.9,.08-1.71-.98-2.78-2.71-4.54-3.67-.1-.05-.19,.07-.12,.15,2.47,2.81,4.95,7,9.45,4.87,2.58-1.23,1.19-3.5-.54-4.68,1.74-1.23,4.69-2.24,6.02-.32-.83,1.07-1.16,2.29,.23,3.16,1.1,.68,5.49,.78,5.68,2.27,.04,.31,.19,.59,.52,.68,2.17,.58,5.81,.47,5.71-2.65-.06-2.04-2.58-3.28-3.88-1.44Z" />
          <path class="cls-2"
            d="M65.77,27.09c-.32-1.21-1.29-2.82-2.49-3.31-1.29-.52-2.5,.5-2.41,1.84,.03,.44,.63,.82,.97,.4,.52-.65,.69-1.18,1.56-.57,.44,.31,.79,.77,1.03,1.26-.44,0-.89-.03-1.23,.12-.49,.21-.75,.83-1.27,1.05-1,.42-1.45-.56-1.83-1.34-.55-1.14-1-2.97-2.48-3.2-.04,0-.07,.04-.03,.07,.81,.55,1.07,1.95,1.43,2.8,.32,.78,.65,1.7,1.3,2.27,.59,.51,1.28,.58,1.99,.3,.44-.17,.79-.66,1.21-.8,.49-.17,1.33-.14,1.85-.21,.3-.04,.46-.43,.39-.69Z" />
          <path class="cls-2"
            d="M9.25,45.56c-2.02-.54-4.1,.99-4.9,2.78-.37,.83-.48,2,.2,2.72,.29,.31,.72,.43,1.15,.33,.51-.12,.48-.44,.69-.84,.04-.08,0-.18-.1-.18-.19,0-.38-.01-.56-.07-.16,.16-.22,.13-.19-.11-.04-.14-.07-.27-.09-.42-.05-.58,.15-1.15,.48-1.61,.28-.38,.63-.71,1.03-.96,1.1,.92,2.34,.45,2.66-.98,.06-.28-.08-.58-.37-.66Zm-1.78,1.37c.32-.14,.65-.24,.99-.29-.18,.33-.55,.34-.99,.29Z" />
          <path class="cls-2" d="M6.62,49.61c-.02-.43-.64-.43-.66,0,0,.08,0,.16-.01,.24-.02,.44,.71,.44,.69,0v-.24Z" />
          <g>
            <path class="cls-2"
              d="M53.12,54.57c-.45-.21-.92-.36-1.42-.21-.17,.05-.33,.14-.48,.25-.06,.01-.13,.02-.19,.03-.05,0-.29,0-.09,.02-.11,.01-.21,.03-.32,.04-.38,.1-.59,.3-.83,.59-.02,.02-.04,.05-.05,.07-.05,.08-.1,.21-.13,.3-.22,.68,.27,1.23,.85,1.46,.17,.07,.37,.06,.55,0,.3-.01,.6-.08,.87-.12,.31-.05,.63-.1,.94-.15,.48-.07,.84-.61,.9-1.05,.06-.46-.15-1.04-.6-1.25Z" />
            <path class="cls-2" d="M49.77,55.31s.01-.01,.02-.02l.13-.16c-.05,.06-.1,.12-.14,.18Z" />
          </g>
          <path class="cls-2"
            d="M40.92,56.08c-.81-.16-2.84-.51-3.38,.44-.65,.21-.46,1.16,.11,1.37,.91,.34,2.38,.44,3.28-.1,.74-.28,.93-1.53,0-1.71Z" />
          <path class="cls-2" d="M51.55,59.46c-.76,0-.76,1.18,0,1.18s.76-1.18,0-1.18Z" />
          <path class="cls-2"
            d="M25.15,58.66c-1.39-.86-3.38-1.97-4.65-.28-.12,.15-.16,.31-.16,.46-.15,.28-.11,.64,.26,.84,1.3,.67,2.94,.87,4.35,.44,.66-.2,.78-1.1,.19-1.46Z" />
          <path class="cls-2" d="M34.14,43.44c-1.27,0-1.27,1.98,0,1.98s1.27-1.98,0-1.98Z" />
          <path class="cls-2"
            d="M30.15,45.24c-.85-.34-2.61-.36-2.76,.85-.21-.02-.42-.04-.63-.05-1.02,0-1.3,1.62-.25,1.83,.96,.19,1.86,.14,2.75-.12,.05,0,.1,.01,.15,.02,.25,.07,.5,.12,.75,.12,.53,.02,.74-.47,.61-.87,.47-.58,.05-1.52-.63-1.79Z" />
          <path class="cls-2"
            d="M34.56,43.22c-.41-.05-.87,.06-1.26,.25-.3,.03-.58,.14-.84,.33-.27,.2-.44,.51-.35,.85,.02,.07,.05,.13,.09,.2,0,.02,0,.03,0,.05,.13,.47,.72,.55,1.1,.52,.51-.03,1-.22,1.5-.32,0,0,0,0,0-.01,.31-.09,.58-.32,.67-.65,.18-.64-.32-1.13-.92-1.21Z" />
          <path class="cls-2"
            d="M56.33,43.63c-.87-.02-2.36,0-2.72,.98-.05,.06-.1,.12-.14,.19-.5,.8,.55,1.56,1.17,1.22,.09,0,.18,0,.28-.02,.02,0,.03,0,.03,0,.01,0,.02,0,.03,0,.09,0,.18-.01,.27-.02,.46-.03,.91-.03,1.36-.14,1.26-.29,.94-2.18-.3-2.2Z" />
          <path class="cls-2"
            d="M47.81,45.7c-.01-.32-.18-.53-.43-.65-.24-.21-.54-.36-.87-.34-.37,.02-.64,.11-.92,.36-.35,.31-.35,.96,0,1.27,.26,.23,.57,.35,.92,.36,.34,0,.63-.13,.87-.35,.25-.11,.44-.34,.43-.64Z" />
          <path class="cls-2"
            d="M58.27,38.62c-.71-.1-1.41-.24-2.1-.43-.01-.01-.02-.02-.03-.03-.47-.35-1.01-.63-1.57-.05-.53,.55,.02,1.33,.71,1.21,1-.18,2.03-.24,2.99-.56,.06-.02,.08-.13,0-.14Z" />
          <path class="cls-2"
            d="M55.98,38.26c-.11,.02-.11,.21,0,.23,1.3,.28,2.56,.02,3.86-.11,0,0,0-.01,0-.01-1.3-.13-2.55-.39-3.86-.11Z" />
          <path class="cls-2"
            d="M42.39,37.76c-1.14-.69-3.02-.62-3.64,.71-.01,.03-.02,.05-.03,.08-.07-.01-.13-.02-.2-.04-.2-.05-.3,.21-.14,.33,.59,.4,1.14,.58,1.86,.55,.29-.01,.58-.06,.86-.13,.23-.06,.52-.25,.73-.21,.75,.11,1.27-.84,.54-1.29Z" />
          <path class="cls-2"
            d="M29.34,38.82c-.25-.01-.52,.24-.55,.47-.02,.1,.06,.2,.17,.17,.13-.04,.21-.13,.32-.2,.04-.02,.09-.01,.06-.03,.05,.02,.08,.12,.1,.17,.06,.13,.27,.06,.26-.07,0-.23-.08-.49-.36-.51Z" />
          <path class="cls-2"
            d="M26.65,39.16c-1.32-.13-2.56-.44-3.89-.23-.75,.12-2.61,.47-2.5,1.57,.08,.81,1.02,.67,1.6,.52,.19-.05,.39-.09,.58-.14,1.33,1.27,3.49,.96,4.83-.24,.61-.55,.08-1.41-.61-1.48Z" />
          <path class="cls-2"
            d="M13.08,38.24c-.34-.11-.68-.06-1,.07-.1,.04-.16,.07-.24,.13-.03,.02-.05,.05-.08,.08,0,0-.02,0-.03-.01-.2-.07-.35,.07-.39,.24,0-.04-.01-.03-.02,.04,0,.04,0,.09,0,.13,0,.02,.01,.04,.02,.06-.04,.06-.07,.13-.1,.2-.07,.19,.02,.4,.14,.53,.15,.17,.37,.23,.59,.22,.02,0,.03,0,.05,0,.03,0,.07,0,.13,.01,0,0,0,0,0,0,.38,.07,.75-.11,1.11-.27,.28-.13,.42-.5,.37-.78-.05-.32-.26-.55-.56-.65Z" />
          <path class="cls-2"
            d="M63.89,38.78c-.48-.43-1.08-.81-1.82-.57-.74,.24-1.33,.85-1.31,1.65,0,.46,.47,.87,.94,.72,.19-.06,.38-.12,.55-.23,.15-.11,.27-.22,.37-.27,.02,0,.12-.04,.18-.07,0,0,.07,0,.12-.02,.01,0,.02,.01,.04,.02,.74,.43,1.6-.61,.93-1.21Z" />
          <path class="cls-2"
            d="M54.8,29.67c-1.42-.67-2.4-.47-3.97-.34-2.39,.19-3.37-.33-5.01-1.78-1.07-.94-2.5-2.06-3.99-2.16-1.3-.08-2.15,.82-1.96,2.15,.24,1.64,1.61,1.59,2.73,1.95-1.68,.25-3.33,.7-4.82,1.56-.19,.11-.32,.31-.37,.52-3.94-1.53-6.03-7-10.82-5.77-.2,.05-.41,.28-.38,.5,.1,.89,.38,1.39,1.1,1.95,.77,.59,1.92,1.43,2.82,1.73,.11,.04,.26-.04,.28-.16,.31-1.71-2.15-1.76-2.94-2.92,4.47,.75,6.16,6.6,11.29,6.31,.46-.03,.8-.51,.57-.94,1.78-.51,3.59-.94,5.36-1.51,.46-.15,.72-.68,.45-1.12-.67-1.12-1.47-.99-2.51-1.5-1.24-.62-.83-1.13,.29-.64,.51,.22,1.02,.5,1.51,.78,1.37,.78,2.53,1.78,4.08,2.2,2.03,.55,4.33,.12,6.25-.62,.08-.03,.12-.16,.03-.2Z" />
          <path class="cls-2"
            d="M9.13,29.41c-2.41,1.02-6.16,.35-6.8-2.56-.05-.21-.39-.17-.38,.05,.06,3.45,4.86,4.47,7.24,2.58,.04-.03-.01-.09-.05-.07Z" />
          <path class="cls-2"
            d="M22.49,31.27c-1.51,.78-4.28,1.06-5.02-.87-.11-.29-.37-.58-.72-.55-1.82,.16-5.17-4.61-6.39-1.7-.03,.07,.09,.12,.12,.05,.99-2.27,2.9,1.18,3.68,1.92,.63,.59,1.28,1.1,2.11,1.2,1.34,2.5,4.81,2.58,6.36,.08,.06-.09-.05-.19-.14-.14Z" />
          <path class="cls-2"
            d="M12.95,21.45c-.68,.87-1.83,1.01-2.84,1.14-.14,.02-.23,.21-.08,.29,.6,.35,1.32,.35,1.95,.1,.65-.26,.86-.86,1.03-1.5,0-.03-.04-.07-.06-.04Z" />
          <path class="cls-2"
            d="M61.43,22.02c-1.78,.1-3.18,.22-3.87-1.86-.05-.14-.17-.24-.32-.24-1.37-.04-1.66-.09-2.78,.7-.64,.45-1.16,1.37-2.15,.51-.42-.36-.35-1.07-.77-1.4-2.53-1.97-3.5,2.73-4.57,3.4-1.4,.88-2.3-1.04-3.24-1.59-.89-.52-1.77-.3-2.69,.09-1.98,.82-3.2,2.88-5.14,.42-.95-1.2-1.51-1.62-3.11-1.62-.4,0-.81,.36-.78,.78,.27,4.53-5.02-.1-7.19,0-.28,.01-.53,.19-.61,.47-1.08,3.92-5.5,.82-7.83-.27-.97-.46-1.96-.66-3.01-.88-.4-.08-.83-.13-1.22-.28-.57-.22-1.66-1.44-.7-1.96,.6-.33,2.23,1.75,2.46,2.25,.01,.03,.06,0,.04-.02-.44-.82-1.87-3-3.05-2.7-.8,.21-.77,1.39-.51,2.01,.73,1.74,3.18,1.81,4.66,2.4,1.71,.68,3.18,1.84,4.96,2.42,1.4,.46,3.15,.77,4.38-.29,.48-.42,.69-1.75,1.01-1.96,.09-.06,1.63,.57,2.12,.79,2.57,1.17,6.02,2.4,6.08-1.24,1.36,.33,2.57,2.94,4.45,2.73,2.09-.23,1.71-3.76,4.54-3.01,1.33,.35,1.78,2.12,3.07,2.65,1.24,.51,2.37,.26,2.93-.92,.4-.84,.96-3.96,2.33-2.57,.3,.3,.28,.88,.67,1.23,.88,.78,2.42,.86,3.28,.06,.33-.31,.45-1.06,.75-1.28,1.37-.96,1.27,1.05,1.85,1.7,1.09,1.23,2.9,.99,4.17,.25,.34-.2,.21-.79-.21-.77Z" />
          <path class="cls-2"
            d="M46.77,64.74c-1.49,.13-2.63-.15-4.02-.62-.67-.23-1.32-.46-2.04-.36-1.08,.15-4.23,2.47-4.3,.16,0-.28-.24-.54-.53-.53-1.09,.05-1.91,.49-2.96,.73-1.88,.43-2.79-.56-4.44-.78-2.22-.29-4.38,1.43-6.13-.84-.18-.23-.53-.21-.76-.1-1.13,.56-3.02,.3-4.12-.17-.04-.02-.1,.04-.05,.07,.5,.39,1.09,.85,1.68,1.07,.71,.26,1.49,0,2.17,.21,.68,.21,1.14,.88,1.82,1.15,.65,.25,1.35,.27,2.04,.22,.69-.05,1.35-.25,2.03-.36,1.25-.19,1.94,.1,3.1,.48,1.96,.63,3.29-.37,5.12-.59,.22,1.74,1.67,1.84,3.35,1.25,1.58-.56,2.4-.67,4.08-.16,1.5,.45,2.81,.9,4.17-.07,.29-.21,.24-.81-.21-.77Z" />
          <path class="cls-2"
            d="M37.84,1.46c-.55-.04-1.18,.17-1.57,.55-.18,.18-.18,.5,0,.68,.39,.38,1.02,.59,1.57,.55,.48-.04,.89-.38,.89-.89s-.41-.85-.89-.89Z" />
          <path class="cls-2" d="M27.32,2.06c-.79,0-.79,1.23,0,1.23s.79-1.23,0-1.23Z" />
          <path class="cls-2"
            d="M46.04,4.26c-.2-.73-.97-.85-1.62-.93-.27-.03-.55-.06-.82-.04-.41,.03-.68,.17-1.04,.33-.56,.25-.45,1.27,.18,1.37,.26,.04,.51,.12,.78,.14,.25,.01,.5,0,.74,.03,.49,.07,.94,.31,1.41,0,.3-.19,.46-.55,.37-.9Z" />
          <path class="cls-2" d="M31.79,8.38c-.86,0-.86,1.33,0,1.33s.86-1.33,0-1.33Z" />
          <path class="cls-2"
            d="M15.74,8.21c-.79,.19-.89,1.3-.22,1.69,.16,.1,.34,.16,.51,.23-.23-.09,.08,.05,.2,.07,.13,.03,.27,.04,.41,.05,.56,.07,1.12-.26,1.2-.84,.17-1.15-1.28-1.42-2.11-1.22Z" />
          <path class="cls-2"
            d="M23.84,3.54c-.22-.03-.43-.06-.66-.05-.59,.02-.59,.89,0,.91,.22,0,.44-.02,.66-.05,.4-.06,.4-.75,0-.81Z" />
          <path class="cls-2"
            d="M29.04,7.32c-1.06-1.37-3.43-1.41-4.72-.3-.33,.12-.62,.33-.87,.61-.4,.45-.41,1.27,.2,1.57,1.66,.82,3.22,.57,4.9-.05,.83-.3,1-1.16,.48-1.83Z" />
          <path class="cls-2" d="M49.64,8.08c-.83,0-.83,1.29,0,1.29s.83-1.29,0-1.29Z" />
          <path class="cls-2"
            d="M35.26,2.12c-1.38-1.54-4.12-1.41-5.56-.01-.31,.3-.47,.82-.33,1.23,.21,.62,.62,.85,1.08,.86,.09,.22,.27,.39,.52,.46,1.51,.42,2.66-.02,4.03-.62,.77-.33,.72-1.4,.25-1.92Z" />
          <path class="cls-2" d="M35.93,8.68c-.46,0-.46,.72,0,.72s.46-.72,0-.72Z" />
          <path class="cls-2"
            d="M42.55,10.44c-.09-.59-.64-1.23-1.31-1.16-.51,.06-.95,.2-1.34,.42-.33-.17-.72-.23-1.07-.18-1.35,.16-1.56,1.79-.31,2.32,.2,.08,.39,.16,.58,.22,.08,.05,.16,.09,.24,.1,.3,.06,.59,.08,.88,.06,.47-.02,.94-.16,1.38-.31,.62-.22,1.06-.78,.96-1.46Z" />
          <path class="cls-2"
            d="M25.41,19.7c-.09-.11-.18-.19-.31-.27-.12-.07-.2-.12-.29-.22-.43-.48-1.16,.24-.71,.71,.28,.29,.76,.58,1.17,.35,.23-.13,.41-.44,.15-.57Z" />
          <path class="cls-2"
            d="M22.65,19.28c-.07,.4,.1,.72,.49,.86,.64,.23,1.09-.08,1.7-.13,.33-.03,.66,.19,1.01,.23,.05,.02,.1,.04,.16,.05,.37,.07,.85-.1,.92-.52,.4-2.41-3.92-2.62-4.28-.49Z" />
          <path class="cls-2"
            d="M16.63,18.93c-.15-.22-.33-.34-.59-.39-.47-.1-.94,.22-.94,.71s.47,.82,.94,.71c.26-.06,.44-.17,.59-.39,.12-.18,.12-.46,0-.64Z" />
          <path class="cls-2"
            d="M54.51,16c-.65-.46-1.56-.49-2.33-.32-.45,.1-1.11,.42-1.35,.88-.1-.06-.21-.12-.34-.16-.46-.14-1.03,.34-.83,.83,.33,.83,1.19,1.22,2.06,1.21,.44,0,.92-.09,1.34-.23,.41-.14,.84-.53,1.24-.62,.8-.17,.79-1.21,.21-1.61Z" />
          <path class="cls-2"
            d="M6.49,16.72s-.08-.08-.12-.12c-.3-.29-.74-.37-1.12-.21-.36,.15-.65,.53-.63,.94,.04,.88,1.09,1.35,1.75,.72,.04-.04,.08-.08,.12-.12,.33-.31,.33-.9,0-1.21Z" />
          <path class="cls-2"
            d="M60.53,16.77c-.31-.53-1-.73-1.57-.81-.51-.08-1-.05-1.48,.13-.61,.23-.96,.66-1.13,1.24-.13,.43,.15,.88,.57,1,.05,.01,.1,.02,.15,.03,.04,.6,.57,1.14,1.19,1.11,.52-.02,1.04-.08,1.55-.15,.42-.06,.72-.48,.85-.85,.19-.54,.17-1.21-.12-1.71Z" />
          <path class="cls-2"
            d="M44.79,49.74c-2.46,1.36-4.93,1.61-7.02-.51-.31-.31-.84-.31-1.15,0-2.63,2.57-5.61,.81-8.66,.67-.2,0-.34,.24-.23,.4,1.96,2.96,6.83,2.54,9.45,.58,1.05,.89,2.27,1.48,3.72,1.38,1.84-.13,2.78-1.15,4.05-2.32,.11-.1-.03-.27-.15-.2Z" />
          <path class="cls-2"
            d="M64.94,48.79c-1.02,.06-1.88,.67-2.9,.79-1.53,.18-2.79-.25-4.17-.84-.21-.09-.43-.09-.61,.08-1.26,1.19-3.61,3.3-5.15,1.01-.21-.31-.65-.49-.99-.26-1.37,.9-4.86,2.35-5.61-.04,0,0-.01,0-.01,0-1.29,3.75,3.63,2.71,5.83,1.59,1.85,1.89,4.32,.22,6.24-1.27,1.94,1.79,7.95,2.82,7.8-.64,0-.22-.18-.43-.42-.42Z" />
          <path class="cls-4"
            d="M62.44,19.4c-1.1-.41-2.33-.48-3.39,.07-.77,.4-1.28,1.52-2.3,1.29-.66-.15-1.65-1.46-2.21-1.91-.65-.53-1.29-1.04-2.14-1.18-1.07-.18-2.19,.2-3.07,.79-1.26,.84-1.73,1.8-3.43,1.54-.98-.15-1.89-.75-2.91-.76-1.21,0-2.23,.75-3.37,1.01-2.82,.65-4.27-2.37-7.07-1.44-.95,.31-1.5,.91-2.26,1.5-1.52,1.18-2.25,.32-3.83-.04-1.45-.33-2.68-.32-3.62,.47-.28-.42-.49-.88-.63-1.4-.17-.63-.95-.97-1.52-.62-1.36,.86-4.83,2.25-5.96,.42-.6-.98-.49-2.1-1.58-2.8-2.22-1.43-4.01,.29-4.72,2.27-.42-.09-.84-.17-1.25-.3-1.23-.37-1.64,1.41-.52,1.87,.73,.3,1.48,.45,2.23,.67,.71,.21,1.24-.35,1.31-1-.02-1.12,.67-1.61,2.07-1.49,.14,.3,.25,.61,.34,.93,.12,.33,.2,.7,.37,1.01,.42,.78,1.06,1.25,1.9,1.52,1.81,.58,4,.11,5.77-.73,.34,.74,.81,1.37,1.49,1.98,.46,.41,1.29,.41,1.6-.21,1.01-2,3.67,.39,5.33,.13,1.99-.31,3-2.73,4.97-2.51,1.94,.22,2.91,1.87,5.1,1.5,1.22-.2,2.18-1.11,3.39-1.31,1.13-.19,2.19,.27,3.29,.55,1.36,.35,2.43,.29,3.59-.56,1.57-1.13,2.65-1.52,4.26-.2,.61,.5,.99,1.03,1.49,1.61,.9,1.05,2.17,1.14,3.51,.78,.67-.18,1.43-.85,2.09-.9,1.73-.13,2.51,2.1,3.43,3.14,.54,.61,1.55,.26,1.76-.46,.65-2.2-1.58-4.49-3.52-5.22Z" />
          <path class="cls-4"
            d="M38.74,50.1c-.7-2.32-3.3-2.24-5.3-1.94-1.41,.21-2.83,.55-4.25,.58-1.27,.02-2.21-.42-3.38-.77-.13-.04-.27,.03-.34,.14-1.45,2.37,2.48,3.14,3.99,3.12,1.46-.02,2.92-.32,4.35-.54,1.59-.25,3.23,.27,4.74-.26,.13-.05,.23-.18,.19-.33Z" />
          <path class="cls-4"
            d="M14.53,47.7c-1.59,.11-6.39,1.4-5.44,3.85,.09,.22,.26,.31,.5,.28,1.04-.14,1.72-1.31,2.65-1.78,1.28-.64,2.66-.67,4.06-.74,.6-.03,1.68-.23,1.98,.47,.41,.98-.87,1.87-1.59,2.14-.73,.27-1.53,.38-2.3,.24-.34-.06-.61-.16-.93-.28-.03-.01-.07-.02-.1-.02,.03-.01,.06-.03,.1-.05,.64-.33,.34-1.37-.36-1.35-.83,.02-1.78,.4-1.72,1.4,.06,.93,1.1,1.47,1.87,1.75,2.13,.75,5.46-.13,6.1-2.56,.68-2.58-2.86-3.49-4.8-3.36Z" />
          <path class="cls-4"
            d="M42.07,55.33c-.61-1.33-3.4-1.42-3.78,.11-.06,.23,.04,.49,.25,.61,.61,.33,1.12,.08,1.75,.05,.16,0,.48,0,.55,0,.17,0,.55,0,.68,.08-.08-.05,.03,.1,.04,.17,.02,.16,0,.28-.07,.43-.24,.49-.83,.73-1.32,.88-1.15,.37-2.31,.17-3.34-.44-.32-.19-.74-.56-.71-.97,.03-.62,.97-.81,1.43-.96,.02,0,.01-.03,0-.03-.79-.02-2,.34-1.75,1.36,.24,1.01,1.4,1.65,2.33,1.86,1.24,.28,2.7-.06,3.66-.9,.73-.65,.68-1.42,.31-2.24Z" />
          <path class="cls-4"
            d="M55.91,55.28c-.21-.49-1.01-.34-1.12,.15-.13,.56,.12,1.04,.04,1.58-.04,.3-.18,.65-.5,.74-.36,.1-.77,.1-1.1,.11-.35,0-.74-.09-1.14-.18-.77-.18-1.62-.36-2.24-.84-.27-.21-.49-.43-.63-.67-.12-.22-.15-.32-.07-.51-.02,.05,.11-.15,.13-.17,.18-.13,.34-.19,.55-.25,.73-.22,1.5-.3,2.23-.53,.74-.24,.59-1.29-.18-1.33-1.25-.07-2.97,.49-3.68,1.61-.52,.82-.14,1.74,.48,2.38,.36,.37,.79,.61,1.21,.89,.48,.32,.93,.61,1.5,.78,.94,.28,2.42,.33,3.18-.39,.87-.83,1.89-2.09,1.34-3.33Z" />
          <path class="cls-4"
            d="M32.4,66.66c-.62,.17-1.24,.28-1.87,.13-.18-.04-1.42-.54-.95-.64,.55-.2,.34-1.04-.25-.89-.79,.28-2.73,.69-3.44,.05-.58-.53-1.45,.36-.86,.86,.87,.72,2.29,.61,3.48,.32,.08,.23,.24,.47,.5,.67,1.02,.82,2.72,.81,3.48-.37,.04-.06-.03-.14-.09-.12Z" />
          <path class="cls-4"
            d="M41.35,66.34c-.71-.05-1,.4-1.69,.6-.98,.28-2,.02-2.8-.59-.19-.15-.57-.09-.72,.09-1.09,1.27-2.6,1.03-3.65-.08-.05-.06-.18-.02-.17,.07,.25,2.01,2.75,2,4.19,1.18,1.53,1.04,5.31,1.52,5.24-.86,0-.23-.18-.39-.4-.4Z" />
          <path class="cls-4"
            d="M54.35,7.41c-.39-.44-.94-.69-1.52-.79-1.08-.19-2.74,.07-3.43,1.01-.12,.16,.04,.45,.25,.43,.88-.11,1.66-.5,2.58-.48,1.05,.02,1.59,.61,1.92,1.55,.09,.25,.49,.3,.56,0,.15-.67,.14-1.15-.36-1.71Z" />
          <path class="cls-4"
            d="M49,7.43c-1.06-.06-1.69,.14-2.68,.42-1.5,.41-2.38-.04-3.81-.55-1.56-.55-2.67-.29-3.91,.56-1.2-1.51-3.64-1.85-4.97-.45-1.59-1.19-4.93-.6-4.68,1.64,.02,.18,.17,.33,.36,.27,1.12-.33,2.84-2.42,3.87-.71,.22,.36,.8,.4,1.01,0,.81-1.59,3.16-1.16,3.8,.28,.11,.25,.52,.35,.74,.19,2.5-1.7,3.56-.29,6.14-.21,1.55,.05,2.64-1.12,4.13-1.4,.03,0,.02-.04,0-.04Z" />
          <path class="cls-4"
            d="M28.92,11.01c-1.25,.14-2.63,.5-3.06-1.33-.05-.22-.32-.38-.53-.3-.93,.32-2.1,.89-2.77-.71-.07-.17-.19-.27-.38-.29-.61-.05-1.19-.07-1.81-.03-.05,0-.08,.03-.1,.07-.52,1.72-2.76,2.61-4.41,2.29-1.45-.27-2.17-1.35-2.87-2.51-.24-.4-.75-.11-.7,.29,.41,2.87,4.75,4.37,6.83,2.27,.66-.66,1.12-3.02,2.59-1.58,.24,.24,.18,.97,.58,1.32,.86,.74,2,.54,2.89,0,.62,1.54,2.47,2.2,3.91,.94,.16-.14,.04-.47-.18-.45Z" />
          <g class="cls-1">
            <path class="cls-17"
              d="M.79,41.74c2.74,12.55,12.43,23.05,25.77,26.18,18.5,4.34,37.02-7.14,41.36-25.64,2.26-9.65,.21-19.31-4.88-26.95,.13,4.52-1.1,8.89-2.48,13.24-5.24,16.56-25.74,27.79-42.55,23.5-5.95-1.52-12.39-5.3-17.22-10.33Z" />
          </g>
          <g class="cls-8">
            <path class="cls-17"
              d="M56.4,7.95c-2.09,3.09-3.86,6.37-5.36,8.61C40.03,33.04,18.7,33.29,.84,26.93c-3,13.46,2.33,26.87,12.62,34.78,8.62,4.3,18.27,4.84,27.72,2.41,11.22-2.88,18.72-10.23,25.52-19.54,.34-.46,.66-.91,.97-1.37,.08-.31,.17-.62,.24-.94,3.08-13.13-1.81-26.25-11.52-34.33Z" />
          </g>
          <g class="cls-14">
            <path class="cls-13"
              d="M32.11,2.67c-5.9,1.45-12.08,2.64-17.22,6.44C10.11,12.64,2.41,20.17,2.13,26.43c-.84,18.48,21.64,16.54,33.72,10.68,13.38-6.49,26.43-31.03,2.31-32.84l-6.06-1.59Z" />
          </g>
          <g class="cls-15">
            <path class="cls-13"
              d="M30.19,10.64c-2.7-3.45-9.4-1.44-12.36,.72-1.65,1.21-2.62,2.41-3.66,4.05-1.57,2.49-2.39,2.2-4.47,4.07-5.03,4.52,.2,9.48,4.38,11.63,6.01,3.1,13.6,1.99,19.29-1.35,4.47-2.62,13.23-12.27,2.96-14.02,3.75-.83,.05-4.68-6.15-5.11Z" />
          </g>
          <path class="cls-16"
            d="M67.99,27.08c-.16-.55-1.02-.46-1.01,.14,.05,3.51,.2,7.19-.48,10.65-.61,3.15-1.71,6.21-2.92,9.17-2.08,5.1-4.94,9.5-9.42,12.8-4.73,3.49-10.72,5.2-16.5,5.8-3.35,.35-6.82,.34-10.15-.2-2.72-.45-5.43-1.86-8.15-2.01-.09,0-.16,.11-.11,.19,1.58,2.3,5.17,3.13,7.76,3.66,3.5,.71,7.1,.86,10.66,.55,6.3-.54,12.75-2.4,17.88-6.2,4.5-3.35,7.37-8.52,9.57-13.59,2.91-6.71,4.98-13.77,2.89-20.96Z" />
        </g>
      </g>
    </g>
  </g>
</svg>