<?xml version="1.0" encoding="UTF-8"?>
<svg xmlns="http://www.w3.org/2000/svg" viewBox="0 0 68.72 68.01">
  <defs>
    <style>
      .cls-1 {
        opacity: .6;
      }

      .cls-1, .cls-2 {
        fill: #750400;
      }

      .cls-3 {
        fill: #ff4f24;
      }

      .cls-4 {
        isolation: isolate;
      }

      .cls-2 {
        opacity: .66;
      }

      .cls-5 {
        fill: #fbb901;
        mix-blend-mode: color-dodge;
        opacity: .37;
      }

      .cls-6 {
        opacity: .58;
      }

      .cls-6, .cls-7, .cls-8 {
        fill: #ffe4a1;
      }

      .cls-9 {
        fill: #7d0204;
        mix-blend-mode: soft-light;
        opacity: .59;
      }

      .cls-10 {
        opacity: .21;
      }

      .cls-10, .cls-11 {
        fill: #000072;
      }

      .cls-12 {
        fill: #f17241;
      }

      .cls-7 {
        opacity: .3;
      }

      .cls-11 {
        opacity: .27;
      }

      .cls-8 {
        mix-blend-mode: overlay;
        opacity: .4;
      }
    </style>
  </defs>
  <g class="cls-4">
    <g id="Layer_2" data-name="Layer 2">
      <g id="icons_planets">
        <g>
          <path class="cls-12" d="M68.68,32.34c.99,16.65-19.46,35.67-36.13,35.67S-.83,51.17,.03,33.07C.92,14.37,18.18,0,34.85,0s32.6,11.6,33.83,32.34Z"/>
          <path class="cls-3" d="M57.91,24.19c2.65-.22,2.99-3.35,1.82-5.39,6.06,.51-.3-15.89-8.35-7.58-2.2,2.27-1.73,7.35-4.77,8.55-4.1,1.62-5.5-4.19-2.77-3.67-1.15-2.15,3.31-5.3,2.32-8.4,.58-.02,1.16-.14,1.73-.15,1.17-3.15-3.03-4.52-5.41-3.6,.24-2.29-1.09-3.6-3.43-3.02,.16-.21,.28-.42,.39-.62-1.52-.2-3.05-.3-4.59-.3-5.72,0-11.51,1.69-16.69,4.67,1.61,.43,3.1,.93,3.7,2.09,2.28,4.41-4.65,3.68-7.07,4.47-7.11,2.32-10.13,16.61-.4,14.04,.07,.41,.11,1.6,.03,2,.2,.05,1.09-.03,1.21,.13,.5,3.78-3.63,3.45-6.1,4.75-3.55,1.87-4.64,3.69-5.02,7.82-.74,8.11,11.07,17.36,16.88,8.86,.79,2.92,3.59,3.27,5.49,1.34,2.03,3.06,5.63,2.32,8.04,3.21,4.14,1.53,5.27,3.41,10.31,2.37,6.73-1.39,11.69-9.1,6.26-15-5.12-5.56-11.44-1.2-17.04,.68-2.84,.95-7.58,2.63-10.61,1.49-1.45-.55-5.13-3.36-3.26-5.22,.7-.7,3.87,1.6,5.54,.41,3.03-2.18,.49-6.63-2.24-7.66,2.82-.15,1.79-3.81,.65-5.69,.24,.13,.68,.36,.66,.35,.93-1.02,4.03-14.61,8.36-6.63,1.02,1.87-3.35,9.76,1.76,7.69-.65,3.35,3.16,8.92,5.43,3.98,1.61,4.38,6.87,3.23,6.34-1.43,1.85,1.43,4.39,1.7,5.66-.47-.41,3.32,2.41,2.34,3.28,3.88,.84,1.49,.83,3.07,.75,4.86-.17,3.69-2.18,8.01,2.98,9.19,8.91,2.04,5.66-19.36-1.85-21.99Z"/>
          <g>
            <path class="cls-3" d="M1.1,42.36c.33,1.19,.73,2.36,1.19,3.5-.39-1.23-.78-2.45-1.19-3.5Z"/>
            <path class="cls-3" d="M41.66,58.77c-4.07-.54-4.62,1.83-8.85-.65-1.88-1.1-1.6-2.17-4.13-2.57-1.75-.28-3.14,1.03-4.01,.9-2.06-.29-2.47-2.01-4.52-2.39-1.94-.36-2.44,.73-4.11,.93-2.82,.34-6.24,.55-8.89-.65,2.79,3.62,6.23,6.73,10.04,9.06,.59-.75,1.23-1.41,2.1-1.63,2.11-.53,12.66,1.51,14.35,2.56,.4,.25,1.16,2.1,1.85,3.49,3.4-.43,6.89-1.56,10.27-3.24,.54-2.61-1.02-5.4-4.11-5.81Z"/>
          </g>
          <path class="cls-9" d="M48.71,12.13c1.08-1.09,1.8-3.79-.35-4.05-2.32-.28-1.64,2.5-2.11,3.79-.4,1.08-3.34,2.85-.93,4.41,2.13,1.39,4.08-2.81,3.76-4.51l-.37,.37Z"/>
          <path class="cls-9" d="M32.71,35.4c1.97-2.93,.41-5.04-1.24-7.29-.61-.82-2.01,.06-2.58-1.2-.49-1.08,1.24-2.61,.7-3.59-1.49-2.72-3.1-1.81-3.1,1.53,0,1.66,1.96,4.44,3.05,5.63-1.49,1.15-1.7,1.89-.13,3.13-6.76,7.38,10.36,7.41,3.31,1.34v.45Z"/>
          <path class="cls-9" d="M47.03,47.93c-.07-5.11-8.49-7.18-8.13-.93-1.48-1.78-6.68-4.92-7.15-.48-2.48-.04-7.61,.09-9.88-.46-4.88-1.19-3.09-5.07-5.94-8.24-2.62-2.92-9.03-3.72-9.23,2.05-.13,3.61,5.3,7.2,8.49,5.98-.06,3.81,8.72,1.19,11.7,1.62,2.61,.38,6.93,4.19,8.95,2.42,1.01,1.68,2.6,2.17,4.03,.86,.65,2.45,4.74,3.53,6.82,2.2,2.48-1.58,1.96-6.02,.34-5.03Z"/>
          <path class="cls-9" d="M36.74,6.31c1.55-3.8-8.51-6.1-8.12,1.28-2.78-1.21-6.4,1.26-5.02,4.49-4.89-2.11-15.77,4.46-9.59,9.78,6.3,5.42,12.92-6.17,14.34-11.03,1.13,.42,1.99,.35,3.03,.57,.91,1.85,2.52,1.71,3.57,3.18,.99,1.39-.98,4.22,2.21,4.3,4.81,.11,3.94-10-.42-12.57Z"/>
          <path class="cls-9" d="M53.29,21.53c1.94-1.53,5.81-5.08,3.79-7.84-2.2-3-5.79-.3-5.2,2.84-3.09,.42-3.71,3.54-3.58,6.18-1.74-.56-3.53-.51-4.95,.57-2.61-2.53-9.88-2.96-6.82,2.53,2.3,4.11,9.7,2.7,11.73-.56,1.31,2.39,5.28,2.99,5.01-.45,1.03,5.61,6.84-2.3-.42-2.82l.45-.45Z"/>
          <path class="cls-9" d="M48.37,58.67c2.82,1.49,6.23-.65,8.27-2.9,1.53-1.7,4.64-9.1-.17-7.13,.77-.74,.35-.86,.78-1.53-4.49-1.26-5.12,4.26-3.55,7-1.87-.27-3.75,.24-3.94,2.16-.76-.18-1.88-.04-2.66-.22-.39,1.34,.35,1.19,1.27,1.72v.9Z"/>
          <path class="cls-9" d="M3.62,30.03c.1,.42-.04,.84,.07,1.27,3.64,.82,5.1-4.73,1.31-5.4,1.58-1.44,2.99-4.87,0-5.36,1.51-1.19,2.37-3.17,2.27-5.21,2.67-.18,6.39-2.84,5.68-5.82-3.27-.27-7.26,7.01-8.47,9.56-.96,2.03-6.02,13.07-.86,10.96Z"/>
          <path class="cls-9" d="M53.74,40.32c2.23,3.04,3.91-8.01-.93-7.33-.27-2.65-3.5-2.72-4.05,0-3.9-1.44-6.02,3.14-2.18,4.64,1.63,.64,3.03-.92,4.59-.12,1.38,.71,.74,2.8,2.12,3.7l.45-.9Z"/>
          <path class="cls-9" d="M66.27,26.45c.48-1.47,.62-6.18-2.24-5.87-4.17,.46-.36,5.2-.1,6.29,.44,1.82-.4,5.45,1.99,6.2,3.58,1.12,0-4.47-.99-5.28l1.34-1.34Z"/>
          <path class="cls-9" d="M32.26,60.01c-.44-2.97-4.43-4.72-5.45-.96-2.76-.28-6.86-3.14-9.23-1.43-1.74-4.15-7.26,.08-4.31,3.05,1.11,1.11,7.01,.42,8.69,.69,3.17,.51,4.98,.11,8.1,.08,2.99-.02,5.24,2.88,7.5,1.76,.06,.75,.55,1.38,.58,2.13,3.09,.84,4.39-2.16,2.64-4.43-1.84-2.38-5.14-.83-8.52-.87Z"/>
          <path class="cls-9" d="M60.9,36.29c1.9-3.03,0-9.09-4.04-6.43-.14-.51-.36-1.03-.51-1.55-6.01-.86,.43,3.93,.97,4.83,1.14,1.91,1.53,3.86,1.3,6.11-.17,1.65-1.07,4.27,.49,5.23,4.69,2.92,2.62-6.09,1.34-7.74l.45-.45Z"/>
          <path class="cls-1" d="M20.18,17.5c6.1-4.56-7.74-8.06-4.53-1.34-2.5,.85-5.88,3.26-1.29,4.5,3.3,.89,4.25-2.5,6.26-4.05l-.45,.89Z"/>
          <path class="cls-2" d="M14.36,41.66c1.09-6.95-7.45-5.65-4.62-2.2-7.67-.32,7.49,12.38,4.62,1.76v.45Z"/>
          <path class="cls-1" d="M44.34,50.16c1.26-1.42,.83-5.16-1.79-4.98-3.61,.25-1.25,4.72,1.34,4.98h.45Z"/>
          <path class="cls-1" d="M41.21,23.76c-6.61-6.33-1.31,9.48,.9,2.24l-.9-2.24Z"/>
          <path class="cls-1" d="M35.84,9.44c-.96-1.86-4.56-7.9-4.93-2.01-.14,2.32,3.74,7.26,5.37,3.35l-.45-1.34Z"/>
          <path class="cls-1" d="M39.87,63.14c-.04-4.58-2.86-1.78-4.47-2.19-2.23-.57-3.78-2.31-6.23-2.22,1.57,2.58,4,1.7,6.23,3.18,1.71,1.14,2.16,3.71,4.39,3.88,.43-.92,.7-2.07,.54-3.1l-.45,.45Z"/>
          <path class="cls-1" d="M64.48,33.55c-.73,.69-2.15,2.12-3.14,3.4,.56-3.74,.89-9.62-3.14-7.15-3.3,2.02-.25,9.63,2.26,11.02,.71-.57,.84-1.31,.88-2.29,1.23-1.61,4.84-3.89,3.13-4.98Z"/>
          <path class="cls-10" d="M66.13,25.78c-1.44-3.26-5.89-9.96-7.04-13.18-.52-1.45-.81-2.71-1.21-3.91C51.62,3.01,43.34,0,34.85,0c-1.82,0-3.65,.18-5.47,.51,2.74,3.17,8.15,6.08,9.91,7.58,3.58,3.05,5.63,7.13,3.62,11.65-.83,1.87-2.26,2.46-2.61,4.57-.31,1.91,1.17,3.97,.91,6.19-.58,5.01-6.75,13.54-12.46,13.44-3.04-.05-3.62-2.69-5.56-3.87-1.2-.73-3.42-.94-4.37-1.62-2.41-1.75-1.95-3.9-5.38-4.4-3.96-.58-3.25,1.72-5.81,3.4-3.03,1.99-5.56,1.59-7.49-.05,1.05,10.15,7.35,19.47,15.64,25.1,6.09,1.99,10.97,4.11,16.6,3.5,18.1-1.94,41.97-21.64,33.73-40.22Z"/>
          <path class="cls-11" d="M52.73,4.87c-5.16,2.37-1.76,9.1-.13,12.49,2.13,4.43,3.83,10,2.43,14.88-1.13,3.93-4.68,4.1-6.65,7.06-1.32,1.97-.45,3.68-.87,5.85-.87,4.49-4.47,9.28-9.51,8.73-1.34-.15-3.37-1.4-4.71-1.62-.66-.11-1.85,.76-3.1,.5-1.64-.34-2.89-2.39-4.25-3.08-4.7-2.37-11.06-1.83-12.36,4.26-2.17,10.2,8.69,7.78,14.14,9.15,4.13,1.04,4.45,4.32,9.84,2.19,2.59-1.03,6.6-3.49,6.42-6.6,3.34,2.77,9.75,.35,12.35-2.23,4.39-4.35,4.93-9.63,4.21-15.3,7.17,0,4.2-7.38,2.35-11.27,5.61-.61,.48-11.91-1.06-14.3l2.84,1.85c-2.86-5.41-7.03-9.64-11.93-12.57Z"/>
          <path class="cls-5" d="M34.5,4.52C30.8,.03,19.71,2.45,19.67,8.93c-5.21-.16-7.41,1.74-10.02,6.11-1.29,2.16-1.04,2.58-2.87,4.71-1.97,2.29-4.09,4.45-4.96,7.59-1.32,4.8,.31,10.79,6.05,11.17,2.35,.16,2.9-2.21,5.28-.54,1.12,.79,1.25,3.73,3,4.92,6.94,4.73,15.06,1.61,15.75-6.55,3.96,2.2,7.57,.82,9.34-3.63,.63-1.58,1.08-4.9,.66-6.51-.41-1.56-2.48-2.78-2.52-4.24-.05-2,12.47-9.79,5.34-10.3,.91-.43,2.12-2.96,.67-4.46,4.6-4.35-7.61-3.14-10.89-2.69Z"/>
          <path class="cls-8" d="M28.68,16.6c3.33-4.2-4.06-9.84-5.92-5.87-1.73-.88-3.76-.55-4.46,1.35C7.72,5.6,1.08,36.84,16.17,27.28c2.56,3.08-1.28,6.91,4.32,8.15,6.68,1.49,9.34-6.58,9.15-11.63,7.44,3.43,7.89-13.54-.96-7.19Z"/>
          <path class="cls-6" d="M19.29,12.31c-.13,0-.17,.21-.03,.23,.99,.19,1.79,1,2.03,1.96,.1,.41,.13,.89,.03,1.3-.05,.2-.86,1.61-1.01,1.17-.08-.24-.33-.29-.52-.14-.71,.57-.96,1.36-1.39,2.13-.97,1.76-2.44,2.14-4.32,1.6-.06-.02-.11,.06-.06,.1,.97,.81,2.3,.79,3.39,.18,1.32-.73,1.54-2.24,2.47-3.25,0,.01,0,.02,.01,.03,.05,.12,.24,.18,.36,.14,2.81-.94,2.01-5.65-.97-5.47Z"/>
          <path class="cls-6" d="M15,42.48c-.24-1.03-.16-1.74,0-2.75,.36-2.31-3.05-4.59-5.02-3.4-.09,.06-.09,.22,.03,.25,.79,.16,1.6,.08,2.38,.32,.58,.18,1.24,.55,1.65,1.02,.82,.95,.44,1.64,.25,2.66-.32,1.75,2.06,4.04-.67,5.1-.01,0-.01,.03,0,.03,.93,.02,1.37-.74,1.53-1.59,.12-.62-.02-1.06-.15-1.64Z"/>
          <path class="cls-6" d="M33.17,5.24s-.05,.03-.03,.05c1.09,1.08,2.08,2.03,2.65,3.5,.24,.62,.42,1.25,.38,1.92-.1,1.39-1.18,1.19-2.22,1-.12-.02-.23,.13-.13,.22,1.36,1.2,2.91,.2,2.86-1.48-.07-1.97-1.62-4.52-3.5-5.2Z"/>
          <path class="cls-6" d="M41.74,24.98c-.48-1.28-1.64-2.61-3.06-2.75-.06,0-.06,.08-.01,.09,1.09,.34,2.03,1.33,2.52,2.34,.24,.49,.45,1.12,.33,1.67-.17,.78-.82,.86-1.39,1.24-.08,.05-.04,.15,.04,.16,1.55,.2,2-1.62,1.57-2.75Z"/>
          <path class="cls-6" d="M15.85,27.26c-1.77-.08-1.4-1.31-1.78-2.48-.03-.08-.1-.13-.19-.11-2.68,.58-5.31-.39-4.77-3.68,.19-1.17,.43-2.37,.79-3.49,.91-2.85,2.39-5.39,5.5-5.95,.01,0,.01-.02,0-.02-4.48-1.41-6.75,7.72-6.76,10.64,0,2.64,2.22,2.83,4.32,2.98,1.54,.11,.5,.96,1.16,1.91,.42,.59,1.11,.47,1.74,.37,.09-.01,.06-.15-.02-.15Z"/>
          <path class="cls-6" d="M29.4,16.57s.01,.1,.05,.07c1.53-.95,3.51-1.38,4.64,.4,.7,1.1,.7,2.34,.27,3.51-.38,1.02-.95,2.1-1.71,2.89-.31,.33-.73,.73-1.2,.81-.7,.12-.99-.41-1.52-.73-.08-.05-.16,.03-.15,.11,.22,1.31,1.75,1.33,2.64,.73,1.26-.86,2.1-2.49,2.54-3.91,1.1-3.58-2.62-6.72-5.56-3.88Z"/>
          <path class="cls-6" d="M30.03,30.63s0-.02,0-.02c-.81-.15-1.42,.18-1.52,1.04-.07,.57,.93,2.27,1.02,2.05-.06,.14-.99,.67-1.14,.86-.3,.38-.51,.85-.58,1.33-.13,.93,.33,1.83,1.3,1.99,.11,.02,.19-.13,.08-.19-.87-.54-1.29-1.19-.92-2.21,.27-.75,.82-1.31,1.6-1.52,.13-.04,.16-.23,.04-.3-1.25-.73-1.68-2.76,.12-3.02Z"/>
          <path class="cls-6" d="M44.84,47.3c-.28-1.1-1.28-2.67-2.63-1.97-.08,.04-.02,.16,.06,.14,1.32-.25,2.04,.71,2.36,1.89,.25,.9,.35,2.04-.62,2.47-.04,.02-.03,.08,.01,.09,1.18,.31,.94-2.09,.81-2.61Z"/>
          <path class="cls-7" d="M64.75,33.89c-.85-.87-2.39,.63-3.23,1.65,.26-2.2,.9-6.76-1.98-6.32-.07,.01-.05,.11,0,.13,2.73,.97,1.44,4.74,1.46,6.94,0,.22,.31,.31,.42,.11,.31-.56,.79-1.05,1.26-1.47,.17-.15,1.01-.99,1.33-.89,.71,.22-.03,1.35-.24,1.59-.73,.87-2.39,1.52-2.55,2.76-.01,.11,.16,.18,.22,.09,.91-1.16,2.24-1.92,3.11-3.09,.33-.44,.68-1.01,.2-1.5Z"/>
          <path class="cls-7" d="M40.6,62.66c-.03-.08-.12-.16-.21-.12-.96,.37-.79-1.93-1.36-2.41-1.02-.85-2.66,.52-3.78,.46-.02,0-.04,.04-.01,.05,.74,.33,1.39-.03,2.11-.25,1.44-.44,1.71,.32,1.9,1.48,.06,.37,.12,.88,.5,1.08,.11,.06,.3,0,.39,.05,.36,.19,.33-.26,.31,.75,0,.36-.08,.68-.06,1.05,0,.09,.13,.11,.16,.02,.25-.71,.31-1.43,.06-2.15Z"/>
          <path class="cls-7" d="M57.09,14.42c-.38-2.13-2.22-2.73-3.66-1.11-.02,.02,0,.05,.03,.03,2.04-1.63,3.42-.05,3.33,1.82-.06,1.1-.66,2.17-1.19,3.12-.79,1.44-1.81,2.73-2.76,4.06-.12,.16,.16,.38,.28,.22,1.6-2.06,4.48-5.27,3.97-8.13Z"/>
          <path class="cls-7" d="M33.95,35.84c-.61-.83-.26-.92-.09-1.91,.32-1.84-.9-3.62-2.28-4.72-.08-.07-.21,.01-.15,.12,1.21,2.24,2.72,3.34,1.38,6.07-.06,.11-.03,.26,.08,.32,3.07,1.73-.6,4.05-2.85,2.63-.04-.02-.08,.03-.05,.06,1.25,1.42,4.89,1.06,4.66-1.35-.05-.54-.42-.81-.71-1.22Z"/>
          <path class="cls-7" d="M55.01,33.77c-.69-.98-1.57-1.5-2.6-1.07,.07-.87-.27-1.83-1.24-2.01-1.33-.26-2.12,1.28-2.39,2.31-.01,.05,.06,.08,.09,.04-.18,.29,.66-.97,.61-.92,.16-.2,.32-.39,.48-.59,1.68-.06,2.33,.45,1.93,1.52-.05,.19,.16,.37,.34,.26,.63,.03,1.26,.07,1.89,.1,.25,.23,.45,.48,.62,.77,.37,.6,.62,1.23,.66,1.95,.05,.86-.22,1.7-.23,2.55,0,.07,.1,.1,.14,.04,.79-1.55,.72-3.51-.29-4.94Z"/>
          <path class="cls-7" d="M58.87,48.89c-.38-1.09-1.22-1.26-2.1-.92,.16-.28,.29-.56,.39-.92,.02-.08-.03-.17-.11-.19-1-.28-1.51,.15-2.28,.75-.02,.02,0,.05,.03,.04,.49-.34,.9-.72,1.45-.27,.48,.4,.31,.41-.05,.91-.09,.13,.09,.29,.21,.21,1.69-1.06,2.59,.47,2.33,2.05-.16,.96-.78,1.65-1.32,2.42-.05,.06,.05,.13,.1,.08,1.21-1.04,1.9-2.57,1.35-4.15Z"/>
          <path class="cls-7" d="M33.63,44.51c-.4,.12-.77,.35-1.07,.65-.18,.18-.41,.89-.58,.97,.04-.02-.76-.13-.81-.12-1.02,.12-1.63,.74-2.76,.29-.12-.05-.23,.14-.13,.22,1.07,.88,2.87-.64,3.63,.17,.12,.13,.31,.05,.36-.1,1.38-3.66,5.18-.83,6.81,.91,.02,.03,.08,0,.07-.04-.78-1.86-3.47-3.59-5.53-2.96Z"/>
          <path class="cls-7" d="M19.4,50.26c-2.24,1.33-4.32,2.23-6.95,1.32-2.47-.86-4.55-2.88-5.99-5.01-2.27-3.37-3.12-8.35,0-11.45,.02-.02,0-.05-.03-.03-4.12,2.71-2.02,9.31,.32,12.45,1.58,2.12,3.82,4.15,6.48,4.72,2.11,.46,4.92-.07,6.24-1.9,.04-.05-.04-.12-.09-.09Z"/>
        </g>
      </g>
    </g>
  </g>
</svg>