<?xml version="1.0" encoding="UTF-8"?>
<svg xmlns="http://www.w3.org/2000/svg" viewBox="0 0 65.27 65.27">
  <defs>
    <style>
      .cls-1, .cls-2 {
        fill: #321c13;
      }

      .cls-1, .cls-3 {
        mix-blend-mode: multiply;
        opacity: .3;
      }

      .cls-2 {
        opacity: .44;
      }

      .cls-4 {
        isolation: isolate;
      }

      .cls-5 {
        opacity: .17;
      }

      .cls-5, .cls-6 {
        fill: #ffb6bf;
        mix-blend-mode: screen;
      }

      .cls-3 {
        fill: #50005b;
      }

      .cls-7 {
        fill: #8f5d17;
      }

      .cls-6, .cls-8 {
        opacity: .2;
      }

      .cls-8 {
        fill: #f96974;
        mix-blend-mode: overlay;
      }
    </style>
  </defs>
  <g class="cls-4">
    <g id="Layer_2" data-name="Layer 2">
      <g id="icons_planets">
        <g>
          <circle class="cls-7" cx="32.63" cy="32.63" r="32.63"/>
          <circle class="cls-7" cx="32.63" cy="32.63" r="32.63"/>
          <path class="cls-2" d="M21.6,17.76c-2.04-4.71-7.42-.69-2.34,1.92-.42,.51-.62,1.36-.99,1.82,3.19,1.88,5.85-1.01,4.29-4.22l-.96,.48Z"/>
          <path class="cls-2" d="M36.47,15.36c-.7-1.31-1.28-2.87-1.87-4.21,1.99-1.51,3.13-.87,2.8,1.66,1.19,.12,6.1,.63,7,1.53,4.98,4.97-6.3,12.33-8.4,2.46l.48-1.44Z"/>
          <path class="cls-2" d="M26.4,26.88c.79,.41,1.36,.67,2.33,.41,.56-2.31-.8-4.52-3.29-4.15-3.59,.54-2.07,3.65-2.82,5.68-.6,1.62-2.66,.98-1.93,3.93,.51,2.08,3.22,3.38,5.12,3.26,5.18-.33,4.32-5.62,2.03-8.66l-1.44-.48Z"/>
          <path class="cls-2" d="M33.11,25.44c-1.75,2.33-1.74,5.36,1.84,5.2,1.05-2.07,.2-4.17-1.36-5.68l-.48,.48Z"/>
          <path class="cls-2" d="M44.15,25.92c-1.04-2.32-3-1.67-3.96,.48-1.59,3.59,1.99,2.79,2.66,4.66,.92,2.58-1.7,4.13-1.15,5.92,.66,2.16,3.61,2.69,4.76,.48-.08-.14,0,1.24,.02,.99,2.56-.82,.94-3.59-.05-3.81,2.48-1.1,5.22-6.48,1.57-5.44,4.59-1.07-2.1-6.99-4.33-2.31l.48-.96Z"/>
          <path class="cls-2" d="M10.56,24.48c.37,.09,.46,.83,1.37,.41,1.14-5.15-6.18-2.03-4.35,1.84-1.28-1.96-5.26,2.18-1.32,4.7,4.19,2.67,8.54-3.19,3.82-5.5l.48-1.44Z"/>
          <path class="cls-2" d="M21.12,50.87c-4.95,4.74-14.69-7.47-8.64-9.5,3.1-1.04,2.66,2.96,5.28,3.52,1.33,.28,8.55-3.19,5.22,2.47,4.13-3.07,5.94,8.59-1.86,3.51h0Z"/>
          <path class="cls-2" d="M16.8,40.31c.07,4.34,4.2,1.43,.82-.81-1.23,.28-.44,.62-.82,1.29v-.48Z"/>
          <path class="cls-2" d="M35.51,39.35c-1.56,1.77-1.06,4.18,1.82,4.26,.92-1.11,1.25-2.3,.98-3.71-1.33-.5-1.51,.12-2.33,.89l-.48-1.44Z"/>
          <path class="cls-2" d="M45.11,56.63c.27,.67-.24,.82,.44,1.4,2.26-.95,2.81-4.07-.44-3.8v2.4Z"/>
          <path class="cls-2" d="M52.79,42.23c.1,.47-.05,.9,.07,1.37,1.86-.45,2.29-1.94,1.4-3.73-1.15,.01-.98,.69-1.48,1.4v.96Z"/>
          <path class="cls-2" d="M55.6,24.16l-.89-.16c-.17,1.67,.21,3.18,1.32,4.29,.85-1.61,.87-2.83-.43-4.13Z"/>
          <path class="cls-2" d="M27.31,6.39c-.22-.28-.59-.52-.96-.48-.16,.01-.33,0-.49,0,.02,0,.04,0,.06,0-.05,0-.1-.01-.16-.02-.03,0-.05,0-.08,0-.51,.01-.86,.3-1.22,.62-.27,.24-.55,.46-.65,.83-.09,.32-.07,.76,.02,1.08,.18,.64,.77,1.09,1.43,1.11,.1,0,.19,0,.29-.01,.03,0,.06,0,.1,0,.33,.07,.66,.02,.93-.24,.27-.15,.49-.41,.6-.74,.11-.36,.3-.71,.36-1.09,.07-.4,.04-.74-.22-1.07Z"/>
          <path class="cls-2" d="M28.88,15.14c-.5-.37-1.44-.07-1.44,.69s.95,1.06,1.44,.69c.8-.17,.8-1.22,0-1.39Z"/>
          <path class="cls-2" d="M35.99,2.55c-1.04,0-1.04,1.62,0,1.62s1.04-1.62,0-1.62Z"/>
          <path class="cls-2" d="M45.59,8.33c-1.02,0-1.02,1.58,0,1.58s1.02-1.58,0-1.58Z"/>
          <path class="cls-2" d="M32.65,51.83c-.55-.95-1.82-.44-1.92,.52-.03,.32-.07,.65-.1,.99-.25,.23-.49,.48-.66,.81-.31,.59,.06,1.35,.76,1.37,.05,.2,.11,.4,.19,.59,.3,.7,1.44,.48,1.6-.21,.07-.28,.11-.58,.14-.88,.27-.16,.5-.36,.64-.61,.49-.88-.22-1.85-.65-2.59Z"/>
          <path class="cls-2" d="M27.06,52.6c-.29-.04-.43-.11-.62-.34-.26-.31-.78-.27-1.05,0-.31,.31-.25,.74,0,1.05,.36,.45,.91,.7,1.48,.65,.34-.03,.64-.24,.68-.6,.04-.31-.15-.71-.5-.76Z"/>
          <path class="cls-2" d="M39.6,47.51c-.04-.93-1.41-.93-1.45,0-.01,.3,0,.55,.15,.82,.24,.43,.91,.43,1.15,0,.15-.26,.16-.52,.15-.82Z"/>
          <path class="cls-2" d="M49.43,46.77c-.95,0-.95,1.48,0,1.48s.95-1.48,0-1.48Z"/>
          <path class="cls-2" d="M51.83,38.14c-.94,0-.94,1.46,0,1.46s.94-1.46,0-1.46Z"/>
          <path class="cls-2" d="M60.35,35.61c-.48,.22-1,.39-1.38,.77-.46,.46-.67,1.14-.91,1.73-.17,.43,.12,.98,.49,1.2,.06,.03,.12,.05,.18,.07,.23,.36,.63,.59,1.09,.41,.68-.26,1.68-.46,1.91-1.25,.07-.23,.05-.43,.04-.65-.02-.5,.02-.65,.11-1.08,.2-.93-.7-1.57-1.54-1.18Z"/>
          <path class="cls-2" d="M40.01,58.88c.03-.13,.04-.26,.02-.4-.04-.33-.12-.67-.17-1-.08-.5-.66-.78-1.13-.69-.17-.05-.35-.06-.55-.03-.83,.16-1.61,.54-1.97,1.35-.26,.58-.29,1.26,0,1.84,.04,.08,.09,.14,.15,.2,.03,.2,.06,.4,.08,.59,.11,.74,1.19,.94,1.65,.44,.42-.46,.97-.9,1.25-1.46,0-.02,.01-.03,.02-.05,.41,0,.8-.32,.65-.79Z"/>
          <path class="cls-2" d="M19.62,54.45c-.04-.15-.08-.29-.12-.44-.11-.39-.5-.65-.9-.59-.36,.05-.76,.39-.71,.8,.08,.67,.15,1.51,.67,2,.33,.31,.84,.38,1.24,.15,.42-.25,.63-.72,.65-1.2,.02-.52-.41-.77-.83-.74Z"/>
          <path class="cls-2" d="M44.39,59.03c-.09-.93-1.35-.93-1.44,0-.03,.32-.04,.54,.12,.83,.25,.46,.96,.46,1.21,0,.15-.29,.15-.52,.12-.83Z"/>
          <path class="cls-2" d="M29.57,40.72c-.24-.42-.43-1.05-.97-1.17-.2-.05-.41-.02-.6,.04-.01-.03-.03-.07-.04-.11-.13-.31-.58-.41-.86-.28-.25,.11-.38,.31-.41,.55-.26,.4-.38,.98-.26,1.39,.29,.98,1.53,.97,2.34,.98,.72,0,1.16-.8,.81-1.41Z"/>
          <g>
            <path class="cls-2" d="M11.8,34.62s0,0,0,0c0,0,0,0,0,0Z"/>
            <path class="cls-2" d="M13.64,35.86c-.04-.07-.09-.12-.14-.18h0s0-.01-.01-.01c-.06-.07-.12-.15-.18-.21v-.04s-.01-.01-.01-.03c0-.02,0-.03,0-.04,0,0,0,0,0-.02,.05-.22,0-.51-.13-.69-.29-.43-1.09-.59-1.36-.03,0,0,0,.01-.01,.02-.03,.06-.06,.12-.1,.17-.06,.03-.12,.05-.18,.09-.28,.22-.44,.7-.2,1.02,.14,.19,.27,.34,.46,.48,.02,.02,.05,.04,.08,.06,.12,.17,.26,.33,.42,.46,.34,.27,.78,.36,1.15,.07,.32-.26,.47-.75,.22-1.13Z"/>
            <path class="cls-2" d="M11.8,34.62s0-.01,.01-.02c.1-.19,.01-.03-.01,.02Z"/>
          </g>
          <path class="cls-2" d="M5.23,34.72c-.32-.47-1.12-.64-1.49-.14-.3-.23-.81-.14-.97,.3-.75,2.03-.11,4.26,1.61,5.55,.37,.28,.99,.07,1.2-.31,.95-1.76,.76-3.74-.35-5.39Z"/>
          <path class="cls-2" d="M52.99,13.91s-.02-.04-.03-.06c.15-.24,.19-.56,.02-.8-.08-.12-.17-.23-.28-.33-.14-.22-.36-.35-.61-.48-.13-.23-.25-.46-.39-.69-.47-.73-1.74-.49-1.7,.46,.02,.46,.13,.88,.38,1.22,.29,.77,.59,1.47,1.41,1.87,.78,.38,1.62-.4,1.19-1.19Z"/>
          <path class="cls-2" d="M61.54,22.7c-.1-.14-.22-.27-.35-.39,.02-.08,.04-.15,.05-.24,.08-.69-.73-.9-1.21-.6-.37-.02-.7,.36-.6,.78-.27,.42-.52,.89-.54,1.33-.05,1,.98,1.43,1.79,1.64,.42,.11,.87-.13,.98-.56,.18-.65,.27-1.37-.12-1.96Z"/>
          <path class="cls-2" d="M26.11,60.28c-.16-.65-1.11-1.17-1.65-.62-.42,.42-.22,1.16,.26,1.43,.09,.1,.19,.19,.28,.29,.46,.47,1.1-.02,1.02-.56,.09-.16,.14-.35,.09-.54Z"/>
          <path class="cls-2" d="M11.25,51.91c-.12-.27-.36-.48-.55-.69-.76-.82-2.05,.47-1.23,1.23,.21,.2,.42,.43,.69,.55,.75,.33,1.42-.34,1.09-1.09Z"/>
          <path class="cls-2" d="M17.64,8.78c-.09-.8-1.19-1.04-1.45-.2-.04,.14-.06,.3-.07,.45-.57-.35-1.25,.54-.73,1,0,0,.02,.02,.03,.03,0,.07,.04,.16,.05,.22,.03,.19,.06,.37,.17,.55,.38,.64,1.16,.53,1.76,.33,.28-.09,.54-.37,.52-.69-.04-.56-.22-1.19-.27-1.7Z"/>
          <path class="cls-2" d="M10.36,17.07c-.24-.73-1.15-1.67-1.9-.89-.24,.25-.32,.67-.15,.98,.03,.23,.08,.48,.15,.78,.16,.64,1.15,.62,1.33,.08,.41-.09,.75-.45,.58-.95Z"/>
          <path class="cls-2" d="M39.14,33.7c-.02-.26-.16-.56-.39-.71,0-.03,0-.05,0-.08h0c.28-.81-.69-1.4-1.37-1.05,0,0,0,0,0,0-.23,.15-.45,.3-.68,.45-.17-.04-.25-.02-.44,0-.27,.04-.58,.35-.62,.62-.04,.3,.03,.55,.16,.77,.04,.29,.2,.51,.43,.66,.15,.21,.34,.37,.58,.47,.36,.37,.83,.78,1.3,.58,.09-.04,.16-.08,.23-.12,.14-.02,.27-.07,.38-.16,.42-.33,.46-.95,.43-1.44Z"/>
          <path class="cls-2" d="M47.2,41.29c-1.61-.24-3.27,.1-4.55,1.16-.56,.46-.95,1.04-1.14,1.67-.33,.47-.61,1-.82,1.58-.19,.52,.21,1.31,.79,1.39,.14,.02,.27,.03,.4,.04,.34,.18,.69,.35,1.06,.38,.57,.05,1.04-.36,1.45-.73,1.71-.65,3-2.11,3.61-4.07,.17-.54-.2-1.33-.81-1.42Z"/>
          <path class="cls-2" d="M53.69,49.45c-.58,.02-1.1,.29-1.41,.8-.1,.16-.18,.35-.24,.53-.07,.04-.14,.09-.2,.15-.06,.06-.21,.29-.15,.21,.08-.08,.04-.04-.09,.13-.05,.08-.08,.16-.09,.25-.03,.12-.05,.25-.04,.37,0,.03,0,.06,0,.1,.03-.19,.02-.15-.01,.12,0,.13,.03,.27,.08,.39,.24,.63,.97,.87,1.49,.39,.63-.58,1.09-1.24,1.52-1.97,.37-.63-.1-1.49-.84-1.47Z"/>
          <path class="cls-8" d="M31.67,1.92c-3.73-3.15-7.21,.75-10.58,2.14-4.18,1.73-9.16,1.94-9.62,8.35C1.11,15.09,2.93,31.39,8.51,36.95c11.46,11.42,29.92,3.01,26.57-13.79,2.82,1.1,6.31-1.49,6.14-4.79,3.94,1.86,6.88-2.16,6.75-6.08-.26-7.95-9.08-10.31-16.3-10.36Z"/>
          <path class="cls-3" d="M32.63,65.27c18.02,0,32.63-14.61,32.63-32.63,0-13.41-8.09-24.93-19.66-29.95,.2,.55,.47,1.14,.83,1.76,1.28,2.25,3.52,3.98,4.66,6.35,1.92,3.99,.64,2.1-.11,6-.67,3.47,1.22,4.81,1.34,8.06,.08,2.17-1.66,3.98-1.51,6.75-9.09-.17-1.53,10.86-6.17,12.96-1.76,.8-4.05-1.02-6.05-.88-2.93,.22-4.55,.62-5.38,3.95-2.55-.65-6.15-4.41-6.92,.82-3.47-.56-6.72,.21-9.51-2.22-1.89-1.65-1.55-3.65-3.81-4.71-2.65-1.24-5.69,.81-8.18-.09-2.38-.87-2.48-3.4-4.47-4.22,2.23,15.86,15.84,28.06,32.31,28.06Z"/>
          <path class="cls-8" d="M65.27,32.63c0-5.57-1.4-10.81-3.86-15.4,.37,1.61,.77,3.16,.89,4.35,.58,6.08-.03,11.83-2.41,17.37-7.2,16.75-24.44,25.06-41.89,20.33-1.71-.46-4.73-1.82-7.57-2.75,5.83,5.42,13.63,8.73,22.21,8.73,18.02,0,32.63-14.61,32.63-32.63Z"/>
          <path class="cls-6" d="M33.11,10.08c1.29-7.25-8.8-7.33-10.17-1.5-7.79-3.93-17.73,6.93-15.68,14.97,4.69,18.42,31.33,6.12,25.85-13.47Z"/>
          <path class="cls-5" d="M22.08,18.24c7.68-6-.99-14.05-8.2-6.24-9.21,9.98,7.35,19.59,10.12,6.24h-1.92Z"/>
          <path class="cls-5" d="M11.19,22.35c-.08,0-.13,.12-.04,.16,.63,.32,.95,.78,.82,1.51-.12,.71-.65,1.21-1.31,.68-.08-.07-.22-.05-.25,.07-.11,.43-.26,.85-.14,1.28,0,.02,.03,.02,.04,0,.16-.31,.24-.66,.33-1,1.69,1.19,2.53-2.86,.55-2.7Z"/>
          <path class="cls-5" d="M11.73,26.7c-.06-.11-.22-.03-.2,.08,.11,.55,.46,.93,.64,1.45,.46,1.38-.73,2.86-1.86,3.54-1.38,.83-3.74,.46-4.97-.53,0,0-.02,0-.01,.01,1.06,1.41,3.69,1.69,5.16,.82,.95-.56,1.92-1.67,2.15-2.78,.21-1.01-.49-1.73-.91-2.59Z"/>
          <path class="cls-5" d="M22.7,17.5c-.07-.08-.2-.01-.2,.08,.04,1.19,.83,2.14,.1,3.34-1.07,1.77-2.93,1.4-4.48,.6-.02-.01-.05,.02-.03,.04,1.36,1.19,3.19,1.45,4.5,.03,.96-1.04,1.02-2.99,.1-4.08Z"/>
          <path class="cls-5" d="M20.73,15.81c-.57-.39-1.3-.58-1.98-.5-.03,0-.04,.04,0,.05,.56,.13,1.12,.27,1.61,.58,.27,.17,.5,.38,.67,.65,.15,.25,.18,.53,.33,.78,.05,.09,.18,.06,.21-.03,.2-.58-.38-1.23-.83-1.53Z"/>
          <path class="cls-5" d="M37.89,11.13c-.21-.54-.73-.83-1.24-1.03-.02,0-.02,.02-.01,.03,.43,.3,.88,.65,1.01,1.18,.13,.52-.18,.92-.21,1.42,0,.09,.12,.14,.18,.08,.39-.38,.45-1.17,.27-1.67Z"/>
          <path class="cls-5" d="M43.41,13.59s-.04,.03-.02,.04c1.63,1.52,3.11,3.19,1.56,5.46-.95,1.38-2.52,1.81-3.96,2.48-.19,.09-.04,.33,.13,.3,2.02-.3,4.2-1.62,4.81-3.67,.61-2.05-.62-3.85-2.5-4.61Z"/>
          <path class="cls-5" d="M25.68,5.76s-.04,.06,0,.07c.58,.07,1.31,.17,1.63,.73,.16,.27,.19,.67,.1,.97-.08,.28-.32,.36-.43,.59-.25,.53,.11,1.06-.64,1.4-.46,.22-1.16,.04-1.62-.08-.13-.03-.23,.13-.13,.23,.46,.43,1.52,.4,2.06,.14,.66-.33,.52-1.08,.82-1.63,.77-1.39-.28-2.61-1.8-2.41Z"/>
          <path class="cls-5" d="M29.3,15.07c-.08-.01-.15,.08-.08,.14,.17,.17,.36,.29,.42,.54,.06,.24-.01,.49-.19,.66-.39,.38-1.04,.15-1.52,.13-.06,0-.07,.09-.01,.1,.62,.23,1.47,.46,1.89-.24,.28-.46,.08-1.24-.51-1.34Z"/>
          <path class="cls-5" d="M17.32,7.85s-.03,0-.02,.02c.45,.64,.78,1.78,.57,2.56-.27,1.03-1.4,.78-2.18,.76-.09,0-.12,.13-.05,.17,.73,.45,2.01,.21,2.4-.6,.43-.9-.04-2.26-.72-2.91Z"/>
          <path class="cls-5" d="M8.67,15.67s-.03,.03,0,.04c.52,.27,1.19,.7,1.46,1.23,.36,.74-.58,1.57-1.27,1.57-.17,0-.2,.25-.04,.3,.81,.24,1.73-.78,1.71-1.55-.02-.82-1.11-1.54-1.85-1.59Z"/>
          <path class="cls-5" d="M4.84,34.24c-.08-.04-.18,.06-.1,.13,1.26,1.1,1.42,2.18,1.28,3.78-.05,.59-.03,1.34-.28,1.89-.73,1.53-2.36-.33-2.9-1.06-.01-.02-.04,0-.03,.02,.67,1.18,2.73,3,3.29,.75,.43-1.75,.71-4.6-1.25-5.51Z"/>
          <path class="cls-5" d="M13.46,35.6c.4-.52,.09-1.15-.49-1.5-.11-.07-.28,.07-.19,.19,.29,.38,.88,.72,.3,1.24-.1,.09-.04,.24,.07,.28,.63,.23,.43,1.06-.15,1.22-.64,.18-1.18-.49-1.54-.92,0,0-.01,0,0,0,.42,.68,1.2,1.68,2.04,.98,.54-.44,.48-1.15-.04-1.5Z"/>
          <path class="cls-5" d="M29.3,29.79c-.16-.46-.33-.95-.59-1.36-.59-.94-.39-.38-.22-.65,.12-.19,.43-.19,.58-.48,.43-.88-.36-2.43-.73-3.22-.08-.17-.37-.05-.31,.13,.15,.45,1.35,3.46-.03,3.11-.17-.04-.31,.14-.22,.29,1.24,2.09,2.37,4.96,.68,7.18-1.24,1.63-3.18,1.11-4.95,1.06-.02,0-.02,.02,0,.03,1.44,.47,3.35,.77,4.66-.21,1.73-1.3,1.77-4,1.13-5.86Z"/>
          <path class="cls-5" d="M33.51,25.1s-.06,.04-.03,.07c1.19,.8,1.8,1.77,1.89,3.22,.04,.64,.09,1.35-.45,1.76-.6,.44-1.18-.03-1.86-.02-.13,0-.21,.2-.07,.27,.6,.29,1.55,.67,2.19,.28,.6-.37,.63-1.21,.64-1.83,.01-1.69-.6-3.2-2.29-3.74Z"/>
          <path class="cls-5" d="M39.47,33.66c-.07-.3-.25-.43-.43-.66-.22-.26-.14,.02-.12-.28,0-.1,.08-.21,.09-.31,.07-.52-.26-.74-.74-.62,0,0,0,.01,0,.02,.68,.11,.56,.66,.28,1.06-.04,.05-.01,.14,.04,.17,.66,.35,.8,1.01,.32,1.59-.4,.49-.95,.57-1.55,.5-.1-.01-.14,.15-.05,.19,1,.51,2.4-.51,2.15-1.64Z"/>
          <path class="cls-5" d="M47.43,34.61c-.27-1.88,4.46-4.29,1.83-6.14,.58-.41,.64-1.04,.25-1.81-.77-1.51-2.53-1.63-4.04-1.55-.03,0-.03,.04,0,.05,.77,.09,2.05,.24,2.74,.67,.54,.34,1.89,1.84,.53,2.4-.18,.07-.25,.33-.06,.44,2.38,1.34-.96,3.8-1.68,5.14-.21,.38-.35,.65-.29,1.1,.03,.26,.35,.31,.46,.5,.55,.62,.71,1.29,.51,2.01-.17,.77-.71,1.1-1.61,.99-.16-.14-.46,.05-.31,.24,.67,.9,1.48,.51,2.04-.34,.38-.58,.54-1.26,.42-1.95-.13-.69-.68-1.09-.78-1.74Z"/>
          <path class="cls-5" d="M36.58,2.44s-.04,.02-.03,.04c.33,.34,.37,1.04,.12,1.44-.34,.52-.79,.22-1.27,.21-.05,0-.07,.07-.03,.09,.52,.27,1.15,.3,1.46-.27,.24-.45,.17-1.19-.26-1.5Z"/>
          <path class="cls-5" d="M46.34,8.65c-.03-.07-.12-.04-.11,.03,.06,.39,.01,.83-.16,1.18-.25,.5-.64,.49-1.03,.14-.01,0-.03,0-.02,.02,.27,.4,.71,.54,1.05,.15,.34-.39,.48-1.04,.28-1.52Z"/>
          <path class="cls-5" d="M53.22,14.28c-.07-.25-.07-.51-.12-.76-.14-.65-.52-1.19-1.08-1.54-.13-.08-.25,.1-.16,.2,.39,.44,.77,.73,.91,1.34,.07,.3,.15,.68,.18,.98,.03,.44-.3,.84-.75,.73-.25-.06-.48-.27-.66-.44-.27-.25-.5-.57-.84-.74-.02,0-.04,.01-.02,.03,.47,.37,.72,.97,1.22,1.31,.5,.34,1.05,.1,1.32-.4,.17-.3,.07-.41-.01-.71Z"/>
          <path class="cls-5" d="M54.14,40.03s-.1,.02-.07,.07c.39,.69,.7,1.16,.5,2.01-.19,.83-.74,1.38-1.55,1.6-.06,.02-.05,.12,.02,.12,.86-.06,1.46-.81,1.68-1.59,.19-.65,.18-1.88-.58-2.2Z"/>
          <path class="cls-5" d="M61,35.69c-.07,.05-.03,.17,.06,.14,1.14-.38,.81,1.57,.72,2.21-.09,.69-.3,1.25-1.02,1.48-.5,.16-1.03,.17-1.53,.36-.02,0-.01,.03,0,.03,.7-.12,1.63-.05,2.2-.54,.46-.4,.51-1.05,.57-1.62,.06-.56,.21-2.93-1.02-2.06Z"/>
          <path class="cls-5" d="M57,25.44c-.18-.6-.66-1.72-1.46-1.4-.02,0-.01,.04,0,.03,.81-.12,1.22,1.12,1.31,1.74,.13,.98-.37,1.89-1.03,2.57-.1,.11,.05,.25,.16,.16,.88-.69,1.34-2.03,1.01-3.1Z"/>
          <path class="cls-5" d="M61.68,22.09c-.09-.59-.32-.83-.9-.94-.05-.01-.06,.07,0,.07,.95-.04,.48,.84,.55,1.24,.01,.08,.1,.15,.12,.22,.14,.44,.34,.71,.38,1.2,.06,.77-.46,1.47-1.33,1.24-.41-.11-.73-.53-1.13-.7-.08-.03-.15,.09-.09,.15,.48,.42,.94,.91,1.62,.85,.64-.06,1.09-.41,1.18-1.04,.12-.78-.27-1.56-.39-2.29Z"/>
          <path class="cls-5" d="M37.7,39.52c-.13,.04-.09,.2,.03,.22,1.02,.13,.52,1.3,.44,1.96-.04,.35-.04,.64-.22,.96-.12,.21-.27,.33-.41,.51-.13,.17-.19,.32-.22,.51-.88-.12-1.68-.15-2.46-.66-.02-.02-.05,.02-.03,.04,.8,.7,1.57,.73,2.58,.92,.1,.02,.17-.04,.18-.14,.08-.61,.74-.92,.85-1.59,.09-.55,.19-1.13,.24-1.69,.07-.67-.22-1.27-.99-1.05Z"/>
          <path class="cls-5" d="M35.84,39.66c-.11-.23-.3-.33-.54-.36-.04,0-.06,.05-.03,.08,.17,.14,.3,.3,.34,.52,.04,.19-.03,.37,.04,.55,.03,.09,.13,.1,.19,.02,.16-.21,.11-.59,0-.82Z"/>
          <path class="cls-5" d="M47.83,40.86c-.14-.15-.34,.07-.22,.22,1.33,1.71-.6,3.64-1.77,4.83-.71,.72-1.5,1.41-2.57,1.47-.96,.05-1.91-.3-2.83-.51-.05-.01-.09,.06-.04,.09,1.01,.5,2.15,.96,3.3,.75,1.17-.21,1.99-1.07,2.77-1.9,1.21-1.28,2.84-3.29,1.35-4.94Z"/>
          <path class="cls-5" d="M25.7,46.73c-.54-.32-1.92,.38-2.06-.14-.06-.22,.57-.75,.58-1.09,.01-.41-.06-.44-.34-.76-.11-.12-.3,.03-.22,.17,.35,.63-.48,1.55-.58,2.21-.02,.1,.04,.24,.17,.23,.41-.04,.75-.21,1.15-.28,1.96-.31,1.96,1.72,1.64,3-.3,1.22-.86,1.84-2.24,1.84-1,0-2.08-.35-2.85-.99-.07-.06-.15-.07-.23-.03-3.38,1.83-5.63-.51-8.27-2.28,0,0-.02,0-.01,.01,2.4,2.05,4.04,3.86,7.41,3.08,.59-.14,.83-.28,1.4-.08,.65,.23,1.11,.52,1.82,.64,.73,.12,1.74,.24,2.39-.23,1.16-.83,1.66-4.47,.23-5.32Z"/>
          <path class="cls-5" d="M10.56,50.97c-.08,0-.11,.11-.04,.15,.58,.31,1.09,.99,.79,1.67-.48,1.08-1.54,0-1.99-.5-.02-.02-.05,0-.04,.03,.47,.64,1.52,1.78,2.17,.65,.39-.68-.05-1.92-.9-2Z"/>
          <path class="cls-5" d="M20.69,54.69c-.15-.23-.34-.44-.6-.53-.29-.11-.49-.16-.69-.42-.11-.13-.19-.23-.33-.33-.09-.06-.18,.07-.11,.15,.35,.38,.46,.64,.95,.8,.76,.24,.91,1.04,.61,1.7-.51,1.14-1.66,.5-2.3-.14,0,0-.02,0-.02,.01,.49,.75,1.68,1.45,2.36,.5,.35-.49,.47-1.2,.13-1.72Z"/>
          <path class="cls-5" d="M27.55,52.69c-.38-.3-.76-.53-1.07-.91-.07-.08-.2-.01-.2,.08-.02,.69,1.1,.86,1.37,1.39,.13,.24,0,.55-.22,.69-.24,.15-.58,.1-.84,.06-.43-.07-.84-.2-1.28-.08-.02,0-.02,.04,0,.04,.77,.15,2.44,.94,2.7-.35,.08-.39-.17-.69-.46-.92Z"/>
          <path class="cls-5" d="M33.54,52.55c-.19-.7-.42-1.36-1.2-1.52-.03,0-.04,.03-.02,.04,.59,.44,.8,.85,.96,1.55,.06,.24,.16,.51,.17,.75,.09,.26,.02,.51-.21,.75,0,.37-.15,.6-.45,.69-.08,.11-.18,.22-.26,.33-.07,.09,0,.24-.06,.34-.38,.27-.76,.54-1.15,.81-.23-.19-.45-.4-.64-.63-.08-.09-.21,.02-.16,.12,.29,.56,.84,1.11,1.51,.88,.3-.1,.54-.38,.65-.66,.07-.16,.02-.37,.08-.52,.36-.91,.28-.28,.6-.63,.65-.73,.4-1.39,.16-2.3Z"/>
          <path class="cls-5" d="M26.01,59.63c-.06-.05-.17,0-.14,.08,.15,.52,.56,1.05,.32,1.62-.34,.82-1.22-.12-1.67-.31-.02,0-.04,.02-.02,.03,.43,.36,1.23,1.21,1.77,.52,.36-.46,.19-1.58-.25-1.95Z"/>
          <path class="cls-5" d="M39.69,56.92c-.08-.07-.21,.02-.15,.12,.33,.56,.64,1.31,.4,1.97-.16,.43-.66,.61-.95,.94-.25,.29-.39,.65-.63,.94-.55,.67-1.55,.84-2.12,.11-.04-.05-.11,0-.1,.06,.15,.56,.69,.71,1.23,.65,.8-.09,1.14-.54,1.55-1.16,.36-.55,1.11-.81,1.32-1.44,.25-.74,.04-1.67-.56-2.17Z"/>
          <path class="cls-5" d="M44.16,58.45c-.07-.04-.14,.04-.11,.11,.18,.41,.33,.72,.18,1.18-.06,.18-.16,.38-.33,.47-.22,.12-.45-.01-.66-.11-.05-.02-.09,.03-.06,.08,.37,.46,.94,.29,1.18-.2,.2-.41,.28-1.27-.21-1.53Z"/>
          <path class="cls-5" d="M46.35,54.13c-.07,.01-.07,.14,0,.15,2.36,.35,.42,4.78-1.05,3.87-.02-.01-.03,.01-.02,.03,.88,1.04,1.91-.76,2.15-1.47,.31-.91,.38-2.78-1.08-2.58Z"/>
          <path class="cls-5" d="M53.91,49.27c-.08,.03-.07,.15,.02,.15,1.07,.08,.33,1.89,.05,2.44-.54,1.07-1.38,1.84-2.56,1.16-.01,0-.02,0-.01,.02,1.05,1.34,2.44-.27,2.88-1.28,.16-.36,.87-2.97-.38-2.49Z"/>
          <path class="cls-5" d="M18.06,39.66c-.05-.03-.12,.05-.07,.09,.54,.48,1.09,1.14,1.08,1.91,0,.62-.52,1.19-1.18,1.03-.48-.11-.87-.51-1.11-.92-.01-.02-.04,0-.03,.02,.44,.85,1.65,1.58,2.31,.49,.54-.89-.23-2.14-1-2.62Z"/>
          <path class="cls-5" d="M29.8,40.64c-.15-.45-.42-1.11-.84-1.37-.09-.06-.18,.05-.14,.14,.33,.7,1.25,1.62,.74,2.48-.43,.73-1.92,.24-2.53-.03-.02,0-.04,.02-.02,.03,.61,.48,2.11,.99,2.7,.24,.34-.42,.26-1.02,.09-1.49Z"/>
          <path class="cls-5" d="M39.47,46.95s-.11,.03-.08,.08c.23,.34,.27,.71,.12,1.09-.07,.17-.17,.36-.34,.46-.16,.1-.31,.03-.48,.06-.05,0-.07,.07-.05,.11,.31,.44,.89-.15,1.03-.44,.19-.4,.26-1.13-.21-1.36Z"/>
          <path class="cls-5" d="M49.81,46.87s-.09,.03-.06,.06c.2,.26,.43,.57,.35,.93-.12,.54-.8,.43-1.2,.27-.05-.02-.07,.07,0,.07,.28,.02,.5,.21,.79,.18,.21-.02,.39-.15,.48-.34,.18-.38-.02-.96-.35-1.18Z"/>
          <path class="cls-5" d="M15.26,10.63c-1.95,1.66-3.42,4.19-3.75,6.74-.27,2.08,.48,4.83,2.59,5.7,.18,.07,.33-.2,.19-.32-3.76-3.17-2.23-8.35,.97-11.4,1.63-1.55,7.38-3.85,8.56-.69,.03,.07,.12,.04,.11-.03-.57-3.64-6.96-1.46-8.67,0Z"/>
          <path class="cls-5" d="M22.53,8.2c-1.66-.21-2.83-.74-4.55-.48-1.61,.24-3.16,.98-4.45,1.95-2.54,1.9-4.37,5.06-5.57,7.94-1.18,2.84-.96,5.76,.22,8.58,1.21,2.88,3.45,4.55,6.25,5.76,.2,.08,.36-.17,.17-.29-1.14-.76-2.42-1.28-3.47-2.16-1.23-1.03-2.11-2.46-2.67-3.95-1.14-3.07-.99-5.87,.44-8.79,1.22-2.5,2.8-5.19,5.08-6.85,1.37-1,2.99-1.72,4.69-1.91,1.33-.15,2.56,.34,3.86,.25,.03,0,.03-.04,0-.05Z"/>
          <path class="cls-5" d="M14.45,39.44c-2.68-1.05-4.84-2.08-6.58-4.45-1.39-1.9-2.69-3.88-3.42-6.15-1.55-4.84-.32-10.36,3.05-14.14,.01-.01,0-.03-.02-.02-3.66,3.62-5,9.36-3.45,14.27,.82,2.61,2.38,5.02,4.09,7.14,1.66,2.06,3.84,2.76,6.28,3.53,.13,.04,.17-.15,.05-.2Z"/>
          <path class="cls-5" d="M52.53,26.6c.52-1.05,.71-2.35,.54-3.51-.04-.25-.48-.2-.45,.06,.17,1.78-.46,2.98-1.47,4.36-.67,.9-.54,1.46-.66,2.54-.05,.46-.5,1.73-.86,2.06-.28,.26-.81,.35-1.17,.53-.31,.15-.63,.29-.9,.52-.62,.54-.91,1.34-1.16,2.1-.62,1.92-.49,3.55-.38,5.52,.05,.93,.15,2.11-.38,2.93-.92,1.44-3.39,1.04-4.76,.6-.94-.3-1.46-.76-2.47-.63-1.08,.14-2.31,.55-3.29,1.02-1.38,.67-1.74,2.54-3.73,1.82-.93-.33-1.51-1.04-2.59-1-.64,.02-.99,.26-1.45,.67-.76,.68-1.04,1.26-2.11,1.44-.66,.11-1.41,.06-2.07,.06-1.72,.01-3.46-.17-5-.99-1.31-.69-2.09-1.77-2.95-2.94-1.5-2.03-2.91-2.91-5.5-2.69-1.88,.16-3.91,.7-5.63-.37-1.29-.8-2.12-2.19-3.23-3.2-.04-.04-.1,.02-.06,.06,1.43,1.63,2.64,3.71,4.94,4.11,1.73,.3,3.45-.3,5.17-.22,2.15,.1,3.13,1.47,4.3,3.06,1.45,1.98,3.22,3.17,5.7,3.51,1.95,.27,4.65,.6,6.2-.78,1.25-1.11,1.77-1.7,3.31-.83,.39,.22,.74,.55,1.16,.72,.82,.33,1.5,.16,2.13-.46,.53-.51,.72-1.11,1.41-1.5,.65-.36,1.46-.57,2.17-.77,1.79-.52,3.22,.48,4.97,.69,1.54,.19,3.26,.14,3.96-1.47,.76-1.75,.03-3.79,.11-5.61,.08-2.01,.75-4.21,2.66-5.07,.81-.37,1.57-.72,1.87-1.62,.22-.67,0-1.37,.09-2.04,.2-1.38,1.05-1.66,1.56-2.69Z"/>
          <path class="cls-5" d="M3.12,28.74c-.76-.39-1.27,.4-1.37,1.22-.18,.34-.2,.71,.07,.96,0,.05-.02,.1-.01,.14,0,.17,.13,.3,.3,.31,.18,.14,.44,.17,.63-.04,.1-.11,.19-.24,.26-.37,.65-.62,.98-1.8,.13-2.23Z"/>
          <path class="cls-5" d="M2.24,27.07s-.03-.03-.04-.05c-.04-.06-.16-.05-.2,0l-.04,.05c-.32,.41,.6,.41,.28,0Z"/>
          <path class="cls-5" d="M15.85,6.74c-.05-.1-.15-.18-.28-.2,0,0-.01,0-.02,0-.09-.04-.19-.05-.3,0-.05,.02-.09,.04-.13,.07-.1,.04-.2,.09-.3,.16-.02,.01-.02,.03-.04,.05-.17,.1-.19,.32-.05,.44,.01,.02,.04,.03,.06,.04,.01,0,.02,.02,.04,.03,0,0,0,0,0,0,.02,.01,.04,.04,.07,.05,.34,.11,.56,.05,.87-.12,.17-.09,.23-.37,.08-.51Z"/>
          <path class="cls-5" d="M24.19,4.38c-.23-.05-.45-.04-.66,.01-.18,.02-.36,.06-.49,.12-.54,.24-1.01,.89-.75,1.45-.04,.05-.08,.1-.13,.15-.19,.21-.01,.6,.29,.5,.13-.04,.25-.1,.37-.16,.05,0,.09,0,.14,0,.37-.08,.7-.4,.94-.67,.21-.22,.43-.51,.43-.83,.02-.03,.04-.05,.05-.08,.11-.18,0-.44-.2-.49Z"/>
          <path class="cls-5" d="M30.42,18.69c-.05-.03-.1-.05-.15-.07-.03-.06-.06-.12-.1-.18-.13-.17-.35-.27-.55-.15-.37,.23-.54,.54-.54,.98,0,.08,.02,.15,.06,.21,0,.03,0,.05,.01,.08,0,.05,0,.1,0,.16,.01,.06,.04,.11,.08,.16,0,0,0,0,0,0,.13,.27,.4,.49,.72,.4,.46-.13,.58-.78,.64-1.17,.03-.17-.02-.32-.17-.42Z"/>
          <path class="cls-5" d="M19.29,27.41c-.26,0-.31,.32-.12,.46,.01,0,.02,.02,.04,.03,.05,.03,.13,.03,.18,0,.01,0,.02-.02,.04-.03,.19-.14,.14-.46-.12-.46Z"/>
          <path class="cls-5" d="M16.21,26.55c-.13-.19-.33-.23-.53-.14-.45,.2-.74,.65-.83,1.13-.16,.37-.19,.82-.08,1.18,.04,.13,.17,.23,.31,.23,1.11,0,1.73-1.53,1.13-2.4Z"/>
          <path class="cls-5" d="M18.19,29.56c-.16,0-.31,.02-.47,.06-.14,.04-.25,.21-.2,.35,.02,.05,.04,.08,.06,.12-.15,.15-.04,.44,.22,.39,.36-.07,.43-.25,.62-.53,.12-.17-.04-.4-.23-.4Z"/>
          <path class="cls-5" d="M26.96,18.88c-.04-.09-.12-.14-.21-.18-.26-.26-.74-.18-.84,.21-.07,.08-.11,.18-.11,.31,0,.15,0,.3,0,.45-.22,.77-.21,2.53,.92,2.11,.98-.36,.54-2.2,.23-2.9Z"/>
          <path class="cls-5" d="M24.59,20.37s.03,.03,.05,.04c.03,.03,.07,.03,.1,0,.02-.01,.03-.03,.05-.04,.27-.26-.46-.26-.19,0Z"/>
          <path class="cls-5" d="M32.89,11.85c-.08-.63-.45-1.36-1.21-1.06-.67,.26-.88,1.24-.86,1.87,0,.29,.07,.6,.25,.82,.07,.36,.22,.68,.51,.91,.28,.22,.6,.19,.82-.11,.06-.08,.11-.19,.15-.29,.72-.4,.72-1.41,.34-2.14Z"/>
          <path class="cls-5" d="M27.68,11.9c-.4-.14-.99,.11-.86,.61,.03,.11,.1,.2,.18,.28,.04,.07,.09,.15,.17,.23,.09,.09,.25,.12,.36,.05,.38-.27,.83-.94,.15-1.17Z"/>
          <path class="cls-5" d="M31.62,6.24c-.13-.16-.4-.18-.58-.1-.07,.03-.12,.08-.18,.12-.07,.03-.14,.05-.21,.09-.02,.01-.03,.03-.05,.04-.05-.03-.11-.04-.16,.02-.15,.16-.27,.36-.38,.56-.18,.28-.3,.6-.31,.91-.01,.09-.03,.17-.04,.26-.04,.63,.39,1.14,1.04,.87,.67-.27,1.38-1.04,1.52-1.76,.1-.54-.22-.89-.64-1.02Z"/>
          <path class="cls-5" d="M14.88,16.01c-.09-.13-.28-.21-.43-.11-.13,.08-.24,.18-.33,.3-.29,.15-.46,.55-.42,.92-.03,.2-.02,.4,.03,.6,.05,.2,.32,.33,.5,.2,.17-.12,.4-.39,.56-.68,.3-.31,.36-.85,.09-1.23Z"/>
          <path class="cls-5" d="M17.22,20c0-.19,0-.38-.01-.56,0-.27-.28-.53-.57-.43-.02,0-.04,.02-.06,.03-.23-.03-.46,.07-.61,.25-.17,.22-.24,.53-.24,.85-.34,.56,.02,1.66,.73,1.45,.09-.01,.18-.05,.25-.11,.01-.01,.02-.02,.03-.03,.01-.01,.03-.02,.04-.03,.42-.33,.49-.91,.44-1.42Z"/>
          <path class="cls-5" d="M20.91,13.59c-.38,0-.38,.59,0,.59s.38-.59,0-.59Z"/>
          <path class="cls-5" d="M16.15,17.78c-.03-.11-.15-.23-.28-.21-.23,.03-.35,.12-.44,.29,0,0,0,0,0,.01-.02,.04-.04,.09-.06,.14-.08,.23,.21,.44,.4,.34,.05,.02,.11,.04,.18,.04,.2,.01,.3-.19,.27-.36-.02-.09-.04-.17-.06-.25Z"/>
          <path class="cls-5" d="M23.69,14.27c-.08-.02-.15-.01-.22-.01-.06-.22-.19-.4-.47-.46-.49-.1-1.04,.33-1.03,.83,0,.34,.24,.63,.53,.71,0,.11,0,.21,.04,.32,.08,.28,.54,.39,.67,.09,.02-.05,.05-.11,.07-.18,.32-.09,.57-.57,.65-.88,.04-.17-.06-.38-.24-.42Z"/>
          <path class="cls-5" d="M22.82,10.84c-.53,0-.89,.64-.76,1.13,0,.12,0,.25,.05,.37,.08,.19,.29,.22,.42,.08,.18,.04,.37,.01,.53-.07,.05,0,.11,.02,.16,.02,.1,0,.22-.05,.26-.15,.24-.54,.05-1.36-.67-1.37Z"/>
          <path class="cls-5" d="M17.83,13.55c.02-.11-.06-.24-.18-.24,0,0,0,0,0,0-.02-.05-.08-.07-.13-.04-.06-.01-.13-.02-.2-.03-.24-.02-.36,.32-.19,.47,.16,.15,.31,.18,.52,.13,.17-.04,.21-.18,.17-.3Z"/>
          <path class="cls-5" d="M20.31,9.6c-.44,.07-.97,.67-.62,1.09,.07,.09,.2,.06,.27,0,.12-.09,.12-.19,.18-.32,.07,.08,.22,.12,.29,.02,.14-.17,.13-.3,.19-.49,.06-.2-.13-.34-.31-.31Z"/>
          <path class="cls-5" d="M22.14,25s0-.04-.02-.07c-.04-.12-.14-.22-.26-.28-.06-.05-.14-.09-.22-.12-.14-.05-.32,.04-.39,.16-.06,.1-.1,.2-.14,.31-.01,.01-.03,.02-.04,.03-.21,.28-.33,.63-.33,.98,0,0,0,.02,0,.03-.08,.44-.04,1.29,.58,1.28,.58,0,.83-.76,.91-1.23,.06-.36,.06-.77-.09-1.1Z"/>
          <path class="cls-5" d="M30.12,23.21s-.02-.02-.03-.03c-.16-.12-.41-.06-.41,.17,0,.39,.12,.51,.46,.67,.17,.08,.34,.01,.4-.16,.05-.16,.08-.3,.08-.47,0-.25-.35-.38-.5-.18Z"/>
          <path class="cls-5" d="M18.75,35.71s0-.03,.01-.04c.06-.26-.12-.53-.4-.52-.03,0-.05,.01-.08,.01-.25-.13-.55-.13-.86,.12-.31,.24-.53,.64-.53,1.03,0,.23,.08,.51,.24,.69,.02,.07,.04,.14,.07,.2,.14,.26,.48,.27,.68,.09,.05-.04,.09-.1,.13-.15,.38-.07,.71-.4,.79-.79,.05-.22,.02-.44-.06-.64Z"/>
          <path class="cls-5" d="M8.95,20.69s-.06,.07-.09,.11c-.1,.02-.15,.15-.16,.27,0,.1,.11,.19,.2,.15,.01,0,.02,0,.03-.01,.07,.05,.16,.06,.22,0,.08-.09,.08-.17,.13-.26,.15-.21-.17-.43-.34-.26Z"/>
          <path class="cls-5" d="M40.53,3.51s-.05,.04-.01,.05c3.24,1.05,1.52,6.16-1.6,5.22-1.07-.32-1.98-1.3-1.73-2.48,.24-1.13,1.36-2.07,2.52-1.95,1.51,.15,1.91,1.69,.94,2.76-.4,.44-2.61,1.48-2.38-.15,.07-.49,.7-.89,1.07-1.14,.12-.08,.05-.3-.1-.25-.67,.24-1.51,1.03-1.33,1.82,.21,.91,1.49,.92,2.16,.6,2.04-.97,1.97-3.99-.55-4.02-2.21-.03-3.63,2.9-1.92,4.44,1.39,1.26,3.45,.96,4.45-.6,1.09-1.71,.51-3.77-1.5-4.3Z"/>
          <path class="cls-5" d="M38.6,24.78c-.53-.16-1.38-.06-1.7,.46-.35,.55,.24,.97,.73,1.06,.1,.02,.15-.1,.07-.16-.25-.18-.45-.23-.46-.56-.01-.29,.03-.31,.27-.44,.31-.15,.69-.18,1.02-.09,.8,.23,1.3,1.06,.68,1.75-.67,.74-2.15,.79-2.77-.04-.43-.58-.39-1.42-.04-2.02,.49-.84,1.43-1.03,2.33-.82,.04,0,.05-.05,.02-.06-.95-.35-1.98-.21-2.55,.7-.45,.71-.49,1.72,.03,2.41,.66,.87,2.1,.9,2.94,.28,1.05-.78,.64-2.1-.55-2.45Z"/>
          <path class="cls-5" d="M24.46,37.88c-.57-.22-1.25,.09-1.81,.21-.54,.11-1.41,.15-.94-.76,.16-.32,.53-.55,.84-.7,.22-.12,.46-.19,.72-.2,.57,0,.62,.22,.14,.64-.11,.04-.11,.25,.03,.23,1.29-.17,.63-1.34-.42-1.17-.76,.12-2.68,1.72-1.29,2.3,.46,.19,1.09-.08,1.54-.19,.58-.14,1.17-.31,1.54,.31,.37,.61-.06,1.37-.64,1.69-.88,.49-2.22-.04-2.97-.59-.52-.38-.97-.94-.95-1.62,.03-.97,.88-1.91,1.85-2,.03,0,.03-.04,0-.04-1.57-.14-2.64,1.8-1.84,3.1,.67,1.1,2.64,2.05,3.9,1.5,1.06-.46,1.69-2.2,.32-2.73Z"/>
          <path class="cls-5" d="M8.55,42.72c-1.38,.47-.99,2.92,.35,3.16,.18,.03,.25-.22,.08-.28-.64-.21-.96-.68-.95-1.36,0-.52,.28-1.36,.95-1.24,1.22,.21,1.42,2.78,.93,3.62-.6,1.04-1.8,.54-2.47-.08-.59-.55-.92-1.25-.91-2.07,.01-1.52,1.78-4.1,3.57-3.04,0,0,.01,0,0,0-.75-.65-1.87-.32-2.58,.25-.99,.78-1.54,2.16-1.32,3.41,.27,1.52,2.93,3.84,4,1.7,.49-.98,.17-4.68-1.67-4.06Z"/>
          <path class="cls-5" d="M50.8,20.59c-1.14-1.81-2.46,.36-1.24,.94,.08,.04,.19-.05,.13-.13-.29-.46-.43-.46,.24-.63,.66-.17,.64-.01,.86,.56,.17,.44,.3,.93,.32,1.4,.06,1.16-1.05,1.2-1.84,.62-.68-.51-1.04-1.27-1.18-2.09-.16-1.01,0-2.81,1.19-3.17,1.43-.44,1.59,1.39,2.01,2.27,0,0,.02,0,.02,0-.29-.75-.22-1.92-1.01-2.38-.66-.39-1.48-.09-1.93,.46-1.37,1.71-.57,4.84,1.47,5.6,2.24,.84,1.6-2.4,.94-3.46Z"/>
          <path class="cls-5" d="M36.31,46.23c-1.15-1.11-2.67-.29-2.64,1.27,.03,1.56,1.86,2.91,2.48,.89,.04-.14-.16-.22-.23-.1-1.75,2.79-2.81-3.35-.26-2.05,1.2,.61,1.44,2.83,.61,3.81-1.11,1.31-2.54-.2-2.79-1.33-.22-1.02-.15-2.28,.51-3.14,.02-.02-.02-.05-.04-.03-.93,1.02-1.15,2.67-.64,3.94,.48,1.17,2.07,2.05,3.14,1,1.04-1.03,.87-3.28-.14-4.26Z"/>
          <path class="cls-5" d="M54.3,32.1c-1.09-1.32-3.45-1.18-4.62-.06-.02,.02,0,.07,.04,.05,1.34-.94,4.34-.91,4.6,1.15,.18,1.44-1.34,2.32-2.63,1.99-.9-.23-1.68-1.3-.33-1.76,.22-.08,.51-.17,.74-.12,.38-.04,.55,.25,.5,.88-.16,0-.31,.02-.47,.04-.14,.01-.19,.18-.07,.26,.49,.32,1.35-.03,1.35-.67,0-.86-1.1-.99-1.72-.9-.74,.11-1.76,.62-1.51,1.53,.23,.83,1.26,1.23,2.03,1.24,1.86,.03,3.45-1.99,2.1-3.62Z"/>
          <path class="cls-5" d="M58.23,14.93c-.66-.79-1.52-.68-2.13,.08-1,1.26-1.26,4.51,.41,5.41,1.72,.92,1.54-2.21,1.35-3.07-.11-.48-.35-1.59-1.07-1.23-.83,.41-.41,1.89,0,2.43,.11,.15,.32,.03,.25-.14-.14-.32-.38-.73-.34-1.1-.13-.39,.1-.55,.69-.48,.05,.13,.09,.27,.12,.41,.09,.36,.15,.73,.18,1.1,.03,.45,.04,.96-.12,1.38-.46,1.23-1.43-.04-1.64-.66-.37-1.1-.4-2.41,.16-3.45,.16-.29,.38-.68,.7-.82,.75-.33,1.33,.31,1.56,.92,.26,.69,.28,1.59,.17,2.31,0,.02,.02,.02,.03,0,.39-.97,.39-2.26-.31-3.1Z"/>
          <path class="cls-5" d="M29.05,1.38c-.06-.13-.27-.21-.4-.16-.3,.11-.62,.27-.72,.6-.02,.07-.03,.14-.03,.21-.09,.21-.09,.44,.11,.61,.09,.08,.21,.1,.32,.04,.01,0,.01-.02,.02-.02,.04,0,.07-.01,.11-.02,.12,0,.25-.02,.36-.11,.08-.06,.13-.14,.16-.22,.18-.24,.22-.57,.07-.93Z"/>
          <path class="cls-5" d="M32.84,3.35s-.04-.03-.07-.04c-.3-.19-.3,.47,0,.28,.02-.01,.04-.03,.07-.04,.07-.05,.07-.15,0-.2Z"/>
          <path class="cls-5" d="M35.35,7.31c-.74-.04-1.24,1.01-.84,1.59,.22,.31,.62,.28,.89,.06,.01,0,.02-.02,.03-.03,.13-.02,.24-.07,.34-.16,.41-.4,.2-1.42-.42-1.45Z"/>
          <path class="cls-5" d="M35.76,21.18c-.27,.26,.24,.62,.39,.3,.12-.24-.18-.51-.39-.3Z"/>
          <path class="cls-5" d="M32.04,33c-.23-.15-.51-.03-.65,.17-.1,.13-.18,.28-.26,.44-.04,.07-.07,.15-.09,.23-.13,.34-.19,.7-.11,1.04,.04,.16,.13,.25,.24,.3,.1,.21,.41,.27,.61,.11,.1-.01,.2-.05,.26-.12,.52-.61,.79-1.66,0-2.16Z"/>
          <path class="cls-5" d="M33.22,40.63c-.02-.19-.15-.37-.36-.36-.79,.05-1.1,.94-.97,1.63,.07,.35,.62,.34,.7,0,0-.03,.01-.06,.02-.09,.05,0,.1,0,.14-.03,.41-.23,.52-.7,.48-1.14Z"/>
          <path class="cls-5" d="M4.1,43.65c-.06-.28-.19-.53-.4-.74-.14-.14-.46-.14-.55,.07-.25,.6,.08,1.3,.7,1.52,0,0,0,0,0,0,.06,.05,.11,.09,.16,.13,.2,.16,.5-.1,.42-.33-.08-.24-.2-.46-.34-.66Z"/>
          <path class="cls-5" d="M14.59,52.2c-.16-.04-.36,.05-.4,.23-.09,.42,.05,.92,.53,1,.09,.01,.19-.03,.24-.1,.05,.05,.09,.09,.14,.14,.19,.19,.48,0,.42-.25-.11-.5-.44-.89-.94-1.02Z"/>
          <path class="cls-5" d="M46.12,22.01c-.41,.29-.54,.76-.32,1.22,.14,.29,.57,.12,.57-.16,.07-.03,.13-.07,.14-.15,.05-.22,.04-.44,.05-.66,.01-.21-.26-.38-.44-.25Z"/>
          <path class="cls-5" d="M58.95,32.06s0-.06,0-.08c0-.05-.02-.09-.05-.11-.08-.21-.34-.31-.52-.13-.29,.29-.46,.83-.13,1.15,.09,.09,.22,.09,.31,.03,.16,.07,.39,.02,.43-.24,.03-.22-.01-.41-.04-.61Z"/>
          <path class="cls-5" d="M57.89,47.88c0-.17-.04-.32-.05-.49-.03-.4-.68-.4-.63,0,0,.03,0,.06,.01,.08h0s0,0,0,0c0,.05,.01,.11,.02,.16,0,.05,.03,.09,.06,.12,.02,.06,.04,.12,.05,.19,.06,.32,.51,.22,.53-.07,0,0,0,0,0,0Z"/>
          <path class="cls-5" d="M63.24,31.02c-.09-.02-.12-.03-.22-.02-.22,.01-.22,.32,0,.34,.1,0,.13,0,.22-.02,.14-.04,.14-.26,0-.29Z"/>
          <path class="cls-5" d="M23.26,55.62c-.27,.03-.43,.23-.38,.5,.06,.37,.22,.68,.45,.97,0,0,0,0,0,0h0s.04,.06,.07,.08c.09,.1,.22,.13,.34,.11,.12,.1,.26,.17,.4,.21,.17,.04,.4-.05,.43-.24,.14-.8-.41-1.73-1.31-1.63Z"/>
          <path class="cls-5" d="M33.51,63.57s.03,0,.05,0c.06,0,.12-.08,.13-.13v-.05c.14-.93-1.11,.33-.18,.19Z"/>
          <path class="cls-5" d="M18.55,60.35c-.27-.2-.56-.33-.88-.44-.32-.11-.67,.31-.46,.6,.17,.24,.49,.51,.81,.44,.08,.02,.17,.04,.25,.06,.42,.1,.6-.42,.28-.66Z"/>
          <path class="cls-5" d="M43.39,50.31c-.87,.14-1.59,.93-1.9,1.72-.07,.16,.04,.43,.2,.5,.76,.34,1.71-.33,1.86-1.14,.11-.16,.21-.33,.3-.49,.19-.33-.12-.65-.46-.59Z"/>
          <path class="cls-5" d="M60.1,43.2c0-.15-.03-.28-.05-.43,0-.03-.02-.05-.04-.07,0-.02,0-.04,0-.05-.03-.11-.13-.12-.21-.07-.08,0-.17,.02-.22,.07-.21,.2-.22,.5-.03,.72,.06,.07,.14,.06,.22,.04,.13,.06,.31-.03,.33-.21,0,0,0,0,.01,0Z"/>
          <path class="cls-5" d="M60.33,26.97c-.25-.11-.48-.02-.58,.23-.19,.5,0,.97,.21,1.43,.07,.16,.2,.22,.33,.21,0,0,.02,0,.03,0,.18,.21,.59,.13,.63-.22,.07-.58,0-1.38-.62-1.65Z"/>
          <path class="cls-5" d="M53.03,9.24c-.13-.25-.33-.46-.58-.49-.1-.06-.2-.11-.3-.15-.22-.09-.46,.13-.46,.35,0,.57,.31,1.27,.89,1.4,.11,.15,.24,.3,.39,.42,.16,.13,.47,.11,.52-.14,.1-.5-.12-1-.46-1.39Z"/>
          <path class="cls-5" d="M50.09,7.15s-.05,.02-.07,.03c-.17,.08-.17,.38,0,.46,.02,.01,.05,.02,.07,.03,.57,.26,.57-.79,0-.53Z"/>
          <path class="cls-5" d="M53.67,20.03c.02-.09-.07-.16-.15-.12-.13-.05-.3-.01-.37,.12-.15,.31-.2,.6-.11,.93,.03,.1,.11,.2,.22,.22h.03s0,.03,.01,.05c.09,.21,.33,.25,.47,.06,.28-.4,.22-.91-.1-1.26Z"/>
          <path class="cls-5" d="M36.61,54.2s-.04,.05-.06,.07c-.29-.04-.51,.1-.59,.41-.03,.11,.02,.19,.09,.24,0,.03,.01,.07,.04,.1,.07,.08,.14,.16,.21,.25,.06,.07,.19,.08,.27,.04,.34-.2,.5-.51,.52-.9,.01-.26-.32-.37-.5-.21Z"/>
          <path class="cls-5" d="M10.48,10.37c-.04-.05-.09-.1-.14-.14-.11-.08-.27-.1-.38-.04,0,0,0,0,0,0,0,0,0,0,0,0-.03,.02-.05,.03-.07,.06-.21,.17-.38,.38-.42,.66-.03,.2,.01,.43,.16,.56,0,.08,.08,.14,.16,.14,.09,.04,.2,.03,.29-.07,.23-.25,.38-.54,.5-.86h0c.03-.09,0-.21-.07-.3Z"/>
          <path class="cls-5" d="M42.93,4.05c-3.13-2.01-6.51-1.85-10.06-2.3-.48-.06-.91,.02-1.38-.17-.57-.24-.9-.6-1.52-.75-1.3-.32-2.64,.14-3.85,.6-1.5,.57-2.95,1.32-4.32,2.16-.99,.6-1.97,1.3-3.08,1.64-.82,.25-1.7,.28-2.54,.44-2.39,.44-4.66,2.44-4.21,5.09,0,.03,.05,.02,.05,0,.25-2.11,1.26-3.94,3.4-4.59,1.29-.39,2.65-.3,3.92-.8,2.61-1.02,4.76-2.88,7.46-3.79,.64-.22,1.35-.45,2.03-.48,1.3-.05,1.77,.66,2.85,1.12,.6,.26,1.49,.06,2.18,.12,1.66,.14,3.32,.07,4.96,.41,1.44,.3,2.67,.92,3.97,1.57,.16,.08,.29-.14,.14-.24Z"/>
          <path class="cls-1" d="M23.47,24.76c-.3,.65-.42,1.37-.55,2.07-.27,1.45-.32,2.26-1.45,3.27-1.04,.93-1.09,2.25,.01,3.18,.05,.05,.14-.01,.1-.08-1-1.67,.5-2.57,1.2-3.71,.43-.71,.42-1.75,.58-2.54,.16-.84,.29-1.82,.85-2.5,1.38-1.7,3.51-.54,3.9,1.27,.04,.2,.35,.15,.35-.05,.11-2.96-3.86-3.35-5-.91Z"/>
          <path class="cls-1" d="M34.34,29.89c-.45-.12-.91-.09-1.31-.37-.48-.34-.63-.88-.6-1.45,.04-.9,.45-1.83,1.11-2.43,.05-.04,0-.11-.06-.1-1.05,.22-1.53,2.08-1.43,2.99,.12,1.06,1.21,1.97,2.28,1.58,.1-.04,.11-.18,0-.21Z"/>
          <path class="cls-1" d="M40.88,21.13c-1.35-.07-2.38-.53-3.29-1.53-1.14-1.24-1.17-2.19-.89-3.71,.13-.73,.07-1.28-.22-2-.4-1.01-1.99-2.35-.72-3.22,.02-.01,0-.05-.02-.04-.67,.28-1,.39-.86,1.17,.09,.5,.56,.86,.8,1.27,.5,.84,.85,1.72,.66,2.72-.11,.59-.34,.94-.29,1.57,.18,2.05,2.67,4.61,4.85,4.03,.15-.04,.11-.26-.04-.27Z"/>
          <path class="cls-1" d="M18.91,16.39c.68,.04,1.1,.48,1.63,.84,0,0,.01,0,.01,0-.15-1.17-2.22-1.72-2.9-.73-.45,.65-.25,1.6,.29,2.13,.49,.48,1.19,.72,1,1.55-.11,.52-.44,.88-.29,1.42,.05,.2,.31,.17,.38,0,.21-.55,.63-1.39,.5-2-.14-.66-.8-.91-1.23-1.34-.69-.69-.48-1.94,.62-1.87Z"/>
          <path class="cls-1" d="M10.83,22.37c-1.43,.14-3.07,1.14-3.46,2.6-.13,.48,.02,1.16-.46,1.51,.03-.02-.81,.15-.85,.17-.48,.23-.79,.65-1.02,1.1-1.18,2.38,1.76,5.65,4.16,4.09,.16-.1,.06-.36-.13-.31-1.11,.3-2.27,.06-3.15-.73-1.16-1.04-1.07-4.22,1.3-3.88,.11,.02,.21-.03,.25-.14,.16-.48,.11-.9,.22-1.38,.35-1.62,1.65-2.59,3.16-2.92,.07-.01,.05-.13-.02-.12Z"/>
          <path class="cls-1" d="M46.59,25.33c-.52-.07-2.54,.04-2.11,1.04,.02,.06,.11,.07,.16,.04,.28-.18,.39-.47,.73-.6,.38-.16,.85-.15,1.26-.1,.96,.11,1.61,.51,2.08,1.34,0,.01,.03,0,.03,0,.41-1.02-1.49-1.61-2.14-1.7Z"/>
          <path class="cls-1" d="M43.99,37.94c-1.26,.23-1.85-.36-1.78-1.76,.19-.47,.39-.93,.63-1.38,.15-.35,.31-.64,.44-1,.27-.8,.47-1.82,.16-2.64-.22-.57-.65-.93-1.12-1.3-.95-.76-1.87-1-1.61-2.77,.15-.98,1.34-2.96,2.65-1.74,.06,.06,.15-.01,.11-.09-.59-1.26-1.93-.56-2.58,.32-1.1,1.48-.86,3.04,.46,4.19,.47,.4,1.12,.69,1.43,1.25,.63,1.14,.09,2.44-.4,3.5-.37,.79-.95,1.67-.72,2.59,.26,1.05,1.6,1.85,2.5,1.08,.12-.1,0-.3-.15-.26Z"/>
          <path class="cls-1" d="M47.32,41.97c-.7-1.18-3.1-.41-4.01,.09-.89,.5-1.17,1.39-1.68,2.21-.42,.67-.8,1.14-.4,1.92,0,.02,.04,0,.04-.01-.03-.94,.33-1.32,.78-2.07,.41-.68,.7-1.38,1.43-1.78,1.03-.56,2.63-.88,3.63-.16,.13,.09,.29-.09,.21-.21Z"/>
          <path class="cls-1" d="M61.35,35.78c-.71-.51-1.67-.02-2.22,.52-.61,.6-.94,1.39-.54,2.17,.02,.03,.06,0,.06-.02-.16-.72,.23-1.5,.76-1.97,.54-.49,1.2-.64,1.91-.55,.09,0,.1-.11,.04-.15Z"/>
          <path class="cls-1" d="M56,27.7c-.47-1.1-1.12-1.8-.82-3.08,.02-.1-.12-.14-.15-.04-.41,1.14,.14,2.29,.8,3.22,.07,.11,.22,.02,.17-.1Z"/>
          <path class="cls-1" d="M46.18,29.29c.64-.93-.56-1.41-1.33-1.22-1.22,.3-.9,1.63,.06,2.09,1.35,.65,3.26-.57,2.76-2.13-.51-1.6-2.71-1.48-3.81-.64-.75,.58-1.15,1.51-.59,2.36,.62,.94,1.77,1.22,2.82,1.11,.05,0,.08-.1,.01-.1-.74-.1-1.5-.21-2.07-.74-.79-.73-.74-1.66,.13-2.29,.59-.43,1.33-.62,2.05-.39,.72,.23,1.24,.93,.87,1.68-.28,.57-1.05,.86-1.65,.74-.35-.07-1.1-.56-.82-1.01,.29-.46,1.48-.34,1.21,.38-.08,.22,.24,.33,.36,.15Z"/>
          <path class="cls-1" d="M27.8,30.12c-.55-1.47-1.88-2.13-2.59-.27-.29,.75-.33,2.75,.77,2.97,.88,.18,1.03-1.26,1.03-1.83,0-.18-.29-.23-.32-.04-.02,.17-.04,.72-.17,.85-.8,.15-1.16-.13-1.07-.83-.02-.34,.04-.66,.19-.96,.47-1.15,1.17-1,1.62-.05,.44,.92,.74,2.2,.41,3.19-.4,1.21-1.69,1.83-2.67,.8-.74-.78-1.01-1.98-1.01-3.01,0-.95,.22-2.05,.66-2.9,.68-1.29,1.56-1.01,2.63-.43,.02,.01,.05-.02,.03-.04-.54-.48-1.25-1.06-2.02-.79-1.1,.39-1.52,2.15-1.67,3.13-.25,1.64,.44,5.82,3.03,4.97,1.97-.64,1.7-3.24,1.14-4.74Z"/>
          <path class="cls-1" d="M41.85,14.81c-1.55-.45-4.14-.09-3.86,2.05,0,.03,.04,.03,.04,0,.17-4.36,8.82-.4,4.83,2.29-1.07,.72-3.17,1-4.17,0-1.62-1.63,2.24-3.61,2.94-1.17,.06,.19,.3,.13,.33-.04,.24-1.84-2.58-1.79-3.54-.94-1.33,1.17-.15,2.77,1.22,3.1,1.51,.37,3.66-.09,4.4-1.6,.83-1.69-.61-3.24-2.18-3.69Z"/>
          <path class="cls-1" d="M21.4,19.29c-.13-.19-.36-.35-.6-.3-.3,.06-.45,.41-.55,.66,0,.02,.02,.02,.03,.01,.13-.23,.38-.6,.69-.43,.16,.09,.25,.32,.3,.49,.13,.5-.09,1.08-.52,1.37-.23,.16-.64,.26-.89,.07-.31-.24,.12-.62,.3-.79,.09-.09-.02-.22-.13-.17-.42,.21-.91,.76-.43,1.19,.41,.37,1.08,.2,1.46-.13,.52-.45,.75-1.36,.34-1.95Z"/>
          <path class="cls-1" d="M22.56,43.93c-1.02-.18-2.2,.54-3.14,.79-2.32,.6-2.95-.99-4.36-2.33-1.03-.98-2.44-1.45-3.44-.15-.8,1.05-.88,2.7,0,3.7,.02,.02,.05,0,.04-.03-.8-1.72,.11-5.32,2.57-3.56,1.11,.79,1.66,2.25,2.89,2.9,.99,.52,1.93,.2,2.93-.15,.38-.13,1.95-.82,2.35-.61,.43,.23,.06,1.27-.03,1.57-.05,.15-.3,.61-.36,.79-.09,.28,.36,.47,.48,.2,.4-.89,1.86-2.8,.08-3.12Z"/>
          <path class="cls-1" d="M5.27,34.92c-.22-.21-.46-.41-.79-.39-.26,.01-.37,.21-.59,.26-.21,.05-.34-.1-.58,.02-.22,.11-.34,.34-.43,.56-.55,1.33-.19,3.44,1.04,4.27,.1,.07,.24-.07,.17-.17-.58-.82-1.06-1.6-1.08-2.64-.01-.57,.05-2.02,.94-1.68,.07,.03,.14-.02,.18-.07,.28-.38,.77-.2,1.1-.1,.03,.01,.06-.04,.04-.06Z"/>
          <path class="cls-1" d="M25.99,6.05c-.58-.02-1.25,.24-1.65,.67-.73,.79-.63,2.74,.8,2.5,.02,0,.02-.03,0-.04-.48-.17-.86-.5-.91-1.03-.04-.43,.13-.93,.45-1.22,.3-.28,.75-.45,1.16-.47,.51-.02,.7,.24,1.02,.57,.05,.05,.16,.03,.17-.05,.08-.59-.54-.92-1.05-.93Z"/>
          <path class="cls-1" d="M16.76,8.15c-.63,0-.64,.56-.64,1.04-.19-.08-.38-.15-.58-.22-.05-.02-.12,0-.16,.04-.52,.56,.06,2.45,.87,1.75,.02-.02,0-.07-.03-.06-.48,.04-.66-.33-.73-.75-.02-.14-.06-.4,.02-.54,.09-.15,0-.07,.14-.05,.19,.03,.39,.15,.55,.26,.12,.08,.26-.03,.27-.15,.01-.26-.08-1.26,.48-.85,.22,.16,.3,.51,.41,.74,.06,.12,.25,.06,.25-.07,0-.47-.31-1.14-.86-1.14Z"/>
          <path class="cls-1" d="M35.8,2.83c-.36,.14-.89,.86-.35,1.13,.05,.02,.1,0,.1-.06,.02-.17-.07-.32-.02-.49,.04-.14,.15-.25,.27-.33,.3-.19,.51-.09,.49,.28,0,0,0,0,.01,0,.32-.42-.07-.7-.49-.53Z"/>
          <path class="cls-1" d="M45.29,8.54c-.44,.23-.64,.92-.14,1.21,.08,.05,.17-.03,.15-.12-.07-.29-.17-.59,.13-.79,.33-.22,.46,.09,.64,.3,.02,.02,.05,0,.06-.01,.17-.51-.44-.8-.84-.59Z"/>
          <path class="cls-1" d="M51.09,11.13c-.38-.24-.83-.08-1.07,.28-.53,.79,.23,2.22,.83,2.77,.14,.13,.33-.03,.26-.2-.29-.62-.82-1.22-.84-1.94,0-.2,.05-.42,.22-.55,.24-.2,.46-.07,.65,.11,.21,.2,.42,.47,.62,.69,.02,.03,.07,0,.06-.04-.15-.43-.3-.87-.72-1.13Z"/>
          <path class="cls-1" d="M60.1,21.3c-.54,.26-.85,.86-.54,1.37-.24,.2-.44,.47-.47,.79-.03,.27,.09,.67,.43,.63,.03,0,.05-.03,.04-.06-.06-.22-.24-.34-.18-.6,.06-.25,.24-.46,.45-.61,.08-.06,.09-.16,.03-.23-.31-.38,0-.83,.38-1.01,.52-.24,.77,.14,.86,.61,.03,.15,.23,.1,.24-.03,.08-.76-.56-1.19-1.24-.86Z"/>
          <path class="cls-1" d="M9.63,16.63c-.17-.14-.34-.29-.54-.39-.38-.2-.73-.08-1.03,.21-.04,.04-.04,.09-.02,.13,.15,.34,.3,.71,.51,1.02,.01,.02,.05,0,.04-.02-.05-.19-.12-.36-.18-.54-.03-.09-.15-.31-.13-.41,.07-.37,.58-.18,.76-.06,.3,.2,.59,.66,.97,.67,.08,0,.14-.1,.09-.17-.11-.19-.32-.3-.48-.44Z"/>
        </g>
      </g>
    </g>
  </g>
</svg>