<svg xmlns="http://www.w3.org/2000/svg" viewBox="0 0 71.76 71.36"><defs><style>.cls-1,.cls-2,.cls-3,.cls-4,.cls-5,.cls-6{mix-blend-mode:multiply}.cls-1,.cls-2,.cls-5,.cls-6{fill:#678b82}.cls-1,.cls-4{opacity:.54}.cls-2{opacity:.37}.cls-10,.cls-7,.cls-8,.cls-9{mix-blend-mode:overlay}.cls-11,.cls-3,.cls-7{fill:#87acc8;opacity:.53}.cls-12{isolation:isolate}.cls-5,.cls-8{opacity:.39}.cls-10,.cls-13,.cls-14,.cls-8,.cls-9{fill:#e8cadd}.cls-4{fill:#8cb0ac}.cls-13,.cls-6{opacity:.74}.cls-14{mix-blend-mode:soft-light;opacity:.47}.cls-15{fill:#b4c4bd}.cls-9{opacity:.64}</style></defs><g class="cls-12"><g id="Layer_2" data-name="Layer 2"><g id="icons_planets"><g><path d="M5.14,44.9S-.32,48.33,.17,38.1c.45-9.51,3.18-7.16,3.18-7.16,0,0,.17-5.3,1.05-9.52,1.35-6.54,9.86-12.42,14.95-15.76C25.23,1.82,31.87-.16,38.88,0c5.68,.13,7.93,3.22,12.48,5.18,2.3,.99,4.73-.51,7.08,.39,2.08,.8,2.43,2.57,3.56,4.24,2.17,3.22,7.76,6.42,3.79,10.39,3.22,3.18,5.97,10.76,5.97,17.26,0,4.17-2.95,8.73-3.08,11.61-.31,6.64-3.18,7.79-6.91,11.65-.67,.7,4.74,3.41,0,6.63-1.47,1-10,3.47-11.74,3.89-3.2,.77-1.65-3.33-4.44-1.73-4.93,2.85-18.87,.72-22.83-1.4C6.32,59.32,5.14,44.9,5.14,44.9Z" class="cls-15"/><path d="M.98,34.52c-.14-1.31,.25-3.65,1.67-2.32,.95,.89,1.04,3.02,1.1,4.26,.06,1.39,.41,9.99-2.4,6.99-1.52-1.63-.85-5.8-.37-8.93Z" class="cls-3"/><path d="M49.74,69.14c-.72,.23-1.13,.88-1.11,1.6,1.02,.42,2.9-.69,4-.98,1.31-.35,2.72-.85,4.04-1.41,1.62-.68,6.32-1.31,6.05-3.73-3.63-.58-8.54,2.56-12.98,4.53Z" class="cls-3"/><path d="M57.71,6.41c-1.36,2.48,3.92,8.95,6.06,10.36,2.44,1.61,2.68-.45,1.62-2.27-1.01-1.73-2.65-2.6-3.78-4.12-.97-1.31-1.61-4.53-3.88-4.27-.04,.21-.04,.41-.02,.3Z" class="cls-3"/><path d="M14.96,24.61c-8.3-.44-3.52-14.76,3.47-13.01,1.69,.42,3.15,2.79,2.41,4.52,2.27-.98,1.17,1.6,1.38,2.53,.41,1.84,1.8,2.44,.92,4.67-.7,1.77-2.27,3.09-4.06,3.51-1.3,.3-4.1,.17-4.12-2.21Z" class="cls-3"/><path d="M25.14,8.79c-3.17,1.24-2.15,8.37,1.9,5.36,1.05-.78,2.1-2.83,2.01-4.06-.14-1.84-2.15-3.03-3.47-1.31h-.43Z" class="cls-3"/><path d="M63.04,38.91c2.55-5.82,.33-13.43-5.93-12.62-7.98,1.04-7.76,16.17-.65,18.91,1.48,.57,2.89,.12,4.06-1.03,1.34-1.34,1.01-3.08,2.52-5.26Z" class="cls-3"/><path d="M33.67,58.55c4.06-.46,.52-4.16-1.17-5.3-3.04-2.05-6.39-2.11-9.95-1.63-1.33,.18-6.21,2.68-6.17,3.68,.11,2.82,2.98,4.68,7.02,5.15,1.54,.18,1.21-.09,2.55,.57,1.05,.51,1.63,1.27,2.94,1.66,3.76,1.11,4.86-.85,4.77-4.12Z" class="cls-3"/><path d="M37.5,29.59c-5.34,3.15-10.05-3.04-6.51-8.02,3.4-4.77,10.74-3.09,11.38,2.61,.31,2.71-1.81,5.45-4.88,5.42Z" class="cls-3"/><path d="M25.14,38.05c2.88-2.93-4.71-5.84-7.28-4.13-3.8,2.55-3.9,7.97,.99,8.9,2.38,.46,4.68-.52,6.28-4.78Z" class="cls-3"/><path d="M42.91,12.04c-1.95-2.34-3.47-6.93,1.3-7.14,4.43-.19,4.7,6.49,0,6.92l-1.3,.22Z" class="cls-3"/><path d="M56.13,49.1c-5.03-1.65-19.31,9.27-14.36,13.48,.91,.77,2.88,1.36,4.06,1.02,1.34-.39,1.5-1.71,2.55-2.31,2.04-1.18,5.09,.82,7.66-.19,3.77-1.47,9.34-9.11,.09-12Z" class="cls-3"/><path d="M36.41,43.68c-1.91,0-5.33,.03-5.2-2.82,.09-1.87,3.49-3.22,3.68-.74,1.4-1.33,5.09-.31,6.13,1.17,1.83,2.59-2.33,6.36-4.4,4.12l-.22-1.73Z" class="cls-3"/><path d="M53.75,18.54c1.36-2.2-3.12-2.62-3.47,.32-.31,2.61,3.36,3.88,3.69,.98l-.22-1.3Z" class="cls-3"/><path d="M10.63,46.5c.76-3.41-3.97-1.52-2.65,1.96,.3,.8,1.21,2.11,2.22,1.94,1.48-.25,.76-2,.43-3.03v-.87Z" class="cls-3"/><path d="M65.67,42.6c-.27-2.35,2.22-5.4,2.23-1.73,0,1.03-.51,1.62-.22,2.76,.26,1.03,.87,1.25,.76,2.61-.1,1.27-1.13,3.88-2.82,3.9-2.83,.03-2.1-3.97-1.25-5.59l1.3-1.95Z" class="cls-3"/><path d="M8.24,33.06c.61-1.28,1.81-4.73,.16-5.8-2.15-1.39-2.56,2.21-2.34,3.64,.18,1.2,.49,1.72,.39,2.97-.05,.58-.87,2.25-.62,2.87,1.56,3.79,2.4-2.37,2.41-3.47v-.22Z" class="cls-3"/><path d="M37.5,67.73c.15-.99-.35-1.87-1.29-2.18-1.37-.46-1.66,.74-2.45,1.04-1.33,.51-.7,.45-2.28,0-.74-.21-1.88-.99-2.76-.59-2.36,1.07,.7,2.69,2.06,3.03,2.06,.51,5.29,1.06,6.72-1.29Z" class="cls-3"/><path d="M68.27,28.08c-.1-1.21-.54-3.65-1.68-4.39-2.51-1.62-.8,.92-.5,1.88,.41,1.27,.41,2.88,1.07,4.37,1.12,2.56,1.96,2.74,1.98-.34l-.87-1.52Z" class="cls-3"/><path d="M35.98,10.74c3.05-1.86-.04-5.3-2.69-3.25-2.59,2.01-.31,7.46,2.26,4.55l.43-1.3Z" class="cls-11"/><path d="M32.51,65.13c-.03-1.11-1.91-1.67-1.97-.54-.05,1.11,1.52,1.11,2.18,.76l-.22-.22Z" class="cls-11"/><path d="M47.9,26.56c.87-.7,1.14-1.77,.61-2.78-1.51-.4-2.88,.83-3.38,2.18-.85,2.29,1.06,3.14,2.33,1.25l.43-.65Z" class="cls-11"/><path d="M52.67,10.09c1.32-1.25-1.03-2.9-2.17-.87-.83,1.49,.86,4.2,1.95,2.17l.22-1.3Z" class="cls-11"/><path d="M17.13,48.23c.52-.61,1.98-1.83,1.75-2.71-.34-1.25-2.51-1.11-3.43-.7-2.17,.96-3.27,5.65,.17,4.28l1.52-.87Z" class="cls-11"/><path d="M26.88,37.83c-1.11,.24-2.15,2.3-.87,2.82,1.48,.6,2.31-1.34,1.74-2.39l-.87-.43Z" class="cls-11"/><path d="M47.47,46.93c2.43-2.55,.56-5.7-2.81-4.61-3.19,1.02-6.33,7.78-.87,7l3.68-2.38Z" class="cls-11"/><path d="M61.34,22.01c.23-2.22-1.84-3.45-2.17-.87-.25,1.97,2.42,3.14,2.6,.65l-.43,.22Z" class="cls-11"/><path d="M58.7,43.63c3.08-1.16,4.21-6.95,3.95-10.2-.19-2.34-1.34-3.61-3.26-4.38-2.69-1.09-4.45,.79-5.18,3.86-.44,1.82-.79,4.05-.58,5.9,.29,2.5,1.41,3.27,5.07,4.84Z" class="cls-11"/><path d="M31.85,57.3c.55-1.4,.37-3.27-2.08-4.18-2.22-.82-5.19-.43-5.74,1.2-.9-1.98-8.44,.84-3.86,3.56,1.86,1.1,3.64,.9,5.71,1.48,1.73,.48,1.54,1.84,3.18,2.47,3.25,1.25,2.68-2.46,2.8-4.54Z" class="cls-11"/><path d="M55.27,55.49c1.7-1.16,1.01-3.69-.89-4.23-2.18-.62-4.88,.77-5.14,3.08-2.88-1.42-8.03,3.87-6.65,6.85,1.44,3.11,6.76-1.45,7.85-2.92,.92,1.3,3.13,2.34,4.76,2.26,3.55-.18,3.75-5.79,.07-5.04Z" class="cls-11"/><path d="M39.01,24.45c1.03-1.36-.69-3.57-2.03-4.06-1.88-.69-3.09,.99-4.3,2.21-1.4,1.4-3.02,3.67-.78,5.39,1.13,.87,4.42,1.57,5.81,1.34,2.23-.37,3.84-3.37,1.3-4.88Z" class="cls-11"/><path d="M19.02,17.62c.9-2.4-1.63-4.47-3.74-3.34-1.98,1.06-3.26,4.19-2.62,6.23-1.49,.57-1.09,2.39,.27,2.78,1.44,.42,2.91-.7,4.12-1.1-.57,1.87-.14,3.52,2.3,3.06,3.35-.62,3.47-4.43-.33-7.64Z" class="cls-11"/><path d="M.66,39.24c0,1.31-.21,2.69,.69,3.7,1.11,1.25,1.64,.52,2.06-.87,.21-.69,.59-3.4-.01-3.97-1.35-1.26-.93,2.38-2.73,1.3v-.16Z" class="cls-11"/><path d="M59.82,11.28c.26,1.83,2.53,4.26,4.1,5.16,3.28,1.89,.92-2.78-.39-3.82-1.21-.96-2.88-.68-3.7-1.35Z" class="cls-11"/><path d="M60.31,65.4c-1.76,1.01-3.71,1.84-5.62,2.42-1.79,.54-4.17,.39-5.45,2.13,1.15,1.17,4.06-.45,5.36-.81,2.71-.75,5.6-1.47,5.71-3.74Z" class="cls-11"/><path d="M50.31,14.93c-.65-1.33-2.1-1.33-2.14-3-.02-.9,1.38-1.98,1.65-2.85,.63-2,.4-3.59-.38-4.85C46.05,2.37,43.7,.12,38.88,0c-7.01-.17-13.66,1.81-19.54,5.66-5.09,3.33-13.6,9.22-14.95,15.76-.45,2.18-.71,4.64-.86,6.52,.46,.76,1,1.34,1.63,1.59-.32,.71-.04,1.75-.23,2.5,3.19,.49-.85,7.93,4.13,7.25,.44,2.62-1.13,4.23,1.03,6.21,1.87,1.71,5.59,1.62,7.99,1.55,3-.09,5.86-.7,8.33-2.57,3.15-2.38,2.72-5.15,4.16-8.17,1.9-3.99,7.85-2.56,11.64-4.21,5.26-2.28,10.89-11.49,8.12-17.16Z" class="cls-14"/><path d="M36.09,9.4c1.3-7.22-7.41-5.67-10.9-2.93-2.73,2.14-2.98,.94-6.49,1.47-2.92,.44-5.44,2.25-5.41,5.32-7.4,.19-9.75,17.8,.34,17.34-1.53,2.82,2.12,4.81,4.58,4.5,3.45-.43,6.18-4.06,7.48-6.84,1.39-2.98,2.08-5.49,5.35-6.84,2.79-1.14,5.91-.65,8.45-3.1,2.62-2.53,1.7-8.1-3.4-8.91Z" class="cls-14"/><path d="M68.67,49.08c.13-2.87,3.08-7.44,3.08-11.61,0-6.5-2.75-14.08-5.97-17.26,3.98-3.97-1.62-7.18-3.79-10.39-1.13-1.67-1.48-3.44-3.56-4.24-2.35-.9-4.78,.6-7.08-.39-.87-.37-1.65-.78-2.39-1.21-.67,1.35-1.12,2.99-1.51,4.87-.61,2.92-.73,5.49,.57,8.37,1.05,2.34,3.13,3.61,1.71,6.26-1.28,2.39-4.66,3.12-6.14,5.56-1.84,3.04-1.23,6.37-.74,9.5-3.71-.69-7.38-4.59-11.01-1-3.51,3.48-1.93,6.37-.72,9.91,.57,1.67,.87,4.93-1.88,5.53-2.26,.49-2.6-2.28-4.38-3.03-2.79-1.19-6.96,.35-8.79,2.6-1.16,1.42-1.7,2.76-1.78,4.57-.03,.69,.53,2.78,.51,2.92-.12,.7-.34,1.32-.61,1.9,2.25,2.19,5.06,4.31,8.55,6.19,3.97,2.12,17.9,4.26,22.83,1.4,2.78-1.61,1.24,2.5,4.44,1.73,1.74-.42,10.27-2.89,11.74-3.89,4.74-3.22-.68-5.93,0-6.63,3.73-3.86,6.6-5.01,6.91-11.65Z" class="cls-7"/><path d="M66.44,20.92c-2.26,1.47-7.75,1.64-8.3,3.97-5.16,1.08-9.22,.83-11.27,7.12-.7,2.15-.38,5.31,.27,7.48,.59,1.99,2.99,4.26,2.53,6.26-.62,2.7-4.2,2.64-5.95,3.73-2.03,1.26-2.24,4.13-4.39,4.97-3.56,1.39-3.75-3.55-5.53-5.55-3.4-3.82-5.86-1.29-9.43,.17-2.92,1.2-6.5-.99-9.2,1.29-1.65,1.4-1.37,3.85-3.46,4.83-.84,.39-1.79,.42-2.74,.21,2.56,4.23,6.78,8.98,13.77,12.72,3.97,2.12,17.9,4.26,22.83,1.4,2.78-1.61,1.24,2.5,4.44,1.73,1.74-.42,10.27-2.89,11.74-3.89,4.74-3.22-.68-5.93,0-6.63,3.73-3.86,6.6-5.01,6.91-11.65,.13-2.87,3.08-7.44,3.08-11.61,0-6.06-2.39-13.05-5.32-16.55Z" class="cls-2"/><path d="M68.67,49.08c.13-2.87,3.08-7.44,3.08-11.61,0-5.7-2.11-12.22-4.8-15.89-3.28,.29-4.41,4.02-3.89,7.25,.61,3.85,2.48,6.19,.74,10.42-1.2,2.94-3.18,5.71-4.24,8.52-1.09,2.9,.32,1.13,1.32,3.74,.55,1.44-.3,3.86-.99,5.28-.78,1.61-2.11,3.21-3.65,4.21-2.59,1.68-2.53,.3-5.2,.33-5.67,.08-4.79,7.52-11.22,2.92-2.49-1.78-2.72-2.38-5.67-1.63-1.68,.43-2.78,1.33-4.66,1.4-2.22,.08-3.5-1.11-5.48-1.72-3.26-1.01-6.84-1.17-9.65-.21,2.22,2.13,4.98,4.2,8.39,6.03,3.97,2.12,17.9,4.26,22.83,1.4,2.78-1.61,1.24,2.5,4.44,1.73,1.74-.42,10.27-2.89,11.74-3.89,4.74-3.22-.68-5.93,0-6.63,3.73-3.86,6.6-5.01,6.91-11.65Z" class="cls-2"/><path d="M6.94,39.45c-.68-1.5-1.41-2-1.41-3.8,0-.79,.38-1.56,.09-2.36-.25-.68-.96-1.12-1.08-1.85-1.45-.83-1.25,1.04-1.04,1.7,.46,1.45,.7,2.91,.85,4.41,.23,2.25-.07,4.97-1.39,6.78-.38,.52-.85,.62-1.35,.46,1.48,1.38,3.54,.08,3.54,.08,0,0,0,.11,.04,.31,.53-.66,1.04-1.44,1.36-1.85,.89-1.18,.98-2.66,.41-3.91Z" class="cls-1"/><path d="M66.22,14.76c.46,1.04,.61,2.06-.25,2.89-1.43,1.36-4.82-2.17-5.8-3.24-.54-.6-1.06-1.84-1.87-2.15-1.16-.44-1.37,.91-.97,1.84,.94,2.37,3.65,4.63,5.83,5.77,.87,.45,1.8,.53,2.66,.32,1.95-1.97,1.56-3.74,.41-5.43Z" class="cls-1"/><path d="M61.75,60.76c-.62,.1-1.1,.5-1.82,.66-1.81,.43-3.82,.24-5.35,1.54-.89,.75-.73,1.31,.02,2.06,.5,.5,.04,.5,.95,.34,.44-.08,1-.34,1.46-.47,1.49-.41,4.95-1.77,6.15-.17,.03,.04,.06,.09,.08,.13-.09,.81-.35,1.36-1.33,1.93-1.93,1.12-4.32,1.8-6.42,2.66-.85,.35-4.68,1.07-5.9,1.88,.14-.02,.28-.04,.44-.08,1.74-.42,10.27-2.89,11.74-3.89,4.67-3.17-.53-5.85-.02-6.6Z" class="cls-1"/><path d="M37.55,20.22c-.41-1.81-4.18-.08-5,.68-1.55,1.44-2.43,3.63-1.86,5.69,.56,2.03,2.22,3.38,4.42,3.06,1-.15,2.22-.61,2.11-1.8-.1-1.06-1.27-1.11-1.85-1.8-1.97-2.37,2.8-3.12,2.18-5.84Z" class="cls-4"/><path d="M15.93,39.07c-.18-2.48,1.33-7.24,4.88-4.92,1.73,1.13-.25,2.09-.69,3.45-.55,1.66,1.69,2.57,.13,3.66-1.3,.91-3.98-.03-4.31-2.2Z" class="cls-4"/><path d="M15.77,12.74c-2.51,.65-3.7,3.83-4.22,6.01-.29,1.23-.57,2.51,.2,3.57,.84,1.17,1.84,.8,2.88,1.48,1.46,.95,2.48,4.27,5.34,2.23,.73-.52,1.69-1.96,1.5-2.88-.29-1.43-2.18-1.51-3.22-2.15-1.49-.92-2.4-2.4-2.31-4.19,.08-1.67,.86-2.74-.16-4.05Z" class="cls-4"/><path d="M43.08,62.8c-2.49-1.59-2.3-3.32-.53-5.68,1.64-2.19,4.44-4.31,6.83-5.57,2.7-1.43,4.68-2.29,7.67-1.09,4.12,1.65,1.3,3.77-1.82,4.5-4.12,.97-12.1,2.55-12.15,7.85Z" class="cls-4"/><path d="M59.49,43.79c-1.51,2.64-5.92-1.37-6.67-2.99-1.09-2.38-1.67-7.32-.57-9.85,.57-1.31,5.06-6.81,6.72-3.87,.56,.99-1.23,3.96-1.6,4.93-.64,1.67-.97,3.08,.82,3.65,2.03,.65,3.48,.1,3.05,2.93-.23,1.53-.24,4.57-1.75,5.2Z" class="cls-4"/><path d="M16.58,55c-.65,1.76,2.54,4.14,4.05,4.4,2.39,.4,3.48-2.9,5.42-2.33,.86,.25,1.7,1.26,2.71,1.52,.95,.24,2.48,.36,3.41,0,2.6-1.01,.91-4.38-.77-5.56-1.38-.97-3.37-1.28-5.03-1.43-3.65-.32-6.46,.39-9.79,3.42Z" class="cls-4"/><path d="M58.19,7.71c.28,2.29,3.8,9.65,6.96,9.08,.22-1.27-2.93-3.9-3.71-5.09-.86-1.31-1.89-5.12-3.39-5.42-.04,.16,0,.31,.14,1.44Z" class="cls-4"/><path d="M2.12,32.57c-.88,1.46-.59,4.13-.49,5.77,.1,1.55-.31,4.41,.98,5.46,1.57-1.64,1.97-10.4-.29-11.54-.06,.22-.14,.42-.2,.31Z" class="cls-4"/><path d="M55.68,66.62c-2.19,1.25-6.06,2.37-6.44,3.34-.67,1.71,6.22-1.75,7.13-2.15,1.44-.63,6.08-2.43,5.22-2.85-.87-.41-3.47,.8-5.9,1.66Z" class="cls-4"/><path d="M45.35,7.38c.94-1.8-1.47-2.66-2.72-1.75-1.47,1.07-.82,2.66-.38,3.96,.48,1.42,.45,2.8,2.46,1.69,1.92-1.06,.89-1.95,.65-3.58v-.33Z" class="cls-4"/><path d="M58.84,48.99c3.24-.39,4.06,4.05,3.25,6.24-.65,1.77-2.66,6.19-5.06,5.95,1.25-1.07,3.56-3.71,3.93-5.69,.26-1.4,.15-2.78-.62-3.91-.58-.85-1.6-1.32-1.49-2.59Z" class="cls-1"/><g><polygon points="25.77 7.61 25.77 7.61 25.77 7.62 25.77 7.61 25.77 7.61" class="cls-11"/><path d="M25.97,6.48c-.16,0-.32,.02-.47,.06-.09,0-.18,.02-.27,.07-.34,.18-.6,.45-.9,.69-.37,.29-.06,.97,.39,.93,.02,0,.04,0,.06,0,.15,.1,.36,.11,.53,.02,.1-.05,.17-.12,.23-.21,.31-.13,.59-.32,.82-.6,.29-.35,.12-.96-.39-.95Z" class="cls-11"/></g><path d="M32.03,6.67c-.7,0-.7,1.09,0,1.09s.7-1.09,0-1.09Z" class="cls-11"/><path d="M13.46,25.78c-.05-.12-.12-.21-.2-.32-.03-.03-.05-.06-.08-.1,.07,.08-.02-.03-.03-.05-.1-.16-.28-.28-.47-.27-.32,.02-.59,.17-.68,.49-.04,.12-.03,.26,0,.38,.02,.08,.14,.34,.05,.11,.05,.12,.12,.22,.21,.28,.06,.05,.12,.1,.21,.12,.06,.01,.11,.03,.16,.05,0,0,.01,0,.02,0,.03,.01,.05,.03,.08,.04,.2,.11,.49,.09,.65-.08,.18-.19,.19-.42,.08-.65Z" class="cls-11"/><path d="M22.05,27.63c-.5,.06-.9,.29-1.17,.72-.26,.42-.39,1.02-.04,1.37,.13,.13,.36,.17,.52,.07,.05-.03,.09-.06,.13-.1,.34-.11,.68-.26,.88-.57,.15-.23,.19-.5,.24-.76,.06-.32-.15-.78-.56-.73Z" class="cls-11"/><path d="M28.45,16.61c-.67,0-.67,1.04,0,1.04s.67-1.04,0-1.04Z" class="cls-11"/><path d="M46.5,15.12c-.17-.5-.83-.49-1.01,0-.04,.12-.08,.26-.09,.41-.09,.45-.02,.86,.28,1.24,.23,.29,.8,.13,.86-.23,.09-.49,.13-.94-.04-1.42Z" class="cls-11"/><path d="M11.19,32.66c-.2-.33-.62-.36-.89-.12-.31,.27-.53,.63-.62,1.03-.06,.27-.09,.65,.02,.94,0,.35,.36,.65,.72,.54,.03,0,.05-.02,.08-.03,.14-.02,.26-.09,.35-.19,.66-.48,.79-1.43,.34-2.17Z" class="cls-13"/><path d="M10.73,37.28c-.13,0-.26,.06-.35,.14-.14,.14-.15,.3-.13,.48,.02,.17,.13,.27,.25,.36,.12,.08,.33,.08,.45,0,.13-.09,.23-.2,.25-.36,.04-.31-.13-.63-.48-.63Z" class="cls-13"/><path d="M37.86,13.67c-1.04,.14-2.1,.61-2.47,1.66-.04,.12-.03,.24,.02,.35,0,.05,0,.09,0,.14-.02,.42,.47,.66,.82,.47,.87-.49,1.83-.9,2.18-1.92,.1-.31-.18-.75-.54-.7Z" class="cls-13"/><path d="M38.36,4.6c-.25,.01-.53,.22-.5,.5,0,.04,0,.07,.01,.11,.03,.25,.21,.5,.49,.49,.29-.01,.46-.22,.49-.49,0-.04,0-.07,.01-.11,.03-.26-.25-.51-.5-.5Z" class="cls-13"/><path d="M44.28,19.11c-.03-.29-.11-.62-.29-.85-.1-.13-.24-.2-.39-.24-.25-.23-.66-.2-.88,.12-.2,.28-.32,.59-.37,.9-.11,.2-.18,.43-.19,.64-.03,.73,.51,1.16,1.19,1.23,.23,.02,.49-.19,.54-.41,.01-.05,.02-.1,.03-.15,.27-.36,.41-.79,.37-1.25Z" class="cls-13"/><g><path d="M28.27,30.4c-.2-.08-.39-.04-.54,.08-.21,.08-.38,.24-.42,.47-.03,.17,0,.33,.09,.46,.12,.24,.42,.33,.68,.21,.02,0,.09-.06,.12-.08,.04-.03,.07-.06,.09-.08,.09-.07,.16-.17,.22-.28,0,0,0-.01,.01-.02,0,0,0,0,0,0,.02-.04,.04-.08,.06-.13,.09-.25-.09-.54-.31-.63Z" class="cls-13"/><path d="M28.2,31.53s-.02,.01-.03,.02c.04-.03,.04-.03,.03-.02Z" class="cls-13"/></g><path d="M40.99,30.67c-.82-1.33-2.75-.75-3.19,.61-.05,.14-.02,.28,.04,.39,0,.26,.11,.51,.39,.58,1.03,.27,1.9-.27,2.67-.9,.19-.15,.21-.49,.09-.68Z" class="cls-13"/><path d="M23.54,42.97c-.13-.04-.27-.03-.41,.05-.66,.4-1.14,1.03-1.21,1.81-.02,.24,.19,.46,.41,.51,.16,.1,.37,.11,.56,.02,.69-.33,1.27-.99,1.4-1.75,.07-.4-.34-.87-.75-.65Z" class="cls-13"/><path d="M11.98,50.7c-.23-.12-.59-.08-.71,.19-.12,.27-.26,.67-.22,.97,.03,.22,.14,.44,.38,.49,.21,.05,.47-.03,.58-.24,.12-.24,.17-.54,.21-.81,.07-.22-.03-.5-.24-.61Z" class="cls-13"/><path d="M6.91,39.42c-.32-.78-.84-1.49-1.06-2.3-.2-.74-.09-1.5-.1-2.25,0-1.38-1.01-2.21-1.47-3.45-.02-.05-.1-.06-.11,0-.22,1.01,.79,1.71,1.06,2.6,.36,1.2-.11,2.46,.37,3.67,.57,1.45,1.5,2.67,1.2,4.32-.18,.96-.77,2.58-1.87,2.75-.26,.04-.17,.41,.06,.43,.98,.07,1.62-1.22,1.93-1.96,.52-1.26,.51-2.55,0-3.81Z" class="cls-6"/><path d="M3.81,33.71s-.03-.01-.03,0c-.09,1.43,.28,2.73,.43,4.14,.1,.96,.04,1.9-.12,2.85-.14,.83-.32,1.68-.64,2.47-.16,.39-.35,.82-.63,1.15-.25,.3-.53,.34-.85,.52-.1,.06-.12,.23,0,.28,1.47,.65,2.23-2.96,2.39-3.74,.19-.93,.33-1.88,.29-2.82-.07-1.65-.57-3.23-.85-4.85Z" class="cls-6"/><path d="M3.51,34.37c-.17-.71-.42-1.72-.98-2.25-.88-.83-1.56,.42-1.7,1.2-.17,.94-.17,1.93-.27,2.89-.1,.95-.21,1.9-.28,2.84-.1,1.46-.03,3.33,1.01,4.48,.07,.08,.2-.02,.15-.12-.74-1.28-.93-2.41-.84-3.87,.07-1.27,.25-2.53,.41-3.79,.09-.77,.08-1.57,.21-2.33,.11-.63,.62-1.66,1.21-.66,.76,1.28,.63,2.74,1,4.12,.03,.1,.17,.1,.2,0,.26-.8,.07-1.71-.12-2.51Z" class="cls-6"/><path d="M1.96,42.26c-.22-.63-.23-1.21-.09-1.86,.18-.84,.18-1.57,.07-2.43-.21-1.55-.67-3.42,.08-4.9,.01-.03-.02-.05-.04-.02-.73,1.05-.48,2.9-.33,4.08,.08,.67,.22,1.37,.19,2.05-.03,.62-.27,1.2-.33,1.81-.07,.8,.23,1.61,.68,2.26,.01,.02,.05,.01,.04-.01-.04-.35-.17-.65-.29-.98Z" class="cls-6"/><path d="M24.11,20.87c-.18-.46-.41-.9-.61-1.36-.32-.73-.39-1.44-.35-2.23,.03-.54,.26-1.62-.38-1.96-.18-.1-.36,0-.54-.05-.5-.14-.29-.7-.31-1.11-.04-.86-.39-1.47-.99-2.07-.46-.47-1.15-1.12-1.87-.97-.16,.03-.15,.28,0,.32,.87,.25,1.73,.93,2.17,1.73,.26,.47,.27,1.01,.24,1.53,0,.2-.07,.4,.03,.59,.41,.76,1.23-.02,1.28,1.11,.05,1.07-.2,2,.21,3.05,.43,1.1,1.2,2.16,.95,3.41-.22,1.07-1,2.08-1.77,2.83-.76,.75-1.7,1.37-2.74,1.64-1.19,.31-2.11-.08-3.25-.33-.04,0-.07,.04-.04,.07,1.09,1.25,3.19,.92,4.52,.26,1.53-.76,2.93-2.23,3.54-3.84,.33-.89,.24-1.76-.1-2.63Z" class="cls-6"/><path d="M20.59,16.2c-.81-.35-.49-1.48-.65-2.17-.1-.42-.33-.8-.63-1.11-1.4-1.41-3.79-.66-5.19,.35-1.86,1.34-2.72,3.79-3.03,5.98-.14,1.01-.22,2.06,.39,2.93,.61,.87,1.43,1.05,2.43,1.16,.12,.01,.15-.16,.06-.21-.32-.18-.64-.23-.99-.34-.56-.18-1-.58-1.27-1.11-.48-.95-.2-2.28,.03-3.27,.43-1.88,1.23-3.83,2.92-4.91,1.34-.86,4.27-1.56,4.78,.66,.17,.73-.07,1.59,.49,2.21,.44,.49,1.19,.2,1.44,.88,.07,.2,.35,.16,.37-.05,.08-.89-.55-.76-1.14-1.01Z" class="cls-6"/><path d="M26.89,8.32c-.52,.04-.72,.34-1.02,.71-.17,.21-.15,.44-.57,.42-.04,0-.07-.09-.11-.09-.13,0-.2-.07-.35-.04-.87,.16-1.18,1.57-1.24,2.26-.06,.79,.03,2.24,.84,2.65,.03,.02,.07-.02,.05-.05-.42-.73-.65-1.33-.59-2.2,.04-.53,.3-2.26,1.1-2.23,.09,0,.23,.18,.36,.2,.16,.02,.33-.06,.45-.15,.38-.27,.43-.85,.93-1.01,.81-.26,1.2,.62,1.35,1.22,.02,.09,.16,.12,.2,.03,.38-.86-.54-1.78-1.41-1.71Z" class="cls-6"/><path d="M29.19,8.54c-.34-.77-1.28-1.41-2.14-1.1-.09,.03-.11,.18,0,.2,.91,.16,1.59,.22,1.93,1.22,.31,.9,.15,1.87-.08,2.76-.26,.98-.74,1.88-1.5,2.56-.37,.33-.8,.6-1.28,.73-.52,.14-.97-.04-1.48,.02-.06,0-.13,.1-.06,.15,.75,.59,2.12,.02,2.76-.51,.88-.73,1.49-1.88,1.84-2.95,.31-.94,.43-2.15,.02-3.09Z" class="cls-6"/><path d="M65.52,19.85c-1.11,.72-2.34-.13-3.36-.67-1.31-.7-2.06-1.77-3.02-2.86-.52-.59-1.07-1.16-1.5-1.82-.46-.7-.73-1.49-1.15-2.22-.46-.8-.96-1.58-1.32-2.43-.37-.88-.56-1.83-.92-2.72-.01-.03-.06-.02-.06,.02,.2,.96,.34,1.92,.72,2.83,.41,.99,1.03,1.89,1.5,2.85,.41,.83,.73,1.65,1.3,2.4,.57,.74,1.23,1.41,1.81,2.14,.46,.57,.89,1.16,1.48,1.6,.55,.42,1.22,.73,1.84,1.04,.76,.37,2.31,1.04,2.88,.04,.07-.12-.07-.28-.2-.2Z" class="cls-6"/><path d="M65.74,16.55c-.57,.51-1.02,.37-1.64,0-.36-.21-.69-.47-1-.74-1.01-.86-1.9-1.85-2.62-2.96-.77-1.19-1.33-2.48-1.86-3.79-.22-.55-.43-1.11-.57-1.69-.15-.62-.35-1.07,.66-.73,.23,.08,.12,.17,.36,.23,.03,0,.06-.02,.07-.05,.03-.45-.58-.88-1-.82-.53,.08-.59,.61-.53,1.05,.12,.92,.51,1.82,.86,2.67,.4,.96,.8,1.92,1.32,2.82,.89,1.52,2.09,2.89,3.49,3.95,.57,.43,2.4,1.55,2.69,.2,.03-.13-.12-.22-.22-.13Z" class="cls-6"/><path d="M66.17,14.61s-.03,0-.03,.01c.13,.9,.51,1.75,.04,2.63-.61,1.16-1.65,.84-2.54,.26-1.21-.78-2.22-1.76-3.31-2.68-.04-.03-.09,0-.07,.05,.42,.87,1.43,1.52,2.16,2.11,.67,.54,1.53,1.22,2.42,1.3,.72,.06,1.24-.46,1.54-1.06,.45-.91,.17-1.75-.23-2.62Z" class="cls-6"/><path d="M62.57,64.73c-.21-.4-.85-.37-1.22-.34-2.07,.14-4.14,1.18-5.98,2.08-1.81,.89-3.59,1.8-5.45,2.58-.53,.22-1.97,1.03-.96,1.65,.09,.06,.18-.05,.14-.14-.45-.93,1.19-1.28,1.83-1.53,1.24-.47,2.39-1.16,3.57-1.75,1.46-.72,2.92-1.46,4.47-1.97,.7-.23,1.45-.45,2.19-.51,.2-.02,.61-.07,.79,.03,.41,.24-.06,.59-.29,.87-.11,.13,.03,.36,.19,.25,.35-.23,.99-.72,.72-1.22Z" class="cls-6"/><path d="M62.51,61.97c-.85-1.64-2.54-.49-3.88-.35-1.09,.11-2.17,.22-3.18,.65-.83,.35-1.53,.9-2.19,1.5-.41,.38-.8,.8-1.28,1.1-.51,.32-1.09,.49-1.63,.72-.63,.27-1.19,.62-1.7,1.07-.55,.48-2.18,1.9-1.33,2.72,.06,.06,.2,0,.16-.09-.42-1.06,1.2-2.2,1.94-2.72,.65-.46,1.41-.67,2.13-.98,.7-.3,1.2-.73,1.75-1.24,1.45-1.33,2.92-2.01,4.89-2.2,.69-.07,1.3-.13,1.96-.35,.3-.1,.63-.25,.95-.25,.5,0,.77,.35,1.09,.69,.16,.17,.42-.05,.32-.24Z" class="cls-6"/><path d="M59.43,51.98c-1.02-1.69-3.36-2.71-5.29-2.45-2.27,.31-4.64,1.69-6.48,2.99-1.95,1.37-3.85,2.99-5.31,4.89-.82,1.06-2.23,3.49-.63,4.51,.09,.06,.22-.06,.15-.15-1.34-1.98,.68-4.16,2.01-5.57,1.77-1.87,3.76-3.54,6.04-4.75,2.42-1.28,5.15-2.36,7.67-.7,.96,.64,1.75,1.55,1.87,2.74,.12,1.18-.42,2.26-.92,3.29-.09,.18,.15,.31,.27,.16,1.07-1.39,1.57-3.38,.62-4.97Z" class="cls-6"/><path d="M59.62,50.05c-.1-.04-.19,.1-.09,.15,1.94,1.1,2.09,3.89,1.41,5.75-.73,2.02-2.21,4.13-4.06,5.25-1.06,.64-2.19,.86-3.4,.6-1.37-.3-2.57-.44-3.99-.32-.78,.06-1.34,.46-1.89,.98-.75,.7-1.36,1.29-2.42,1.44-.05,0-.04,.08,0,.09,1.49,.46,2.37-1.53,3.56-2,1.18-.47,2.91-.18,4.09,.12,.93,.24,1.8,.38,2.75,.14,1.67-.41,3.01-1.66,4-3.01,.97-1.31,1.85-3.01,2.07-4.65,.24-1.79-.27-3.79-2.03-4.54Z" class="cls-6"/><path d="M60.02,42.86c-3.19,3.6-6.54-1.73-7.32-4.59-.47-1.73-.54-3.57-.18-5.33,.35-1.73,1.19-3.18,2.11-4.66,.01-.02-.02-.04-.03-.03-3.11,2.51-3.26,7.71-2.02,11.19,.6,1.7,1.7,3.71,3.33,4.62,1.5,.85,3.53,.62,4.38-1,.08-.16-.13-.35-.26-.2Z" class="cls-6"/><path d="M64.88,30.67c-.31-1.77-1.51-3.86-3.33-4.42-.07-.02-.12,.07-.07,.12,1.49,1.28,2.71,2.59,2.97,4.64,.27,2.09,.18,4.33-.36,6.37-.28,1.05-.75,1.99-1.21,2.97-.36,.78-.56,1.63-.91,2.41-.77,1.74-2.61,3.32-4.58,3.16-.07,0-.09,.1-.03,.13,1.52,.76,3.46-.92,4.33-2.02,.66-.83,.95-1.86,1.33-2.83,.45-1.16,1.09-2.21,1.45-3.42,.66-2.22,.82-4.82,.42-7.11Z" class="cls-6"/><path d="M20.03,33.77c-1.33-.13-2.71,.28-3.59,1.32-.82,.96-1.11,2.26-.96,3.49,.11,.87,.67,2.74,1.84,2.64,.03,0,.05-.03,.04-.06-.23-.38-.61-.63-.85-1.01-.31-.49-.47-1.06-.54-1.63-.12-1.08,.11-2.23,.82-3.08,.72-.86,1.82-1.24,2.92-1.2,.57,.02,1.15,.15,1.68,.34,.72,.27,1.15,.75,1.71,1.23,.08,.07,.18,0,.16-.1-.19-1.34-2.12-1.84-3.24-1.95Z" class="cls-6"/><path d="M26.39,36.62c-.2-1.29-1.19-2.3-2.46-2.6-.1-.02-.19,.1-.1,.18,.96,.81,1.97,1.15,2.2,2.53,.09,.54,.15,.99-.2,1.46-.14,.18-.33,.32-.47,.51-.3,.41-.41,.91-.57,1.38-.91,2.63-3.48,3.56-6.08,3.32-.08,0-.11,.12-.04,.15,1.11,.54,2.57,.16,3.64-.3,1.33-.57,2.25-1.5,2.75-2.86,.16-.43,.25-.94,.49-1.33,.19-.31,.5-.51,.7-.81,.32-.49,.24-1.07,.16-1.62Z" class="cls-6"/><path d="M33.91,19.92c-1.24,.48-2.23,1.46-2.83,2.64-1.07,2.1-1.02,5.75,1.67,6.64,.03,.01,.06-.04,.03-.06-.89-.77-1.61-1.52-1.88-2.71-.25-1.14-.07-2.37,.41-3.42,.46-1.01,1.21-1.91,2.2-2.44,.82-.44,2.63-1.09,3.44-.37,.04,.04,.12,0,.1-.06-.39-1.17-2.3-.52-3.13-.2Z" class="cls-6"/><path d="M42.52,21.81c-.32-.63-.62-1.36-1.08-1.9-.48-.56-1.22-.84-1.92-1.05-.06-.02-.11,.06-.06,.11,.48,.48,1.2,.59,1.67,1.09,.49,.51,.79,1.29,1.12,1.91,.75,1.38,.96,3,.46,4.51-.52,1.55-1.87,2.79-3.44,3.24-1,.29-2.11,.05-2.86,.91,0,0,0,.01,0,0,.66-.63,1.68-.5,2.51-.62,.63-.1,1.26-.34,1.82-.65,1.3-.74,2.21-2.03,2.46-3.5,.23-1.36-.06-2.82-.69-4.04Z" class="cls-6"/><path d="M44.89,5.39c-1.04-.49-2.57-.16-3.17,.86-.38,.64-.37,1.44-.15,2.14,.14,.45,.37,.85,.55,1.28,.24,.59,.3,1.2,.48,1.81,.05,.19,.33,.15,.34-.05,.03-.65-.14-1.31-.4-1.91-.34-.79-.82-1.51-.68-2.41,.24-1.56,1.79-1.56,3.02-1.65,.04,0,.06-.06,.02-.08Z" class="cls-6"/><path d="M46.84,5.03c-.08-.03-.11,.07-.07,.12,.52,.66,1.06,1.14,1.3,1.99,.23,.82,.17,1.75-.24,2.51-.35,.65-.86,1.21-1.42,1.69-.65,.56-1.31,.82-2.05,1.21-.03,.02-.02,.07,0,.07,1.6,.38,3.33-2.01,3.82-3.26,.53-1.35,.16-3.71-1.35-4.32Z" class="cls-6"/><path d="M58.36,25.95c-1.1-.12-2.41-.15-3.47,.23-.98,.35-1.85,1.05-2.56,1.8-1.63,1.7-2.6,4.15-3.02,6.44-.5,2.75,.47,5.14,1.57,7.6,.41,.91,.91,1.73,1.74,2.31,.98,.69,2.13,.62,3.2,1.08,.17,.07,.37-.12,.21-.28-.62-.62-1.61-.49-2.38-.78-1.02-.38-1.75-1.23-2.21-2.19-1.14-2.41-2.19-4.9-1.7-7.62,.39-2.14,1.26-4.44,2.74-6.06,.74-.81,1.68-1.61,2.74-1.94,1.03-.32,2.11-.13,3.15-.35,.14-.03,.09-.22-.03-.24Z" class="cls-6"/><path d="M34.06,54.29c-.46-.68-1-1.33-1.6-1.89-1.37-1.28-3.23-1.58-5.01-1.92-2.05-.4-4.52-.44-6.52,.27-.94,.33-1.47,.9-2.07,1.66-.8,1-1.8,1.76-2.66,2.69-.07,.08,.02,.19,.11,.15,.86-.45,1.6-1.2,2.25-1.9,.68-.73,1.18-1.61,2.11-2.05,.89-.41,1.91-.5,2.88-.57,1.17-.09,2.34-.07,3.5,.13,1.68,.3,3.64,.57,4.94,1.77,1.01,.94,2.03,2.11,2.35,3.49,.06,.25,.4,.17,.42-.06,.07-.63-.36-1.27-.7-1.77Z" class="cls-6"/><path d="M35.48,56.17c-.11-.03-.24,.11-.16,.21,.42,.56,.49,2.42-.52,2.48-.09,0-.2,.06-.21,.16-.23,1.5-.35,3.04-1.69,4.01-1.47,1.06-3.28,.55-4.81-.06-1.43-.56-2.73-1.17-4.24-1.47-1.73-.34-3.32-1.17-5.06-1.47-.02,0-.03,.02-.01,.03,1.23,.59,2.6,1.09,3.9,1.52,1.34,.44,2.67,.67,3.98,1.25,1.84,.82,4.1,1.89,6.07,.85,.91-.48,1.57-1.31,1.89-2.28,.16-.5,.23-1.02,.31-1.54,.02-.16,.03-.52,.06-.56,.02-.03,.24-.09,.27-.1,.78-.44,1.37-2.7,.23-3.01Z" class="cls-6"/><path d="M35.96,43.17c-.65-.27-1.56-.04-2.26-.17-.83-.15-1.86-.59-2.05-1.52-.15-.7,.26-1.52,.74-2.01,.24-.25,.59-.51,.96-.5,.27,0,.44,.24,.71,.22,.02,0,.03-.01,.03-.03,.09-.72-1.11-.6-1.49-.39-.78,.43-1.34,1.37-1.41,2.24-.09,1,.62,1.8,1.5,2.18,.84,.36,2.45,.65,3.3,.23,.11-.06,.06-.2-.03-.24Z" class="cls-6"/><path d="M67.08,39.53c-.83-.19-1.33,1.11-1.5,1.71-.16,.55-.15,1.12-.29,1.67-.18,.7-.82,1.23-1.15,1.87-.69,1.33-1.61,4.54,.69,4.97,.09,.02,.18-.1,.1-.17-.35-.33-.75-.58-.97-1.02-.23-.48-.24-1.05-.16-1.57,.13-.87,.49-1.75,.97-2.49,.28-.42,.65-.77,.84-1.25,.15-.39,.14-.8,.21-1.21,.08-.47,.21-.95,.43-1.38,.22-.43,.54-.63,.9-.92,.07-.06,.03-.18-.05-.2Z" class="cls-6"/><path d="M68.61,31.46c-.13-.22-.33-.34-.5-.53-.25-.28-.44-.62-.6-.97-.31-.67-.49-1.39-.65-2.11-.16-.73-.19-1.49-.41-2.2-.26-.86-.8-1.55-.92-2.46-.01-.1-.18-.1-.2,0-.17,.91,.47,1.61,.73,2.43,.28,.87,.29,1.82,.5,2.71,.21,.88,.77,3.24,1.96,3.29,.09,0,.14-.1,.1-.17Z" class="cls-6"/><path d="M52.92,16.94s.05-.07,.01-.1c-.77-.54-1.8,.18-2.28,.81-.5,.64-.79,1.48-.53,2.27,.24,.72,1.97,3.01,2.6,1.39,.05-.12-.11-.23-.21-.16-.51,.33-.83,.26-1.26-.18-.34-.35-.63-.83-.76-1.3-.18-.66,.17-1.4,.61-1.89,.53-.59,1.13-.61,1.82-.84Z" class="cls-6"/><path d="M52.65,8.37c-.52-.5-1.43-.11-1.87,.33-.51,.51-.82,1.33-.61,2.03,.16,.52,.54,1.22,1.08,1.42,.43,.16,.89-.18,.75-.65-.01-.04-.07-.07-.11-.04-.33,.25-.42,.44-.79,.06-.26-.27-.51-.69-.57-1.07-.08-.52,.17-1.1,.53-1.46,.48-.48,.95-.33,1.54-.47,.07-.02,.09-.1,.04-.15Z" class="cls-6"/><path d="M34.75,6.7c-.79,.05-1.44,.61-1.91,1.21-1.05,1.34-1.24,3.89,.71,4.54,.03,0,.04-.03,.03-.04-.67-.63-1.26-1.15-1.33-2.14-.05-.75,.2-1.42,.63-2.02,.4-.55,.94-1.04,1.63-1.19,.87-.18,1.28,.41,1.86,.93,.04,.04,.1,0,.09-.05-.15-.78-.95-1.28-1.71-1.23Z" class="cls-6"/><path d="M9.57,44.77c-.55,.06-.99,.66-1.26,1.09-.8,1.25-.54,3.42,.94,4.06,.03,.01,.08-.02,.06-.06-.66-.98-1.46-2-1.02-3.26,.13-.38,.38-.75,.66-1.03,.49-.51,.83-.51,1.38-.06,.01,0,.03,0,.03-.01,0-.43-.33-.78-.77-.73Z" class="cls-6"/><path d="M34.99,65.84c-.65,.26-1.23,.66-1.94,.77-.79,.12-1.57-.06-2.32-.31-.7-.24-2.09-.79-2.59,.12-.34,.62,.23,1.25,.79,1.44,.02,0,.04-.02,.02-.03-.33-.27-.75-.65-.62-1.12,.19-.73,1.2-.53,1.73-.37,.82,.24,1.46,.68,2.34,.71,1.45,.06,3.02-1.89,4.35-.59,.07,.07,.21,0,.17-.1-.32-.81-1.22-.79-1.92-.51Z" class="cls-6"/><path d="M47.76,42.78c-1.18-1.55-4.07,.25-5.1,1.2-.88,.81-1.56,1.92-1.71,3.12-.06,.55-.02,1.8,.83,1.61,.05-.01,.06-.08,.01-.1-.77-.41-.65-1.33-.44-2.06,.29-1.03,.97-1.95,1.78-2.63,1.02-.86,3.29-2.1,4.52-1.07,.05,.04,.14-.01,.1-.07Z" class="cls-6"/><path d="M23.05,22.58c-.61,.83-.93,1.82-1.61,2.63-.78,.91-1.81,1.54-3.02,1.63-1.18,.08-2.74-.34-3.3-1.44-.38-.75-.98-.93-1.76-1.12-2.36-.59-3.27-2.73-3.1-4.99,.17-2.12,1.06-3.9,2.43-5.49,.01-.02,0-.04-.02-.03-1.32,.77-2.15,2.55-2.54,3.97-.41,1.54-.5,3.31,.24,4.77,.42,.81,1.14,1.6,1.98,1.98,.38,.17,.79,.24,1.19,.35,.65,.19,.91,.42,1.22,1,.42,.79,1.31,1.11,2.13,1.35,.94,.27,1.98,.22,2.89-.13,1.64-.64,3.28-2.58,3.55-4.34,.03-.18-.18-.28-.3-.13Z" class="cls-10"/><path d="M22.75,19.84c-.41-.59-.72-1.07-.78-1.82-.04-.47,0-.95-.3-1.35-.31-.4-.87-.48-1.16-.89-.36-.51-.18-1.22-.31-1.8-.12-.53-.41-.93-.83-1.28-.63-.52-1.88-1.25-2.7-.81-.02,.01-.02,.05,0,.06,.5,.26,1.08,.29,1.59,.54,.67,.33,1.35,.83,1.51,1.6,.17,.77-.04,1.62,.63,2.2,.43,.37,.92,.42,1.08,1.06,.11,.44,.01,.91,.13,1.35,.22,.83,.9,1.66,1.34,2.39,.08,.12,.25,.06,.26-.07,.04-.46-.22-.82-.47-1.19Z" class="cls-10"/><path d="M3.78,35.59c-.11-1.13-.23-2.34-.68-3.39-.22-.52-.79-1.33-1.41-.82-.05,.04,0,.12,.05,.12,.94,.02,1.16,1.22,1.31,1.96,.29,1.38,.35,2.81,.39,4.22,.03,1.22,.03,2.44-.05,3.66-.02,.37-.06,.73-.13,1.09-.19,1.03-.43,1.91-1.57,2.15-.23,.05-.14,.35,.05,.37,2.32,.29,2.18-3.81,2.19-5.29,.01-1.36-.02-2.71-.15-4.06Z" class="cls-10"/><path d="M1.58,44.02c-.63-.33-.82-.71-.97-1.44-.21-1.02-.23-2.08-.22-3.12,.02-1.63,.39-3.39,.06-4.99,0-.01-.02-.01-.02,0C0,36.4-.03,38.48,.02,40.47c.03,.97,.05,2.03,.42,2.94,.16,.38,.63,1.1,1.14,.8,.07-.04,.08-.16,0-.2Z" class="cls-10"/><path d="M10.77,46.01c-.04-.78-.07-1.29-.82-1.71-.18-.1-.32,.15-.16,.27,.65,.49,.56,.9,.62,1.62,.06,.59,.32,1.09,.55,1.62,.31,.74,.31,1.4-.14,2.09-.58,.89-1.34,.84-2.1,.23-.06-.04-.13,0-.1,.08,.76,1.71,2.72,.12,2.92-1.13,.18-1.11-.71-1.99-.78-3.08Z" class="cls-10"/><path d="M26,36.49c-.14-1.36-1.83-2.67-3.13-2.77-.09,0-.14,.12-.07,.18,.95,.82,3,1.34,2.76,2.97-.09,.64-.82,.95-1.09,1.52-.31,.65-.23,1.4-.59,2.04-.74,1.35-2.53,2.24-4.03,2.31-1.6,.07-2.97-.59-4.12-1.66-.01-.01-.03,0-.02,.02,.76,1.43,2.6,2.03,4.14,2,1.61-.04,3.37-.91,4.27-2.26,.54-.82,.36-1.93,1.01-2.66,.49-.54,.96-.86,.87-1.67Z" class="cls-10"/><path d="M41.6,21.58c-.62-1.03-2.15-3.49-3.68-2.57-.02,.01-.01,.05,.01,.05,.96,.05,1.59,.41,2.23,1.13,.51,.58,.95,1.26,1.29,1.95,.78,1.57,.98,3.58,.01,5.12-.48,.77-1.22,1.45-2.03,1.87-.57,.29-1.23,.46-1.87,.49-.33,.02-.64-.02-.95,.11-.35,.15-.58,.47-.92,.63-.39,.19-.84,.2-1.26,.18-.72-.03-1.59-.2-2.19-.62,0,0-.01,0,0,0,.81,1.21,2.96,1.26,4.06,.48,.63-.45,1.27-.33,1.99-.46,.64-.12,1.25-.36,1.8-.73,.82-.55,1.45-1.27,1.9-2.15,.91-1.79,.64-3.79-.38-5.48Z" class="cls-10"/><path d="M35.33,19.21c-2.58,.09-4.47,2.24-5.1,4.6-.63,2.36,.27,5.24,2.9,5.75,.14,.03,.24-.17,.1-.24-.94-.47-1.74-.82-2.3-1.77-.72-1.22-.65-2.57-.23-3.88,.35-1.11,.93-2.16,1.81-2.93,.84-.73,1.82-1.05,2.83-1.46,.03-.01,.03-.07,0-.07Z" class="cls-10"/><path d="M28.68,8.71c-.33-.62-1.32-1.26-2-.84-.04,.02-.04,.08,0,.1,.66,.43,1.35,.26,1.73,1.14,.39,.91,.17,2.04-.19,2.91-.54,1.32-1.99,2.98-3.6,2.48-.08-.02-.14,.08-.08,.13,.56,.51,1.51,.23,2.11-.1,.95-.54,1.58-1.51,1.97-2.51,.38-.99,.59-2.33,.06-3.32Z" class="cls-10"/><path d="M25.57,8.53c-1.22,.17-2.27,1.08-2.68,2.23-.42,1.17-.3,3.1,.92,3.78,.04,.02,.12,0,.11-.06-.04-.4-.28-.63-.48-.97-.39-.68-.4-1.76-.19-2.5,.38-1.29,1.31-1.74,2.35-2.4,.05-.03,.01-.09-.03-.08Z" class="cls-10"/><path d="M36.52,7.08c-.07-.06-.15,.04-.14,.11,.14,.79,.85,1.12,.61,2.07-.19,.73-.78,1.03-1.15,1.6-.08,.13-.09,.29-.13,.43-.16,.54-.39,.94-.89,1.21-.79,.43-1.87,.3-2.29-.57,0-.01-.02,0-.03,0-.18,.67,.66,1.06,1.22,1.12,.82,.09,1.8-.4,2.16-1.15,.11-.22,.1-.49,.2-.71,.11-.24,.31-.36,.49-.56,.31-.33,.57-.72,.72-1.15,.29-.87-.04-1.84-.77-2.39Z" class="cls-10"/><path d="M47.79,6.72c-.23-.76-.83-1.89-1.79-1.63-.02,0-.01,.02,0,.03,1.54,.61,2,3.12,1.23,4.47-.61,1.06-1.59,1.92-2.81,2.11-.81,.13-1.67,.37-2.23-.38-.35-.46-.56-1.01-.96-1.43-.09-.09-.26,0-.22,.13,.23,.68,.73,1.62,1.33,2.04,.53,.37,1.15,.16,1.75,.09,1.57-.2,2.72-.94,3.53-2.33,.54-.94,.49-2.08,.18-3.09Z" class="cls-10"/><path d="M45.1,4.74c-.37-.5-1.24-.32-1.77-.21-.73,.15-1.56,.46-2.1,.99-.81,.8-1.32,2.68-.08,3.33,.06,.03,.13-.03,.1-.1-.56-1.14-.63-2.46,.57-3.25,.48-.31,1.08-.45,1.63-.55,.51-.09,1.13,.07,1.61-.09,.05-.02,.08-.08,.05-.12Z" class="cls-10"/><path d="M53.11,9.47c-.2,.47-.54,.94-.52,1.47,.01,.49,.02,.82-.43,1.13-.23,.16-.49,.17-.73,.29,0,0,0,.01,0,.02,.5,.35,.97-.15,1.16-.59,.15-.35,.11-.69,.19-1.05,.1-.45,.48-.76,.43-1.23,0-.05-.08-.08-.1-.03Z" class="cls-10"/><path d="M62.83,16.18c-.41-.46-1-.75-1.49-1.11-.65-.47-1.11-1.06-1.59-1.7-.82-1.1-1.42-2.34-1.89-3.62-.25-.69-.47-1.41-.57-2.13-.06-.4-.12-.86,0-1.24,.13-.39,.41-.47,.7-.72,0,0,0-.02,0-.03-.62-.42-1.07,.45-1.15,.95-.14,.95,.16,1.98,.46,2.87,.43,1.29,1,2.58,1.76,3.71,.42,.63,.93,1.15,1.54,1.61,.68,.51,1.42,1.09,2.18,1.47,.04,.02,.08-.03,.05-.06Z" class="cls-10"/><path d="M58,13.78c-1.53-2.38-3.07-4.95-3.48-7.81,0-.01-.02-.01-.02,0-.28,1.48,.53,3.22,1.11,4.57,.33,.76,.74,1.47,1.17,2.17,.29,.48,.57,1,1.12,1.21,.07,.03,.14-.07,.1-.13Z" class="cls-10"/><path d="M59.03,16.95c-1.3-1.55-2.41-3.17-3.28-5.01-.47-1-.96-2.01-1.34-3.04-.37-1-.56-2.02-.81-3.05-.01-.05-.11-.06-.12,0-.36,2.09,1.08,4.45,1.94,6.29,.51,1.09,1.09,2.1,1.78,3.09,.46,.66,.93,1.62,1.73,1.9,.11,.04,.16-.1,.1-.18Z" class="cls-10"/><path d="M64.69,12.99c-.6-.57-1.3-1.02-1.92-1.56-.72-.62-1.13-1.28-1.5-2.14-.35-.81-.69-1.63-1.33-2.25-.02-.02-.05,0-.04,.03,.78,1.46,1.05,3.09,2.27,4.29,1.23,1.22,2.67,2.1,3.56,3.64,.03,.05,.12,.02,.1-.04-.27-.76-.54-1.39-1.14-1.96Z" class="cls-10"/><path d="M64.42,13.94c-.35,0-.35,.54,0,.54s.35-.54,0-.54Z" class="cls-10"/><path d="M65.21,15.08c-.15-.11-.41,.04-.39,.23,0,.02,0,.03,0,.04-.01,.02-.02,.03-.02,.06-.02,.16,.05,.3,.07,.45,.03,.17,.04,.35,.09,.52,.05,.19,.27,.23,.41,.11,.46-.39,.27-1.09-.17-1.41Z" class="cls-10"/><path d="M68.97,28.28c-.5-.67-.19-1.45-.38-2.22-.13-.53-.36-1.04-.66-1.5-.55-.85-1.35-1.65-2.42-1.64-.07,0-.08,.1-.02,.11,1.77,.52,2.87,2.45,2.75,4.22-.06,.84,.44,1.22,.82,1.91,.28,.51,.47,1.18,.33,1.76-.08,.32-.31,.75-.66,.83-.22,.05-.63-.13-.85-.2-.16-.05-.23,.14-.15,.25,.57,.73,1.57,.42,1.92-.35,.51-1.12,.01-2.27-.67-3.18Z" class="cls-10"/><path d="M56.3,26.17c-1.51-.01-2.92,1.7-3.65,2.87-1.17,1.87-1.64,4.05-1.74,6.24-.11,2.3,.27,4.68,1.25,6.77,.58,1.23,1.99,3.34,3.6,3.13,.12-.02,.23-.21,.07-.27-.74-.31-1.37-.56-1.94-1.16-.6-.62-1.06-1.35-1.4-2.14-.85-1.94-1.18-4.08-1.1-6.19,.07-1.96,.45-3.96,1.4-5.69,.77-1.4,2.02-2.84,3.54-3.44,.07-.03,.06-.13-.02-.13Z" class="cls-10"/><path d="M64.42,32.29c-.26-1.58-.51-4.04-2.2-4.78-.03-.01-.05,.02-.03,.04,1.12,1.43,1.49,2.95,1.79,4.71,.37,2.17,.14,4.21-.78,6.21-.33,.72-.83,1.35-1.14,2.08-.29,.68-.4,1.41-.63,2.1-.31,.95-.89,1.81-1.74,2.35-.82,.52-1.64,.53-2.57,.63-.09,0-.16,.14-.05,.19,1.51,.69,3.37-.69,4.22-1.87,.49-.69,.65-1.56,.86-2.37,.3-1.12,1-1.99,1.47-3.04,.9-2.02,1.17-4.08,.81-6.26Z" class="cls-10"/><path d="M48.46,43.12s-.05,0-.04,.03c.41,.96,.06,2.16-.48,3.02-.27,.42-.62,.86-1.06,1.12-.4,.24-.88,.25-1.27,.51-.76,.5-1.14,1.23-2.11,1.43-.42,.09-2.06,.1-2.3-.45-.04-.09-.16-.02-.14,.06,.12,.57,1.12,.76,1.59,.82,.55,.07,1.09-.06,1.58-.31,.6-.3,.95-.81,1.48-1.19,.52-.36,1.16-.36,1.66-.77,.47-.38,.86-.89,1.13-1.43,.43-.86,.71-2.09-.05-2.84Z" class="cls-10"/><path d="M40.76,40.35c-1.46-1.39-4.03-1.92-5.82-.84-.1,.06-.07,.25,.06,.23,1.1-.11,2.08-.51,3.2-.24,.86,.2,1.76,.68,2.37,1.34,1.53,1.66,.46,4.09-1.45,4.84-.61,.24-1.45,.47-2.07,.12-.69-.39-.54-1.17-.92-1.75-.2-.31-.5-.37-.85-.39-1-.04-1.99-.16-2.99-.19-.12,0-.12,.15-.03,.19,.58,.22,1.12,.38,1.75,.44,.39,.03,1.29-.16,1.64,.09,.28,.2,.3,.79,.42,1.1,.13,.32,.33,.62,.61,.82,1.26,.9,3.3-.07,4.17-1.08,1.21-1.4,1.29-3.37-.09-4.69Z" class="cls-10"/><path d="M33.78,53.41c-.1-.08-.24,.05-.15,.15,.64,.65,1.35,1.75,1.56,2.64,.17,.74-.14,2.33-1.19,2.14-.17-.03-.32,.07-.33,.25-.07,1.95-.53,4.04-2.87,4.25-2.22,.2-3.63-1.73-5.68-2.03-1.55-.23-3.03-.22-4.54-.73-1.64-.55-2.98-1.42-4-2.82-.04-.05-.14-.02-.11,.05,.55,1.58,2.19,2.55,3.68,3.11,.87,.32,1.77,.54,2.69,.68,1.1,.17,2.24,.07,3.26,.58,1.87,.95,3.74,2.35,5.92,1.39,1.74-.76,2.07-2.49,2.15-4.2,.94-.03,1.46-1,1.57-1.91,.17-1.47-.91-2.69-1.96-3.54Z" class="cls-10"/><path d="M33.05,53.44c-.36-1.26-2.2-1.64-3.3-1.81-2.01-.31-4.06-.52-6.08-.75-.86-.1-1.79-.13-2.61,.21-.8,.34-1.37,1.05-2.06,1.55-1.21,.88-2.64,1.35-2.77,3.06,0,.01,.02,.01,.02,0,.39-1.57,2-2.05,3.13-2.92,.6-.47,1.16-1.01,1.88-1.29,.96-.37,2.06-.21,3.05-.06,1.62,.25,3.25,.38,4.88,.59,.62,.08,1.24,.18,1.83,.38,.74,.25,1.18,.66,1.73,1.2,.12,.12,.33,0,.28-.16Z" class="cls-10"/><path d="M36.86,65.81s-.06,.01-.04,.04c.45,.65,.83,1.22,.46,2.03-.22,.47-.51,.82-.96,1.09-.84,.5-1.87,.52-2.82,.54-1.06,.02-2.05-.12-3.06-.47-.87-.3-2.42-.85-2.68-1.87-.02-.08-.14-.05-.13,.04,.15,1.11,1.4,1.66,2.33,2.02,1.39,.55,2.87,.78,4.37,.61,.99-.11,2.34-.43,2.97-1.29,.56-.77,.49-2.28-.43-2.74Z" class="cls-10"/><path d="M57.32,62.71c-1.22,.2-2.42,.66-3.45,1.33-1.12,.74-2.17,1.52-3.37,2.14-.97,.49-2,.84-2.67,1.75-.51,.69-.54,1.62,0,2.32,.06,.08,.19,.01,.18-.08-.01-.64-.29-1.15,.01-1.8,.23-.49,.7-.85,1.15-1.12,.88-.52,1.83-.87,2.7-1.44,.82-.53,1.61-1.1,2.4-1.67,.96-.7,2.08-.8,3.08-1.37,.04-.02,.01-.08-.03-.07Z" class="cls-10"/><path d="M60.98,66.61c-1.33,.61-2.53,1.46-3.88,2.04-.97,.42-1.94,.85-2.94,1.18-1.1,.36-2.19,.7-3.32,.95-.7,.15-1.51,.36-2.12-.11-.05-.04-.15,0-.16,.07-.3,1.57,4.62-.29,5.03-.44,2.54-.95,5.32-1.93,7.47-3.61,.05-.04-.01-.1-.06-.08Z" class="cls-10"/><path d="M68.11,41.89c.08-.99,.31-2.04-.44-2.82,0,0,0,0,0,0,.41,.96,.18,1.96,.11,2.95-.07,1.05,.17,1.97,.29,3,.14,1.15,.1,2.16-.46,3.21-.2,.37-.43,.76-.68,1.09-.49,.64-1.07,.69-1.78,.91-.09,.03-.1,.18,0,.2,.9,.21,1.74-.69,2.28-1.31,.72-.82,1.04-2.11,1.1-3.18,.08-1.38-.53-2.68-.42-4.07Z" class="cls-10"/><path d="M62.06,21.64c-.11-.16-.32-.17-.37-.25-.18-.24-.13-.72-.26-1.05-.19-.49-.66-1.1-1.25-.9-.08,.03-.08,.13,0,.16,.88,.33,.85,1.04,1.02,1.8,.06,.26,.09,.24,.25,.4,.07,.07,.2-.02,.27,.04,.28,.26-.08,.83-.28,.98-.31,.24-.83,.38-1.2,.49-.06,.02-.07,.11,0,.13,.87,.2,2.5-.76,1.82-1.79Z" class="cls-10"/><path d="M54.49,17.18c-.27-.43-.84-.86-1.36-.63-.03,.01-.03,.07,0,.08,.76,.39,1.29,.74,.9,1.71-.11,.26-.18,.37-.18,.65,0,.65,.29,1.3-.07,1.92-.29,.51-.83,.7-1.35,.87-.11,.04-.11,.16-.03,.23,.5,.38,1.14-.2,1.46-.57,.57-.64,.5-1.36,.38-2.15-.12-.82,.78-1.28,.26-2.11Z" class="cls-10"/><path d="M59.07,49.94c-1.93-1.21-4.01-1.51-6.21-.99-1.96,.47-3.87,1.24-5.6,2.27-1.74,1.03-3.34,2.37-4.6,3.95-1.09,1.36-2.24,3.23-2.31,5.03,0,.05,.07,.06,.09,.01,.34-.89,.55-1.79,.99-2.65,.43-.85,.96-1.64,1.56-2.37,1.24-1.49,2.78-2.68,4.45-3.66,1.62-.95,3.38-1.68,5.2-2.14,1.08-.27,2.18-.49,3.29-.29,1.07,.2,2,.79,3.04,1.07,.14,.04,.22-.16,.1-.23Z" class="cls-10"/><path d="M60.84,53.83c-.04-.16-.25-.1-.26,.04-.24,1.99-1.05,3.57-2.47,4.99-1.2,1.21-2.74,2.19-4.49,2.24-1.52,.05-3-.95-4.51-.6-1.64,.39-2.51,2.07-3.84,2.95,0,0,0,0,0,0,1.8-.69,2.83-2.96,4.98-2.6,.86,.14,1.65,.51,2.52,.62,.84,.11,1.7,.02,2.51-.25,1.55-.52,2.84-1.65,3.88-2.89,.96-1.15,2.04-2.94,1.69-4.5Z" class="cls-10"/><path d="M50.99,67.38c-.41-.22-.92-.14-1.34,0-.33,.12-.95,.42-.85,.86,0,0,0,.01-.01,.02-.1,.15,0,.34,.16,.39,.77,.26,1.55-.38,2.1-.84,.13-.11,.09-.35-.06-.43Z" class="cls-10"/><path d="M53.24,65.73c-.32,0-.32,.5,0,.5s.32-.5,0-.5Z" class="cls-10"/><path d="M3.74,31.55c-.32-.45-.92-.92-1.51-.77-.14,.04-.18,.26-.04,.33,.34,.16,.66,.21,.93,.49,.24,.26,.4,.59,.49,.93,.06,.22,.03,.69,.23,.85,.13,.1,.27,.04,.35-.09,.26-.44-.2-1.37-.46-1.74Z" class="cls-10"/><path d="M7.33,39.24c-.25-.65-.73-1.16-1.04-1.77-.46-.9-.29-1.78-.18-2.73,.12-1.13-.41-1.89-.9-2.86-.2-.4-.82-1.62-1.42-1.06-.04,.04-.01,.09,.03,.11,.77,.31,.98,1.19,1.34,1.86,.29,.54,.53,.98,.54,1.6,0,.56-.1,1.11-.1,1.67,0,1.06,.48,1.75,1.04,2.61,.39,.6,.62,1.21,.62,1.93,0,.75-.31,1.33-.5,2.02-.03,.09,.11,.19,.17,.1,.7-.9,.82-2.44,.42-3.48Z" class="cls-10"/><path d="M7.01,18.52c0-.11-.02-.22-.04-.32-.02-.11-.11-.18-.21-.2-.13-.11-.35-.1-.42,.1-.13,.08-.24,.19-.34,.32-.44,.54-.67,1.42-.2,1.91,.01,.01,.02,.02,.04,.04,.02,.02,.03,.04,.05,.05,.04,.03,.1,.06,.15,.07,.14,.15,.46,.11,.54-.12,.19-.52,.54-1.24,.43-1.84Z" class="cls-10"/><path d="M7.36,16.7s-.03,0-.04,0c-.35-.03-.35,.58,0,.55,.01,0,.03,0,.04,0,.35-.03,.35-.51,0-.54Z" class="cls-10"/><g><path d="M21.84,6.97c-.44-.36-.89-.55-1.47-.47-.39,.05-.79,.22-1.12,.44-.82,.55-1.39,1.68-.79,2.61,1.09,1.7,3.83,.3,3.71-1.51,0,0,0-.02,0-.03,.06-.38-.06-.83-.33-1.05Z" class="cls-10"/><polygon points="19.6 7.54 19.6 7.54 19.59 7.55 19.59 7.55 19.6 7.54" class="cls-10"/></g><path d="M22.19,5.43c-.53,0-.53,.82,0,.82s.53-.82,0-.82Z" class="cls-10"/><path d="M30.6,33.23c-.04-.35-.31-.61-.68-.52-.43,.11-.8,.41-1.01,.81-.17,.32-.31,.85-.07,1.16,0,.11,0,.22,0,.32,.03,.35,.42,.69,.77,.44,.69-.49,1.09-1.37,.99-2.21Z" class="cls-10"/><path d="M27.8,34.8c-.59,0-.59,.92,0,.92s.59-.92,0-.92Z" class="cls-10"/><path d="M27.27,20.02c-.44,.37-.84,.94-1.11,1.52-.2,.3-.37,.64-.32,.99,.16,1.13,1.55,.44,2.01-.02,.48-.47,1.08-1.28,1.09-1.98,.02-.99-1.08-1.01-1.67-.52Z" class="cls-10"/><path d="M26.64,20.45s.01-.02,.01-.03c.07-.14,.03-.33-.17-.39-.01,0-.02,0-.04-.01h.01c-.09-.03-.19-.04-.28,.02-.14,.08-.19,.25-.13,.4,.11,.26,.47,.23,.57,.02,0,0,0,0,0-.01Z" class="cls-10"/><path d="M17.39,31.74c-.16-.32-.51-.56-.89-.46-.43,.11-.61,.57-.68,.96-.03,.19,.01,.36,.11,.48,.03,.19,.15,.36,.36,.42,.41,.11,.89,0,1.11-.39,.17-.31,.14-.69-.02-1Z" class="cls-10"/><path d="M14.08,36.5s0-.03,0-.04c-.09-.48-.89-.49-.98,0,0,.01,0,.03,0,.04-.06,.33,.14,.65,.5,.65s.56-.33,.5-.65Z" class="cls-10"/><path d="M14.92,42.99c-.42-.39-1.01-.47-1.45-.05-.08,.08-.16,.18-.23,.28-.09,.06-.16,.13-.21,.22-.18,.31-.13,.72,.11,.99,.23,.25,.6,.34,.92,.23,.45-.15,.76-.58,.95-.99,.1-.22,.1-.5-.09-.67Z" class="cls-10"/><path d="M12.96,42.22s-.02,0-.03-.01c-.22-.1-.5,.02-.5,.29s.28,.39,.5,.28h.03c.2-.11,.2-.46,0-.56Z" class="cls-10"/><path d="M48.29,19.39c-.24-.66-.98-.86-1.47-.32-.44,.48-.59,1.46-.07,1.94,.18,.17,.4,.18,.57,.09,.02,0,.04,.02,.07,.03,.97,.29,1.13-1.13,.91-1.74Z" class="cls-10"/><path d="M33.57,16.32c-.53,0-.53,.82,0,.82s.53-.82,0-.82Z" class="cls-10"/><path d="M47.46,21.7c-.08-.24-.4-.24-.48,0-.01,.03-.02,.07-.02,.1-.06,.45,.6,.45,.53,0,0-.04,0-.07-.02-.1Z" class="cls-10"/><path d="M37.44,1.16c.01-.11-.03-.24-.14-.3-.99-.55-2.28,.9-2.2,1.88,.02,.27,.21,.51,.51,.51,.94-.01,1.96-.88,1.89-1.87,0-.08-.03-.15-.06-.22Z" class="cls-10"/><path d="M35.24,.99c-.16-.16-.43-.16-.59,0-.18,.18-.16,.53,.08,.65,.16,.08,.32,.08,.46-.03,.19-.15,.22-.44,.04-.62Z" class="cls-10"/><path d="M56.43,5.57c-.18-.18-.52-.2-.7,0-.15,.16-.26,.34-.34,.52-.04,.05-.08,.11-.12,.18-.15,.29-.21,.73,.07,.96,.02,.01,.03,.02,.05,.03,0,.02,0,.03,.02,.05,.15,.32,.58,.3,.8,.1,.24-.21,.35-.5,.38-.8,.14-.35,.14-.73-.16-1.04Z" class="cls-10"/><path d="M56.4,8.28l-.04-.04c-.34-.4-.97,.23-.57,.57,.01,.01,.03,.02,.04,.04,.39,.34,.9-.17,.56-.56Z" class="cls-10"/><path d="M51.12,48.72c-2.85,.1-5.54,1.9-7.63,3.7-1.67,1.44-4.32,4.11-3.65,6.57,.07,.26,.45,.32,.58,.08,.57-1.08,.82-2.24,1.53-3.26,.76-1.1,1.76-2.05,2.79-2.89,1.16-.95,2.44-1.83,3.84-2.38,.98-.39,1.95-.56,2.79-1.21,.25-.19,.04-.61-.25-.6Z" class="cls-10"/><path d="M67.38,30.41c-.66-1.2-1.13-2.13-1.3-3.5-.16-1.33-.84-2.46-.9-3.82,0-.05-.07-.08-.09-.03-.59,1.37,.66,3.13,.89,4.5,.17,1.01,.18,2.51,1.27,2.98,.08,.04,.18-.04,.13-.13Z" class="cls-10"/><path d="M21.72,33.24c-1.88-.88-4.5-.88-5.87,.87-.6,.77-2.61,4.44-1.16,5.1,.05,.02,.12,.02,.15-.04,.24-.51,.07-1.19,.19-1.76,.19-.87,.56-1.76,1.04-2.51,1.28-2.04,3.43-1.65,5.43-1.14,.31,.08,.53-.39,.22-.53Z" class="cls-10"/><path d="M34.64,38.48c-.37-.63-1.43-.72-2.08-.64-.66,.08-1.28,.42-1.66,.98-.51,.75-1.07,2.87,.16,3.28,.13,.04,.22-.09,.2-.2-.16-.88-.3-1.75,.19-2.58,.32-.53,.89-.78,1.5-.78,.52,0,1,.32,1.52,.25,.15-.02,.26-.16,.18-.31Z" class="cls-10"/><path d="M35.04,6.04c-1.06-.84-2.25,.94-2.67,1.76-.01,.03,.02,.06,.05,.05,.8-.54,1.49-1.74,2.58-1.71,.04,0,.08-.06,.04-.1Z" class="cls-10"/><path d="M49.75,18.81c.1-1.03,.78-1.78,1.62-2.33,0,0,0-.01,0,0-1.98,.79-2.65,3.78-.59,4.96,.09,.05,.18-.07,.11-.14-.69-.73-1.25-1.41-1.14-2.48Z" class="cls-10"/><path d="M36.28,65.52c-.63-.92-1.58-.51-2.47-.16-1.12,.44-1.86,.53-3.04,.14-.65-.21-1.19-.35-1.84-.08-.04,.02-.04,.08,.01,.07,1.18-.02,2.13,.93,3.34,.84,1.48-.11,2.28-1.24,3.9-.68,.08,.03,.15-.07,.11-.14Z" class="cls-10"/><path d="M45.52,42.03c-.98-.25-2.94,.12-3.18,1.32,0,.02,.02,.04,.04,.03,.53-.3,.9-.77,1.49-.99,.52-.19,1.1-.23,1.64-.31,.03,0,.03-.05,0-.05Z" class="cls-10"/><path d="M66.85,38.76c-.81,.11-1.36,.72-1.68,1.46-.25,.57-.2,1.15-.35,1.74-.16,.62-.5,1.06-.87,1.57-1.17,1.67-1.9,4.3-.3,5.95,.06,.06,.16,0,.14-.08-.27-1.22-.53-2.38-.22-3.63,.27-1.08,.92-1.81,1.5-2.71,.3-.47,.36-.84,.46-1.38,.12-.66,.16-1.28,.57-1.86,.25-.36,.55-.62,.78-.99,.02-.03-.01-.06-.05-.06Z" class="cls-10"/><path d="M8.4,45.01s-.02-.11-.07-.09c-.71,.29-.92,.85-1.01,1.62-.08,.65-.04,1.66,.45,2.16,.04,.04,.1,0,.08-.05-.16-.71-.19-1.32-.03-2.04,.11-.48,.3-1.18,.58-1.59Z" class="cls-10"/><path d="M5.14,41.01c-.72-.02-.89,.77-.74,1.4-.05,.33,.06,.71,.36,.94,.29,.23,.62,.19,.84-.11,.46-.62,.69-2.2-.45-2.23Z" class="cls-11"/><path d="M4.58,44.19c-.03-.23-.18-.43-.43-.43s-.4,.2-.43,.43c0,.03,0,.05,0,.08,0,.56,.86,.56,.86,0,0-.03,0-.05,0-.08Z" class="cls-11"/><path d="M61.26,16.26c-.19-.15-.41-.16-.58-.09-.1-.08-.28-.07-.32,.09,0,.01,0,.02,0,.03,0,0,0,.01-.02,.02-.03,.05-.08,.09-.11,.15-.06,.12-.07,.27-.07,.4,0,.35,.15,.67,.3,.98,.23,.46,.61,1.09,1.16,1.19,.26,.05,.62-.07,.66-.38,.12-.87-.34-1.84-1.03-2.39Z" class="cls-11"/><path d="M63.31,18.11c-.26,0-.48,.22-.48,.48s.22,.48,.48,.48,.48-.22,.48-.48-.22-.48-.48-.48Z" class="cls-11"/><path d="M66.53,18.61c-.02-.3-.23-.54-.55-.55-.42-.02-.85,.19-1.12,.52-.18,.11-.35,.24-.51,.39-.23,.21-.2,.68,.11,.82,.87,.39,2.17-.06,2.08-1.17Z" class="cls-11"/><path d="M60.37,62.67c-.12-.2-.42-.32-.64-.21-.24-.08-.53-.06-.76,0-.44,.12-.87,.4-1.01,.85-.1,.34,.17,.62,.49,.64,.6,.05,1.26-.23,1.74-.58,.22-.16,.33-.44,.18-.7Z" class="cls-11"/><path d="M63.18,64.56c-.79-1.46-2.52-1.02-3.84-.6-1.53,.49-4.5,.61-5.36,2.14-.03,.06,.02,.11,.08,.1,.76-.14,1.44-.53,2.18-.74,.77-.22,1.56-.36,2.33-.6,1.34-.41,3.13-1.33,4.25-.03,.17,.2,.47-.06,.35-.27Z" class="cls-11"/><path d="M43.12,35.54c-.04-.91-.14-1.99-.71-2.73-.57-.73-1.46-.61-2.29-.51-.88,.11-2.04,.24-2.75,.82-.02,.02,0,.06,.03,.05,1.2-.43,3.75-1.39,4.64-.07,.51,.76,.57,1.83,.58,2.71,0,.37,0,.74-.04,1.1-.07,.61-.25,.88-.88,.81-1.13-.12-2.34-.45-3.34-.98-.68-.36-2.36-1.24-1.32-2.07,.69-.55,1.82-.66,2.67-.7,.8-.04,1.51,.2,1.59,1.13,.04,.45-.05,.9-.13,1.34-.65-.08-1.32-.17-1.95-.38-.41-.13-1.07-.53-.33-.86,.44-.19,1.06,.02,1.3,.41,.16,.26,.57,.02,.41-.24-.48-.81-2.56-1.14-2.56,.18,0,1.26,2.41,1.25,3.25,1.38,.12,.02,.27-.03,.29-.17,.18-.88,.46-2.02-.2-2.78-.67-.77-1.9-.52-2.79-.39-.79,.12-1.85,.35-2.29,1.11-.43,.74,.13,1.34,.7,1.78,.94,.72,2.03,1.16,3.17,1.44,.64,.16,1.94,.64,2.53,.07,.56-.53,.43-1.77,.4-2.47Z" class="cls-11"/><path d="M14.11,30.01c-.7-.88-1.03-1.92-2.07-2.49-.58-.32-1.58-.74-2.16-.22-.51,.45-.31,1.35,.07,1.81,.63,.77,1.82,.75,2.73,.75,.11,0,.19-.13,.13-.22-.44-.63-1.05-1.2-1.78-1.48-.21-.08-.35,.26-.15,.36,.57,.28,.99,.67,1.45,1.08-.97,.07-2.18,0-2.5-1.08-.45-1.52,1.52-1.01,2.19-.59,.69,.43,1.17,1.22,1.53,1.94,.19,.37,.08,.5-.37,.6-.33,.08-.71,.05-1.04,.01-1.26-.14-3.42-1.06-3.23-2.64,.13-1.17,1.41-1.6,2.4-1.32,.71,.2,1.3,.65,2.01,.86,.07,.02,.14-.08,.08-.14-.84-.71-2.24-1.51-3.38-1.18-1.08,.31-1.7,1.66-1.25,2.68,.45,1.01,1.61,1.69,2.64,1.95,.84,.22,2.21,.43,2.73-.45,.04-.08,.02-.16-.03-.22Z" class="cls-11"/><path d="M70.43,35.79c-.15-1.01-1.42-2.79-2.52-1.61-.48,.52-.32,1.41,.02,1.96,.42,.67,1.05,.73,1.71,.36,.05-.03,.09-.11,.07-.16-.22-.56-.45-1.1-.72-1.64-.03-.06-.11-.08-.17-.07-.29,.06-.41,.15-.58,.39-.1,.14,.12,.3,.23,.18,.35-.4,.72,.45,.76,.71,.1,.68-.42,.62-.79,.38-.18-.12-.29-.33-.37-.53-.18-.4-.25-.88-.01-1.27,.4-.65,1.17-.47,1.64,.03,.61,.66,.86,1.92,.18,2.59-.35,.34-.71,.36-1.17,.33-.27-.01-.67,.05-.92,0-.84-.2-.86-1.91-.7-2.59,.13-.52,.41-1.04,.85-1.35,.46-.33,.98-.27,1.5-.39,.04,0,.05-.07,.01-.09-1.07-.57-2.24,.5-2.59,1.45-.22,.6-.25,1.28-.11,1.9,.09,.39,.36,1.19,.8,1.34,.14,.04,.38-.06,.53-.07,.24,0,.47,.03,.71,.04,.3,.01,.6,.01,.88-.12,.69-.32,.87-1.08,.77-1.77Z" class="cls-11"/><path d="M25.83,66.51c-.18-.46-.59-.71-.98-.97-.61-.41-1.94-1.52-2.71-.88-.63,.52-.22,1.58,.29,2.02,.59,.5,1.9,1.22,2.71,.98,.07-.02,.13-.1,.1-.17-.33-.81-1.16-1.34-1.91-1.73-.18-.09-.34,.17-.16,.27,.45,.26,.91,.52,1.31,.86,.09,.08,.54,.38,.41,.51-.07,.07-.65-.16-.74-.19-.75-.28-1.93-.77-1.94-1.73-.01-1.41,2.06,.01,2.58,.34,.59,.37,.9,.7,.93,1.4,0,.15,.06,.57,0,.69-.17,.31-.6,.16-.96,.09-1.02-.21-2.11-.69-2.83-1.46-.58-.62-1.34-1.76-.77-2.6,1.09-1.62,3.89,.65,4.75,1.58,.03,.03,.08,0,.06-.05-.64-1.01-1.62-1.78-2.72-2.26-.88-.38-2.1-.36-2.52,.7-.39,.98,.35,2.14,.99,2.83,.98,1.05,2.7,1.75,4.13,1.62,.07,0,.13-.05,.13-.13-.04-.56,.09-1.19-.13-1.73Z" class="cls-11"/><path d="M43.69,2.76c-.14-.72-.87-1.4-1.51-1.71-.62-.3-1.5-.19-1.95,.37-.49,.6-.34,1.5-.31,2.21,0,.09,.07,.15,.16,.16,.74,.04,2.04,.24,2.47-.56,.03-.06,.02-.13-.02-.18-.32-.36-.51-.79-.77-1.19-.04-.06-.12-.1-.19-.08-.31,.12-.54,.24-.8,.46-.13,.11,.04,.32,.18,.23,.25-.15,.5-.3,.71-.14,.11,.08,.25,.38,.31,.52,.08,.19,.3,.22,.1,.46-.07,.08-.3,.12-.4,.14-.36,.08-.75,.06-1.11,.05-.39-.02-.31,.05-.35-.31-.09-.7,.01-1.56,.74-1.84,.88-.34,1.83,.33,2.29,1.06,.89,1.41-1.92,2.04-2.9,2.02-.54-.01-.66-.32-.83-.78-.16-.42-.36-.95-.3-1.4,.12-1.02,1.25-1.5,2.16-1.49,.05,0,.06-.06,.02-.09-.68-.45-1.59,.1-2.06,.63-.64,.73-.42,1.58-.11,2.42,.24,.64,.4,.99,1.12,.96,.8-.04,1.66-.25,2.38-.59,.55-.26,1.1-.67,.97-1.35Z" class="cls-11"/><path d="M13.21,28.03c-.43-.42-1.35-1.26-2.02-1.01-.1,.04-.11,.19,0,.22,1.13,.32,2.77,1.31,2.86,2.66,.09,1.21-1.61,1.18-2.41,.96-.85-.24-1.6-.91-2.46-1.06,0,0,0,0,0,0,.63,.81,2.2,1.37,3.19,1.47,.77,.08,1.88-.16,1.96-1.09,.08-.81-.58-1.63-1.12-2.16Z" class="cls-13"/><path d="M11.3,29.44c-.07-.14-.23-.16-.36-.23-.2-.1-.38-.25-.53-.42-.34-.4-.39-.85-.1-1.3,.04-.07-.04-.13-.1-.1-1.3,.64,.53,2.69,1.08,2.16,.03-.03,.03-.08,.01-.12Z" class="cls-13"/><path d="M12.83,29.21c-.31-.51-.88-.86-1.43-1.05-.03-.01-.05,.04-.02,.05,.38,.2,.77,.52,1.05,.83,.12,.13,.3,.35,.28,.55-.04,.27-.38,.27-.55,.42-.04,.03-.02,.1,.03,.11,.55,.16,.91-.47,.65-.91Z" class="cls-13"/><path d="M12.78,27.44s-.03,.01-.03,.03c.27,.57,.74,1,1.03,1.56,.18,.34,.34,.72,.25,1.11-.08,.38-.42,.61-.63,.92-.05,.08,.04,.19,.12,.16,1.99-.62,.24-3.13-.75-3.78Z" class="cls-8"/><path d="M10.88,29.34c-.13-.13-.32-.19-.46-.31-.17-.15-.31-.35-.38-.56-.06-.17-.1-.38-.04-.56,.09-.22,.32-.24,.46-.4,.03-.04,.03-.1-.02-.13-.61-.33-.89,.62-.79,1.04,.1,.41,.66,1.32,1.2,1.06,.06-.03,.06-.11,.02-.15Z" class="cls-8"/><path d="M10.72,26.6c-.34-.49-1.11-.02-1.4,.3-.42,.47-.4,1.03-.1,1.55,.03,.05,.11,0,.08-.05-.23-.43-.15-1.04,.19-1.4,.17-.19,.37-.25,.62-.28,.19-.02,.38,.05,.56-.01,.05-.02,.08-.07,.05-.12Z" class="cls-8"/><path d="M43.37,1.72c-.05-.05-.13,0-.12,.07,.12,.57,.55,1.09,.22,1.67-.22,.39-.69,.63-1.09,.79-.95,.38-1.95,.19-2.9,.44-.09,.02-.09,.15,0,.17,.56,.14,1.27,.01,1.83-.07,.58-.08,1.22-.19,1.74-.49,.91-.51,1.1-1.86,.32-2.59Z" class="cls-8"/><path d="M40.22,1.1c-.48,.21-.87,.58-.94,1.11-.07,.5,.05,1.29,.34,1.7,.02,.03,.08,.03,.09-.01,.08-.44-.15-.88-.17-1.32-.04-.64,.23-1.04,.71-1.44,.02-.02,0-.05-.03-.04Z" class="cls-8"/><path d="M40.91,1.42c-.55,.41-.58,1.03-.52,1.66,0,0,0,0,0,0-.03-.46,.17-1.15,.58-1.42,.2-.14,.44-.16,.68-.1,.21,.06,.38,.2,.61,.2,.04,0,.07-.04,.06-.08-.16-.55-1.03-.54-1.41-.26Z" class="cls-8"/><path d="M42.7,3.43c-.11-.29-.25-.57-.4-.85-.13-.26-.24-.55-.48-.73-.07-.05-.16,.04-.14,.11,.06,.25,.26,.45,.39,.68,.14,.24,.26,.5,.35,.76-.55,.26-1.13,.22-1.71,.39-.02,0-.02,.03,0,.04,.58,.2,1.41,.07,1.93-.25,.04-.03,.08-.09,.06-.14Z" class="cls-8"/><path d="M41.21,2.2c-.13-.04-.27,.11-.37,.19-.05,.04,.02,.11,.07,.07,.07-.05,.18-.11,.26-.06,.03,.02,.04,.05,.08,.07,.03,.01,.07,0,.08-.03,.03-.1-.03-.21-.13-.24Z" class="cls-8"/><path d="M48.45,23.46s-.03,0-.03,.02c.14,.83,.46,1.53,.08,2.36-.24,.52-.63,.96-1.04,1.35-.57,.54-1.82,1.67-2.38,.64-.03-.06-.12-.03-.12,.03-.11,1.64,1.85,.32,2.37-.17,1.03-.99,2.61-2.92,1.12-4.23Z" class="cls-8"/><path d="M69.37,33.88c-.08-.04-.17,.06-.1,.13,.52,.49,.98,1,1.14,1.72,.18,.82-.13,1.81-1.08,1.93-.56,.07-1.69-.32-1.91,.43,0,.03,.02,.05,.05,.04,.72-.38,1.27-.14,2.02-.26,.48-.08,.86-.37,1.05-.83,.34-.86-.33-2.75-1.17-3.15Z" class="cls-8"/><path d="M68.92,33.18c-.82,0-1.42,.68-1.66,1.42-.19,.59-.38,2.02,.15,2.49,.04,.04,.1,.02,.12-.03,.06-.22-.01-.42-.05-.64-.06-.42-.07-.85-.02-1.27,.13-.98,.5-1.59,1.47-1.89,.04-.01,.04-.08-.01-.08Z" class="cls-8"/><path d="M41.54,51.44c-.7,1.07-1.01,2.33-2.31,2.83-.6,.23-1.39,.43-2,.15-.54-.25-.84-.8-1.1-1.31-1.01-1.97-1.76-4.54-3.91-5.57-2.56-1.22-5.38,.52-7.8,1.26-1.51,.46-2.96,.4-4.52,.32-1.31-.07-2.69-.09-3.9,.5-1.42,.69-2,1.96-2.58,3.34-.36,.85-.81,1.72-1.65,2.18-.77,.42-1.7,.36-2.55,.45-.16,.02-.16,.23,0,.25,1.22,.12,2.48,.06,3.42-.82,1.07-1.01,1.23-2.55,2.04-3.72,2.05-2.97,6.19-1.16,9.12-1.85,2.81-.66,6.45-3.26,9.1-.89,.95,.85,1.53,2.06,2.06,3.2,.44,.95,.81,2.2,1.66,2.87,.94,.74,2.43,.4,3.36-.18,1.04-.64,1.39-1.82,1.71-2.93,.03-.1-.11-.15-.16-.07Z" class="cls-11"/><path d="M51.8,26.32c-1.09-.1-2.29,.95-3,1.69-.86,.89-1.5,1.96-1.97,3.09-.59,1.42-.92,2.91-.84,4.45,.08,1.56,.4,3.36,1.15,4.74,.06,.11,.28,.07,.26-.07-.18-1.44-.76-2.78-.9-4.24-.14-1.53,.12-3,.67-4.43,.44-1.14,1.05-2.24,1.89-3.14,.42-.45,.88-.84,1.4-1.17,.46-.29,.99-.48,1.37-.88,.02-.02,0-.05-.02-.05Z" class="cls-11"/><path d="M60.55,45.37c-.59,.26-1.02,1.31-1.26,1.87-.2,.48-.5,1.34-.02,1.74,.08,.07,.22,.05,.25-.07,.06-.27,0-.54,.03-.82,.05-.41,.21-.79,.39-1.15,.22-.45,.72-1.02,.68-1.53,0-.04-.04-.06-.07-.04Z" class="cls-11"/><path d="M46.39,63.99c-.58,.32-1.01,.85-1.58,1.17-.84,.48-1.72,.41-2.58,.02-1.08-.49-1.96-1.32-2.98-1.91-1.23-.71-4.02-2.01-5.03-.32-.01,.02,0,.05,.03,.04,2.37-.91,4.46,.51,6.35,1.84,.96,.67,2.09,1.36,3.32,1.21,1.05-.13,2.14-.94,2.74-1.79,.12-.17-.11-.35-.26-.26Z" class="cls-11"/><path d="M37.89,32.37c-.9,.37-1.7,.69-2.66,.87-.93,.17-1.9,.32-2.73,.82-1.79,1.11-2.23,3.18-2.86,5.03-.82,2.4-2.07,4.39-4.21,5.79-.99,.65-2.08,1.17-3.2,1.54-.97,.31-1.95,.39-2.93,.59-.05,0-.04,.08,0,.09,1.8,.62,4.23-.55,5.76-1.43,1.97-1.12,3.4-2.63,4.36-4.69,.99-2.12,1.18-5.15,3.34-6.48,.91-.56,2.02-.64,3.05-.84,.75-.14,1.84-.32,2.27-1.04,.06-.11-.05-.29-.18-.23Z" class="cls-11"/><path d="M50.84,20.98c-.62,.89-.87,2.06-1.24,3.07-.43,1.17-.91,2.35-1.63,3.38-.7,1-1.64,1.8-2.63,2.5-.9,.63-1.78,1.26-2.66,1.9-.04,.03,0,.09,.04,.07,1.95-1.1,4-2.12,5.38-3.96,.71-.95,1.19-2.05,1.61-3.15,.46-1.19,1.07-2.48,1.32-3.73,.02-.12-.12-.18-.19-.08Z" class="cls-11"/><path d="M12.58,13.08c-1.17-.1-2.39,.83-3.17,1.62-.98,.99-1.68,2.26-2.16,3.56-.49,1.33-.77,2.75-.81,4.16-.02,.68,.03,1.37,.16,2.04,.2,.94,.51,2.14,1.1,2.92,.07,.09,.23,.07,.22-.06-.02-.83-.5-1.62-.73-2.41-.21-.72-.3-1.46-.3-2.21,0-1.33,.24-2.67,.66-3.93,.43-1.29,1.06-2.53,1.95-3.56,.42-.48,.9-.92,1.44-1.26,.52-.32,1.11-.5,1.64-.8,.04-.02,.02-.08-.02-.08Z" class="cls-10"/><path d="M15.35,34.57c-.66-.37-1.24-.52-1.65-1.22-.37-.63-.35-1.33-.43-2.02,0-.04-.06-.07-.08-.02-.6,1.31,.5,3.6,2.1,3.52,.13,0,.19-.18,.07-.25Z" class="cls-10"/><path d="M30.5,4.18c-1.2,.13-2.33,.41-3.41,.97-.74,.39-1.45,.84-2.15,1.3-.62,.4-1.32,.74-1.88,1.22-.04,.03,0,.09,.05,.08,1.18-.26,2.26-1.21,3.28-1.82,1.14-.67,2.32-1.11,3.63-1.27,.95-.12,1.95-.18,2.9-.01,1.09,.19,1.59,.67,2.07,1.62,.07,.15,.27,.06,.28-.08,.18-2.21-3.41-2.15-4.77-2.01Z" class="cls-10"/><path d="M17.13,8.3c-1.19,.1-2.43,.49-3.19,1.49-.34,.45-.34,.9-.41,1.43-.07,.49-.27,.87-.64,1.19-.26,.23-.48,.33-.65,.64-.06,.1,.04,.23,.15,.2,.88-.25,1.5-1.13,1.6-2,.06-.53,.02-.86,.4-1.32,.24-.29,.55-.51,.87-.69,.57-.33,1.26-.61,1.88-.83,.05-.02,.05-.11-.01-.1Z" class="cls-10"/><path d="M49.96,13.98c-.43-.31-.98-.51-1.36-.89-.77-.74-.49-1.87-.04-2.7,.57-1.05,1.8-1.72,1.99-2.98,.16-1.07-.47-2.27-1.22-2.98-.02-.02-.05,0-.04,.03,.71,1.2,1.36,2.64,.45,3.89-.67,.92-1.56,1.57-1.91,2.69-.29,.93-.13,1.9,.66,2.53,.32,.25,.69,.43,1.03,.66,.64,.43,.78,.74,.72,1.48-.01,.14,.19,.21,.28,.11,.61-.65,.04-1.43-.54-1.86Z" class="cls-10"/><path d="M9.68,44.1c-.37-.15-.65-.18-.78-.62-.09-.31-.05-.66-.02-.97,.06-.59,.22-1.15,.39-1.71,.12-.39,.27-.96-.12-1.27-.13-.1-.39-.11-.54-.19-.48-.26-1-.56-1.45-.86,0,0,0,0,0,0,.41,.44,.83,.88,1.35,1.19,.33,.2,.56,.11,.53,.65-.04,.59-.37,1.25-.48,1.84-.14,.7-.17,2.7,1.13,2.18,.11-.05,.12-.19,0-.24Z" class="cls-10"/><path d="M30.74,45.08c-.11-.51-.39-.96-.53-1.45-.2-.69-.18-1.42-.29-2.12,0,0-.01,0-.01,0-.19,1.18-.04,2.11,.33,3.22,.22,.68,.3,1.73-.61,1.84-.42,.05-.85-.1-1.28-.05-1.04,.1-1.79,.86-2.66,1.36-.7,.4-1.34,.58-2.15,.4-.41-.09-.79-.26-1.22-.27-.5-.01-.97,.18-1.45,.32-.61,.17-1.24,.3-1.87,.41-1.16,.2-2.36,.25-3.49,.58-1.5,.45-2.89,1.66-2.78,3.36,.01,.19,.29,.24,.34,.05,.28-1.07,.54-1.94,1.55-2.54,.96-.56,2.08-.66,3.16-.81,1.29-.18,2.51-.46,3.77-.79,1.1-.29,2.03,.39,3.13,.18,1.12-.22,1.88-1.08,2.86-1.58,.58-.29,1.14-.25,1.77-.22,.28,.02,.56,.04,.82-.09,.63-.3,.74-1.19,.61-1.79Z" class="cls-10"/><path d="M38.45,30.15c-.83,.14-1.13,.63-1.51,1.32-.64,1.16-1.43,1.06-2.57,1.23-1.87,.28-2.96,1.68-3.97,3.15-.04,.07,.05,.13,.11,.08,.63-.58,1.08-1.31,1.71-1.89,.84-.79,1.82-1,2.94-1.1,.61-.05,1.15-.14,1.57-.62,.25-.28,.39-.63,.56-.95,.29-.56,.62-.79,1.22-1.03,.12-.05,.07-.21-.05-.19Z" class="cls-10"/><path d="M41.89,68.08c-.32-.04-.83,.03-.91,.41-.1,.45,.51,.7,.86,.66,.11-.01,.15-.14,.06-.21-.09-.07-.55-.21-.55-.34,0-.13,.32-.15,.4-.16,.55,0,1.05,.47,1.25,.95,.36,.84-1.39,.26-1.76,.13-.89-.29-2.08-1.67-.85-2.38,.84-.49,1.89,.19,2.75,.29,.02,0,.03-.02,.02-.03-.54-.89-2.4-1.18-3.2-.53-1.05,.86-.4,2.25,.59,2.84,.44,.26,1.01,.41,1.52,.47,.35,.04,.91,.13,1.21-.13,.76-.66-.77-1.89-1.38-1.98Z" class="cls-5"/><path d="M64.38,53.12c-1.25,.33-1.13,2.38,.34,2.03,.09-.02,.09-.16,0-.19-.3-.08-.66-.05-.79-.41-.07-.2,0-.43,.09-.61,.23-.42,.69-.6,.98-.11,.36,.62,.27,1.69,.14,2.41-.52,.07-1.19,.18-1.64-.07-.53-.29-.56-1.07-.52-1.6,.08-.91,.62-2.84,1.91-2.4,.07,.02,.11-.08,.05-.11-1.46-.91-2.21,1.14-2.38,2.31-.09,.65-.06,1.52,.46,2,.59,.56,1.58,.36,2.3,.28,.09-.01,.19-.06,.21-.16,.15-.79,.38-3.8-1.16-3.39Z" class="cls-5"/><path d="M47.08,43.89c-.86-.55-2.12,.09-2.88,.54-.62,.37-1.79,1.08-1.76,1.93,.03,.82,1.11,.86,1.7,.79,.94-.12,2-.55,2.36-1.49,.02-.06-.01-.12-.06-.15-.62-.38-1.23-.53-1.76,.05-.08,.09,.02,.24,.13,.17,.42-.27,1.77-.3,1.12,.36-.28,.28-.68,.47-1.05,.58-.45,.13-1.46,.3-1.86-.07-.55-.51,.71-1.4,1.06-1.65,.68-.47,1.65-1.04,2.51-.88,1.46,.27,.58,1.96-.1,2.54-.69,.59-1.59,1.03-2.49,1.16-.59,.09-1.52,.14-1.79-.54-.2-.5,.05-1.12,.28-1.56,.76-1.48,2.17-2.38,3.79-2.57,.08,0,.1-.12,.02-.15-1.79-.58-3.71,1.32-4.34,2.81-.25,.6-.41,1.38,.02,1.94,.53,.67,1.57,.58,2.31,.41,1.09-.25,2.28-.89,2.95-1.8,.5-.67,.65-1.9-.16-2.42Z" class="cls-5"/><path d="M35.33,7.51c-1.29,0-2.79,1.84-2.19,3.09,.02,.05,.1,.1,.15,.09,.99-.12,2.03-.86,2.59-1.68,.04-.05,.03-.15-.02-.19-.52-.43-1.12-.47-1.54,.1-.1,.14,.1,.34,.24,.24,.13-.09,.89-.52,1.01-.21,.02,.04-.22,.27-.26,.31-.28,.29-.62,.54-.97,.75-.28,.17-.76,.5-.92,.15-.16-.35,.23-.98,.42-1.26,.48-.67,1.67-1.53,2.32-.57,.24,.35,.24,.88,.05,1.25-.22,.41-.55,.5-.93,.69-.38,.2-.61,.51-.74,.92-.14,.44-.17,.93-.79,.89-.47-.03-.72-.36-.85-.78-.52-1.72,.56-3.2,1.91-4.11,.02-.02,.02-.07-.02-.06-1.48,.15-2.28,1.83-2.35,3.17-.05,1.03,.34,2.37,1.64,2.11,.64-.13,.62-.51,.78-1.04,.25-.85,1.12-.79,1.57-1.46,.63-.92,.11-2.41-1.1-2.4Z" class="cls-5"/><path d="M24.23,36.57c-1.09-.98-2.39-2.26-3.86-2.62-1.35-.33-2.49,.53-3.01,1.74-.94,2.19-.1,6.01,2.82,5.95,2.49-.05,5.08-2.64,2.78-4.79-.82-.76-2.98-1.99-4.09-1.15-.82,.63-.52,2.47-.35,3.32,.31,1.53,1.5,2.14,2.84,1.2,1.62-1.13,.14-2.62-1.1-3.25-.11-.06-.26-.03-.32,.08-.38,.7-.61,1.47-.53,2.28,.02,.25,.38,.26,.39,0,.03-.67,.17-1.25,.45-1.84,.45,.24,.91,.54,1.2,.96,.56,.83-.29,1.61-1.11,1.78-1.31,.26-1.46-1.44-1.48-2.36,0-.43-.06-.93,.05-1.36,.19-.72,.97-.59,1.55-.46,1.14,.27,2.69,1.08,2.96,2.34,.42,2.01-2.86,3.33-4.37,2.56-1.82-.93-2.05-3.93-1.06-5.5,1.79-2.84,4.26,.57,6.14,1.26,.08,.03,.15-.09,.09-.15Z" class="cls-5"/><path d="M66.82,41.22c.07-.45,.12-.86-.14-1.25-.01-.02-.05-.03-.06,0-.17,.36-.15,.73-.23,1.13-.08,.4-.21,.79-.27,1.19-.13,.91,.38,1.73,.27,2.65-.13,1.09-.95,3.76-2.48,3.16-.3-.12-.42,.36-.13,.48,1.62,.63,2.57-1.48,2.91-2.69,.25-.9,.21-1.61,0-2.51-.18-.78,.03-1.39,.15-2.15Z" class="cls-5"/><path d="M56.46,26.19c-.16,.01-.22,.27-.04,.3,1.74,.25,2.97,1.13,3.78,2.69,.79,1.51,1.11,3.27,1.12,4.96,0,1.21-.19,2.37-.65,3.49-.32,.78-.48,1.4-.45,2.26,.04,1.13-.29,1.9-1.09,2.71-.79,.81-1.77,1.36-2.89,.88-.26-.11-.46,.22-.22,.38,1.63,1.09,3.61-.73,4.39-2.07,.59-1.03,.13-2.1,.44-3.18,.18-.63,.51-1.21,.69-1.85,.17-.62,.26-1.26,.29-1.91,.18-3.18-1.12-9.03-5.37-8.67Z" class="cls-5"/><path d="M63.66,33.53c-.06-1.95-.5-3.85-1.7-5.44-1.06-1.4-2.77-2.45-4.58-2.04-.21,.05-.16,.38,.05,.37,1.93-.03,3.38,.77,4.42,2.41,1.02,1.61,1.24,3.3,1.31,5.15,.05,1.34,.15,2.75-.4,4.01-.47,1.06-1.1,1.91-1.4,3.05-.26,.98-.54,1.96-1.21,2.75-.61,.72-1.45,1.03-2.23,1.52-.09,.06-.06,.23,.06,.22,2.02-.14,3.24-2.03,3.75-3.8,.23-.81,.41-1.56,.83-2.3,.28-.49,.59-.96,.79-1.49,.53-1.41,.37-2.95,.32-4.42Z" class="cls-5"/><path d="M34.47,54.51c-.1-.08-.29-.04-.28,.12,.09,1.01,1.28,2.46,0,3.27-.6,.38-1.3-.1-1.68,.65-.16,.31-.16,.67-.29,.99-.26,.66-.85,.91-1.51,1.05-1.2,.27-2.36,.17-3.51-.26-1.04-.38-2.03-.86-3.08-1.21-1.03-.35-2.07-.67-2.99-1.26-1.3-.85-2.89-2.53-2.54-4.19,.01-.06-.04-.1-.1-.07-1.17,.62,.16,2.52,.66,3.14,1.24,1.55,2.85,2.26,4.69,2.88,2.06,.7,3.95,1.89,6.2,1.64,.82-.09,1.81-.25,2.37-.92,.2-.24,.31-.53,.39-.83,.15-.51,.13-.83,.74-.9,.87-.09,1.42-.4,1.67-1.31,.25-.89-.04-2.17-.76-2.79Z" class="cls-5"/><path d="M57.09,50.24c-.16-.07-.34,.08-.24,.24,.29,.51,.78,.85,1.12,1.32,.42,.59,.6,1.27,.59,1.99-.02,1.35-.55,2.7-1.27,3.82-.79,1.22-1.94,2.2-3.39,2.51-1.79,.39-2.86-.76-4.31-1.52-.14-.07-.29-.03-.38,.1-.52,.74-1.32,1.19-1.96,1.81-.65,.63-1.19,1.33-2.12,1.55-.8,.19-1.67-.05-2.33-.53-.74-.54-.98-1.28-1.34-2.09-.03-.06-.12-.04-.13,.02-.48,1.8,1.82,3.25,3.36,3.19,1.01-.04,1.77-.56,2.45-1.26,.75-.77,1.7-1.37,2.37-2.21,1.42,.79,2.49,1.8,4.26,1.52,1.63-.26,2.95-1.29,3.87-2.62,.87-1.26,1.49-2.86,1.47-4.4-.01-1.31-.77-2.89-2.02-3.46Z" class="cls-5"/><path d="M40.89,22.24c-.51-1.2-2.42-3.64-3.93-2.39-.11,.09,0,.24,.11,.25,.44,.04,.84-.06,1.27,.08,.42,.14,.8,.44,1.1,.75,.56,.57,.95,1.31,1.18,2.07,.26,.9,.28,1.98-.38,2.72-.51,.58-1.34,.46-1.96,.88-.56,.38-.93,.97-1.48,1.36-.66,.48-1.47,.68-2.28,.62-1.56-.13-2.86-1.21-3.68-2.48-.03-.05-.12-.02-.1,.04,.44,1.67,2.08,2.81,3.79,2.96,.91,.08,1.84-.15,2.58-.69,.37-.27,.67-.62,.99-.94,.49-.5,.95-.61,1.58-.79,1.91-.54,1.86-2.97,1.23-4.44Z" class="cls-5"/><path d="M20.77,17.39c-.07-.07-.19,0-.17,.1,.29,1.05,.71,2.01,.75,3.11,.04,1.17-.24,2.4-1,3.31-1.66,1.98-4.29,.7-6.02-.42-.04-.02-.09,.02-.06,.06,1.29,1.87,4.59,2.59,6.27,.85,1.6-1.67,1.89-5.28,.23-7.01Z" class="cls-5"/><path d="M62.56,13.11c-1.01-.73-1.62-1.52-2.23-2.6-.39-.7-.76-1.41-1.14-2.11-.29-.53-.57-1.15-1.06-1.51-.06-.04-.12,.03-.11,.09,.14,.63,.57,1.2,.87,1.77,.31,.58,.6,1.18,.92,1.76,.47,.88,.95,1.77,1.72,2.42,1.35,1.14,3.41,1.96,3.07,4.05-.05,.29,.33,.39,.44,.12,.72-1.8-1.23-3.09-2.46-3.97Z" class="cls-5"/><path d="M61.85,64.86c-.03-.14-.24-.2-.33-.09-.28,.36-.39,.78-.73,1.11-.42,.41-.94,.73-1.46,1-1.05,.55-2.19,.94-3.33,1.28-1.1,.33-2.15,.78-3.23,1.17-.62,.23-1.25,.44-1.9,.55-.33,.06-.67,.09-1,.06-.25-.02-.45-.11-.7-.04-.06,.01-.11,.1-.06,.16,.62,.82,2.6,.1,3.35-.15,1.31-.44,2.56-.98,3.88-1.37,1.22-.37,2.46-.79,3.58-1.42,.7-.39,2.12-1.28,1.93-2.26Z" class="cls-5"/><path d="M40.25,40.6s-.08-.03-.1,.01c-.19,.38-.04,.78-.02,1.19,.03,.66-.14,1.22-.59,1.71-.4,.44-.97,.8-1.58,.81-.7,0-1.01-.5-1.38-1-.04-.05-.1-.03-.11,.03-.18,1.57,1.84,1.66,2.8,1.03,.64-.43,1.15-1.06,1.3-1.83,.11-.56,.14-1.53-.31-1.96Z" class="cls-5"/><path d="M35.21,41.94c-.66-.12-1.31-.05-1.96-.26-.9-.29-1.44-.8-1.45-1.79,0-.04-.06-.06-.08-.02-.55,1.22,.39,1.96,1.49,2.3,.68,.21,1.62,.03,2.21,.36,.63,.36,.73,1.28,1.35,1.61,.1,.05,.26-.01,.24-.14-.09-.79-1-1.92-1.8-2.07Z" class="cls-5"/><path d="M67.9,27.95c-.44-.86-.71-3.47-2.01-3.48-.02,0-.04,.02-.03,.04,.16,.54,.68,.9,.89,1.45,.2,.54,.29,1.12,.5,1.65,.29,.74,1.53,2.32,.58,2.97-.24,.17-.01,.56,.23,.4,1.1-.75,.31-2.13-.16-3.04Z" class="cls-5"/><path d="M53.09,19.03c-.07-.57-.03-1.2-.35-1.71-.24-.39-.75-.71-1.17-.43-.02,.01-.02,.03,0,.05,.22,.16,.52,.16,.71,.35,.17,.17,.22,.4,.26,.62,.09,.41,.08,.84,.13,1.26,.05,.37,.14,.75,.13,1.13-.02,.63-.41,.7-.76,1.09-.05,.06-.03,.15,.05,.18,.48,.15,.9-.25,1.06-.68,.22-.59,0-1.26-.07-1.86Z" class="cls-5"/><path d="M61.03,22.07c-.19-.22-.4-.37-.48-.66-.06-.23-.03-.47-.07-.7-.06-.37-.26-.65-.65-.67-.03,0-.04,.03-.02,.05,.32,.35,.39,.59,.42,1.04,.02,.24,.05,.47,.17,.68,.12,.2,.51,.42,.54,.63,.05,.42-.66,.53-.91,.35-.77-.57-.23-1.87-.2-2.6,0-.09-.1-.14-.17-.1-.54,.32-.5,1.36-.44,1.9,.07,.58,.34,1.27,1.02,1.27,.7,0,1.34-.54,.79-1.17Z" class="cls-5"/><path d="M61.65,21.96c-.31-.44-.56-.75-.65-1.29-.09-.53-.21-.88-.68-1.18-.04-.03-.1-.03-.14,0-.22,.15-.4,.29-.41,.57,0,.03,.04,.05,.06,.04,.13-.07,.32-.31,.47-.25,.23,.08,.28,.52,.3,.73,.04,.33,.06,.64,.22,.93,.13,.24,.32,.44,.47,.66,.05,.07,.21,.25,.16,.35-.03,.05-.43,.14-.5,.18-.08,.04-.04,.14,.02,.17,.77,.32,1.08-.31,.67-.9Z" class="cls-5"/><path d="M10.1,45.66s.02-.07-.02-.07c-1.08,0-1.41,1.54-1.44,2.37-.03,.7,.19,2.7,1.23,2.69,.1,0,.18-.12,.12-.21-.21-.29-.51-.46-.68-.8-.23-.46-.33-.99-.34-1.51-.02-1,.21-1.95,1.13-2.46Z" class="cls-5"/><path d="M36.91,66.01c-.13-.18-.42-.08-.36,.15,.2,.78-.12,1.15-.84,1.48-.69,.31-1.49,.46-2.24,.53-1.85,.16-3.85-.42-5.04-1.88-.04-.05-.11,.01-.09,.07,.85,2,3.74,2.45,5.67,2.19,.97-.13,4.05-.92,2.89-2.53Z" class="cls-5"/><path d="M61.98,37.87s-.02,.01-.04,.02c.03-.08,.06-.16,.09-.24,.04-.12-.12-.26-.23-.18-.61,.46-.93,1.39-.73,2.13,.05,.19,.32,.28,.46,.12,.37-.42,.51-.95,.77-1.44,.11-.2-.07-.5-.32-.41Z" class="cls-9"/><path d="M62.34,29.45c-.1-.23-1.09-2.2-1.64-1.42-.46,.65,.35,1.78,.53,2.42,.36,1.27,.4,2.57,.46,3.87,.01,.24,.13,.51,.36,.62,.31,.15,.42,.16,.73,0,.22-.12,.36-.38,.36-.62,.02-1.64-.17-3.34-.8-4.87Z" class="cls-9"/><path d="M60.77,40.13s-.09-.04-.14-.02c-.26,.11-.3,.37-.33,.63-.05,.38-.08,.66-.27,1.01-.16,.29-.3,.59-.53,.82-.23,.24-.36,.35-.49,.66-.01,.03,.01,.06,.04,.07,.71,.28,1.33-.46,1.51-1.09,.12-.39,.09-.78,.22-1.18,.1-.3,.22-.63,0-.9Z" class="cls-9"/><path d="M67.21,45.14c-.11-.92-.2-2.03-.05-2.92,.13-.75,.39-1.33,.17-2.08-.07-.24-.44-.26-.51,0-.29,1.13-.41,2.18-.19,3.32,.1,.51,.45,1.5,.3,2.02-.06,.22-.29,.33-.38,.54-.3,.76-.07,1.75-.7,2.41-.26,.27-.95,.33-1,.77,0,.03,0,.06-.01,.1-.02,.17,.11,.38,.26,.45,1.78,.9,2.25-1.8,2.38-2.95,.07-.68-.19-1.04-.27-1.66Z" class="cls-9"/><path d="M41.33,25.43c-.03-.07-.1-.14-.19-.11-.84,.29-.87,1.63-1.62,1.85-.45,.14-.92-.2-1.43-.02-1.49,.53-2.16,2.46-3.95,2.29-.04,0-.05,.05-.02,.07,.55,.38,1.14,.29,1.7-.03,1.11-.66,1.43-1.55,2.89-1.11,.7,.21,1.16,.31,1.76-.25,.65-.6,1.21-1.84,.86-2.69Z" class="cls-9"/><path d="M22.03,19.16c-.09-.11-.31-.06-.33,.09-.09,.61,0,1.17,.03,1.78,.06,.95-.11,1.7-.56,2.54-.74,1.42-2.44,2.27-4.06,2.07-.05,0-.07,.06-.04,.09,.57,.6,1.14,.78,1.94,.44,.99-.42,1.31-1.24,2.01-1.97,1.23-1.26,2.34-3.48,.99-5.05Z" class="cls-9"/><path d="M23.68,39.03c-.86,.6-1.37,1.52-2.31,2.05-1.11,.62-2.17,.54-3.38,.43-.1,0-.14,.12-.08,.19,1.64,1.76,6.01-.24,5.94-2.57,0-.08-.1-.16-.18-.1Z" class="cls-9"/><path d="M32.12,60.74c-.44,.19-.73,.53-1.21,.67-.41,.13-.99,.37-1.43,.32-.05,0-.06,.06-.02,.09,.57,.31,1,.61,1.7,.48,.53-.1,1.37-.45,1.46-1.06,.04-.26-.18-.63-.5-.5Z" class="cls-9"/><path d="M33.87,58.38c-.09-.1-.19-.14-.31-.19,0,0-.08-.03-.1-.04-.11-.05-.22-.11-.32-.18-.18-.12-.43-.07-.58,.07s-.2,.41-.07,.58c.24,.32,.73,.71,1.17,.55,.34-.13,.47-.52,.21-.8Z" class="cls-9"/><path d="M28.58,61.6c-.84-1.13-2.55-1.61-3.89-1.88-.89-.18-1.79-.24-2.66-.53-.99-.32-1.87-.98-2.71-1.59-.04-.03-.1,.02-.08,.06,.49,1.45,1.74,2.35,3.21,2.75,.94,.25,1.92,.31,2.86,.58,.99,.29,1.88,.96,2.89,1.1,.25,.03,.58-.23,.38-.5Z" class="cls-9"/><path d="M49.76,59.59c-.02-.21-.04-.43-.14-.62,0,0,0,0,0-.01-.01-.18-.22-.27-.35-.15-.05,.05-.19,.15-.25,.27-.08,.16-.1,.34-.09,.51,.01,.35,.05,.8,.24,1.1,.22,.34,.69,.18,.73-.2,.03-.3-.1-.61-.13-.91Z" class="cls-9"/><path d="M46.21,61.75c-.68,.15-1.02,.79-1.81,.79-.66,0-1.58-.37-2-.9-.02-.03-.07,0-.06,.03,.14,.56,.18,.86,.66,1.25,.39,.32,.81,.47,1.31,.49,.78,.03,2.29-.42,2.21-1.42-.01-.17-.15-.28-.32-.24Z" class="cls-9"/><path d="M59.32,51.83c-.07-.12-.28-.11-.31,.04-.14,.74-.06,1.48-.12,2.23-.11,1.17-.53,2.38-1.06,3.43-.53,1.05-1.11,2.17-2.2,2.68-.94,.44-2.13,.58-3.15,.32-.06-.01-.1,.07-.04,.1,2.15,1.18,3.99-.04,5.39-1.86,1.18-1.52,2.58-5.12,1.5-6.95Z" class="cls-9"/><path d="M59.82,62.68c-2.65-1.62-5.69,2.46-7.87,3.38-1.39,.58-5.24,1.83-4.31,4.06,.1,.24,.44,.43,.65,.17,.68-.84,.85-1.52,1.91-2.01,.95-.44,1.98-.69,2.92-1.17,1.07-.54,1.79-1.42,2.63-2.24,.62-.61,1.36-1.14,2.21-1.36,.78-.2,1.2-.05,1.86-.47,.13-.09,.14-.28,0-.36Z" class="cls-9"/><path d="M61.26,65.6c-1.77,1.65-3.74,2.09-5.99,2.7-1.88,.5-3.31,1.49-5.31,1.48-.22,0-.34,.34-.12,.44,2.2,.93,3.61-.91,5.54-1.52,1.16-.37,2.26-.25,3.41-.78,1.07-.49,2.06-1.06,2.85-1.94,.22-.25-.12-.6-.37-.37Z" class="cls-9"/><path d="M67.18,46.63c-.13-.21-.51-.26-.62,0-.07,.16-.15,.3-.18,.48-.02,.16-.03,.32-.06,.48-.05,.25-.17,.47-.17,.72-.11,.15,.01,.43,.23,.35,.06-.03,.19,0,.27-.01,.09-.02,.17-.07,.25-.12,.19-.13,.3-.34,.38-.55,.18-.46,.17-.94-.1-1.35Z" class="cls-9"/><path d="M67.31,41.37c0-.15-.08-.34-.05-.49,0-.06-.05-.13-.11-.09-.15,.11-.31,.15-.45,.28-.14,.13-.25,.31-.32,.49-.16,.39-.22,.88,.08,1.21,.16,.17,.43,.15,.59,0,.27-.25,.26-.63,.27-.97,0-.14,0-.29,0-.43Z" class="cls-9"/><path d="M68.12,27.05c-.56-.98-.23-2.68-1.62-3-.31-.07-.44,.41-.13,.48,1.17,.27,1.07,1.86,1.22,2.75,.07,.41,.22,.78,.43,1.14,.23,.39,.53,.7,.64,1.16,.09,.37,0,.82,.04,1.21,0,.07,.09,.15,.17,.1,1.16-.87-.24-2.94-.75-3.83Z" class="cls-9"/><path d="M68.4,27.33c-.17-.27-.51-.24-.67-.02-.05,.03-.1,.08-.13,.11-.27,.26-.12,.69,.21,.8,.25,.08,.51-.04,.64-.26,.05-.09,.08-.2,.08-.3,0-.14-.08-.24-.13-.32Z" class="cls-9"/><path d="M61.14,10.61c-.14,.07-.25,.21-.29,.36-.04,.16,0,.27,.04,.4,.11,.35,.63,.31,.68-.04,.04-.06,.07-.1,.11-.18,.18-.36-.18-.72-.54-.54Z" class="cls-9"/><path d="M46.73,7.81c-.25-.65,.22-1.24-.08-1.89-.22-.48-.78-.89-1.29-.96-.23-.03-.39,.16-.29,.38,.3,.65,.76,.49,.71,1.48-.02,.37-.17,.59-.05,.99,.18,.6,.63,.86,.32,1.58-.19,.44-.43,.48-.33,.98,.03,.12,.17,.2,.28,.16,.5-.17,.86-.72,1.04-1.2,.24-.64-.1-.94-.32-1.52Z" class="cls-9"/><path d="M1.39,37.65c-.16-.22-.44-.22-.61,0-.18,.24-.21,.76,.03,.98,.14,.22,.4,.22,.54,0,.25-.22,.21-.74,.03-.98Z" class="cls-9"/><path d="M33.64,55.83c-.21-.62-.53-.9-.99-1.34-.02-.02-.07,0-.05,.04,.26,.38,.52,.96,.66,1.4,.15,.46,.09,.97,.26,1.42,.02,.06,.1,.08,.14,.02,.26-.46,.14-1.06-.02-1.54Z" class="cls-9"/><path d="M36.31,68.05c-.88,.01-1.67,.47-2.53,.64-1.4,.27-2.55,.03-3.85-.54-.03-.01-.07,.02-.04,.05,1.7,1.35,4.78,1.48,6.5,.06,.08-.07,.01-.21-.09-.21Z" class="cls-9"/></g></g></g></g></svg>