<?xml version="1.0" encoding="UTF-8"?>
<svg xmlns="http://www.w3.org/2000/svg" viewBox="0 0 67.43 67.43">
  <defs>
    <style>
      .cls-1, .cls-2 {
        opacity: .47;
      }

      .cls-1, .cls-3, .cls-4 {
        fill: #60bfee;
        mix-blend-mode: screen;
      }

      .cls-5 {
        isolation: isolate;
      }

      .cls-2 {
        fill: #329693;
      }

      .cls-2, .cls-6 {
        mix-blend-mode: multiply;
      }

      .cls-3 {
        opacity: .3;
      }

      .cls-6, .cls-7 {
        fill: #3264ae;
      }

      .cls-4 {
        opacity: .26;
      }
    </style>
  </defs>
  <g class="cls-5">
    <g id="Layer_2" data-name="Layer 2">
      <g id="icons_planets">
        <g>
          <circle class="cls-7" cx="33.72" cy="33.72" r="33.71" transform="translate(-8.08 56.65) rotate(-73.76)"/>
          <path class="cls-6" d="M24.22,16.93c3.78,.56,7.52,1.45,11.36,1.55,3.88,.09,7.17-.96,10.76-2.3,1.78-.67,3.62-1.31,5.53-1.44,2.3-.16,4.26,.72,6.3,1.62,1.75,.78,3.4,1.19,5.11,1.15-.05-.09-.1-.17-.15-.26-.83,.02-1.65-.06-2.4-.26-2.68-.71-4.95-2.47-7.8-2.59-3.08-.12-5.99,1.23-8.81,2.27-3.68,1.36-7.32,1.73-11.22,1.31-3.31-.35-6.56-1.23-9.87-1.52-4.46-.4-8.95,1.66-13.08,3.03-2.41,.8-5.03,1.6-7.59,1.84-.05,.14-.11,.27-.16,.41,7.17-.52,15.27-5.82,22.02-4.82Z"/>
          <path class="cls-6" d="M9.09,56.73c2.92-.06,5.84-.43,8.71-.9,1.94-.32,3.89-.84,5.85-1.04,2.94-.3,5.55,.8,8.22,1.84,5.77,2.23,11.4,1.67,17.34,.43,3.62-.76,7.27-1.48,10.89-2.35,.12-.15,.24-.3,.35-.45-2.56,.63-5.15,1.2-7.75,1.74-6.3,1.3-12.78,3.04-19.11,.92-2.31-.77-4.51-1.93-6.93-2.34-1.98-.33-3.86,.01-5.8,.38-3.97,.76-7.99,1.4-12.04,1.48,.09,.1,.18,.19,.27,.28Z"/>
          <path class="cls-1" d="M49.51,45.75c-.59,.11-.36,.99,.18,1,3.15,.05,6.31-.38,9.43,.08-1.57,1.1-4.06,.94-5.85,1.49-2.86,.89-5.17,2.42-8.29,1.96-1.84-.27-3.36-.56-5.22-.21-3.08,.57-4.67,1.08-7.56-.31-3.76-1.81-7.84-.99-11.84-.64-.67,.06-7.57-.01-7.46,.95,0,.08,.02,.16,.03,.24,.03,.26,.16,.53,.41,.64,3.8,1.61,8.15,.71,12.14,.67,3.95-.04,7.81,2.27,11.64,1.32,1.1-.27,2.12-.79,3.23-1.03,1.8-.39,3.32,.09,5.07,.25,1.94,.18,3.58-.28,5.38-1.02,2.48-1.03,4.59-1.58,7.16-2.2,1.5-.36,2.39-.98,3.24-2.23,.27-.4-.07-.95-.49-1.05-3.65-.83-7.58-.58-11.23,.1Z"/>
          <path class="cls-1" d="M46.53,20.52c-3.47,.89-6.88,.08-10.37,.6-3.06,.46-5.31,3.56-8.44,3.26-2.34-.23-4.65-.97-7.04-1.17-2.59-.22-5.29-.27-7.86,.14-3.29,.52-9.96,2.08-10.39,6.25-.05,.53,.39,1.13,.99,.9,1.68-.65,3.08-1.81,4.78-2.46,2.1-.81,4.33-1.11,6.52-1.55,2.26-.45,4.51-.88,6.8-1.12,2.39-.25,4.66,.72,7,.42,1.95-.25,2.96-1.41,4.51-2.45,3.01-2.01,6.38-1.28,9.75-1.36,5.77-.13,11.28-4.46,16.66-.48,.39,.29,.87-.21,.51-.57-3.76-3.79-9.03-1.53-13.43-.4Z"/>
          <path class="cls-1" d="M50.4,32.55c-2.48,.51-4.21,2.18-6.87,2.42-2.63,.24-5.32-.22-7.96-.2-5.42,.04-10.47,1.45-15.7,2.67-5.83,1.36-11.63,1.92-17.56,2.55-1.12,.12-1.41,1.88-.18,2.08,5.81,.97,11.79-.31,17.32-2.09,6.27-2.02,11.91-3.97,18.63-3.89,2.59,.03,5.29,.38,7.8-.46,2.9-.96,4.85-2.67,8.17-2.12,4.02,.66,7.93,2.15,11.22-1.09,.28-.28-.14-.78-.45-.53-4.85,3.9-9.24-.4-14.42,.66Z"/>
          <path class="cls-1" d="M36.54,8.9c-1.93,.3-2.94,1.79-4.47,2.83-3.92,2.64-7.95,.64-12.15,.28-3.13-.26-6.09,.25-9.02,1.3-.04,.01-.02,.07,.02,.06,4.56-1.55,8.61-1.27,13.28-.44,2.52,.45,4.97,.74,7.26-.63,1.08-.65,1.86-1.66,2.9-2.35,1.85-1.23,3.83-1.09,5.87-.44,2.7,.85,4.61,1.59,6.98-.29,.04-.03,0-.08-.04-.05-3.52,3.11-6.86-.86-10.62-.27Z"/>
          <path class="cls-1" d="M51.27,58.76c-1.52,3.27-4.22,2.24-6.99,2.66-2.45,.37-4.05,2.42-6.39,3.07-3.53,.99-6.41-1.14-9.83-1.67-2.5-.39-5.09-.42-7.61-.19-.04,0-.04,.07,0,.06,4.23-.37,8.01,.25,12.01,1.56,2.18,.71,4.24,1.12,6.39,.12,1.41-.65,2.5-1.8,3.95-2.38,1.62-.65,3.09-.39,4.77-.51,1.94-.14,2.96-.89,3.74-2.7,.02-.04-.04-.07-.06-.03Z"/>
          <path class="cls-3" d="M9.22,30.16c-.98,.38-1.44,1.37-1.12,2.31,.03,.64,.4,1.3,.95,1.67,1.19,.82,2.78,1.34,4.3,1.3,1.66,.38,3.43,.06,4.5-1.4,.59-.81,.61-1.76-.12-2.5-2.15-2.19-5.75-2.44-8.5-1.38Z"/>
          <path class="cls-3" d="M22.59,32.21c.05,1.05,1.69,.98,1.64-.08-.05-1.05-1.69-.98-1.64,.08Z"/>
          <path class="cls-3" d="M49.84,24.24c-2.52-1.02-6.5-.7-5.9,2.58,.56,3.11,4.61,2.99,7.38,2.2,3.14,2.51,9.24,2.01,8.32-3.04-.86-4.74-7.53-5.22-9.79-1.74Z"/>
          <path class="cls-3" d="M49.33,21.27c-.34,.17-.38,.58-.25,.91,.16,.4,.79,.42,.88-.04,0,0,0,0,0,0,0,0,.02-.02,.02-.03,.03-.02,.06-.05,.08-.06,.06-.05,.1-.11,.14-.18,.08-.12,.05-.29-.02-.41-.18-.28-.55-.33-.84-.19Z"/>
          <path class="cls-3" d="M37.85,40.54c-.21,.13-.38,.3-.52,.48-.72,.32-1.37,.76-1.92,1.35-.19,.21-.3,.43-.37,.66-.12,.06-.24,.13-.37,.22-.09,.07-.18,.19-.16,.31,.28,1.98,2.73,3.52,4.66,3.8,2.13,.3,4.56-1.37,4.8-3.58,.2-1.88-1.48-3.02-3.15-3.25-.18-.02-.36-.03-.53-.04-.79-.34-1.64-.46-2.45,.05Z"/>
          <path class="cls-3" d="M57.71,38.39c.03,.49,.15,.91,.37,1.35,.06,.11,.12,.22,.18,.33,.04,.06,.08,.13,.12,.19,.03,.06,.16,.32,.04,.07,.27,.59,.95,1.16,1.66,.84,.63-.29,1.17-.69,1.51-1.29,.25-.43,.15-1.01-.16-1.37-.23-.27-.51-.38-.82-.41-.26-.55-.86-.82-1.46-.9-.74-.09-1.48,.38-1.43,1.21Z"/>
          <path class="cls-3" d="M6.29,49.73c.05,.52,.16,1.01,.33,1.48,.2,1.48,1.33,2.66,2.83,3.08,.03,0,.07,.01,.11,.02,.61,.2,1.26,.21,1.88-.09,.73-.36,.59-1.34,.15-1.83-.2-.22-.45-.37-.72-.5-.27-1.47-1.17-2.71-2.65-3.38-.86-.39-2.01,.18-1.92,1.23Z"/>
          <path class="cls-3" d="M26.76,4.79c-.57,.19-1,.6-1.48,.93-.61,.43-.79,1.42-.15,1.93,.47,.38,1,.71,1.64,.67,.5-.03,.88-.25,1.29-.5,.26-.16,.44-.43,.5-.72,.44-.02,.84-.27,.99-.71,.16-.47,0-1.16-.52-1.35-.73-.27-1.49-.51-2.26-.25Z"/>
          <path class="cls-3" d="M35.74,27.48c.05,.94,1.51,.87,1.47-.07-.05-.94-1.51-.87-1.47,.07Z"/>
          <path class="cls-3" d="M49.14,7.33l.08,.2c.38,.91,1.6,.85,1.88-.09l.06-.21c.2-.66-.44-1.31-1.08-1.28-.65,.03-1.22,.74-.95,1.38Z"/>
          <path class="cls-3" d="M39.06,4.72c-.28,.22-.5,.51-.38,.89,.12,.36,.49,.53,.85,.47,.51-.09,.68-.61,.44-.94-.01-.1-.05-.2-.13-.3-.18-.21-.53-.3-.77-.12Z"/>
          <path class="cls-3" d="M26.76,58.09c3.69,1.95,9.75,3.98,13.89,2.51,.62-.22,.55-1.08-.06-1.25-2.18-.6-4.58-.25-6.84-.65-2.24-.4-4.4-1.12-6.59-1.7-.65-.17-.98,.78-.4,1.09Z"/>
          <path class="cls-4" d="M51.07,4.81C45.54,1.48,39-.3,32.07,.04,13.48,.95-.87,16.76,.04,35.36c.16,3.32,.81,6.5,1.85,9.48,7.35,3.89,16.77,4.12,24.9,1.75,19.9-5.81,30.58-26.31,24.28-41.78Z"/>
          <path class="cls-2" d="M59.64,12.17c-.07,.14-.14,.28-.21,.43-1.66,3.87-1.34,9.24-3.12,13.5-3.33,7.96-8.2,14.94-15.97,19.09-12.7,6.79-24.64,7.92-36.15,4.82,6.03,10.9,17.88,18.03,31.16,17.38,18.6-.91,32.94-16.72,32.03-35.31-.37-7.6-3.23-14.48-7.74-19.91Z"/>
          <path class="cls-2" d="M67.39,32.07c-.2-4.06-1.11-7.92-2.6-11.46-1.35,4.35-1.78,9.01-3.47,13.27-2.51,6.3-6.51,11.26-11.88,15.39-6.16,4.74-14.78,7.58-22.27,9.43-5.66,1.4-10.42,1.5-15.07,.87,1.07,.9,2.2,1.72,3.38,2.48,9.55,1.86,19.58,.99,28.49-2.81,9.3-3.97,16.76-9.01,21.07-18.54,.51-1.13,1.47-3.55,2.39-6.45,.01-.72,0-1.45-.03-2.18Z"/>
          <path class="cls-4" d="M33.03,5.22c-4.54-3.43-13.34,1.37-17.24,4.05C9.59,13.55,2.53,23.66,6.78,31.56c3.77,7,13.12,6.72,19.22,3.84,6.01-2.83,10.93-6.46,13.85-12.65,3.13-6.62,2.5-16.19-6.82-17.53Z"/>
          <path class="cls-4" d="M18.05,8.4c-7.17,2.1-14.35,18.68-1.86,17.63,12.62-1.06,11.12-21.8,1.86-17.63Z"/>
        </g>
      </g>
    </g>
  </g>
</svg>