<svg xmlns="http://www.w3.org/2000/svg" viewBox="0 0 70.19 71.74"><defs><style>.cls-1{opacity:.27}.cls-1,.cls-2{fill:#21004c}.cls-3{fill:#655538}.cls-3,.cls-4{opacity:.5}.cls-5{isolation:isolate}.cls-2{opacity:.17}.cls-6{fill:#e6d4a3;opacity:.68}.cls-4{fill:#e3dbb1}.cls-7{fill:#ccb672}.cls-8{fill:#ffe4a1;mix-blend-mode:overlay;opacity:.4}</style></defs><g class="cls-5"><g id="Layer_2" data-name="Layer 2"><g id="icons_planets"><g><path d="M40.63,6.91c-1.79-3.01-4.33-5.94-7.92-6.72-5.12-1.11-6.04,2.98-8.8,3.74-7.65,2.1-8.65,3.34-16.01,9.77C2.1,18.77-.7,27.56,1.81,34.89c1.15,3.35-2.88,3.61-1.52,6.34,1.75,3.54-.24,5.17,.91,8.88,.46,1.49,3.93,1.68,4.78,3.16,.93,1.61-.37,4.54,.7,6.48,1.71,3.08,7.8,6.08,11.22,6.11,3.44,10.95,13.23,3.38,19.68,2.87,3.26-.26,5.69,2.54,9.09,2.3,6.18-.45,5.51-4.4,9.42-7.95,3.49-3.17,8.58-2.26,10.16-8.57,.66-2.65-1.9-4.46-1.55-6.47,.41-2.34,2.86-2.54,3.49-4.5,1.72-5.31,4.7-21.07-3.31-22.39-.66-9.22-14.13-19.93-24.24-14.22Z" class="cls-7"/><path d="M9.71,46.88c-3.61,5.32-1.11,14.76,5.63,15.87,3.72,.61,5.09-3.35,8.74-1.95,1.91,.73,.85,5.17,4.45,6.48,2.62,.95,6.39-1.59,9.09-1.75,3.35-.2,5.69,1.54,9.43,.29,6.53-2.18,9.73-11.8,2.64-15.17-6.32-3.01-13.95,11.02-15.97,.88-2.49,.41-3.72-.48-5.72,1.3-1.38-4.23-5.41-6.96-9.08-3.77,1.44-12.25-12.67-11.47-9.2-2.19Z" class="cls-3"/><path d="M49.68,18.98c-2.88-19.8-25.41-4.55-19.87,2.32-7.94,.48,.98,10.69,7.71,7.58-6.38,13.31,21.86,14.23,15.26-.69,9.52,.41,4.34-16.73-4.6-7.7l1.51-1.51Z" class="cls-3"/><path d="M2.17,31.05c.87,2.68,2.82,4.31,5.31,2.64,3.19-2.14,.17-5.64,.89-7.92,2.36-7.4,8.33-2.94,12.22-9.44,5.53-9.25-4.42-5.2-8.66-2.78-6.31,3.61-9.25,6.55-9.01,15.24l-.75,2.26Z" class="cls-3"/><path d="M45.16,24.26c-12.5-5.66,11.54-21.66,9.16-.87,6.03-1.13,9.39,4.97,6.18,9.96,5.58,3.03,1.54,12.48-.99,16.94-4.36,7.68-13.01,10.81-21.58,9.08-8.3-1.67-16.92-8.92-15.42-18.33,1.05-6.57,7.77-11.49,13.59-6.13,1.71-1.11,3.36-2.16,5.22-3.22-2.74-3.69-.99-6.71,3.83-7.43Z" class="cls-3"/><path d="M55.17,50.36c4.75-3.83,6.39-5.38,5.82-11.7-.59-6.54-.74-5.28-5.3-6.86-1.99-.69-6.9,2.8-8.14-1.68-.81-2.92,6.38-4.98,7.99-8.13,3.04-5.95-1.91-13.37-8.88-13.63-3.66-.13-4.75,2.02-7.73,1.6-2.02-.29-3.25-3.93-7.24-3.17-.5-9-13.01,4.28-13.84,11.08-1.86,.54-3.51,2.25-3.73,4.76-7.95-.71-9.3,11.36-.77,11.56-2.11,6.24,4.13,9.9,8.02,3.29,1.74-2.95-1.05-5.88-.38-8.74,.42-1.78,2.85-4.36,3.8-5.99-1.62,4.56,8.04-3.52,11.01-6.01-.38,1.17-.03,2.73-.32,3.67,3.03-.94,6.85-.75,10.33-.56,.41,1.36,.39,4.52,0,5.81-2.82,.34-8.54,3.96-7.57,7.55,.75,2.77,4.6,.85,5.44,2.54,3.96,7.91-7.21,4.24-10.29,11.52-3.55,8.38,5.79,11.73,12.47,12.29,3.56,.3,8.89,1.09,11.42-2.23,2.44-3.2,1.72-7.05-2.12-6.97Z" class="cls-4"/><path d="M68.19,43.52c1.72-5.31,4.7-21.07-3.31-22.39-.66-9.22-14.13-19.93-24.24-14.22-.29-.48-.59-.96-.92-1.42,1.73,4.07,7.7,8.16,9.87,11.39-1.66,1.69-3.07,4.15-3.58,6.47,2.55,1.83,5.4,2.71,8.11,4.07-.75,.75-1.32,2.77-2.24,3.62,3.21,2.68,5.51,4.54,6.71,9.01,1.04,3.86-.15,15.48-4.74,16.98-6.68,2.17-3.99-7.38-7.91-8.86-4.84-1.83-8.41,3.8-7.69,8.25-4.73-3.62-3.93,2.27-6.62,3.17-2.91,.97-6.16,.88-9.44,.19-4.55-.97-7.87-2.88-12.76-3.43-1.18-.14-2.21,.45-3.2,.9-.03,.89,.04,1.77,.45,2.51,1.71,3.08,7.8,6.08,11.22,6.11,3.44,10.95,13.23,3.38,19.68,2.87,3.26-.26,5.69,2.54,9.09,2.3,6.18-.45,5.51-4.4,9.42-7.95,3.49-3.17,8.58-2.26,10.16-8.57,.66-2.65-1.9-4.47-1.55-6.47,.41-2.34,2.86-2.54,3.49-4.5Z" class="cls-1"/><path d="M22.16,54.43c-7.3,8.83,14.37,19.25,21.12,10.49,3.63,2.7,7.89,1.8,11.31-.67,4.92-3.55,2.44-6.42,4.47-10.61,3.14-6.48,12.16-11.44,5.43-20.12,6.08-4.71-.25-16.39-5.19-19.27-7.15-4.18-22.98-1.54-14.09,10.41,2.82,3.79,7.3,2.59,7.75,7.71,.47,5.42-5.98,6.09-2.14,12.85,2.37,4.17,9.15,2.76,1.5,8.65-3.8,2.93-10.37,.04-9.96,7.27-5.69-5.14-7.37-7.22-20.21-6.72Z" class="cls-2"/><path d="M24.79,25.01c3.39-2.97,4.47-7.61,3.64-11.93-4.84-2.29-9.6,4.07-9.78,8.86-3.9-3.32-6.26,1.32-6.81,5.26-5.35-2.57-7.75,11.5,4.53,10.75,1.12,4.29,5.49,5.07,7.49,.79,4.86,9.08,14.55-11.1,.94-12.97v-.75Z" class="cls-8"/><path d="M11.66,12.47c-3.05,1.53-5.91,3.23-7.61,6.32-2.18,3.98-2.89,9.3-3.16,13.77-.04,.62,.84,.67,1.03,.14,2.39-6.83,1.36-13.67,8.54-17.77,2.26-1.29,4.72-2.57,7.27-3.17,1.77-.42,3.83-.14,3.46,2.27-.25,1.6-1.71,2.77-2.95,3.64-2.79,1.96-7.54,2.83-9.45,5.77-1.08,1.67-1.37,3.94-1.79,5.84-.32,1.47-.58,6.21-2.93,5.06-.23-.11-.48,.12-.35,.35,2.55,4.82,4.96-7.77,5.23-8.6,2-6.15,11.92-4.95,13.6-11.5,1.9-7.37-7.91-3.61-10.87-2.13Z" class="cls-6"/><path d="M36.07,19.95c0-.81-.08-1.6-.09-2.44,0-.51-.54-1-1.07-.81-1.61,.59-2.62,1.35-2.91,3.12-.12,.7,.69,1.03,1.12,.47,.33-.53,.75-.97,1.24-1.35,.04,.66,.06,1.32-.03,2.01-.08,.61,.6,.88,1.07,.82,2.25-.32,12.48-2.52,9.9,2.46-1.48,2.86-4.95,1.32-6.98,3.32-.57,.56-.7,1.19-1.05,1.86-.18,.35-.09,.94-.33,1.24-1.15,1.46-1.67,.29-1.78-.93-.02-.25-.18-.56-.46-.61-2.88-.46-9.54-1.04-6.91-5.48,.16-.26-.19-.49-.41-.31-1.62,1.36-2,3.03-.33,4.54,.91,.82,2.28,1.24,3.42,1.59,.72,.22,1.62,.27,2.3,.57,1.33,.6,1.16,.14,1.25,1.95,.01,.27,.2,.58,.49,.64,1.16,.22,2.39,.49,3.37-.37,1.43-1.26,.7-3.12,2.95-3.89,1.75-.6,3.52-.07,4.97-1.52,.94-.94,1.79-2.83,1.76-4.19-.11-4.86-7.7-3.37-11.48-2.69Z" class="cls-6"/><path d="M24.37,47.43c-.12-.36-.5-.75-.92-.7-1.42,.16-2.82,.47-4.23,.7,.56-4.18-1.18-8.4-6.31-7.58-2.66,.43-8.1,5-4.09,7.5,.17,.11,.38-.03,.39-.22,.04-1.33-.54-2.43,.26-3.69,.75-1.17,2.25-1.83,3.58-2.01,4.38-.58,4.98,3.51,4.08,6.87-.14,.54,.29,1.27,.91,1.2,1.58-.18,3.13-.55,4.7-.77,.46,2.08-.13,3.81-2.01,5.21-.39,.29-.65,.83-.34,1.29,1.81,2.65-2.57,5.09-4.66,5.51-1.57,.31-3.22,.1-4.38-1.1-1.77-1.83-1.18-4.42-1.88-6.63-.17-.54-.84-.47-1.04,0-2.16,5.15,2.54,10.57,7.78,9.46,3.11-.66,7.75-3.92,6.2-7.49,2.26-1.98,2.96-4.51,1.96-7.56Z" class="cls-6"/><path d="M36.6,2.96c-1.1-1.45-4.06-2.67-5.3-.74-.15,.23,.05,.47,.29,.5,.83,.1,1.64-.21,2.46,.02,.73,.21,1.34,.72,1.72,1.37,.95,1.64,.04,3.23-1.63,3.83-1.68,.6-4.76,.72-5.53-1.36-.71-1.9,1.52-2.76,2.99-2.95,.25-.03,.36-.41,.06-.48-1.75-.41-3.74,.15-4.22,2.1-.45,1.8,.89,3.37,2.5,3.95,2.09,.75,5.2,.37,6.71-1.39,1.2-1.41,1.05-3.43-.03-4.86Z" class="cls-6"/><path d="M60.9,26.25c-.23-.18-.53,.12-.47,.36,.26,1.03,.89,1.92,1.12,2.95,.17,.73,.45,4.16-1,4.06-.53-.04-1.15-1.21-1.85-1.36-2.94-.62-7.27,2.86-9.28-.85-.17-.31-.57-.08-.53,.22,.32,2.11,2.31,2.59,4.18,2.53,1.33-.04,2.62-.36,3.92-.59,1.47-.25,1.53-.06,2.63,.74,1.22,.88,1.97,.65,2.66-.75,1.15-2.33,.74-5.68-1.4-7.31Z" class="cls-6"/><path d="M68.06,31.07c.14-3.29,.96-6.9-3.11-8.22-.75-.24-1.16,.84-.52,1.24,1.43,.89,2.26,2.37,2.31,4.07,.03,1.04-.67,1.9-.7,2.83-.03,.94,.34,1.58,.48,2.58,.45,3.24-1.18,6.34-.49,9.61,.06,.26,.42,.23,.5,0,.82-2.51,1.37-5.17,1.68-7.79,.18-1.51-.21-2.92-.14-4.32Z" class="cls-6"/><path d="M54.34,9.12c-1.02-.58-2.09-.29-3.19-.25-1.03,.04-1.8-.07-2.66-.69-.39-.29-.69-.74-1.14-.96-1.14-.55-2.14,.16-2.97,.94-.31,.29,.09,.79,.45,.58,1.99-1.14,2.09-.12,3.39,.79,.63,.44,1.34,.62,2.11,.67,.84,.06,1.77-.24,2.59-.1,1.31,.22,1.75,1.65,2.57,2.56,.18,.2,.51,.04,.52-.21,.04-1.31-.47-2.65-1.67-3.33Z" class="cls-6"/><path d="M28.19,70.04c-.54-.36-.89-.48-1.52-.54-.97-.09-1.4-.26-2.08-1.04-.21-.24-.68-.24-.88,0-.68,.8-1.63,1.48-2.31,.29-.39-.69-.46-1.73-.17-2.45,.09-.23-.28-.38-.39-.16-.69,1.3-1.2,2.81,.07,4,1.07,1.01,2.33,.52,3.25-.34,1.13,.98,2.43,1.06,3.97,.72,.23-.05,.24-.36,.06-.47Z" class="cls-6"/><path d="M3.21,43.77c-.07-1.12,0-2.36-.22-3.45-.03-.12-.53-1.19-.53-1.2,.03-.05-.04-.11-.08-.06-.86,1.11-.74,2.02-.69,3.49,.09,2.5-.16,5.24,.41,7.69,.07,.29,.45,.3,.59,.08,1.17-1.75,.63-4.59,.51-6.55Z" class="cls-6"/><path d="M48.96,49.05c-1.74-8.57-14.68-.48-10.92,4.67,.05,.06,.15,.05,.15-.04,.05-3.28,3.11-8.21,7.26-7.28,2.67,.6,2.29,3.72,2.73,5.67,.6,2.65,2.23,5.7,.74,8.37-1.32,2.35-5.07,4.35-7.67,3.85-.49-.09-.83,.57-.35,.83,2.91,1.64,7-1.11,8.76-3.4,2.78-3.62,.09-8.77-.7-12.68Z" class="cls-6"/></g></g></g></g></svg>