<?xml version="1.0" encoding="UTF-8"?>
<svg xmlns="http://www.w3.org/2000/svg" viewBox="0 0 123.18 63.65">
  <defs>
    <style>
      .cls-1, .cls-2 {
        opacity: .28;
      }

      .cls-1, .cls-3, .cls-4 {
        fill: #ac2024;
        mix-blend-mode: multiply;
      }

      .cls-2, .cls-5, .cls-6, .cls-7 {
        mix-blend-mode: screen;
      }

      .cls-2, .cls-8, .cls-7 {
        fill: #ffeacc;
      }

      .cls-9 {
        isolation: isolate;
      }

      .cls-5 {
        fill: #ffe4cc;
      }

      .cls-5, .cls-6 {
        opacity: .74;
      }

      .cls-3 {
        opacity: .41;
      }

      .cls-10 {
        fill: #e5b883;
      }

      .cls-4 {
        opacity: .21;
      }

      .cls-8 {
        opacity: .82;
      }

      .cls-6 {
        fill: #edcbae;
      }

      .cls-7 {
        opacity: .23;
      }
    </style>
  </defs>
  <g class="cls-9">
    <g id="Layer_2" data-name="Layer 2">
      <g id="icons_planets">
        <g>
          <circle class="cls-10" cx="61" cy="31.82" r="31.82" transform="translate(.83 65.2) rotate(-56.57)"/>
          <circle class="cls-10" cx="61" cy="31.82" r="31.82" transform="translate(.83 65.2) rotate(-56.57)"/>
          <path class="cls-3" d="M50.22,43.14c-6.31,.72-12.3,1.21-18.34,1.51,2.3,5.22,5.92,9.63,10.38,12.88,8.86,2.26,19.19,2.92,22.46-1.2-4.3-.14-8.83-.6-12.8-2.35,3.14,1.19,14.27,.76,16.55-1.94-.91-.1-1.73-.42-2.63-.55,5.94-.98,20.39-1.35,23.76-6.69-3.48-.36-6.95,2.22-10.13,.28,2.98-1.89,7.5-2.03,11.56-2.8,.47-1.33,.84-2.7,1.13-4.1-9.36,2.01-19.84,9.14-28.25,5.42,3.9-1.87,9.82-.82,12.77-4.48-4.08-.81-9.15,2.34-13.16,3.45-6.42,1.77-13.98,4.09-20.65,3.6,2.39-.42,5.66-1.55,7.35-3.03Z"/>
          <path class="cls-3" d="M31,21.22c-.07,.2-.14,.39-.21,.59,4.25-.95,10.09-4.44,14.5-5.67,6.18-1.73,12.23-1.31,18.5-1.78-3.41,.23-6.13,2.39-8.99,3.79,3.77,.62,7.84-1.37,11.4-2.47,6.41-1.97,13-4.13,18.43-5.16-.47-.52-.97-1.03-1.47-1.52-9.62-.8-19.15-.23-28.84,.76-9.75,1-15.32,7.71-23.31,11.46Z"/>
          <path class="cls-3" d="M29.8,38.03c3.88-.15,10.08-2.6,12.4-2.94,3.1-.45,6.81-.89,10.37-.93,1.24,.43,2.61,.62,3.75,.57,.68-.03,1.36-.09,2.04-.18,.22,.04,.45,.07,.67,.12l-.6-.13c4.5-.6,8.98-2.42,12.96-4.05,6.16-2.52,14.13-3.87,20.27-7.17-.13-.45-.26-.9-.41-1.34-7.85,3.49-15.91,6.39-24.17,8.95-2.77,.86-7.59,3.33-11.13,3.08l-1.59-.34c-8.07-3.26,4.52-9.28,5.3-4.13-.57-1.56-5.31-.44-4.2,2.54,2.71-.25,6.91-.97,8.18-3.59-3.48-1.72-11.05-4.63-13.8-.18-1.27,2.05-.75,3.59,.52,4.66-6.26,.1-14.89-.03-20.93,2.87,.07,.56,.16,1.12,.26,1.68,.03,.17,.07,.34,.11,.51Z"/>
          <path class="cls-8" d="M40.16,10.51c-.79,.24-2.09,.54-3.58,.92-1.49,1.79-2.78,3.73-3.85,5.8,2.15-.89,4.13-1.92,4.71-2.21,4.2-2.09,8.91-4.34,13.6-5.61,6.68-1.8,13.55-.9,20.21-1.93-2.2-1.03-5.68-.51-7.61-1.71,4.06-2.7,10.53-.18,16.11,.37-1.79-1.31-3.72-2.43-5.75-3.35-3.15,.04-6.21,.28-8.55,.47-7.87,.65-14.9,3.26-25.29,7.25Z"/>
          <path class="cls-8" d="M71.36,32.55c2.18,.05,4.39-.6,6.62-.32-4.68,3.91-13.58,4.26-19.46,4.74-9.12,.74-19.04,1.94-27.9,4.3,0,.02,.02,.05,.02,.07,10.24,.19,21.54-3.94,31.79-2.79-1.17,2.47-5.31,2.87-7.59,4.58,4.67,2.17,13.69-3.9,18.15-5.67,5.99-2.38,13.64-4.24,19.76-7.43-.05-.95-.15-1.9-.29-2.85-7.09,1.76-15.31,2.25-21.11,5.37Z"/>
          <path class="cls-8" d="M74.83,19.65c-1.18,3.99-5.98,3.13-8.94,4.6,2.74,.86,5.56-1.44,8.22-.93-.83,1.92-3.27,3.01-4.89,4.55,4.72-.59,9.06-3.05,13.15-5.35,2.06-1.16,4.93-2.48,7.56-3.99-.5-1.08-1.05-2.12-1.66-3.13-2.65,.12-5.45,.05-8.11,.48-4.08,.66-8.14,1.62-12.12,2.66-6.4,1.67-12.65,1.95-18.93,3.42,1,.14,1.89,.68,2.83,.88-4.12,5.17-18.59,2.59-22.69,7.18-.02,.33-.04,.65-.05,.98,15.38-2.13,30.26-10.26,45.64-11.36Z"/>
          <path class="cls-8" d="M77.26,55.33c-2.92-.22-10.4,3.22-12.09,5.36,4.07,1.84,19.35-5.93,20.73-10.01-3.58-.75-12.73,2.87-15.78,5.16,.81,.31,1.34,.02,2.25-.08l4.9-.44Z"/>
          <path class="cls-7" d="M55.3,.52c-17.29,3.14-28.76,19.71-25.61,37,.15,.83,.34,1.65,.56,2.45,.88,.8,1.88,1.54,3,2.22,11.05,6.71,22.94,4.11,32.61-3.53,7.22-5.72,12.51-14.36,12.26-23.79-.17-6.31-2.66-10.41-6.53-13.05C66.53,.03,60.96-.51,55.3,.52Z"/>
          <path class="cls-2" d="M50.54,5.35c-12.79-.26-20.04,20.87-9.75,28.28C63.89,50.24,75.7-2.9,50.54,5.35Z"/>
          <path class="cls-4" d="M92.3,26.13c-1.18-6.49-4.25-12.16-8.54-16.54,.06,.36,.12,.71,.16,1.06,.73,5.74-.01,11.74-2.1,17.25-6.66,17.56-24.88,26.79-42.9,22.85-1.21-.26-2.79-.81-4.49-1.39,6.81,10.3,19.32,16.12,32.25,13.77,17.29-3.14,28.76-19.71,25.61-37Z"/>
          <path class="cls-1" d="M92.3,26.13c-.56-3.07-1.55-5.95-2.88-8.6-.98,4.03-1.27,8.31-1.87,12.31-1.06,7.06-3.97,10.59-9.5,15.31-7,5.98-16.15,11.44-25.62,11.37-4.14-.03-8.13-1.08-12.09-.49,3.09,2.63,6.67,4.66,10.54,5.97,3.72,.06,7.18-.2,8.96-.38,15.86-1.65,27.05-11.33,32.58-24.78,.55-3.46,.54-7.06-.12-10.7Z"/>
          <path class="cls-5" d="M77.86,4.86c1.13,.71,2.21,1.49,3.24,2.33,15.32-2.26,26.72-.52,28.82,5.36,3.2,8.97-16.42,24.18-43.83,33.98-27.41,9.79-52.23,10.46-55.44,1.49-2.12-5.92,5.72-14.57,19.18-22.57,.25-1.21,.56-2.39,.95-3.55C10.15,32.72-2.52,45.23,.42,53.46c3.95,11.06,34.54,10.24,68.32-1.83,33.78-12.07,57.96-30.81,54.02-41.87C119.75,1.36,101.35-.18,77.86,4.86Z"/>
          <path class="cls-6" d="M65.69,45.85c26.2-9.45,44.89-23.92,41.74-32.34-1.94-5.17-11.68-6.84-24.99-5.17,.92,.84,1.8,1.74,2.62,2.69,6.65,.06,11.24,1.61,12.4,4.7,2.55,6.83-12.61,18.58-33.87,26.24-21.26,7.66-40.57,8.34-43.12,1.52-1.33-3.55,2.15-8.43,8.77-13.38,.05-1.03,.16-2.05,.31-3.06-12.09,7.44-19.01,15.29-17,20.67,3.15,8.41,26.94,7.58,53.14-1.87Z"/>
        </g>
      </g>
    </g>
  </g>
</svg>