<svg xmlns="http://www.w3.org/2000/svg" xmlns:xlink="http://www.w3.org/1999/xlink" viewBox="0 0 93.84 97.07"><defs><style>.cls-1{opacity:.38}.cls-1,.cls-2,.cls-3,.cls-4{fill:#eb9206}.cls-5{fill:url(#radial-gradient-2)}.cls-5,.cls-6{mix-blend-mode:hard-light;opacity:.22}.cls-2{mix-blend-mode:multiply;opacity:.16}.cls-7{isolation:isolate}.cls-8{opacity:.6}.cls-10,.cls-8,.cls-9{fill:#fffb64}.cls-9{opacity:.41}.cls-6{fill:url(#radial-gradient)}.cls-11{fill:#fec20c}.cls-4{mix-blend-mode:overlay}.cls-12{opacity:.56}</style><radialGradient id="radial-gradient" cx="-682.83" cy="-734.95" r="246.29" fx="-682.83" fy="-734.95" gradientTransform="translate(160.27 165.58) scale(.17)" gradientUnits="userSpaceOnUse"><stop offset="0" stop-color="#fff"/><stop offset=".1" stop-color="#feffed"/><stop offset=".29" stop-color="#fdffc1"/><stop offset=".41" stop-color="#fdffa1"/><stop offset=".52" stop-color="#fde778"/><stop offset=".64" stop-color="#ffca45"/></radialGradient><radialGradient id="radial-gradient-2" cx="-677.88" cy="-763.04" r="193.49" fx="-677.88" fy="-763.04" gradientTransform="translate(157.17 173.92) scale(.16)" xlink:href="#radial-gradient"/></defs><g class="cls-7"><g id="Layer_2" data-name="Layer 2"><g id="icons_planets"><g><ellipse cx="46.44" cy="47.48" class="cls-6" rx="41.06" ry="39.57"/><g><g class="cls-12"><path d="M89.05,42.77c-4.16,1.87-7.67,1.84-9.93,1.46,1.17-.79,2.23-1.87,3.07-3.15,.99-1.51,1.92-3.02,2.88-4.53-1.65,1.03-3.87,.38-5.87,.61-.05,0-.1,.02-.15,.03,1.47-3.57,3.11-7.67,3.69-9.48-1.14,1.9-3.35,3.93-5.57,3.42,.92-.8,1.67-1.99,1.79-3.22-1.53,1.17-3.44,1.15-5.23,1.46,.61-3.12,1.94-7.34,5.98-7.3-3.2-3.36-8.29,.04-11.72,.91,3.38-5.05,7.18-10.99,1.43-16.03,4.44,4.92-10.13,11.75-10.96,12.38-.02-.21,2.06-7.08-3.04-11.18,.26,1.84,.4,3.77-.6,5.46-.19-2.74-1.88-5.8-4.14-7.55,1.17,2.62,1.32,9.28-3.16,9.41-4.59,.13-5.06-6.77-3.03-9.27-2.21,1.99-5.38,4.96-4.59,7.97-6.83-1.2-7.48-9.3-4.39-14.11,.09-.1,.09-.1,0,0-2.28,1.79-4.26,5.28-5.17,7.56-1.7,4.27,.13,6.79,1.93,9.79-1.62-.19-3.46-.02-4.82-.28-4.04-.77-5.08-2.9-5.9-6.44-1.78,7.85,3.09,12.95,6.94,15.9-3.24-.77-6.02-2.07-9.55-1.5-2.38,.39-4.79,2.5-7.08,3.28,3-.3,7.95,.21,9.19,2.01-3.28-.69-7.82,2.12-10.28,4.17-2,1.66-3.1,4.29-6.09,4.5,2.51,1.86,6.73-.45,9.6-.28-.47,.28-7.75,6.67-9.98,3.9,.92,3.37,5.43,5.49,7.96,6.33-2.83,.96-9.71-.97-11.26-3.8,1.82,4.34,6.23,9.96,10.91,11.71-3.31,1.84-9.08,3.18-11.89,.75,2.15,3.28,4.48,6.02,8.34,6.78,3.95,.78,7.28-.2,8.62-2.22-.88,4.73-5.35,7.36-11.4,8.3,5.47,.49,8.66,.69,12.2-2.18-.61,3.72-.83,4.46,0,8.35,.85,4.02,1.46,8.03-.18,11.95,3.86-3.41,7.45-9.54,8-14.55-.29,4.2,4.69,7.37,3.23,11.56,1.44-1.24,3.58-5.54,3.65-5.66,.77,1.53,1.63,2.95,1.68,4.66,.07,2.1-1.13,3.57-1.88,5.55,2.24-1.21,4.5-2.28,5.95-4.54,1.19-1.85,.48-6.01,2.74-6.81-.13,3.23,.57,4.75,2.44,7.57,1.84,2.77,1.54,5.51,.24,8.53,2.1-2.52,4.37-4.82,4.75-8.28,.32-2.94-1.46-5.64,1.15-8.27-2.63,5.05,6.56,8.75,9.85,7.51-5.08-.09-1.98-9.15-1.77-9.44,.72,1.61,1.74,3.16,3.32,4.63,2.12,1.97,5.59,4.41,8.21,5.28-.41-2.38-1.93-4.49-2.1-7.07-.16-2.37,.84-4.67,.52-7.01,3.54,2.93,5.4,5.02,4.5,9.61,1.86-1.86,2.52-5.25,2.23-8.32-.17-1.83-2.51-5.18-1.08-6.69,.02,4.28,10.89,8.12,14.49,7.88-2.92-1.08-6.82-3.96-8.7-6.35-.6-.76-1.68-2.57-2.37-4.35,1.9,1.53,4.41,2.61,6.21,3.2-1.92-1.8-2.71-4.66-2.93-7.16-.02-.29-.05-.58-.09-.88,3.62,.65,7.94,4.59,7.42,7.34,.63-4.62-.12-8.51-3.72-12.04-.79-.77-1.32-1.27-1.8-1.73,.76-.11,1.55-.43,2.37-1.01,.96-.68,1.87-1.61,2.62-2.49-2.32,.19-4.52,.02-6.53-.98,3.57-.72,7.35-3.65,8.86-5.59Zm-22.27-2.71c-7.96-.15-19.39-3.45-19.68,4.44-.11,3.02,2.09,5.92,3.54,8.44,1.92,3.36,2.94,7.53,4.06,11.28,.24,.79,.42,1.57,.59,2.35-3.98-2.68-9.24-1.34-14.02-2.7l-.9,.62c-.07-5.56-3.99-10.45-5.2-16.11-1.7-8,3.98-15.18,4.24-23.03l-1.86-2.92c1.35,.82,2.87,1.54,4.52,2.16l8.51,4.05c3.18-.64,6.07-3.62,7.7-6.97,.31,.58,.74,1.14,1.33,1.65,1.46,6.02,1.57,11.42,5.8,13.91,1.03,.6,2.36,.98,3.72,1.21-.88,.47-1.68,1.03-2.35,1.6Z" class="cls-10"/><path d="M82.85,67.29s0,0,0,0c0,0,0,0,0,0,.04,.04,.04,.04,0,0Z" class="cls-10"/></g><circle cx="45.93" cy="48.44" r="31.67" class="cls-11"/><path d="M23.04,53.56c-.9-2.82-3.06,1.57-2.53,3.3-3.37-1.6-4.4,8.81,1.66,8.59-.8,2.34,1.58,6.2,4.36,4.98,.46,2.96,4.12,8.02,7.28,5.42,.55,2.8,3.43,2.33,5.4,1.25,.55,1.3,2.04,2.43,3.51,1.73,1.47-.7,.73-2.2,2.13-2.78-.26,1.92,3.86,2.57,4.2,.79,.59,2.17,4.46,.86,5.35-.79,1.64,1.93,6.41-.41,8.21-1.31,3.23-1.62,5.85-5.11,6.43-8.66,.9,.03,1.88-.88,2.34-1.59,.75-1.15,.21-1.8,.65-2.81,1.2-2.72,4.05-4.28,4.48-7.69,.16-1.31,.09-2.94-.37-4.18-.29-.78-1.39-1.58-1.57-2.27-.63-2.33,2.26-5.92-.75-7.71,1.1-2.09,.49-8.4-3.16-6.94,.51-3.04-3-6.32-5.77-4.41-3.18,2.2-2.4,8.52-2.32,11.93-.51-1.13-2.01-1.87-3.15-1.21-1.08,.62-1.03,2.25-1.28,3.28-1.43-3.41-5.23,1.02-6.1,2.56-1.43,2.54-2.74,7.3-1.8,10.18-1.03-1.26-2.08-2.43-3.94-1.95-2.34,.61-2.78,3.25-4.5,4.45-2.58-3.29-5.64-.81-7.72,1.01-.54-4.86-5.47-1.41-7.09,.42,.76-2.94-.8-4.22-3.98-5.56Z" class="cls-1"/><path d="M38.84,20.01c-3.76-.35-8.84,2.21-9.06,6.38-2.39-1.77-7.16,3.22-8.6,5.22-2.35,3.28-3.14,7.4-2.88,11.48,.59,9.34,10.06,12.26,17.73,9.01,4.31-1.82,10.04-7.54,7.43-12.69,1.63-.07,2.44-1.31,2.12-2.98,4.38,1.15,9.51-2.72,10.58-6.87,2.56-9.93-6.82-14.58-17.31-9.56Z" class="cls-9"/><path d="M38.85,75.46c3.81,0,5.13-1.59,7.61-3.69,3.9,7.39,18.01-.76,21.6-5.04,6.18-7.36,7.5-14.23,6.25-23.85-.71-5.46-3.55-9.89-7.82-13.27-.71,5.29,1.63,10.92-.02,16.16-.92,2.93-2.22,4.31-4.75,2.89-1.38-.78-1.25-2.15-3.42-1.91-1.94,.21-3.5,2.54-4.39,4.21-1.79,3.32-.41,14.98-5.8,14.91-1.69-2.09-5.03-4.37-7.85-3.29-2.57,.98-4.7,4.47-8.17,3.92-4.15-.66-4.46-7.2-8.59-8.19-.98-.23-1.88,.75-2.66,.57-2.56-.6,5.06,16.62,18.01,16.59Z" class="cls-3"/><path d="M65.02,62.79c-5.19,1.11-3.58-6.11-.13-7.32,4.99-1.75,4.55,4.23,2.1,6.75l-1.97,.56Z" class="cls-4"/><path d="M69.81,43.94c-2.06-.58-2.64-4.8,.24-4.18-.03,1.85-.07,3.81,2.25,2.82,1.03,2.23,1.49,6.37-.23,8.54-3,3.79-5.79-1.7-3.38-4.93l1.13-2.25Z" class="cls-4"/><path d="M39.41,69.83c-1.29,2.74-3.9,4.23-6.34,2.14-2.43-2.09-.35-5.11,2.13-3.38,2.03-3.29,10.83-3.41,6.75,1.53l-2.53-.28Z" class="cls-4"/><path d="M26.25,44.57c-9.68-.05,.61-16.05,2.57-7.64,4.82,1.13,2.97-7.57,4.13-9.67,1.86-3.35,8.37-5.86,8.12-.07,.71-1.14,3-1.96,2.48,.2,3.44-3.38,10.59-2.28,8,3.64-1.08,2.47-3.85,3.76-6.3,4.24-2.18,.43-3.7-.42-5.67-.6,.67,1.5,.51,3.65-1.47,4.02-.14,4.07-.72,8.17-4.08,10.83-1.44,1.14-3.66,2.58-5.61,2.4-3.85-.35-2.77-3.97-2.16-7.36Z" class="cls-9"/><path d="M48.2,22.61c-1.08,.54-3.59,1.17-4.43-.42-.8-1.51,1.53-4.12,2.37-2.34,2.94-1.96,6.29,1.67,2.49,2.55l-.42,.21Z" class="cls-9"/><path d="M28.36,31.27c1.5-1.97-.54-4.02-2.62-3.17-1.23,.5-3.32,3.07-1.58,3.58-1.33,.43-2.6,1.81-.76,2.33,1.34,.38,3.52-1.2,4.54-1.9l.42-.84Z" class="cls-9"/><path d="M59.39,27.47c-3.24-2.63,2.82-5.8,1.89-2.18,3.39-2.99,3,4.97,1.29,6.83-3.65,3.97-8.01-.94-3.39-4.01l.21-.63Z" class="cls-9"/><path d="M19.7,53.86c.5-1.2-.09-4.41-1.69-5.02-2.37-.91-2.05,2.72-1.29,3.93-3.17,.4,1.6,7.53,2.56,2.15l.42-1.06Z" class="cls-9"/><path d="M53.9,24.94c.42-2.01-.12-3.88-1.58-5.35-1.14-1.14-3.43-2.31-4.86-1.15-2.05-1.98-6-.66-6.94,1.8-.5-1.07-2.88-.73-3.87-.49-1.62,.38-2.75,1.42-3.19,3.03-2.66-1.78-6.79,1.25-8.55,3.13-3.22,3.45-5.76,7.61-7.04,12.16-1.42,5.06-1.58,9.66,2.44,13.6,4.68,4.59,11.22,4.84,17.37,3.5,5.53-1.2,11.11-7.45,12.24-12.84,2.68,1.3,4.05-2.6,3.43-4.56,4.35-.41,8.63-12.5,.55-12.83Z" class="cls-4"/><path d="M32.51,62.37c-.61-1.27-1.06-3.16-2.46-3.86-1.29-.64-3.74,.33-2.45,1.97-2.63-3.08-5.58,3.04-4.53,5.38-2.28,1.02,1.44,4.52,2.33,5.02,2.43,1.35,6.27,3.4,8.79,1.24,.06,2.69,3.89,3.72,5.77,2.36-.25,3.15,4.14,3.49,5.8,1.59,.19,2.9,9.16,1.19,10.79,.73,2.72-.76,4.94-2.22,7.13-3.98,1.59-1.27,4.17-3.48,4.32-5.65,1.96,.15,3.64-2.55,4.49-3.99,1.41-2.4,1.36-4.26,.04-6.56,2.77-1.57,4.92-7.14,2.63-9.7,2.3-.88,1.26-7.33-.95-7.8,2.65-1.76-1.32-7.91-3.15-8.99-4.85-2.87-9.51,1.58-10.55,6.23-.75,3.32-.54,6.78-1.39,10.08-1.08,4.22-3.91,8.03-7.86,10.03-2.38,1.21-4.73-.11-7.04,.95-2.43,1.12-3.18,2.95-3.97,5.34-1.08-3.74-5.64-1.35-7.74-.4Z" class="cls-2"/><path d="M61.71,41.61c-1.66,.52-4.75-.13-5.92-1.58-1.18-1.47-.63-5.36,1.83-4.95-2.14-3.64-.83-10.49,3.68-11.9,4.06-1.27,6.47,4.31,5.73,7.64,3.51-1.93,3.82,6.57,1.51,8.48,3.77-.83,2.72,6.26,1.99,7.99-1.95,4.68-5.75,9.45-10.18,11.94-5.13,2.89-13.56,2.26-15.93-4.12-1.66-4.48,2.11-8.67,6.53-6.83-.52-2.91,2.99-5.29,5.06-2.73,.55-2.96,4.43-1.92,5.69-3.94Z" class="cls-4"/><path d="M22.87,65.47c-1.56,1.47,.69,2.68,1.48,3.69,1.12,1.42,.91,3.07,2.48,4.18,1.59,1.12,3.19,.75,4.69,1.93,1.76,1.38,2.84,2.6,5.29,2.09,1-.21,.81-.93,2.1-.71,.85,.15,1.55,1.17,2.37,1.43,1.4,.44,1.87-.32,3.21-.34,1.42-.02,1.49,.64,2.78,1.33,3.38,1.8,3.9-1.2,6.62-1.94,1.38-.38,1.74,.35,3.08-.46,.97-.59,1.12-1.22,2.1-1.5,1.42-.41,1.19,.31,2.48-.82,.84-.74,1.19-1.8,2.06-2.53,.99-.84,2.29-.92,3.32-1.68,1.37-1.01,1.89-2.67,2.7-4.03,.96-1.6,3.72-2.85,4.17-4.85,.21-.95-.48-1.6-.27-2.54,.22-1,1.44-1.57,1.89-2.44,.66-1.3,2.55-12.44-.19-11.87-1.02,.21-.95,4.7-1.07,5.36-.47,2.51-1.75,3.31-2.95,5.17-.99,1.54-.31,3.32-1.04,4.9-.83,1.81-2.54,3.88-3.6,5.57-1.35,2.16-2.34,1.24-4.61,1.77-3.17,.74-3.08,4.4-5.54,5.77-1.82,1.01-4.79,.28-6.61-.18-2.74-.7-2.86,.28-5.38,1.18-2.32,.82-4-.37-5.94-1.24-1.54-.69-2.26-.55-4.01-.35-2.46,.28-3.03-.26-4.73-2-1-1.03-1.68-.96-2.91-1.73-1.43-.9-1.8-3.21-3.95-3.13Z" class="cls-4"/><path d="M8.73,13.96c.33,3.4-.35,6.56,3.59,8.02,1.71,.63,2.96,.26,4.64-.16,1.77-.44,2.32-.2,3.97,.56-.65-3.19-2.54-4.59-5.87-4.41-3.74,.19-5.26-.91-6.33-4.01Z" class="cls-10"/><path d="M62.14,14.38c-2.07-.52-2.04-4.65-1.52-6.17,.73-2.13,2.4-3.08,3.87-4.72-1.85,2.1-.37,3.14,.09,5.4,.56,2.77-1.37,3.54-2.43,5.49Z" class="cls-10"/><path d="M84.93,53.22c2.51,2.26,9.39,2.99,8.88-2.25-2.01,4.03-6.93-.92-8.88,2.25Z" class="cls-10"/><path d="M13.79,72.01c-5.55,1.24-1.82,7.78-3.98,10.94,3.54-3.02,4.26-6.13,3.98-10.94Z" class="cls-10"/><path d="M77.33,26.41c1.55-4.1,6.04-1.38,8.63-3.5-1.31,2.72-5.32,5.67-8.63,3.5Z" class="cls-10"/><path d="M50.53,85.52c-3.24,4.55,3.97,7.44,3.38,11.55,.02-2.13,1.38-4.39,.58-6.43-.83-2.11-2.81-3.05-3.96-5.12Z" class="cls-10"/><path d="M75.86,74.33c-1.39,4.14,4.63,6.13,6.29,8.85,.08-2.03,1.11-4.04-.33-5.9-1.38-1.78-4.07-.9-5.96-2.95Z" class="cls-10"/><path d="M12.32,30.43c-2.63-3.94-7.38,2.12-10.28,2.75,1.67,.45,3.73,1.37,5.55,.65,1.74-.69,2.77-4.01,4.73-3.4Z" class="cls-10"/><path d="M83.46,41.4c1.42-3.56,4.67-2.51,6.56-5.42-.87,3.53-1.9,4.78-6.56,5.42Z" class="cls-10"/><path d="M47.57,2.28c-.02,2.22-3.51,11.13-.14,11.27,3.57,.15,1.58-9.56,.14-11.27Z" class="cls-10"/><path d="M39.41,87c-4.1,2.35-.53,6.73-2.5,9.75,2.91-2.76,3.47-5.69,2.5-9.19v-.56Z" class="cls-10"/><path d="M45.88,36.4c-.05-.34-.56-.23-.57,.08-.04,.92-.09,3.22-1.76,2.75-.24-.07-.39,.19-.3,.39,1.49,3.23-.85,7.48-3.23,9.66-2.01,1.85-4.57,3.21-7.22,3.85-6.02,1.45-11.43-2.25-13.47-7.93-.02-.06-.11-.04-.1,.03,.68,3.88,3.04,7.06,6.74,8.57,3.83,1.56,8.06,.36,11.49-1.65,3.18-1.87,6.45-5.03,6.6-8.98,.02-.56-.57-2.86-.22-3.28-.01,.02,.87-.15,.98-.22,1-.6,1.22-2.22,1.06-3.26Z" class="cls-10"/><path d="M46.35,17.74c-1.67-.43-3.56-.04-5.11,.66-1.24,.57-2.1,1.07-3.49,1.05-.98-.01-1.74,.06-2.67,.4-2.2,.79-6.32,3.69-5.46,6.51,.02,.05,.09,.07,.13,.03,1.03-1.01,1.33-2.5,2.43-3.57,1.41-1.36,3.32-2.32,5.29-2.34,1.69-.02,1.81-.15,3.28-1.02,1.79-1.07,3.68-.87,5.6-1.4,.15-.04,.16-.28,0-.32Z" class="cls-10"/><path d="M49.12,19.9c-.23,0-.32,.27-.18,.43,.38,.42,1.4,.65,.72,1.26-.58,.53-1.54,.73-2.28,.87-.8,.15-1.75,.27-2.56,.06-.79-.21-.76-.66-.72-1.38,0-.04-.05-.07-.08-.05-.85,.51-.74,1.51,.1,1.96,1.02,.55,2.45,.37,3.53,.15,.91-.19,2.34-.52,2.83-1.43,.47-.88-.49-1.85-1.37-1.87Z" class="cls-10"/><path d="M28.6,29.86s-.06-.05-.06,0c-.31,1.51-1.72,2.5-2.93,3.27-.59,.37-1.23,.46-1.9,.24-.13-.04-.51-.4-.66-.31-.52,.32-.08,.88,.33,1.04,.76,.29,1.35-.41,2.02-.65,1.37-.49,3.39-1.91,3.2-3.58Z" class="cls-10"/><path d="M63.48,25.97c-.48-1.02-1.18-1.63-1.96-1.3-.05-.3-.22-.56-.56-.77-.03-.02-.07,0-.07,.04,0,.51,0,.9-.15,1.42-.1,.36,.47,.63,.62,.26,.58-1.36,1.5,.58,1.6,.89,.13,.38,.16,.74,.15,1.14-.03,1.36-.76,2.43-1.06,3.71-.03,.14,.14,.25,.25,.14,1.29-1.26,1.97-3.88,1.17-5.54Z" class="cls-10"/><path d="M32.95,40.01c-.12,.14,.04,.39,.21,.27,.85-.61,2.09-1.02,2.3,.5,.1,.73-.28,1.51-.65,2.11-.77,1.23-2.08,2.46-3.47,2.93-1.31,.44-2.87,.16-3.35-1.3-.45-1.37,.22-2.69,1.67-2.85,.41-.04,.55-.52,.21-.76-.63-.45,.46-1.52,.96-1.6,.25-.04,.71,.34,.9,.21,.38-.24,.22-.76-.07-1.01-.48-.41-1.18-.17-1.65,.11-.86,.52-1.6,1.65-1.11,2.47-1.2,.63-1.74,2.26-1.38,3.55,.57,2.04,2.54,2.35,4.31,1.66,2.03-.79,4.3-2.63,4.49-4.97,.19-2.26-1.97-2.86-3.36-1.33Z" class="cls-10"/><path d="M46.5,28.05c-.84-.83-1.98-.19-2.28,.76-.07,.23,.19,.4,.38,.29,1.34-.71,.86,2.33-.52,2.52-.9,.13-1.86-.55-2.57-.91-.9-.45-1.72-.78-2.18-1.75-.06-.13-.23-.21-.37-.21-.66,0-1.1,.22-1.56,.57-.65-2.36-3.96,1.65-1.69,2.21,.1,.03,.18-.08,.13-.17-.18-.35-.25-.68-.11-1.07,.05-.13,.97-1.55,1.06-.3,.02,.24,.3,.48,.53,.31,1.32-1.02,1.23-.17,2.03,.45,.65,.51,1.54,.55,2.24,1.06,1.37,.99,2.26,.91,3.72-.18,.96-.72,2.4-2.38,1.19-3.57Z" class="cls-10"/><path d="M27.24,34.54c-1.46-.3-2.74,1.04-3.44,2.12-1.15,1.77-3.87,7.78,.26,7.96,.1,0,.16-.13,.08-.2-.82-.8-1.51-1.41-1.38-2.66,.09-.9,.46-1.79,.83-2.61,.43-.94,.89-1.99,1.59-2.76,.43-.47,1.95-1.6,2.32-.45,.02,.05,.07,.07,.11,.05,.82-.48,.43-1.28-.38-1.44Z" class="cls-10"/><path d="M18.78,48.89c-1.61-1.28-2.98,1.3-2.35,2.67,.02,.04,.07,.02,.07-.02,.04-.7,.18-1.57,.66-2.11,.84-.94,1.73,.15,1.98,1.02,.35,1.21,.19,2.8-.13,4.01-.03,.12,.12,.21,.2,.12,1.28-1.27,.96-4.57-.45-5.69Z" class="cls-10"/><path d="M53.03,27.9c-.31-1.27-1.77-3.59-3.25-2.29-.04,.03,0,.09,.04,.09,1.96,.11,2.72,2.44,2.37,4.07-.3,1.37-1.29,2.3-1.7,3.56-.04,.12,.1,.28,.23,.23,1.84-.74,2.76-3.87,2.32-5.66Z" class="cls-10"/><path d="M54.94,22.23c-.04-.21-.2-.35-.38-.41-.19-.13-.43-.18-.64-.11-.25,.03-.47,.19-.55,.51,0,.03,0,.06-.01,.08-.13,.22-.24,.46-.29,.73-.06,.31,.04,.61,.28,.79,.3,.32,.92,.37,1.17-.05,.07-.05,.14-.11,.19-.2,.25-.42,.32-.86,.22-1.34Z" class="cls-10"/><path d="M56.72,21.44c-.7,0-.7,1.08,0,1.08s.7-1.08,0-1.08Z" class="cls-10"/><path d="M21.96,37.14c-.18-.46-.61-.66-1.07-.43-.04,.02-.07,.05-.11,.07-.01,0-.02,0-.03,0-.63,.11-1.13,.57-1.39,1.14-.22,.48-.37,1.23-.12,1.75,.04,.4,.4,.59,.76,.56,.12,.03,.25,.06,.4,.05,1.32-.02,1.97-2.09,1.55-3.14Z" class="cls-10"/><path d="M20.27,35.37c-.88,0-.88,1.37,0,1.37s.88-1.37,0-1.37Z" class="cls-10"/><path d="M52.01,37.91c-.74-.7-1.61-.6-2.44-.1-.82,.17-1.65,.83-2.17,1.31-.87,.8-1.49,1.88-1.45,3.09,.03,.93,.57,1.71,1.57,1.62,.96-.09,1.38-.87,1.81-1.62,1.71,1.03,4.35-2.7,2.68-4.3Z" class="cls-10"/><path d="M49.22,43.35c-.22,.07-.37,.18-.48,.32-.2,.13-.36,.38-.34,.67,.02,.36,.38,.68,.73,.59,.26-.03,.51-.19,.59-.45,.03-.03,.06-.06,.09-.09,.36-.44,.04-1.23-.6-1.03Z" class="cls-10"/><path d="M37.35,34.22c-.03-.15-.08-.3-.17-.45-.19-.34-.64-.43-.97-.25-.75,.41-1.14,1.29-1.04,2.13-.01,.05-.04,.1-.04,.16,0,.3,.19,.58,.44,.73,.79,.46,1.61-.32,1.83-1.04,.12-.39,.12-.9-.06-1.27Z" class="cls-10"/><path d="M33.28,34.97s.02,.09,.04,.13c.16,.6,1.05,.6,1.21,0,.01-.04,.02-.09,.04-.13,.29-1.07-1.58-1.08-1.28,0Z" class="cls-10"/><path d="M29.9,49.96s.03-.03,.05-.05c.34-.25,.34-.72,0-.97-.02-.02-.03-.04-.05-.05,.24,.09-.2-.11-.24-.13-.1-.03-.2-.02-.3,0,0,0-.01,0-.02,0-.02,0-.04,0-.06,0-.36,.09-.5,.37-.48,.66-.02,.29,.11,.57,.48,.66,.02,0,.04,0,.06,0,0,0,.01,0,.02,0,.1,.02,.2,.02,.3,0,.09-.03,.48-.21,.24-.13Z" class="cls-10"/><path d="M31.53,48.31c-.71,0-.71,1.11,0,1.11s.71-1.11,0-1.11Z" class="cls-10"/><path d="M32.1,50.88s0-.02,0-.03c-.04-.42-.31-.69-.73-.73-.72-.07-1.7,.13-1.7,1.04,0,.09,.03,.18,.05,.26,0,.44,.21,.87,.72,1.08,.11,.04,.21,.05,.31,.02,.7,.26,1.45-.1,1.5-.92,.02-.27-.05-.52-.16-.73Z" class="cls-10"/><path d="M37.58,24.56c-.35-.1-.59-.05-.81,.08-.1,0-.2,0-.29,.03-.41,.13-.62,.54-.58,.95,.04,.36,.29,.71,.69,.69,.29-.01,.59,0,.85-.15,.24-.13,.39-.36,.54-.58,.26-.38-.01-.91-.42-1.03Z" class="cls-10"/><path d="M39.83,21.34c-.82,0-.82,1.28,0,1.28s.82-1.28,0-1.28Z" class="cls-10"/><path d="M41.99,42.36c-.07-.57-.31-1.13-.85-1.39-.4-.2-.87-.17-1.25,.04-.05,0-.11,0-.16,0-.66,.21-.98,.95-1.22,1.55-.29,.71-.49,1.51-.27,2.27,.38,1.34,1.75,1.9,2.79,.84,.79-.81,1.09-2.22,.96-3.31Z" class="cls-10"/><path d="M40.57,38.91c-.38-.16-.78-.29-1.18-.08-.16,.09-.28,.22-.38,.37-.55,.08-.68,.76-.36,1.17,.69,.87,1.74,.31,2.18-.48,.17-.3,.1-.83-.26-.98Z" class="cls-10"/><path d="M47.31,52.87c-1.71-.19-3.46,.82-4.53,2.09-.5,.59-.63,1.42-1.08,1.98-1,1.22-1.52-.37-2.52-.75-1.44-.55-3.51,.66-4.83,1.58-1.12-3.59-6.15-1.47-7.38,1.33-.02,.06,.02,.13,.09,.11,2.22-.68,5.32-4.56,6.59-.57,.11,.34,.64,.47,.82,.11,.82-1.61,3.05-2.59,4.75-2.02,.84,.28,1.38,.97,2.18,1.32,.14,.06,.33,0,.32-.18-.08-1.69,2.38-3.39,3.78-3.81,.8-.24,1.66-.3,2.44,.04,.7,.3,1.13,.93,1.8,1.28,.13,.07,.3-.01,.3-.17-.04-1.38-1.44-2.19-2.71-2.32Z" class="cls-8"/><path d="M69.7,32.21c-.43-1.13-1.31-2.09-2.6-2.08-1.44,.01-2.52,1.22-3.22,2.34-.63,1.01-1.17,2.21-1.36,3.39-.21,1.26,.09,2.53-.13,3.77-1.8-1.43-4.3-.36-4.5,2.19,0,.1,.14,.13,.18,.05,.94-1.77,2.59-3.14,4.24-1.05,.28,.35,.73,.01,.78-.32,.19-1.5-.12-3,.14-4.49,.28-1.6,1.36-4.54,3.23-4.98,1.87-.44,2.64,1.72,2.58,3.2-.07,1.56-.97,2.94-1.1,4.5-.04,.52,.82,.64,.91,.12,.4-2.26,1.74-4.3,.86-6.64Z" class="cls-8"/><path d="M63.15,49.33c-1.41-1.1-3.21-3.04-5.13-3.12-2.08-.08-3.56,1.82-4.34,3.52-1.38,3-1.18,6.38-1.84,9.55-.28,1.31-.7,2.63-1.27,3.84-.65,1.37-1.32,1.91-2.79,2.22-.2,.04-.26,.32-.12,.45,3.06,2.92,5.26-6.15,5.47-7.59,.46-3.21,.3-7.4,2.79-9.87,2.9-2.87,4.41,1.95,7.16,1.22,.09-.02,.15-.17,.06-.23Z" class="cls-8"/><path d="M39.2,64.54c-1.82,.47-3.37,1.75-3.75,3.57-1.44-.33-3.32-.15-3.92,1.36-.57,1.43,.15,3.33,1.82,3.36,.19,0,.24-.24,.09-.34-.44-.29-.88-.96-1-1.48-.29-1.27,.54-1.89,1.78-2.04,.55-.06,1.05,.05,1.6-.08,.2-.05,.28-.26,.25-.44-.24-1.37,1.64-2.52,2.71-2.9,1.46-.51,2.55-.36,3.04,1.22,.03,.11,.18,.1,.22,0,.71-1.86-1.36-2.61-2.85-2.23Z" class="cls-8"/><path d="M68.95,56.8c-.43-1.62-2.24-2.07-3.72-1.74-1.97,.44-3.23,2.24-3.85,4.06-.51,1.51-.64,3.5,.91,4.44,1.21,.73,3.36,.25,4.09-.99,.05-.09-.05-.2-.14-.14-.77,.47-1.38,.84-2.36,.73-.92-.1-1.66-.71-1.88-1.61-.34-1.4,.62-3.37,1.54-4.37,1.19-1.3,3.16-1.71,4.45-.37,.07,.08,.46,.75,.71,.52,.05-.04,.1-.09,.14-.13,.11-.1,.14-.26,.1-.39Z" class="cls-8"/><path d="M68.78,39.22c-1.87,1.22-1.26,3.41-.02,4.8-4,1.46-1.76,12.12,2.83,8.04,.12-.1-.01-.27-.14-.24-2.34,.42-3.59-.3-3.91-2.75-.2-1.59,.18-4.31,2.25-4.26,.5,.01,.61-.63,.24-.89-.51-.32-.91-.74-1.2-1.27-.76-1.52-.19-2.43,1.7-2.73,.7,.26,1.48,1.81,1.74,2.49,.03,.08,.13,.06,.14-.02,.19-1.85-1.61-4.48-3.63-3.17Z" class="cls-8"/><path d="M57.61,60.71c-2.56-.87-4.36,2.32-4,4.55-.81,.26-1.1,1.24-.99,2.12-2.53,.71-6.69,3.86-3.64,6.32,1.36,1.1,3.42,.89,4.95,.29,1.06-.42,3.06-1.53,2.71-2.94-.04-.17-.25-.2-.37-.1-.75,.65-1.12,1.43-2.07,1.92-1.05,.55-2.65,.95-3.83,.56-1.91-.65-1.83-2.53-.44-3.73,1.01-.86,2.1-1.16,3.31-1.56,.29-.1,.39-.38,.27-.65,.16-.49,.32-.99,.48-1.48,.29,.06,.61-.19,.51-.51-.54-1.74,.85-5.34,3.28-4.08,2.49,1.29,.43,4.61-.58,6-.04,.06,.04,.12,.09,.09,2.47-1.18,3.52-5.7,.3-6.79Z" class="cls-8"/><path d="M61.74,53.42c-.39-.87-1.07-1.02-1.79-.85,.33-1.2,.15-2.77-1.45-2.22-1.48,.5-2.91,3.31-1.14,4.26,.12,.06,.25-.06,.18-.18-.52-.95-.14-2.31,.65-2.99,1.33-1.15,1.29,.71,.8,1.56-.22,.37,.27,.7,.57,.44,1.88-1.61,2,2.16,1.01,3.16-.51,.51-1.3,.94-2.02,1.06-1.14,.18-1.35-.52-1.71-1.41-.1-.24-.42-.26-.51,0-.4,1.19,.52,2.2,1.72,2.15,1.21-.05,2.52-.8,3.26-1.74,.67-.87,.89-2.22,.44-3.24Z" class="cls-8"/><path d="M34.68,60.85c-.18-.14-.38-.22-.57-.28-.1-.05-.21-.09-.35-.09-.36,0-.68,.1-.96,.27-.68,.34-1.24,1.02-1.45,1.71-.13,.41,.15,.84,.54,.96,.1,.03,.2,.03,.3,.05,.63,.17,1.24,.01,1.74-.34,.29-.16,.55-.37,.8-.63,.16-.16,.22-.36,.21-.56,0,0,0,0,0-.01,.2-.41,.08-.79-.28-1.06Z" class="cls-8"/><path d="M31.39,60.12c-.91,0-.91,1.41,0,1.41s.91-1.41,0-1.41Z" class="cls-8"/><path d="M65.53,44.06c.45-.87,.6-2.12-.54-2.48-.62-.19-1.15,.15-1.58,.61-1.13,.82-1.86,2.23-2.04,3.59-.04,.32,.21,.58,.47,.72,.22,.32,.62,.48,1.03,.24,.1-.06,.21-.13,.31-.2,.08-.03,.15-.06,.23-.1,.12,0,.23-.04,.34-.12,.19-.14,.34-.29,.47-.45,.2-.2,.38-.42,.54-.66,.34-.3,.61-.72,.76-1.15Z" class="cls-8"/><path d="M61.55,41.67c-.56,.33-.77,.98-.33,1.5,.18,.21,.55,.24,.78,.1,.11-.07,.19-.14,.27-.24,.05-.05,.12-.12,.14-.14,.06-.07,.09-.15,.14-.23,.39-.62-.38-1.35-.99-.99Z" class="cls-8"/><path d="M26.28,62.35c-.2-.37-.5-.63-.82-.76-.22-.23-.46-.44-.73-.59-.47-.25-.98-.01-1.15,.47-.17,.47-.1,.97,.1,1.42-.12,.99,.51,1.96,1.42,2.4,.48,.23,.94,.03,1.13-.46,0,0,0-.02,0-.03,.19-.13,.34-.31,.41-.56,.17-.6-.08-1.37-.37-1.9Z" class="cls-8"/><path d="M22.71,61.43c-.25-.19-.71-.12-.82,.25-.06,.22-.07,.37-.04,.6,.09,.61,.98,.63,1.25,.16,.23-.39-.01-.88-.4-1.01Z" class="cls-8"/><path d="M26.44,56.08c-.33-.95-1.14-1.58-1.89-1.39-.15-.94-.93-1.81-1.89-1.91-1.5-.17-2.16,1.27-2.08,2.56,0,.13,.17,.14,.22,.03,.34-.83,.92-2.25,2.11-1.52,.64,.39,.61,1.19,.74,1.85,.09,.42,.68,.37,.8,0,.2-.61,.75,.14,.88,.35,.26,.44,.29,.89,.13,1.37-.27,.77-.93,.88-1.47,1.38-.18,.16-.07,.43,.13,.5,1.67,.59,2.77-1.89,2.32-3.21Z" class="cls-8"/><path d="M54.75,44.5c-2.16-1.93-4.12,1.02-4.78,3.07-1.04-.5-2.73,.05-3.69,.45-2.05,.85-3.02,3.18-2.29,5.27,.07,.2,.34,.2,.41,0,.5-1.43,.16-2.86,1.45-3.98,.65-.57,3.43-1.96,3.92-.63,.15,.42,.88,.54,.97,0,.2-1.23,.65-2.68,1.8-3.35,.88-.51,2.12-.54,1.86,.79-.14,.75-1,1.2-1.63,1.45-.02,0-.04,.05,0,.06,1.7,.78,3.38-1.89,1.99-3.13Z" class="cls-8"/><path d="M43.01,67.86s-.12-.04-.17,0c-.35,.25-.24,.61-.3,.99-.08,.47-.31,.84-.72,1.07-.43,.25-.92,.31-1.41,.31-.21,0-1.04,.03-1.09-.27,0-.05-.09-.04-.09,.01,0,.55,.17,.76,.75,.91,.64,.17,1.35,.08,1.96-.17,.56-.23,1-.63,1.22-1.19,.18-.46,.4-1.38-.14-1.66Z" class="cls-8"/><path d="M45.71,57.82c-1,.18-2.08,.77-2.39,1.8-.16,.52,.26,.94,.75,.98,.03,0,.06,0,.1,0,.04,.04,.07,.09,.11,.13,.87,.85,2.05,.24,2.65-.66,.34-.29,.61-.64,.7-1.01,.28-1.18-1.07-1.4-1.9-1.25Z" class="cls-8"/><path d="M43.62,61.2s-.07-.04-.11-.05c-.4-.2-.91,.04-.91,.52s.51,.72,.91,.52c.04-.02,.07-.04,.11-.05,.36-.18,.36-.76,0-.94Z" class="cls-8"/><path d="M30.96,75.34c-1.02-.25-1.71-.95-2.36-1.74-.54-.67-1.3-1.53-1.52-2.38-.02-.07-.1-.04-.11,.01-.2,1.57,.87,3.14,2.08,4.07,.59,.45,1.45,.89,2.22,.79,.8-.11,1.36-1.4,1.91-.33,.02,.04,.08,.01,.07-.03-.36-1.4-1.27-.14-2.29-.39Z" class="cls-8"/><path d="M43.97,75.61c-.16,.26-.2,.4-.28,.68-.31,1.02,.07,.95-1.11,1.55-1.32,.68-.94,.36-1.72-.73-.17-.24-.28-.45-.49-.67-.06-.06-.19-.07-.25,0-1.4,1.64-2.07,.27-3.54-.14-.57-.15-.94-.08-1.27,.41-.01,.02,.02,.03,.03,.02,.62-.84,2.48,1.16,3.23,1.24,.43,.05,.81-.02,1.16-.29,.71-.54,.48-.85,1.15,.02,.57,.73,1.1,1.57,2.18,.97,.91-.5,1.36-1.97,1.39-2.93,0-.26-.35-.34-.48-.13Z" class="cls-8"/><path d="M68.32,67.02c-.05-.43-.63-.44-.68,0-.19,1.62,.22,2.02-2.18,3.21-.17,.09-.41,.02-.59,.12-.46,.27-.79,.45-1.11,.91-.53,.78-.61,1.79-1.12,2.57-1.07,1.62-2.52,.86-3.99,1.22-.46,.11-.76,.45-1.14,.72-.97,.71-1.09,.79-2.76,.49-.27-.05-.47-.27-.76-.27-.58,0-.92,.12-1.44,.37-.18,.09-.23,.35-.39,.44-.87,.46-1.53,.11-2.29-.28-.06-.03-.13,.02-.11,.09,.21,.87,.71,1.63,1.71,1.67,.78,.03,.81-.37,1.37-.7,1.43-.85,2.61,.33,3.96-.29,1.19-.55,1.4-1.61,2.82-1.66,1.13-.04,1.95,.18,2.89-.68,.88-.81,.99-2.03,1.56-3.01,.77-1.32,2.44-.84,3.45-1.9,.77-.81,.94-1.97,.8-3.02Z" class="cls-8"/><path d="M74.41,58.04c.02-.09-.07-.17-.16-.12-.53,.34-.97,.68-1.59,.88-.18,.06-.34,.27-.27,.47,.39,1.04,.51,4.15-1.19,4.01-.07,0-.09,.08-.05,.13,.85,.93,1.71,.14,2.02-.82,.3-.95,.41-2.23,.07-3.23,.55-.28,1.02-.69,1.16-1.32Z" class="cls-8"/><path d="M74.74,48.04c-.21-.12-.43,.04-.45,.26-.04,.44,.02,.52,.25,.87,.62,.94,1.36,1.19,1.43,2.53,.09,1.8-.34,3.7-1.16,5.29-.04,.08,.07,.15,.13,.07,1.76-2.4,3.02-7.2-.19-9.02Z" class="cls-8"/><path d="M70.96,10.77c-.02-.22-.33-.23-.34,0-.02,.16-.01,.32-.02,.47-.26,.1-.58,1.34-.74,1.65-.63,1.21-1.62,2.38-2.79,3.13-.9,.58-1.92,.98-2.82,1.57-1.06,.69-2.98,2.35-1.32,3.48,.22,.15,.44-.14,.34-.34-1-2.1,2.89-3.22,4.2-4.04,1.97-1.24,3.78-3.5,3.5-5.93Z" class="cls-8"/><path d="M70.07,14.79c-.53,1.01-.92,1.97-1.31,3.03-.49,1.33-1.3,2.4-1.9,3.66-.06,.13,.07,.28,.2,.2,2.22-1.25,2.42-4.71,3.04-6.88,0-.02-.03-.04-.04-.02Z" class="cls-8"/><path d="M76.1,21.45c-1.51-.27-3.37,.46-4.68,1.15-1.07,.56-2.9,1.74-2.62,3.17,.06,.3,.46,.3,.61,.08,.84-1.23,1.54-1.98,2.95-2.61,1.22-.55,2.44-.77,3.74-1.01,.38-.07,.39-.71,0-.78Z" class="cls-8"/><path d="M75.7,21.93c-1.21,.49-2.1,1.39-2.77,2.49-.62,1.01-1.5,2.54-1.44,3.76,0,.12,.17,.22,.26,.11,.71-.86,.95-2.11,1.48-3.09,.64-1.2,1.45-2.33,2.53-3.17,.04-.03,0-.11-.05-.09Z" class="cls-8"/><path d="M38.44,15.91c-.41-.41-.94-.57-1.44-.87-.86-.51-1.63-1.17-2.32-1.9-1.39-1.48-2.51-3.27-2.69-5.33-.02-.19-.31-.33-.4-.11-1.42,3.14,.48,6.59,2.17,9.22,.01,.02,.04,0,.03-.02-1.34-2.39-2.49-5.07-2.09-7.81,.32,1.54,1.17,2.98,2.15,4.17,.95,1.15,2.81,3.27,4.5,3.02,.18-.03,.21-.27,.1-.38Z" class="cls-8"/><path d="M42.56,12.95c-.29-.89-.43-1.88-.49-2.82,0-.13-.17-.18-.24-.06-.57,.94-1.04,1.95-1.31,3.02-.22,.87-.58,2.07-.09,2.9,.06,.1,.19,.07,.23-.03,.39-.93,.32-2.05,.58-3.03,.16-.59,.31-1.18,.49-1.76-.02,1.54,.44,3.35,1.72,4.12,.06,.04,.14-.02,.12-.09-.27-.78-.76-1.45-1.01-2.25Z" class="cls-8"/><path d="M52.89,10.29c-.56,2.01-1.05,3.89-2.66,5.34-.02,.02,0,.04,.02,.03,1.85-.88,2.58-3.49,2.7-5.37,0-.04-.05-.04-.06,0Z" class="cls-8"/><path d="M56.58,12.41c-.02-.11-.21-.11-.23,0-.25,1.46-1.29,2.9-2.33,4.05,.17-2.11-.15-4.27-1.1-6.17,0-.01-.02,0-.02,0,.33,2.41,.6,4.55,.44,7-.02,.25,.33,.39,.5,.21,.97-1.1,2.18-2.31,2.56-3.77,.42-1.62,.04-.31,.13,.42,.12,1,.13,2.12,.43,3.09,.05,.16,.3,.18,.34,0,.39-1.6-.48-3.27-.73-4.83Z" class="cls-8"/><path d="M29.89,19.78c-1.11-.49-2.32-.52-3.44-1.05-1.2-.57-2.32-1.32-3.39-2.09-.14-.1-.38,.07-.31,.24,.71,1.78,2.17,3.4,3.48,4.77,.11,.11,.29-.03,.21-.16-.76-1.37-1.79-2.59-2.7-3.89,1.89,1.23,3.77,2.15,6.11,2.37,.09,0,.14-.15,.05-.18Z" class="cls-8"/><path d="M21.11,26.16c-.96-.04-2.05,.14-2.98,.35-.73,.17-1.67,.43-2.13,1.07-.02,.03,.02,.09,.06,.07,.82-.3,1.6-.64,2.43-.9,.87-.27,1.74-.36,2.63-.51,.05,0,.03-.08-.01-.08Z" class="cls-8"/><path d="M20.45,28.38c-.72-.38-1.65-.41-2.43-.64-.01,0-.02,.01,0,.02,.75,.3,1.59,.68,2.4,.78,.08,.01,.11-.12,.04-.15Z" class="cls-8"/><path d="M16.48,31.79c-1.74-.4-3.12,1.06-4.12,2.27-1.44,1.74-2.68,3.8-4.93,4.52-.26,.1-.26,.56,.07,.53,.02,0,.05,0,.07-.01h0s0,0,.01,0c.47-.05,.9-.2,1.29-.42,1.44-.35,2.91-.4,4.41-.61,.24-.03,.15-.36-.05-.39-1.06-.13-2.15-.05-3.22,.15,.47-.46,.88-.98,1.25-1.5,1.49-2.12,2.64-3.7,5.22-4.46,.04-.01,.04-.07,0-.08Z" class="cls-8"/><path d="M13.31,40.78c-2.04,1.6-3.65,4.3-6.59,3.46-.27-.08-.45,.32-.2,.46,1.59,.86,2.88,2.57,4.56,3.18,.12,.04,.24-.12,.17-.22-.72-1.08-2.15-2.03-3.41-2.78,2.32-.11,4.04-2.41,5.59-3.98,.08-.08-.04-.18-.12-.12Z" class="cls-8"/><path d="M9.53,51.54c1.12-.24,2.64-.85,3.45-1.67,.02-.02,0-.06-.02-.06-1.02,.04-1.91,.63-2.93,.79-1.3,.2-2.46,.1-3.68-.46-.4-.18-.97,.23-.67,.67,1.57,2.24,4.17,4.88,6.83,5.75,.08,.03,.16-.07,.11-.15-.75-1.11-1.86-1.83-2.86-2.69-.81-.68-1.57-1.4-2.27-2.19,.66,.14,1.34,.16,2.04,0Z" class="cls-8"/><path d="M12.67,62.42c-2.41-.17-4.99-.36-6.99-1.82,2.41-.22,5.35-.75,6.92-2.52,.07-.07,0-.2-.1-.17-1.26,.35-2.33,1.15-3.6,1.51-1.36,.38-2.81,.4-4.22,.47-.38,.02-.55,.53-.2,.73,2.41,1.42,5.34,3.17,8.21,1.98,.1-.04,.09-.18-.03-.19Z" class="cls-8"/><path d="M16.98,67.21c-.85,.37-1.53,1.05-2.44,1.27,.88-1.28,2.18-2.25,2.61-3.82,.04-.15-.15-.2-.23-.1-1,1.33-1.97,2.62-2.82,4.05-.05,.09,.01,.23,.13,.22,1.05-.07,2.2-.63,2.87-1.46,.07-.09-.01-.19-.12-.15Z" class="cls-8"/><path d="M20.08,76.56c-.69-2.21-1.26-4.35-.93-6.68,.02-.16-.22-.31-.3-.12-.72,1.69-.7,3.35-.27,5.12,.48,1.96,1.07,4.2,2,5.99,.04,.08,.19,.07,.21-.03,.28-1.46-.28-2.9-.72-4.28Z" class="cls-8"/><path d="M22.64,71.59c-.08-.13-.29-.05-.25,.1,.52,2.06,.09,3.71-.41,5.7-.04,.14,.14,.2,.22,.09,1.22-1.6,1.5-4.17,.43-5.9Z" class="cls-8"/><path d="M30.58,78.08c-.61,.86-.44,2.02-.84,2.97-.53-1.37-1.27-2.56-2.14-3.76-.01-.02-.04,0-.03,.02,.81,1.33,1.52,2.74,1.98,4.23,.05,.16,.24,.17,.33,.04,.69-.99,.92-2.24,.91-3.43,0-.12-.15-.14-.21-.06Z" class="cls-8"/><path d="M35.88,83.47c-.34-1.45-1.23-2.74-2.18-3.85-.05-.06-.16,0-.14,.08,.42,1.29,1.32,2.38,1.67,3.69,.41,1.54-.22,2.81-.39,4.31-.03,.24,.33,.26,.4,.05,.48-1.39,.99-2.81,.64-4.28Z" class="cls-8"/><path d="M37.92,83.26c-.42,.49-.65,1.12-.95,1.69-.36,.68-.75,1.43-1.23,2.03-.02,.02,.01,.05,.03,.03,1.02-.97,2.07-2.21,2.35-3.64,.02-.11-.12-.21-.2-.12Z" class="cls-8"/><path d="M46.94,85.57c-.01-.08-.14-.07-.15,0-.28,1.16-.44,2.36-.75,3.52,0-.8-.12-1.6-.42-2.34-.71-1.73-2.15-2.67-2.38-4.68,0-.04-.06-.04-.06,0-.02,1.25,.47,2.07,.99,3.18,.92,1.94,1.15,3.67,1.15,5.78,0,.32,.42,.34,.53,.07,.76-1.9,1.47-3.48,1.09-5.54Z" class="cls-8"/><path d="M56.41,84.9c-1.28-.77-.79-2.61-.83-3.81,0-.12-.19-.19-.25-.07-.55,1.18-.36,2.49,.2,3.6-.89-.3-1.73-.71-2.49-1.27-.99-.73-1.55-1.84-2.49-2.57-.03-.02-.08-.01-.08,.03,.03,1.2,1.17,2.26,2.05,2.95,1.07,.84,2.32,1.39,3.63,1.73,.35,.09,.57-.4,.25-.59Z" class="cls-8"/><path d="M67.09,84.57c-1.65-2.32-1.25-5.21-1.11-7.84,.01-.27-.34-.32-.47-.13-.75,1.06-.5,2.84-.32,4.03,.14,.97,.39,1.91,.76,2.81-.77-.69-1.57-1.34-2.31-2.06-1.11-1.07-2-2.33-3.09-3.41-.02-.02-.07,0-.06,.03,.87,2.81,3.97,5.23,6.25,6.92,.21,.15,.51-.15,.36-.36Z" class="cls-8"/><path d="M72.96,72.33c-.03-.06-.14-.03-.13,.03,.14,1.53,0,2.81-.38,4.19-.34-2.14-2.07-4.52-4.04-5.06-.03,0-.05,.03-.02,.05,1.93,1.14,3.85,3.68,3.78,5.99,0,.2,.27,.22,.34,.05,.58-1.63,1.28-3.58,.46-5.25Z" class="cls-8"/><path d="M77.22,67.94c-.05-.11-.22-.05-.22,.06,.02,.76,.31,1.42,.7,2.07,.12,.2,.61,.7,.75,1.02-.14-.09-.28-.18-.42-.28-1.72-1.16-3.02-2.73-3.83-4.65-.02-.05-.1-.03-.08,.02,.27,1.23,.83,2.31,1.65,3.26,.71,.82,1.83,1.99,2.96,2.16,.08,.01,.16-.06,.11-.15-.61-1.14-1.1-2.33-1.63-3.52Z" class="cls-8"/><path d="M79.02,62.51c-.13-.76-.1-1.56-.34-2.29-.05-.14-.25-.15-.3,0-.33,1.09-.05,2.44,.27,3.64-.37-.38-.74-.76-1.12-1.14-.5-.5-1.07-.99-1.81-.98-.07,0-.1,.09-.06,.14,.55,.6,1.22,1.08,1.77,1.68,.52,.57,1,1.17,1.66,1.58,.23,.14,.53-.09,.46-.35-.21-.75-.4-1.5-.53-2.27Z" class="cls-8"/><path d="M82.52,55.57c-.78-1.43-1.82-3.18-3.07-4.25-.1-.08-.22,.02-.17,.13,1.25,2.83,3.72,5.18,4.33,8.3-1.45-1.28-3.49-2.52-5.37-2.07-.05,.01-.04,.08,0,.09,2.17,.67,3.89,1.28,5.56,2.92,.21,.21,.51,0,.46-.27-.29-1.74-.9-3.32-1.74-4.86Z" class="cls-8"/><path d="M83.13,44.76c-.95,.17-1.88,.38-2.84,.48-.7,.07-1.41,.03-2.06,.33-.03,.02-.03,.08,0,.09,1.19,.53,3.05,.18,4.4-.26-.49,.57-1.19,1-1.8,1.35-.72,.41-1.52,.48-2.23,.84-.11,.06-.09,.21,0,.27,.7,.5,1.81-.11,2.43-.51,.92-.61,1.54-1.47,2.32-2.23,.17-.16-.01-.4-.21-.37Z" class="cls-8"/><path d="M83.95,50.63c-.49-.28-1.2-.8-1.79-.63-.09,.03-.12,.15-.06,.22,.29,.29,.77,.51,1.22,.67-.42,.16-.91,.08-1.34-.05-.48-.14-1.01-.25-1.45-.47-.05-.03-.09,.05-.05,.08,.63,.44,1.09,.88,1.89,1.01,.66,.11,1.13-.04,1.63-.47,.11-.1,.07-.29-.05-.35Z" class="cls-8"/><path d="M81.94,37.61c-1.56,.73-3.62,.54-4.63,2.19-.06,.09,.05,.19,.14,.14,1.32-.67,2.65-1.36,4.06-1.81-.44,.62-.78,1.29-1.16,1.95-.55,.96-1.18,1.69-1.99,2.44-.18,.16,.02,.39,.21,.36,2.14-.29,2.87-3.38,3.61-5.02,.08-.17-.08-.34-.25-.26Z" class="cls-8"/><path d="M80.21,31.7c-.61,.36-1.09,.86-1.67,1.25-.66,.45-1.38,.7-2.13,.95-.05,.02-.04,.08,.01,.08,.75,.04,1.41-.19,2.05-.59,.3-.19,.58-.41,.85-.64,.17-.14,.36-.4,.56-.58-.46,.47-.72,1.5-1,2.01-.46,.83-1.23,1.6-1.43,2.54-.02,.1,.1,.18,.18,.1,.62-.62,1.09-1.52,1.5-2.3,.46-.87,.61-1.96,1.16-2.77,.03-.04-.03-.09-.07-.07Z" class="cls-8"/><path d="M76.42,29.24c-1.04,.45-2.35,.57-2.99,1.59-.02,.03,.02,.07,.05,.05,.75-.43,1.58-.64,2.39-.91-.3,.34-.64,.63-1,.97-.4,.38-.93,.84-1.03,1.41-.02,.12,.08,.28,.22,.22,.59-.23,1.05-.82,1.43-1.3,.44-.54,.87-1.11,1.26-1.69,.16-.23-.14-.43-.35-.35Z" class="cls-8"/></g><ellipse cx="45.8" cy="48.25" class="cls-5" rx="31.8" ry="31.86"/></g></g></g></g></svg>