<svg xmlns="http://www.w3.org/2000/svg" viewBox="0 0 132.82 64.93"><defs><style>.cls-1{fill:#7de0ff;opacity:.62}.cls-2,.cls-3,.cls-4{fill:#60bfee}.cls-2,.cls-4{opacity:.76}.cls-2,.cls-5{mix-blend-mode:multiply}.cls-3{opacity:.47}.cls-3,.cls-4{mix-blend-mode:screen}.cls-5{fill:#1a7aa0;opacity:.42}.cls-6{isolation:isolate}.cls-7{fill:#6cd4f4}.cls-8{fill:#b3edff;opacity:.51}.cls-9{fill:#31ade0}</style></defs><g class="cls-6"><g id="Layer_2" data-name="Layer 2"><g id="icons_planets"><g><ellipse cx="66.19" cy="32.46" class="cls-9" rx="31.75" ry="32.58" transform="translate(-7.36 27.46) rotate(-22.23)"/><path d="M48.92,59.41c2.74,1.85,5.71,3.25,8.82,4.18,1.57-.09,3.12-.27,4.55-.52,2.55-.45,14.81-4.12,14.11-7.53-.99,.38-2.01,.68-3.06,.9,5.41-4.13,17.23-6.71,19.43-14-.85,.32-1.99,.27-2.83,.5,2.18-2.6,5.31-4.9,8.04-7.48,.11-1.47,.12-2.96,.02-4.45-6.66,6.71-14.49,12.82-22.98,16.12,2.5-2.83,15.06-8.3,13.23-13.43-8.01,3.44-14.16,11.27-21.33,16.16-4.57,3.12-9.27,6.18-14.38,8.33-1.23,.51-2.42,.92-3.61,1.24Z" class="cls-4"/><path d="M35.01,25.19c-1.23,5.9-.84,12.19,1.35,18.14,3.1-3.41,5.41-8.68,8.81-11.4,1.67-1.34,15.53-9.04,14.53-11.4-1.36-3.19-10.87,4.14-12.97,2.95,4.73-4.44,11.54-8.34,17.59-10.42,3.09-1.06,6.56-2,9.8-2.59,2.45-.44,5.43-.03,7.64-1.37,1.59-.96,2.5-1.9,2.88-2.75-1.85-1.37-3.82-2.54-5.88-3.47-.02,0-.04,0-.06,0-7.45,.69-15.31,4.76-21.94,7.88-8.69,4.1-16.31,8.61-21.75,14.43Z" class="cls-2"/><path d="M49.57,48.17c6.74-1.33,14.71-5.42,20.11-9.58,3.27-2.52,9.39-6.49,10.22-10.69-2.62,1.32-8.87,7.2-11.43,5.72,2.26-3.54,7.09-5.72,10.54-7.98,1.43-.94,8.33-3.57,7.96-5.95-.57-3.67-16.82,5.83-18.19,6.58-9.02,5-19.75,10.61-19.21,21.91Z" class="cls-2"/><path d="M44.74,51.3c.99-.98,5.64-7.6,2.55-8.56-2.82-.87-9.6,9.56-4.17,10.23l1.62-1.68Z" class="cls-2"/><path d="M86.99,26.81c2.42-.19,8.7-2.78,8.85-5.81-3.04-1.31-7.77,2.44-9.5,4.67l.64,1.14Z" class="cls-2"/><path d="M46.87,24.21c2.44,.24,4.54-1.24,6.63-2.29,.65-.32,5.5-2.8,5.64-1.17,.01,.16,.27,.25,.33,.08,.68-1.8-2.01-1.11-2.8-.86-3.41,1.11-6.26,3.3-9.8,4.07-.08,.02-.08,.16,0,.17Z" class="cls-4"/><path d="M45.16,16.66c-2.45,1.86-5.2,3.53-7.26,5.84-.03,.03,.02,.08,.05,.05,2.27-2.28,5.3-3.91,7.89-5.8,2.65-1.93,5.45-3.64,8.37-5.11,6.71-3.39,13.69-5.64,20.7-8.23,.21-.08,.11-.38-.11-.34-7.21,1.35-14.37,4.82-20.88,8.11-3.08,1.56-6.01,3.38-8.76,5.47Z" class="cls-4"/><path d="M43.69,44.66c-.63,.8-1.27,1.65-1.75,2.55-.66,1.23-.49,2.56-1.06,3.8,0,.02,.02,.04,.03,.02,.28-.38,.4-.71,.52-1.17,.33-1.37,.68-2.36,1.51-3.52,1.03-1.45,2.41-3.83,4.47-3.28,.24,.06,.3-.29,.08-.37-1.65-.55-2.85,.78-3.79,1.98Z" class="cls-4"/><path d="M55.22,35.14c-3.93,3.4-5.49,7.83-5.53,13.08,0,.02,.04,.03,.04,0,.44-2.6,.72-5.28,1.87-7.67,1.17-2.43,3.07-4.19,5.15-5.81,3.74-2.9,7.77-5.47,11.85-7.86,1.14-.67,16.77-10.43,18.27-7.65,.19,.35,.78,.08,.63-.29-1.46-3.66-14.46,4.53-16.2,5.51-5.56,3.13-11.23,6.48-16.08,10.68Z" class="cls-4"/><path d="M86.44,25.97s.04-.02,.03-.04c-.59-1.2,6.1-4.25,6.9-4.99,.2-.19-.09-.45-.29-.35-.8,.38-7.83,4.56-6.64,5.37Z" class="cls-4"/><path d="M68.57,33.71c4.43,2.24,7.95-4.21,11.41-5.61,.25-.1,.22-.56-.09-.52-1.53,.2-2.6,1.45-3.67,2.49-1.96,1.91-4.7,4.09-7.58,3.43-.12-.03-.19,.15-.07,.21Z" class="cls-4"/><path d="M78.77,39.72c-3.16,2.58-5.95,5.52-9.24,7.97-3.01,2.24-6.05,4.36-9.22,6.36-2.75,1.73-5.67,4.65-9,4.98-.04,0-.05,.08,0,.08,2.3,.23,4.18-1.15,6.01-2.36,3.35-2.22,6.81-4.22,10.07-6.57,3.24-2.33,6.39-4.64,9.29-7.4,3.53-3.36,7.57-5.92,11.63-8.55,.46-.3,0-1.03-.47-.73-3.06,1.99-6.24,3.91-9.07,6.22Z" class="cls-4"/><path d="M97.15,30.79c-3.03,3.67-6.04,7.02-9.93,9.81-3.62,2.6-7.57,4.25-11.49,6.29-.03,.01-.01,.06,.02,.06,8.88-1.27,16.59-8.96,22.03-15.58,.34-.42-.28-1-.63-.58Z" class="cls-4"/><path d="M73.35,56.75c.42,.28,1.02-.06,1.41-.27,.28-.15,1.79-1.11,1.78-.54,0,.03,.04,.04,.05,.02,.14-.17,.19-.19,.21-.4,0-.09-.05-.16-.14-.17-.59-.03-1.12,.2-1.63,.47-.31,.16-.61,.34-.94,.45-.27,.09-.51,.07-.75,.2-.1,.05-.06,.19,.01,.24Z" class="cls-4"/><path d="M90.23,43.04c-.05,.08,.02,.18,.1,.21,.35,.09,.72-.24,1.02-.39,.3-.15,.86-.37,1.18-.17,.02,.01,.04-.02,.02-.03-.15-.13-.18-.25-.4-.32-.22-.07-.45-.03-.66,.03-.38,.11-1.05,.32-1.26,.68Z" class="cls-4"/><path d="M88.32,42.33c-2.26,1.61-4.9,2.53-6.71,4.73-.16,.2-.07,.49,.18,.56,.77,.2,1.29,.11,2.05-.13,.48-.15,.92-.49,1.4-.62,.34-.3,.72-.36,1.12-.19,.71-.02,.69,.2-.04,.64-.81,1.57-3.9,2.49-5.39,2.99-1.63,.54-3.31,.92-4.96,1.37-7.09,1.95-12.53,7.29-19.63,9.35-.05,.01-.03,.09,.02,.08,7.09-1.54,12.44-6.66,19.32-8.62,2.65-.76,5.42-1.23,7.91-2.46,1.38-.68,4-2.05,4.29-3.81,.02-.15-.04-.32-.19-.39-.93-.46-1.83,.02-2.69,.39-.46,.21-.91,.42-1.38,.63-1.21,.26-1.33,.1-.37-.49,.66-.91,2.13-1.47,3.06-2.02,4.01-2.34,6.76-5.84,10.12-9,.19-.18-.09-.51-.3-.36-2.9,2.13-4.91,5.28-7.83,7.37Z" class="cls-4"/><path d="M80.29,40.62c-.05,.15,.03,.35,.21,.34,1.58-.12,2.58-1.42,3.48-2.63,.17-.23-.16-.53-.33-.3-.51,.68-1.24,1.79-2.03,2.14-1.97,.88,.45-1.34,.8-1.66,.67-.6,3.89-3.17,4.15-1.96,.5,2.36-5.62,5.27-7.2,6.14-1.59,.88-10.91,5.46-8.71,7.02,1.02,.72,3.94-.71,4.95-1.08,.45-.17,3.92-1.54,3.87-.84-.07,.97-2.99,1.2-3.86,1.43-3.54,.92-6.81,2.91-9.94,4.76-3.82,2.26-7.5,5.9-12.08,6.31-.01,0-.01,.02,0,.02,3.48,.12,6.16-2.09,8.98-3.83,3.87-2.41,8.2-5.15,12.57-6.46,.56-.17,7.91-1.88,4.63-3.18-1.47-.58-4.06,1.11-5.41,1.57-1.79,.6-4.84,1.5-1.68-1.04,1.46-1.17,3.31-2.08,4.92-3.01,3.05-1.76,9.87-4.22,9.59-8.76-.01-.21-.21-.34-.4-.29-2.45,.61-5.67,2.78-6.54,5.3Z" class="cls-4"/><path d="M58.57,62.1c-.06,0-.07,.1,0,.11,2.53,.57,4.98-.25,7.45-.77,1.92-.4,6.13-1.1,7.09-3.31,1.08-2.49-3.6-1.52-4.69-1.16-.9,.3-6.05,2-4.37,3.72,1.43,1.46,5.94-1.25,6.76-2.5,.09-.14-.04-.31-.17-.35-1.2-.42-2.3,.18-3.26,.9-.19,.15,0,.46,.21,.33,.9-.55,3.23-1.07,1.33,.05-.74,.44-2.14,1.34-3.06,1.27-.79-.06-1.66-.06-.77-1.35,.2-.28,.77-.46,1.08-.61,.85-.43,1.79-.82,2.71-1.08,.74-.22,2.11-.72,2.86-.36,2.51,1.21-2.78,3.26-4.04,3.6-2.82,.76-6.19,1.75-9.13,1.5Z" class="cls-4"/><path d="M66.81,13.4c-.12,.15-.06,.42,.15,.46,1.9,.35-.47,1.22-1.08,1.48-1.08,.47-2.47,.49-3.61,.84-1.89,.57-3.6,1.33-5.22,2.48-.11,.08-.14,.25-.02,.35,1.56,1.29,4-.36,5.46,.62,3.43,2.28-10.17,10.64-11.7,11.76-2.74,1.99-14.03,9.08-11.54,14.07,0,.02,.03,0,.03-.01-1.92-4.88,8.86-11.64,11.73-13.72,3.82-2.77,10.46-5.57,12.44-10.28,.72-1.7-.16-2.2-1.82-2.3-.77-.05-1.58,.13-2.34,.02-2.69-.38,.26-1.49,1.69-1.99,2.67-.94,5.64-.98,8.03-2.58,.16-.11,.16-.33,.03-.47,.33,.35-1.11-1.24-1.24-.84,.14-.93,3.03-1.2,3.5-1.26,1.76-.2,3.51-.07,5.27,0,3.08,.13,6.58-.01,7.55-3.48,.09-.31-.38-.4-.47-.11-2.11,6.66-13.06,.13-16.83,4.95Z" class="cls-4"/><path d="M57.31,3.75c-.76,1.46,.17,2.37-1.63,3.73-1.12,.86-2.96,.91-4.28,1.24-2.38,.6-4.66,1.22-6.01,3.39-.09,.14,0,.3,.12,.38,1.31,.88,2.45-.07,3.74-.51,1.92-.65,.39,.14-.57,.59-.99,.46-2.02,.84-3.03,1.26-1.81,.76-6.03,2.08-5.55,4.76,.03,.19,.18,.33,.38,.28,1.08-.3,1.13-.37,.17,.26-.62,.4-1.32,.68-1.99,1.02-1.04,.53-1.92,1-2.61,1.96-.17,.23,.13,.52,.34,.31,1.8-1.85,4.5-2.21,6.21-4.19,.19-.22-.03-.57-.31-.49-2.82,.81-.49-1.31,.59-1.95,1.22-.72,2.58-1.22,3.89-1.76,1.5-.62,3.36-1.15,4.53-2.35,.16-.16,.05-.46-.16-.5-.67-.14-1.14-.07-1.78,.13-.19,.06-1.63,.86-1.79,.78,.32-.63,.64-1.26,.96-1.9,.45-.18,.9-.33,1.37-.47,2.01-.64,5.17-.63,6.68-2.3,.52-.57,.55-1.17,.83-1.83,.7-1.64-.84-.65,2.13-2.05,1.93-.91,1.83-.97,3.48-.52,3.12,.87,4.69,.29,7.67-.94,.02,0,.01-.05-.01-.04-2.02,.52-3.89,1.5-6.04,1.05-1.29-.27-2.5-.98-3.84-1.01-1.34-.04-2.83,.42-3.49,1.68Z" class="cls-4"/><path d="M90.37,16.15c1.3,2.77-.72,4.32-2.75,5.91-1.25,.98-2.83,1.65-4.03,2.66-1.49,1.26-.35,2.8-1.05,4.64-1.47,3.88-5.21,4.97-7.78,7.62-.84,.87-.7,1.01-.71,2.01,.07,.08,.16,.13,.25,.16,.65,.23,.67,.92,.05,2.07-.38,.84-2.09,1.77-2.92,2.23-2.47,1.39-4.98,1.49-7.68,2.09-3.31,.74-5.11,3.32-7.47,5.55-1.03,.97-8.37,7.19-9.27,2.97,0,0-.01,0,0,0,.48,4.22,7.44-.97,8.64-2.01,2.31-2,4.2-4.91,7.19-5.92,2.25-.76,4.68-.57,6.92-1.45,1.75-.68,5.64-2.44,5.67-4.88,.01-.94-.76-.65-.74-1.55,.05-1.61,2.62-2.46,3.81-3.4,2.24-1.78,4.72-4.7,5.25-7.65,.04-.23-.29-.45-.27-.62,.16-1.8,.59-1.63,1.82-2.4,1.59-.99,3.12-2.14,4.49-3.43,.65-.62,2.34-1.98,2.3-3.09-.05-1.34-3.47-2.59-.93-4.29,.21-.14,0-.46-.21-.34-1.68,.99-1.25,1.62-.56,3.09Z" class="cls-4"/><path d="M85.09,30.62c-1.08,.82-1.84,2.09-2.91,2.96-.9,.74-1.94,1.28-2.87,1.99-.51,.4-1.53,1.01-1.62,1.72-.13,1.12,.43,1.24,1.35,1.03,1.14-.25,2.76-2,3.61-2.69,1.94-1.57,3.74-3.31,6.08-4.28,.08-.03,.04-.15-.04-.13-3.05,.72-5.38,3.04-7.78,4.94-.69,.55-2.89,2.22-1.75,.14,.56-1.01,2.41-1.69,3.27-2.41,1.8-1.52,2.96-3.38,5.38-4.07,1.39-.4,2.78-.39,4.12-.97,1.63-.69,3.42-1.82,3.63-3.75,0-.01-.02-.02-.02,0-.98,4.85-7.49,3.27-10.46,5.52Z" class="cls-4"/><path d="M77.17,13.64c-1.44-.05-2.58-.09-3.32,1.28-.11,.2,.07,.4,.26,.41,.85,.06,1.68-.07,2.53-.14,.28-.02,1.49-.26,1.66-.1-.38,.73-.76,1.46-1.14,2.18-.26,.01-.52,.03-.78,.04-1.68,.42-3.81-.36-5.57-.09-4.73,.73,.02,2.74-1.46,5.33-.66,1.15-2.94,2.1-4.07,2.71-1.77,.94-3.61,1.7-5.43,2.53-2.55,1.16-4.84,2.67-6.94,4.54-2.66,2.37-5,5.11-7.42,7.74-.49,.54-2.33,3.14-2.99,3.07-.32-.47-.64-.93-.96-1.4,.34-.3,.67-.6,1.01-.9,.64-.49,1.35-.88,2.08-1.22,.02,0,0-.04,0-.03-1.71,.7-4.17,1.96-4.08,4.16,0,.07,.06,.1,.11,.11,2.88,.25,5.48-3.89,7.18-5.68,2.16-2.29,4.27-4.66,6.74-6.62,2.42-1.92,5.11-3.11,7.89-4.38,2.11-.96,7.65-2.85,8.26-5.66,.26-1.18-.38-.86-.69-1.74-.97-2.84,2.36-2.16,3.94-2.08,1.37,.07,6.03,.72,6.17-1.85,.08-1.58-1.76-1.34-2.86-1.29-.72,.03-1.58,.31-2.29,.2-1.92-.3,1.98-.51,2.53-.54,1.82-.1,3.25,.02,4.98-.69,1.42-.58,4.51-2.34,3.96-4.44-.04-.16-.21-.22-.35-.19-.51,.09-.33,.07-.88,.54-.24,.21,.01,.64,.28,.44,.17-.13-.35,1.18-.41,1.28-.66,1.04-2.5,1.76-3.65,2.14-1.45,.47-2.81,.37-4.29,.33Z" class="cls-4"/><path d="M69.19,29.55c-3.06,1.78-6.43,2.78-9.37,4.8-.18,.12-.15,.47,.09,.5,.88,.11,1.7-.11,2.56-.24,1.6-.24,3.02,.18,1.65,2.08-.64,.88-2.19,1.2-3.18,1.53-1.7,.56-5.87,1.15-6.4,3.43-.31,1.34,.63,1.36,1.77,1.31,3.56-.16,6.09-2.75,8.9-4.58,.02-.01,0-.04-.02-.03-1.9,1.16-3.63,2.79-5.74,3.58-.77,.29-2.41,.93-3.17,.68-3.74-1.2,4.46-3.7,5.57-4.1,1.2-.43,5.94-3.13,3.28-4.62-.8-.45-4.09,.87-4.41,.44,.08,.1,8.14-3.89,9.28-4.59,3.07-1.89,5.43-4.71,8.55-6.55,1.01-.6,2.06-1.27,3.13-1.73,1.47-.63,2.34-.38,.86,1.01-.71,.67-2.25,.92-3.17,1.16-.29,.08-.14,.5,.14,.45,2.09-.39,4.09-1.06,5.11-3.06,.07-.14,.01-.36-.14-.43-2.55-1.14-6.7,2.18-8.53,3.58-2.29,1.76-4.26,3.9-6.77,5.36Z" class="cls-4"/><path d="M41.85,22.5c.09,.61,1,.58,1.17,1.04,.5,1.38-4.37,3.93-5.18,4.89-.07,.08-.08,.24,.02,.31,2.18,1.55,4.56,.62,6.73-.47,1.64-.83,3.22-1.77,4.82-2.68,.6-.34,5.37-3.63,5.55-1.47,.09,1.06-7.9,5.17-8.86,5.8-1.92,1.24-3.97,2.47-5.45,4.27-1.52,1.86-2.4,4.22-3.66,6.26-.04,.06,.06,.13,.11,.08,1.43-1.92,2.27-4.26,3.82-6.08,2.01-2.35,4.86-3.77,7.38-5.46,1.97-1.32,5.9-2.63,7.07-4.76,.52-.95,.36-1.41-.67-1.55-.79-.1-1.84,.62-2.52,.95-2.02,.98-3.95,2.19-5.91,3.28-1.44,.8-3.47,2.32-5.22,2.19-1.19-.09-1.77-1.01-1.03-1.99,.25-.33,.98-.55,1.34-.77,.65-.4,1.78-.87,2.12-1.64,.66-1.46-1.3-1.69-.61-3,.38-.73,2.51-1.51,3.23-1.95,1.18-.72,2.35-1.46,3.53-2.2,2.48-1.54,5.04-2.91,7.58-4.35,4.9-2.78,9.3-5.28,14.79-6.8,2.2-.61,4.13-.92,6.4-.39,2.43,.56,.3,1.97-1.02,2.18-1.11,.18-2.52-.24-3.67-.37-4.27-.47-8.29,1.32-11.77,3.64-.17,.11,0,.37,.17,.27,4.36-2.57,8.29-3.77,13.33-3.2,1.27,.14,4.36,.78,5.2-.71,2.03-3.57-7.68-2.3-8.82-1.98-9.07,2.55-17,7.93-24.94,12.9-.9,.56-5.23,2.15-5,3.75Z" class="cls-4"/><path d="M42.21,49.22c-.03,.12,.07,.23,.19,.23,1.7,.06,3.46-3.29,3.67-4.73,.02-.12-.09-.24-.22-.2-.17,.05-.3,.11-.43,.17,.47-.52,1.21-1.23,1.59-.46,.32,.64-.47,1.81-.76,2.33-.38,.65-2.78,4.62-3.87,4.07-.04-.02-.07,.06-.02,.06,1.4,.17,2.76-1.94,3.45-2.89,.6-.82,2.24-2.8,1.42-3.95-1.36-1.89-4.77,4.3-5.02,5.38Zm3.45-4.21c.02,.17-.25,.63-.34,.82-.26,.53-.57,1.05-.91,1.53-.25,.35-.52,.71-.83,1.01-.22,.22-.46,.45-.74,.59-.26,.12-.17,.26-.2,.13-.11-.36,.76-1.55,.92-1.82,.35-.59,.73-1.18,1.15-1.72,.04,0,.08,0,.11-.03,.3-.23,.6-.46,.89-.7-.02,.07-.03,.13-.05,.2Z" class="cls-4"/><path d="M97.15,36.92c-1.08,1.41-2.6,2.31-3.71,3.7-.11,.14-.05,.36,.13,.4,.57,.14,.88-.11,1.38-.02,.78,.14,.46-1.13,.63,.39,.11,.92-.58,1.65-1.1,2.33-1.03,1.37-2.36,2.5-3.26,3.97-.08,.13,0,.32,.13,.39,1.26,.7-3.79,3.96-4.37,4.27-2.69,1.45-5.76,1.81-8.33,3.54-.14,.1-.13,.27-.03,.39,.69,.81,.87,.41,1.62,.76,1.52,.72,1.39,.86-.17,2.04-.98,.75-2.11,1.31-3.2,1.88-1.18,.61-2.35,1.27-3.53,1.86-.79,.4-1.6,.8-2.46,1.06-.48,.17-.99,.29-1.5,.34-.63-1.69,.05-2.27,2.02-1.74,.09,.01,.13-.13,.03-.15-1.56-.32-3.06,.24-4.11,1.42-.05,.05-.05,.16,.01,.21,1.79,1.31,4.16,.16,5.88-.67,3.29-1.57,7.08-3.1,9.31-6.11,.09-.12,.06-.27-.07-.36-.79-.5-2.68,.06-2.67-1.09,0-.61,6.26-2.25,7.04-2.64,1.5-.75,4.43-2.2,5.16-3.84,.19-.43,.12-.79,.24-1.17,.04-.13-.31-.29-.3-.36,.13-.63,.94-1.27,1.33-1.74,1.32-1.54,3.62-3.58,3.04-5.9-.05-.18-.25-.21-.39-.15-.31,.28-.65,.36-1.04,.23-1.09-.03-.71-.49,1.12-1.36,.8-.78,.8-.72,1.44-1.64,.14-.2-.13-.46-.29-.26Z" class="cls-4"/><g><path d="M74.69,55.51s0,0-.01,0c-.21-.07-.3-.1,.01,0Z" class="cls-2"/><path d="M74.68,55.51c.29,.09,.78,.25,.72,.17,.69-.27,.74-.05,.17,.64-.12,.52-.41,.89-.86,1.13-1.52,1.56-3.94,2.41-5.87,3.21-3.44,1.42-6.84,2.59-10.62,2.68-.05,0-.05,.07,0,.08,2.49,.59,5.1-.15,7.46-.89,2.94-.92,6-1.96,8.57-3.69,.77-.52,3.65-2.18,3.04-3.64-.47-1.12-1.63-.35-2.53-.36-.41,0-.4,.56-.06,.69Z" class="cls-2"/></g><path d="M91.68,41.77c-.12,.19,0,.51,.19,.59,3.28,1.43-5.17,6.98-6.46,7.6-2.61,1.25-5.46,2.04-7.65,4-.03,.03,.01,.07,.05,.05,4.86-2.65,12.51-4.04,15.48-9.39,.59-1.06,.47-1.46,.24-2.46-.13-.56-.49,.18-.43-.66,.04-.57,.95-1.24,1.29-1.56,.97-.91,2.05-1.69,3.03-2.59,.29-.27-.13-.72-.44-.53-2,1.21-4,2.95-5.29,4.93Z" class="cls-2"/><path d="M88,33.66c3.82,3.69-10.2,11.52-12.63,13.24-.07,.05,0,.15,.07,.11,3.7-2.11,7.43-4.22,10.64-7.05,1.17-1.04,2.63-2.32,3.12-3.9,.18-.58-.25-2.82-.28-2.8,.26-.23-.11-.6-.38-.45-.17,.09-.34,.19-.51,.28-.2,.11-.2,.41-.04,.57Z" class="cls-2"/><path d="M79.71,28.14c.07,2.83-2.34,4.78-4.2,6.5-2.43,2.25-5.04,4.21-7.87,5.9-5.63,3.36-11.73,4.92-17.67,7.48-.02,.01-.02,.05,0,.05,7.14-.81,14.65-4.46,20.54-8.45,3.37-2.29,10.23-6.65,9.92-11.5-.03-.49-.75-.46-.74,.02Z" class="cls-2"/><path d="M59.1,19.91c1.78,2.24-10.47,8.62-11.26,9.08-2.72,1.6-4.7,3.62-6.54,6.21-1.74,2.46-2.81,5.63-5.04,7.64-.05,.05,.02,.12,.08,.09,1.13-.63,1.78-1.5,2.46-2.6,1.31-2.08,2.58-4.13,4.15-6.03,3.35-4.06,8.04-5.45,12.14-8.47,1.08-.79,7.02-5.01,4.49-6.46-.3-.17-.7,.23-.47,.53Z" class="cls-2"/><path d="M46.78,23.38s.03,.06,.05,.03c5.59-5.35,12.08-8.21,19.35-10.51,3.87-1.23,7.66-1.75,11.66-2.32,2.57-.36,4.55-1.41,6.4-3.2,.37-.36-.23-.9-.6-.55-3.32,3.13-7.08,2.81-11.27,3.61-3.82,.72-7.5,2.02-11.17,3.29-5.37,1.86-11.21,4.72-14.42,9.65Z" class="cls-2"/><path d="M61.79,49.57c-1.89,.19-3,.72-4.14,2.3-1.01,1.39-1.69,2.92-3.04,4.02-2.24,1.81-5.04,2.3-7.7,.97-.01,0-.02,.01,0,.02,2.58,1.56,5.63,1.11,7.95-.73,.92-.74,1.53-1.7,2.18-2.67,1.28-1.94,2.3-3.26,4.8-3.5,.78-.08,1.57-.04,2.34-.22,2.83-.66,2.8-3.33,5.23-4.09,3.16-.99,5.52-1.78,7.2-5.01,.07-.13-.12-.22-.2-.1-1.35,2.05-3.07,3.86-5.52,4.5-.87,.23-2.16,0-2.95,.52-.44,.29-.37,.64-.61,.84-.13,.34-.25,.69-.38,1.03-.71,1.09-1.65,1.71-2.81,1.85-.79,.22-1.51,.19-2.31,.27Z" class="cls-2"/><path d="M83.77,13.63c.74,1.18-.31,2.47-1.17,2.97-.56,.33-1.22,.64-1.84,.84-1.02,.32-2.18,.22-3.17,.63-1.21,.5-.75,.58-1.08,1.33-.74,1.71-.19,1.59-1.68,2.26-.6,.27-1.23,.46-1.84,.71-.86,.34-1.62,.74-2.44,1.17-3.22,1.7-6.36,2.98-9.28,5.21-3.78,2.89-9.62,6.04-11.35,10.84-.98,2.71-.1,5.9-1.35,8.51-.87,1.82-3.05,2.89-3.3,5.01-.01,.11,.06,.21,.18,.21,.99,0,1.49-.22,2.27-.81,.06-.04,0-.13-.06-.09-1.46-.24-1.77-.68-.92-1.33,.17-.18,.34-.36,.51-.54,.48-.53,1.02-1.02,1.4-1.64,.65-1.05,.89-2.3,1.03-3.52,.26-2.17,.05-4.37,1.03-6.38,1.03-2.1,2.9-3.67,4.69-5.06,3.66-2.84,7.3-6,11.49-7.99,1.66-.79,3.29-1.67,4.95-2.45,1.36-.64,3-.94,4.26-1.77,.73-.49,.8-.79,1.24-1.38,.21-.28-.12-.43-.02-.64,.32-.66,1.38-1.1,2.38-1.39,1.51-.44,4.08-.94,4.87-2.57,.27-.55,.04-1.04,.2-1.5,.17-.49-.36-.24-.04-.67,.22-.29,1.46-.29,1.82-.38,1.28-.33,2.91-.68,2.56-2.33-.07-.31-.6-.23-.55,.09,.28,1.66-3.67,1.88-4.63,2.21-.18,.06-.27,.28-.16,.46Z" class="cls-2"/><path d="M50.23,4.08c-15.23,8.69-20.44,28.45-11.63,44.13,.37,.66,.77,1.3,1.18,1.92,.97,.6,2.02,1.11,3.16,1.48,7.91,2.57,17.4,.74,23.7-4.47,5.99-4.95,10.48-14.33,11.29-22.13,.6-5.78-.32-12.24-3.19-17.42-1.98-3.58-4.61-6-7.62-7.55-5.73-.28-11.57,1-16.89,4.04Z" class="cls-3"/><path d="M93.77,16.72c-3.59-6.38-8.95-11.1-15.07-13.87,.05,.07,.1,.15,.14,.22,6.94,11.44,6.84,26.91-1.61,37.19-3.97,4.83-9.43,9.25-14.89,12.17-5.58,2.98-11.77,4.09-17.81,3.44,9.99,9.62,25.22,12.06,37.62,4.98,15.23-8.69,20.44-28.45,11.63-44.13Z" class="cls-5"/><path d="M93.77,16.72c-1.23-2.19-2.67-4.17-4.28-5.96,.09,.52,.19,1.01,.27,1.39,2.25,10.76,2.51,21.11-3.68,30.31-1.77,2.64-3.16,5.42-5.42,7.69-2.3,2.32-5.03,4.18-7.84,5.8-2.48,1.43-5.15,2.37-7.82,3.37-4.59,1.71-8.07,2.35-12.17,2.35,2.44,1.19,5,2.06,7.64,2.6,3.13-.1,6.21-.58,8.77-1.15,3.03-.67,5.65-2.04,8.07-3.92,3.27-2.54,6.76-4.96,9.5-8.12,2.07-2.4,4.24-4.79,6.04-7.41,2.88-4.19,3.7-8.18,3.97-13.32,.1-1.9,.17-3.78,.15-5.65-.71-2.73-1.77-5.41-3.22-7.99Z" class="cls-5"/><path d="M91.43,13.13c.7,.95,1.36,1.94,1.98,2.98,11.21-3.2,18.83-4.19,19.67-2.14,1.46,3.57-18.25,15-44.02,25.53-25.77,10.53-47.84,16.18-49.3,12.61-.84-2.05,5.3-6.68,15.54-12.25-.29-1.17-.51-2.34-.66-3.51C12.82,46.97-1.39,56.47,.11,60.13c2.07,5.07,33.44-2.96,70.05-17.92S134.79,11,132.72,5.93c-1.5-3.66-18.28-.49-41.29,7.2Z" class="cls-7"/><path d="M51.38,8.45c-3.46-1.23-8.34,5-9.66,7.46-3.36,6.28-4.59,14.87,.23,21.08,2.24,2.88,6.25,2.87,9.47,2.07,4.94-1.24,9.25-4.19,11.82-8.57,2.7-4.61,4.2-9.26,2.93-14.7-.57-2.44-1.37-4.78-3.62-6.12-2.72-1.62-6.76-1.87-11.17-1.21Z" class="cls-3"/><path d="M44.86,16.96c-2.04,2.07-4,8.53,.68,8.67,6.03,.18,4.47-10.82-.68-8.67Z" class="cls-3"/><path d="M92.47,14.61c.29,.44,.57,.88,.84,1.33,16.34-5.52,27.7-8.08,28.53-6.04,1.28,3.12-22.67,15.86-53.49,28.46-30.82,12.6-56.83,20.28-58.11,17.15-.84-2.05,9.24-8.27,25.01-15.87-.12-.51-.24-1.03-.34-1.54C17.14,46.79,5.72,54.21,6.83,56.91c1.62,3.96,29.44-3.67,62.15-17.04,32.7-13.37,57.9-27.41,56.29-31.37-1.1-2.68-14.24-.04-32.79,6.11Z" class="cls-8"/><path d="M93.86,16.89c.46,.83,.88,1.67,1.27,2.52,1.66-.18,2.68-.05,2.88,.44,.83,2.04-12.65,9.48-30.12,16.62-17.47,7.14-32.31,11.28-33.14,9.24-.2-.48,.41-1.26,1.67-2.26-.33-.9-.62-1.8-.87-2.71-9.24,4.9-14.76,8.82-14.11,10.41,1.18,2.89,22.27-2.98,47.09-13.13,24.82-10.15,43.99-20.72,42.81-23.61-.65-1.6-7.39-.52-17.46,2.48Z" class="cls-1"/></g></g></g></g></svg>