<?xml version="1.0" encoding="UTF-8"?>
<svg xmlns="http://www.w3.org/2000/svg" viewBox="0 0 67.06 67.06">
  <defs>
    <style>
      .cls-1 {
        mix-blend-mode: multiply;
        opacity: .33;
      }

      .cls-1, .cls-2, .cls-3 {
        fill: #542b24;
      }

      .cls-4 {
        isolation: isolate;
      }

      .cls-5 {
        mix-blend-mode: overlay;
      }

      .cls-5, .cls-6 {
        opacity: .57;
      }

      .cls-3 {
        opacity: .56;
      }

      .cls-7 {
        opacity: .34;
      }

      .cls-8 {
        fill: #552805;
        opacity: .49;
      }

      .cls-6, .cls-9, .cls-10 {
        fill: #c6bdba;
      }

      .cls-6, .cls-11, .cls-10 {
        mix-blend-mode: screen;
      }

      .cls-11 {
        opacity: .31;
      }

      .cls-12 {
        fill: #d4803a;
      }

      .cls-10 {
        opacity: .76;
      }
    </style>
  </defs>
  <g class="cls-4">
    <g id="Layer_2" data-name="Layer 2">
      <g id="icons_planets">
        <g>
          <circle class="cls-12" cx="33.53" cy="33.53" r="33.53"/>
          <path class="cls-8" d="M2.67,20.41c1.02,.04,2.21,.24,2.96-.34-1.15,5.43,3.56,8.86,8.44,9.56,3.08,.44,6.98-1.64,8.11-4.5,.5-1.27,1.39-3.54,.73-4.8,.5,1.3,2.3,1.56,2.16-.23,.41,.85,1.36,1.26,2.03,.58,.76,1.67,.43,3.27,1.09,4.72,.42,.93,2.01,2.29,2.64,1.01-.02,0,.54-.04,.5-.01,.4,1.44,3.21,3.13,3.52,.78,5.15,.53,3-6.82,1.55-9.06,1.49,.89,4.87,.77,3.76-1.83,2.76,2.08,2.26-2.75,1.23-4.11,3.36-1.21,6.41-2.41,7.07-6.42,.13-.77,.11-1.52,0-2.25C43.96,1.27,38.89,0,33.53,0,19.67,0,7.78,8.41,2.67,20.41Z"/>
          <path class="cls-8" d="M31.37,33.87c-.23-1.24-.59-2.96-2.07-3.31-1.49-.35-2.26,.95-1.46,2.33-.93-.23-1.62-1.19-2.58-1.55-.96-.37-2.69-.63-3.69-.21-3.76,1.57-4.17,8.24-.62,10.09-3.96,1.11,2.48,10.5,6.21,6.73,.21,3.54,6.5,2.56,6.5-1.37,1.27,2.75,2.65-.32,2.52-1.96,3.15,.19,6.51,.46,7.61-3.37,.56-1.96-.06-4.09-1.44-5.52-2.93-3.01-6.38-2.35-10.97-1.86Z"/>
          <path class="cls-3" d="M13.53,21.97c1.65-4.5-5.09-7.22-4.15-2.14-2.28-3.51-5.75,1.94-2.96,2.37-2.15,2.51-5.01,8.38-2.09,11.45,3.69,3.88,6.13-3.67,6.89-5.9,.7,.88,1.72,.96,1.96-.2,1.71,.4,4.24,.95,3.98-1.95-.24-2.75-3.09-2.54-3.63-3.63Z"/>
          <path class="cls-3" d="M30.99,42.5c-.18-2.23-3.58-2.36-2.9-.61-2.44-.38-2.34,3.88-.84,4.94,1.7,1.21,4.44,.22,3.76-2.15,2.28,.3,2.48-2.3-.02-1.8v-.38Z"/>
          <path class="cls-3" d="M52.48,25.61c2.67-.75,1.51-5.6,.77-7.28-.53-1.22-1.69-3.41-3.34-2.49-1.14,.64-1.16,2.66-.72,3.6-3.12-1.45-5.32,.56-5.35,4.19-.02,1.7,2.96,7.32,4.38,4.1,.31,1.19,1.19,2.69,2.69,2.31,1.83-.46,1.37-2.96,1.58-4.43Z"/>
          <path class="cls-3" d="M33.67,10.27c-.19-3.22,4.95-3.22,3.14,.7,1.91-1.28,2.4,2.15,2.04,3.34-.57,1.86-2.95,3.09-4.8,3.07-2.01-.02-3.78-1.25-4.61-3-.7-1.48-.46-4.71,1.55-2.45-.49-2.08,.73-3.68,1.91-.89l.77-.77Z"/>
          <path class="cls-3" d="M32.71,3.93c.38,2.45-1.02,1.19-1.92,2.3-1.01,1.26,.48,1.7,1.7,1.56-.02,.33,.13,.79,.06,1.11,.68-.51,.45-1.19,.73-1.95,.15-.4,.7-1.26,.77-1.6,.31-1.52-.57-3.02-1.92-3.92l.58,2.49Z"/>
          <path class="cls-3" d="M18.71,5.66c-1.28,.05-.92,.97-1.58,1.53-.8,.68-1.13,.61-2.07,.96-2.33,.87-1.25,2.22-2.54,3.3-.49,.41-5.15,1.51-2.84,2.65,2.34,1.16,4.57-3.3,5.22-4.59,1.13,.8,2.59,.01,2.69-1.34,1.9,.77,4.97-.96,5.63-2.91,.39-1.15,.34-2.18-.98-2.59-1.88-.58-2.87,1.53-3.53,2.98Z"/>
          <path class="cls-3" d="M44.61,54.2c.98-.66,1.87-2.12,1.49-3.41-.55-1.85-2.56-1.93-2.88,.13-1.83-1.43-3.44-.84-4.55,1.31-2.22,4.28,2.83,3.59,5.18,1.58l.77,.38Z"/>
          <path class="cls-8" d="M47.87,55.55c-3-2.79-9.5,.75-9.99,4.42-.98,7.43,11.78,3.87,9.99-4.42Z"/>
          <path class="cls-8" d="M66.25,26.22c-1.09-4.89-3.25-9.38-6.22-13.21-2.99,.94-3.71,5.96-2.77,9.2,1.13,3.86,2.18,8.59-1.61,11.48-1.78,1.35-4.5,1.07-5.96,2.72-1.16,1.32-1.08,3.47-.65,5.1-2.12-.4-3.66,1.12-2.91,3.28-1.48-.07-2.47,1.07-2.5,2.51-3.61-3.22-6.77,2.27-8.22,4.98-2.02-.43-3.06-1.53-4.73,.24-1.57,1.66-1.47,5.62-5.06,4.34-3.51-1.25-1.94-5.67-3.95-7.88-2.2-2.42-3.93-.78-6.25-.34-.91-2.27,.85-4.33,.8-6.63-.04-1.59-1.96-4.16-3.3-2.18,.76-1.15,.04-3.19-1.43-2.19-.03-1.41-1.32-1.31-2.41-1.35-2.28-.08-3.23,.42-3.76,1.18,.85-1.69,.23-3.9-1.36-1.64-.35,.5-.14,2.6-1.24,1.93-.87-.53-.05-2.26-.05-3.04,.01-2.41-2.6-5.89-2.55-1.81,.04,3.42,1.99,9.39,6.06,9.41,1.3,2.16-.51,4.19-.15,6.52,.42,2.7,2.59,3.54,4.96,3.28-.08,2.11,.48,1.82,1.8,2.84,1.54,1.19,1.36,2.9,2.87,4.42,1.42,1.43,1.4,.96,3.06,.81,.87-.08,.75-1.08,1.93,.19,.77,.82-.08,1.96,.76,2.71,1.08,.96,2.78,.07,3.03-1.18,.96,.24,3.31,4.13,4.07,1.29,1.52,1.36,3.35,2.57,3.82-.16,1.34,1.58,2.57,.8,3.16-.83,.79-2.16-.77-4.25-.87-6.36-.21-4.38,2.28-1.21,4.56-1.92-.2-2.25,2.31-.86,3.3-2.43,2.49,1.21,4.91,1.68,7.64,.95,1.47-.39,6.7-3.33,4.71-5.19,3.25,2.27,6.22-2.04,3.57-4.44,2.44-.38,3.4-.81,4.64-3.31,1.06-2.14,2-5.03,2.05-7.4,.04-1.89-.76-3.65-.75-5.53,.79,.09,1.41-.05,1.89-.36Z"/>
          <path class="cls-6" d="M39.24,38.85c.73,1.94,2.88,.09,2.41-1.53-.38-1.32-4.06-3.17-3.6-1.17-.1-2.05-2.86-1.45-3.47,.03-1.05,2.55,.88,4.21,3.32,4.01l1.34-1.34Z"/>
          <path class="cls-10" d="M64.64,45.17c-.23-.56,.39-1.71,.09-2.5-.19-.49-.92-.64-1.18-1.13-.23-.44,.22-1.25,.03-1.71-.42-1.07-3.28-4.1-5.05-4.12,2.11-1.15,2.64-4.16,1.64-6.35-.06-1.34-.24-2.74,1.15-2.66-.06-.58,.25-.99,.3-1.47,1.15,1.48,2.74-.37,2-1.66,.78,.53,1.51,.07,1.69-.74-.53-1.59-1.18-3.12-1.94-4.59-.29,.37-.35,1.04,.01,2.17-1.01-1.92-2.15,.95-2.08,2.07-.1-.19-.3-.41-.38-.55-1.49,1.19-1.54,3.37-1.57,5.18-.32,.03-.59,.17-.81,.36-.23-.14-.47-.25-.73-.34,.87-.82,1.72-3.77-.16-4.58,.32,0,1.18-.63,1.38-1.59,.48-2.37-2.58-4.77-3.67-7.24,.15-1.57-.32-3.33-1.73-4.17-1.57-.93-2.94-.55-2.59,1.4,.31,1.73,2.47,2.64,2.91,4.2,.39,1.38-.94,3.33,1.54,3.96-1.48,1.51-.72,3.55,.61,4.81-.71,1.57-4.24,7.17-.98,8.11-.94,.1-1.2,1.85-.44,3.04-.63,.07-1.24,.21-1.7,.25-1.08,.09-2.23-1.24-2.76,.55-.28,.94,.7,1.98,1.43,2.38-1.39,.46-.36,2.45-.71,3.65-.7-.4-1.26-1.05-2.01-1.03-.27-.71-.86-1.46-1.83-2.04,3.12-.43,1.25-7.76-1.86-6.12,.93-1.06-.17-2.84-1.53-2.89,.76-.87-.13-2.52-1.18-2.9-1.64-.61-1.59,.69-2.69,1.56-3.42,2.7-.99-4.78-1.37-6.15-.41-1.46-5.58-5.48-5.16-3.26,.23,1.2,2.72,1.89,3.3,3.01,.79,1.52-1.04,4.14,.08,4.85-1.6,.94-1.57,4,.6,4.06-1.16,1.9,.54,2.28,1.9,2.33,.49,.02,1.02-.73,1.59-.45,.62,.31,.04,1.31,.38,1.56,1.41,.99,2.44,.02,2.68,1.97,.17,1.37-.86,3.98,2.26,3.43-.83,1.05-.99,2.53,.18,3.15-.86-.07-1.5,.63-1.1,2.02-.81-.04-3.75,1.26-4.14,2.01-2.02-1.74-3.94,1.69-5.31,3.95,.35-1.61-3.59-4.11-3.62-1.02-1.25-.36-3.34,.75-2.68,2.26-1.79-.98-3.72-2.95-6.04-1.55-1.7,1.03-1.26,3.23,.24,4.25-.72,.48-1.09,.98-1.23,1.42-.94-.66-2.07-1.07-2.91-.98,.18-4.55-13.42-3.72-11.55-8.63,1.03-2.71,2.65,.53,3.46,.94,.77,.39,1.79,.14,2.23-.33,1.92-2.02-1.49-3.84-1.83-2.35,.28-1.81-2.89-5.18-3.61-2.94,.39-1.26-1.52-2.17-2.54-1.35,.17-1.31-1.06-1.35-1.87-.72,.2-1.51-1.24-3.1-2.74-2.74,.08-1.29,.69-2.42-.22-3.57-.26-.32-.53-.55-.81-.7,0,.19-.01,.37-.01,.56,0,3.96,.69,7.75,1.95,11.27,.12-.07,.25-.14,.38-.22-.12,.28-.18,.54-.17,.77,.11,.29,.22,.57,.34,.86,.35,.36,.94,.51,1.62,.33-.91,2.81,1.85,5.59,4.6,5.37-.35,2.75,4.28,5.05,6.32,3.29,.08,.43,.23,.76,.42,1.02-.46,.73-.27,1.9-.96,2.77-.48,.6-1.09,.8-1.76,.82,.51,.41,1.04,.8,1.58,1.18,.53-.33,1.14-.58,1.99-.63,.83-.05,1.99,.88,2.02-1.06,0-.48-.78-1.48-1.39-2.34,.56,.02,1.17-.14,1.73-.41,.36,1.22,1.4,1.61,2.52,1.11-.19,1.27,.83,2.54,2.1,2.37,.61,1.18,2.64,2.51,4.17,2.41,3.33-.21-.07-5.03-3.29-3.34,.03-.4-.08-.8-.28-1.18,.65-.11,1.32-.68,1.59-1.98,1.19,1.45,3.15,.59,3.65-1.15,2.43,.43,2.06-2.7,4.12-2.71-1.84,1.29-3.25,8.71,.74,7.49,2.52-.77-.42-8.61,2.98-6.17,.31-1.17,.37-3.01,1.38-3.82,.41-.33,.94,.11,1.11,.02,.25-.13,.71-.44,1.2-.77,.59-.4,.8-1.13,1.64-1.35,.81-.21,1.07,.25,1.74,.21,.91-.05,2.14-.64,2.92,.4,.91,1.21-.46,3.32,1.99,3.25,3.77-.11,.83-5.03,2.6-5.9,.26,.16,.36,.19,.58,.28,.08-2.25,.81-.97,1.92-1.88,1.5-1.23,.86-3.16-.16-4.59,1.8,1.24,1.71-1.33,3.36-.98,.05,1.28,.8,2.18,2.13,1.93-.21,1.84,.65,1.69,1.34,2.85,.81,1.35,.34,2.45,2.51,2.76,.02,.53,.27,1.3,.67,1.96,.35-.75,.68-1.52,.98-2.3-.1-.1-.18-.2-.22-.3Zm-17.59-1.94c.11,.02,.22,.03,.34,.04,.03,0,.06,0,.1,0,.08,.2,.18,.4,.32,.58-.24-.27-.5-.47-.76-.62Zm10.41-6.89c-.03-.08-.06-.16-.1-.23,.11-.02,.22-.04,.32-.07-.08,.08-.16,.18-.22,.29Z"/>
          <path class="cls-6" d="M25.61,25.13s0,0,0,0c-.15-.07-.34-.06-.48,.05-.12,.1-.23,.21-.33,.32-.01,0-.03,0-.04,.02-.62,.59-.89,1.37-.99,2.18-.08,.33-.13,.66-.16,.98-.03,.31,.38,.34,.53,.14,.1-.13,.18-.27,.25-.42,.09-.02,.17-.07,.24-.16,.25-.35,.49-.73,.65-1.14,.3-.48,.57-.98,.83-1.49,.16-.31-.17-.68-.49-.49Z"/>
          <path class="cls-6" d="M25.86,34.78c-.21-.55-.92-1.04-1.5-.61-.23,.17-.43,.36-.61,.55-.75,.33-1.3,1.2-1.33,1.99-.02,.51,.19,.87,.5,1.09,.03,.04,.05,.08,.08,.11,.31,.31,.58,.31,.84,.16,.28,0,.56-.07,.83-.2,.05-.02,.09-.06,.14-.09,.65-.17,1.18-.64,1.21-1.4,0-.11,0-.23-.02-.34,.07-.41,.03-.85-.13-1.26Z"/>
          <path class="cls-6" d="M22.7,32.79s0-.01-.01-.02c0,0-.01-.01-.02-.02-.03-.05-.07-.09-.12-.12-.03-.02-.06-.02-.09-.03,0,0,0,0,0,0-.03,0-.07-.01-.1,0-.02,0-.05,0-.07,0-.01,0-.02,0-.04,.01-.03,0-.05,.01-.08,.03-.05,.03-.09,.07-.12,.12,0,0-.01,.01-.02,.02,0,0,0,.01-.01,.02-.08,.1-.07,.22-.02,.32,0,.06,.01,.12,.02,.17-.02,.24,.16,.35,.35,.33,.19,.02,.37-.09,.35-.33,0-.06,.01-.11,.02-.17,.05-.11,.06-.22-.02-.33Z"/>
          <path class="cls-6" d="M36.15,3.7c-.08-1.32-1.71-1.96-2.46-2.85-.01-.02-.04,0-.03,.02,.52,.77,1.4,1.26,1.88,2.05,.78,1.31-.53,1.87-1.11,2.8-.21,.34-.22,.52-.27,.9-.08,.67-.45,1.19-.59,1.89-.03,.14,.14,.2,.22,.09,.35-.46,.52-.91,.94-1.34,.07-.07,.08-.17,.03-.26-.63-1.14,1.46-2.12,1.4-3.3Z"/>
          <path class="cls-6" d="M26.33,3.36c-.24,.04-.15,.36,.05,.38,1.27,.15,2.66,1.11,2.4,2.41-.13,.67-.89,1.65-1.31,2.13-1.87,2.12-4.05,2.48-6.58,1.52-.18-.07-.36,.08-.41,.24-.43,1.25-.25,2.61-2.41,2.3-.26-.04-.49,.1-.5,.38-.11,2.38-2,.31-2.71,.47-.95,.22-1.59,.61-2.38,1.19-.48,.35-1.02,.93-1.64,1.09-1.74,.44-2.67-.75-2.33-2.27,.23-1.03,1.39-2.08,2.17-2.73,.03-.03,0-.07-.04-.05-1.89,.83-5.26,5.49-1.57,6.13,.97,.17,1.88-.23,2.7-.71,1.73-1.01,1.87-1.6,3.94-1.47,.75,.04,1.41,.25,2.12-.17,.44-.26,.43-.74,.9-.97,.58-.29,1.08,.11,1.6-.45,.4-.43,.25-1.66,.61-1.92,.51-.38,2.71,.28,3.42,.14,1.24-.24,2.3-.99,3.18-1.87,2.1-2.07,3.25-6.58-1.21-5.77Z"/>
          <path class="cls-6" d="M27.5,13.05c-.15-.19-.43-.03-.33,.19,.36,.75,.96,1.51,1.17,2.31,.24,.94-.38,2.62-1.5,2.2-.16-.06-.26-.35-.44-.41-.33-.11-.5-.18-.82-.25-.46-.1-.62,1.09-.83-.13-.05-.28-.49-.27-.55,0-.68,.71-1.13,.74-1.35,.11-.18-.32-.3-.67-.37-1.03-.07-.26-.5-.28-.55,0-.31,1.73-.58,3.7-1.52,5.22-2.04,3.3-3.97-2.3-2.62-4.26,.03-.04-.03-.08-.06-.05-1.34,1.33-1.24,5.53,1.03,5.93,2.38,.42,3.19-3.47,3.56-5.71,.59,1.11,1.57,1.87,2.15,.76,.13,.1,.31,.07,.69,.14,.1,.02,.45-.17,.72-.13,.56,.08,.47,.37,.87,.51,.37,.13,.35,.21,.79,.15,3.05-.38,.9-4.35-.03-5.56Z"/>
          <path class="cls-6" d="M19.46,29.93c-.1-.18-.37-.09-.38,.1-.03,.66-.6,3.81-1.81,2.5-.17-.18-.54-.1-.58,.15-.06,.31-.25,1.96-1.16,1.27-.28-.21-.17-1.14-.14-1.42,.04-.36-.53-.42-.62-.08-.27,1.05-1.39,2.93-2.78,2.62-2.14-.49-.37-3.51,.07-4.42,.04-.09-.08-.16-.13-.07-.84,1.29-2.56,4.17-.14,4.98,1.22,.41,2.35-.58,3.02-1.68,.12,.53,.39,1,.94,1.1,.9,.17,1.3-.8,1.5-1.58,1.52,.8,2.95-2.11,2.21-3.46Z"/>
          <path class="cls-6" d="M12.76,25.04c-.18-.19-.54,0-.45,.26,.26,.77-.2,1.7-1.07,.87-.16-.16-.48-.15-.59,.08-.38,.8-1.24,1.61-1.9,.57-.64-1.01,.27-1.85,1.19-2.16,.34-.11,.33-.56,0-.67-1.42-.51-.85-2.7,.62-2.57,1.15,.11,2.16,2.02,1,2.77-.12,.07-.01,.25,.11,.19,1.66-.91,.18-3.46-1.39-3.41-1.85,.06-2.29,2.24-1.16,3.3-1.12,.61-1.83,1.82-.95,3.07,.91,1.29,2.22,.74,2.92-.32,.51,.32,1.12,.41,1.65-.03,.63-.53,.55-1.37,.02-1.92Z"/>
          <path class="cls-6" d="M36.72,13.19c.63-.48,1.03-1.2,.53-1.99-.68-1.08-1.96-.43-2.34,.52-.12,.31,.31,.49,.52,.3,.29-.26,.9-.94,1.18-.32,.3,.69-.7,1.12-1.17,1.25-.51,.15-.28,.85,.21,.77,1.47-.22,2.09,2.05,.68,2.55-.76,.27-2.64,.11-2.55-1,.01-.15-.12-.33-.27-.36-1.46-.23-1.52-2.1-.02-2.32,.04,0,.04-.07,0-.08-2.2-.33-2.26,2.47-.45,3.04,.15,1.64,2.98,2.01,4.1,1.19,1.39-1.02,.84-2.89-.42-3.57Z"/>
          <path class="cls-6" d="M52.33,19.55c-.65-.59-1.57-.56-2.26-.05-.44,.33-.7,.78-.81,1.27-.15,0-.32,.03-.5,.13-.67,.37-1.12,1.36-1.26,2.08-.14,.74,.1,1.79,.76,2.22,.77,.5,1.08-.27,1.2-.9,.01-.08-.1-.14-.14-.06-.35,.74-.69,.52-.92-.07-.14-.37-.19-.73-.09-1.12,.08-.3,.23-.6,.4-.86,.07-.11,.22-.37,.35-.43,.1-.04,.13-.04,.16,0,.02,.1,.04,.2,.06,.3,.13,.59,1.02,.34,.9-.25-.3-1.41,1.42-2.48,1.86-.73,.33,1.35-.61,2.18-1.21,3.23-.16,.28,.1,.54,.38,.5,2.08-.33,2.49-3.99,1.11-5.24Z"/>
          <path class="cls-6" d="M37.72,36.21c-.66-.21-1.59,.03-1.94,.67-.3,.55-.03,1.22,.49,1.53,.6,.37,1.33,.18,1.81-.3,.05-.05,.08-.12,.11-.18,.15,.09,.37,.08,.46-.11,.32-.7-.26-1.4-.92-1.62Z"/>
          <path class="cls-6" d="M17.24,50c-.08-.16-.34-.38-.5-.42-.05,0-.09,0-.13,0-.03-.03-.05-.06-.08-.09-.1-.1-.26-.02-.26,.11,0,.07,0,.14-.01,.21-.03,.06-.04,.12-.04,.19,0,.22,.04,.42,.21,.57,.18,.15,.47,.19,.66,.05,.07-.05,.14-.14,.15-.24,.06-.12,.07-.26,.01-.38Z"/>
          <path class="cls-6" d="M19.82,49.49c0-.21-.17-.31-.35-.3-.18-.01-.35,.09-.35,.3-.08,.25,0,.58,.22,.71,.07,.05,.18,.05,.25,0,.21-.13,.3-.46,.22-.71Z"/>
          <path class="cls-6" d="M20.14,51.96c-.13-.11-.29-.17-.43-.25-.1-.09-.19-.19-.29-.28-.14-.13-.33-.18-.51-.13-.09,0-.17,0-.26,.03-.32,.1-.39,.46-.19,.71,.01,.02,.03,.03,.05,.05,.02,.06,.05,.12,.09,.18,.16,.2,.35,.29,.58,.4,.01,0,.03,0,.04,.01,.04,.03,.09,.06,.13,.08,.09,.04,.19,.06,.28,.06,.23,.06,.47,.07,.64-.1,.24-.23,.08-.58-.13-.77Z"/>
          <path class="cls-6" d="M59.99,51.42c-.35-1.92-2.89-2.54-4.36-1.64-.25,.15-.03,.53,.23,.4,2.83-1.05,3.16,.2,.98,3.74-.88-.04-1.64-.32-2.3-.84-.24-.16-.45,.14-.36,.36-.64,2.67-1.52,3.4-2.64,2.21-.15-.12-.39-.1-.45,.12-.43,1.71-2.37-.29-2.77-.73-.21-.23-.6,.07-.43,.33,2.28,3.48-1.83,7.19-5.02,8.03-4.89,1.28-6.32-3.33-4.18-6.86,.02-.03-.03-.07-.05-.04-3.37,4.3-.05,9.2,5.24,7.11,2.34-.93,5.15-3.16,5.31-5.89,.02-.29,.01-.88-.1-1.23,.45,.34,.98,.63,1.52,.6,.58-.04,.64-.62,1.14-.59,.99,.08,1.2,1.36,2.45,.78,1.04-.48,.84-1.55,1.01-2.42,.01-.07-.04-.55-.16-.81,.42,.15,1.21,.35,1.1,.33,1.75,.32,4.23-.79,3.85-2.94Z"/>
          <path class="cls-6" d="M49.41,7.15c-.26,0-.33,.43-.06,.47,.95,.15,.93,1.25,.51,1.99-.51,.9-1.74,1.11-2.65,.92-.26-.05-.47,.15-.41,.41,.08,.36,.66,2.68-.65,1.97-.21-.11-.56,.02-.52,.3,.06,.47,.37,3.31-1.1,2.17-.26-.2-.59-.02-.54,.32,.22,1.5-.55,3.17-1.42,4.36-.53,.72-2.39,2.89-3.11,.38,0-.03-.05-.02-.04,.01,.24,1.45,1.14,1.73,2.39,.98,1.63-.97,2.6-3.35,2.79-5.24,1.48,.81,1.85-.91,1.78-2.42,.63,.22,1.04,.05,1.33-.78,.13-.38-.3-1.38-.14-1.67,.03-.06,.68,.03,1.23-.15,1.67-.55,3.34-3.94,.62-4Z"/>
          <path class="cls-6" d="M41.36,40.14c-.06-.24-.38-.16-.41,.06-.15,1.24-1.34,3.85-2.58,1.29-.11-.23-.45-.15-.51,.07-.42,1.44-2.68,1.5-2.22-.27,.05-.19-.12-.36-.31-.31-3.73,.96-4.9-4.06-2.41-6.14,.02-.01,0-.04-.02-.03-3.13,2.07-1.57,7.26,2.18,6.73-.21,1.84,2.17,2.18,3.08,.7,1.34,1.89,3.76,.15,3.2-2.09Z"/>
          <path class="cls-6" d="M27.39,46.58c-.62,.51-3.13,.54-2.05-.46,.17-.16,.02-.4-.17-.42-1.67-.17-2.84-1.3-2.32-3.03,.39-1.28,1.67-2.24,2.63-.86,.11,.15,.36,.01,.26-.15-1-1.54-2.58-.83-3.2,.64-.81,1.93,.36,3.41,2.16,3.81-.89,1.33,2.12,1.98,3,.71,.14-.2-.15-.37-.31-.24Z"/>
          <path class="cls-6" d="M46.34,57.42c-1.24-1.15-3.43,.77-4.01,1.84-.09,.16,0,.34,.16,.4,.92,.35,1.83-.1,2.3-.94,.12-.21-.16-.42-.33-.26-.44,.42-.87,.79-1.45,.75,.67-.88,2.32-2.28,3.09-1.28,1.1,1.44-1.6,2.56-2.54,2.79-1.59,.39-3.69-.38-2.42-2.27,1.16-1.73,3.32-2.27,5.21-2.7,.03,0,.02-.04,0-.04-2.07-.2-5.71,1.31-6.04,3.67-.3,2.17,2.59,2.11,3.95,1.65,1.25-.42,3.74-2.09,2.09-3.62Z"/>
          <path class="cls-6" d="M9.59,38.95c.08-.22,.16-.47,.07-.69-.1-.26-.4-.42-.62-.58-.14-.1-.35,0-.38,.16-.09,.34-.18,.71-.06,1.05,0,.08,0,.15,.03,.22,.08,.2,.25,.41,.46,.48,.08,.03,.16,.02,.24,0,.1,.03,.19,.05,.28,.02,.4-.11,.18-.47-.02-.66Z"/>
          <path class="cls-6" d="M13.98,41.8s-.04,.04-.06,.06c-.03,0-.07,0-.08,.05-.04,.2-.09,.38-.08,.59,.01,.18,.26,.27,.36,.1,.04-.08,.07-.16,.11-.25,.08-.04,.14-.11,.15-.23,0-.03,0-.06,0-.09-.02-.21-.21-.32-.4-.23Z"/>
          <path class="cls-6" d="M5.59,43.54c-.16-.43-.54-.66-.96-.79-.25-.07-.5,.13-.5,.38,0,.2,.01,.41,.08,.6,0,.01,0,.02,0,.04,.09,.48,.32,.74,.62,1.1,.15,.18,.49,.13,.59-.08,.19-.39,.33-.83,.17-1.25Z"/>
          <g class="cls-5">
            <path class="cls-9" d="M2.32,21.29c.38,2.94,1.85,5.54,4.89,7.01,4.03,1.94,9,.83,11.54-2.82,.58,1.24,.97,2.34,2.49,2.44,2.34,.15,1.93-1.62,2.81-3.02,3.06,10.77,18.58,4.24,15.8-5.78,2.07,.78,4.42-2.56,3.26-4.41,1.61,.73,1.93-1.26,1.59-2.47,1.03-.09,2.33-1.14,2.1-2.17,1.66,.34,2.85-1,3.21-2.51,.27-1.14-.1-2.42-.63-3.58C44.64,1.44,39.25,0,33.53,0,19.33,0,7.21,8.83,2.32,21.29Z"/>
          </g>
          <g class="cls-5">
            <path class="cls-9" d="M23.7,3.74c-1.99-1.15-7.14,2.98-8.82,4.23-3.2,2.38-6.33,6.53-6.89,10.63-.4,2.89,1.97,5.74,5.12,5.69,3.69-.06,8.27-5.59,8.33-9.01,1.5,1.3,3.8,3.07,4.79,0,4.47,3.57,9.08-6.81,6.5-7.36,2.42,1.21,5.52-2.93,4.97-5.14-1.23-4.92-12.4-.8-14,.98Z"/>
          </g>
          <g class="cls-7">
            <path class="cls-2" d="M33.53,67.06c18.52,0,33.53-15.01,33.53-33.53,0-10.23-4.59-19.39-11.82-25.54,.42,1.22,4.84,8.16,1.65,21.08-3.84,15.54-20.64,24.37-39.33,19.38C6.04,45.38,1.19,38.9,.24,37.48c1.96,16.65,16.11,29.58,33.29,29.58Z"/>
          </g>
          <g class="cls-7">
            <path class="cls-2" d="M65.29,22.78c-.66,1.39-1.02,3.18-1.4,4.38-.89,2.82-1.89,5.58-2.82,8.39-2.05,6.22-6.38,12.68-12.43,15.51-3.35,1.57-6.44,4-9.99,5.1-3.04,.94-6.3,1.21-9.39,1.95-4.59,1.09-7.76,2.65-12.55,1.77-2.42-.45-4.51-1.21-6.41-2.17,1.71,1.65,3.6,3.12,5.63,4.37,.98,.36,1.96,.68,2.93,.97,5.22,1.53,10.26,1.61,15.57,.28,7.67-1.93,17.01-6.34,22.74-11.91,4.37-4.25,7.25-9.09,9.19-14.85,.2-.58,.44-1.47,.67-2.52,0-.17,.01-.34,.01-.51,0-3.76-.63-7.37-1.77-10.75Z"/>
          </g>
          <g class="cls-11">
            <path class="cls-9" d="M28.11,12.18c2.25-.49,3.94-3.15,4.5-5.22,.86-3.15-.57-4.28-3.54-4.18-1.26,.04-2.32,.05-3.46,.69-.92,.52-1.61,1.75-2.53,2.15-1.06,.47-2.45,.05-3.61,.66-1.5,.79-1.5,1.44-2.14,2.96-5.72-2.77-11.25,8.2-7.71,12.45,2.3,2.76,7.58,1.21,10.21-.33,2.46-1.44,4.66-5.49,4.99-8.17,1.04,.96,4.21,2.47,3.28-1Z"/>
          </g>
          <g class="cls-11">
            <path class="cls-9" d="M24.08,12.38c2.29,.31,5.27-2.45,2.68-4.03-2.61-1.59-5.82,.76-7.27,2.72-2.85-1.78-6.39,1.04-6.54,4.25-.08,1.69,.85,2.92,2.58,3.19,2.7,.41,4.59-2.33,6.63-3.63l1.92-2.49Z"/>
          </g>
          <path class="cls-1" d="M27.34,33.41c-1.69-2.74-6.15-3.15-7.87-.27-1.16,1.95-1.26,6.75,1.44,7.55,.02,0,.04-.02,.02-.04-1.76-1.37-2.24-4.21-1.54-6.3,1.22-3.61,5.34-2.86,7.43-.56,.25,.28,.71-.08,.52-.4Z"/>
          <path class="cls-1" d="M29.12,30.82c-.48-.02-1.05,.1-1.33,.53-.34,.53-.02,1.11,.37,1.51,.05,.05,.13-.01,.1-.08-.17-.36-.45-.95-.12-1.3,.27-.29,.79-.29,1.15-.23,.45,.08,.9,.31,1.19,.68,.4,.49,.34,1.02,.45,1.6,.03,.13,.23,.15,.29,.04,.71-1.36-.85-2.69-2.1-2.74Z"/>
          <path class="cls-1" d="M31.07,34.59c-.05,.02-.05,.1,.01,.1,3.53,0,9.17-1.53,11.15,2.36,.1,.2,.36,.08,.38-.1,.49-4.49-9.24-3.21-11.54-2.35Z"/>
          <path class="cls-1" d="M48.78,19.93c.06-.03,.05-.11,0-.14-1.49-1-4.13,.23-4.77,1.77-.91,2.17,.46,5.77,2.6,6.76,.19,.09,.48-.11,.33-.33-1.28-1.72-3.25-3.75-2.25-6.14,.8-1.92,2.63-1.23,4.1-1.92Z"/>
          <path class="cls-1" d="M50.9,16.1c-1.33-.11-1.99,1.17-1.23,2.23,.01,.02,.05,0,.04-.02-.15-.46-.21-1.07,.11-1.47,.43-.55,1.29-.34,1.75,.06,.66,.59,.82,1.52,1.36,2.2,.11,.14,.3-.02,.27-.16-.25-1.18-.93-2.74-2.31-2.85Z"/>
          <path class="cls-1" d="M35.5,8.03c-1.76,.23-1.59,1.75-2.42,2.79-.24-.58-.49-1.25-1.24-1.08-.8,.18-1.11,1.07-1.18,1.85-.36-.35-.81-.61-1.26-.26-.9,.69-.02,2.3,.5,2.9,.03,.03,.07,0,.06-.04-.21-.41-.37-.83-.49-1.27,.42-1.26,.83-1.44,1.22-.55,.12,.2,.45,.12,.45-.12,0-.46,.06-2.37,1.34-1.4,.06,.05,.25,.57,.27,.62,.09,.17,.31,.16,.44,.06,.38-.32,.55-.7,.74-1.15,.21-.5,.35-1.37,.98-1.53,.56,.14,1.12,.29,1.68,.43,.05,.26,.09,.52,.14,.78,.04,.25,.38,.16,.41-.06,.13-1.11-.41-2.11-1.64-1.95Z"/>
          <path class="cls-1" d="M11.58,16.89c-1.66-.56-2.15,1.03-2.33,2.37-.71-.78-2.09-.78-2.96-.12-1.42,1.07-.64,3.14,1.1,3.07,.15,0,.2-.2,.07-.28-3.25-2.13,.97-4.02,1.73-2.05,.08,.21,.37,.18,.39-.05,.07-1.17,.19-3.32,2.03-2.64,1.37,.51,2.47,2.63,1.89,3.99-.02,.04,.03,.07,.05,.03,.96-1.42-.52-3.84-1.97-4.33Z"/>
          <path class="cls-1" d="M5.5,24.39s-.03-.07-.06-.04c-1.52,1.78-3.96,7.73-.67,9.04,.1,.04,.14-.09,.09-.16-1.93-2.5-1.1-6.37,.64-8.84Z"/>
          <path class="cls-1" d="M22.45,3.92c-.52-.91-1.19-1.02-2.09-.46-.68,.42-.89,1.06-1.35,1.64-.39,.49-.56,.46-1.01,.84-.83,.72-1.26,1.62-2.38,2.07-.6,.24-1.08,.12-1.55,.61-1.35,1.39,.15,2.04-2.46,3.39-.86,.44-1.48,.48-2.2,1.19-.14,.14,0,.32,.17,.3l.61-.09c.07,0,.06-.12,0-.13,.12,.02,2.51-1.14,2.82-1.4,.57-.48,.61-.99,.92-1.63,1.03-2.15,1.2-1.2,2.65-2.02,.8-.46,1.33-2.04,2.4-1.92,.1,.01,.23-.09,.25-.19,.13-.66,1.62-3.69,2.84-1.96,.16,.23,.54,.03,.39-.23Z"/>
          <path class="cls-1" d="M32.37,1.57c-.13,.04-.22,.18-.18,.31,.26,.87,.33,1.75,.5,2.63,.09,.49,.21,.58-.18,.91-.34,.29-.41,.19-.8,.26-.21,.04-.38,.07-.57,.19-.63,.4-.91,1.63,.15,1.43,.02,0,.02-.03,0-.04-.16-.8,.06-1.18,.67-1.13,.17,0,.33-.02,.5-.04,.11-.02,.24-.03,.34-.08,.29-.14,.43-.31,.49-.62,.09-.51-.16-1.12-.23-1.61-.08-.6-.16-1.17-.3-1.75,.73,.1,.91,1.8,1.27,2.21,.09,.1,.28,.05,.31-.08,.21-.9-.83-2.98-1.96-2.6Z"/>
          <path class="cls-1" d="M45.04,49.73c-1.13-.47-1.59,.57-2.19,1.28-.58-.5-1.25-.92-2.04-.64-.8,.28-1.35,1.12-1.75,1.83-.33,.58-1.32,2.91,.28,2.45,.07-.02,.07-.12,0-.14-1.03-.31-.07-1.75,.25-2.26,.16-.26,.33-.51,.54-.73,.82-.87,1.72-.65,2.52,.12,.12,.12,.3,.11,.42,0,.22-.2,.48-.75,.71-.89,.46-.02,.91-.04,1.37-.06,.06,.14,.11,.29,.17,.43,.08,.26,.01,.69-.02,.97-.03,.27,.34,.31,.46,.12,.55-.8,.18-2.11-.74-2.48Z"/>
          <path class="cls-1" d="M29.5,40.35c-.98-.33-1.6,.39-1.69,1.23-.78-.12-1.3,.51-1.47,1.4-.16,.83-.36,2.55,.43,3.13,.09,.07,.24,0,.26-.11,.15-.66-.52-4.39,.98-3.6,.28,.15,.61-.1,.53-.41-.17-.67,.27-1.24,.97-.94,.45,.19,.61,.51,.79,.97,.14,.37,.27,.78,.35,1.17,0,.05,.09,.05,.1,0,.26-1.03-.13-2.46-1.25-2.84Z"/>
          <path class="cls-1" d="M32.45,43.34c-.2-.21-.48-.36-.77-.37-.26-.01-.68,.13-.74,.42-.01,.07,.04,.12,.11,.11,.2-.04,.33-.17,.56-.15,.17,.02,.33,.1,.46,.22,.07,.07,.2,.21,.17,.33-.04,.13-.27,.16-.38,.19-.07,.02-.15,.08-.16,.16,0,.04-.02,.08,0,.12,.03,.1,.12,.17,.22,.17,.7,0,1.01-.69,.53-1.2Z"/>
          <path class="cls-1" d="M45.36,55.39c-1.31,.36-2.81,.32-3.95,1.15-.88,.64-1.7,1.82-1.87,2.89-.03,.18,.16,.31,.31,.18,.82-.75,1.08-1.89,1.99-2.59,1.07-.82,2.49-.74,3.57-1.51,.06-.04,.03-.14-.05-.12Z"/>
          <path class="cls-1" d="M45.19,56.77c-.92-.11-1.85,.12-2.56,.73-.57,.48-1.28,1.6-.79,2.32,.04,.07,.13,.07,.18,0,.21-.31,.2-.7,.33-1.05,.14-.38,.37-.72,.68-.98,.61-.52,1.42-.75,2.17-.97,.03,0,.02-.05,0-.05Z"/>
          <path class="cls-1" d="M45.97,57.84s-.04,0-.03,.02c.36,.91-.55,1.5-1.27,1.84-.37,.17-.76,.33-1.15,.47-.23,.08-.57,.15-.71,.37-.05,.08-.02,.23,.07,.27,.32,.15,.75-.1,1.04-.22,.53-.22,1.03-.5,1.49-.84,.6-.44,1.33-1.27,.55-1.9Z"/>
          <path class="cls-1" d="M44.63,55.03c-1.58-1.03-4.14,.47-5.33,1.52-1.33,1.18-2.48,3.42-.82,4.84,.08,.07,.25,0,.2-.12-1.41-3.72,2.82-5.94,5.93-6.16,.04,0,.06-.06,.02-.08Z"/>
          <path class="cls-1" d="M32.45,52.74c-.75,.44-1.98,3.08-2.99,2.24-.17-.14-.43-.1-.5,.13-.34,1.14-.91,2.13-2.34,1.63-.6-.21-.89-.55-1.38-.92-.01-.01-.03,.01-.02,.02,.58,.97,1.17,1.76,2.45,1.53,.99-.18,1.45-.89,1.76-1.74,1.35,.54,2.96-1.57,3.24-2.73,.03-.12-.1-.23-.21-.16Z"/>
          <path class="cls-1" d="M39.44,50.28c-.3-.8-.86-.88-1.54-.32-.57,.48-.73,1.18-.84,1.89-.03,.2-.15,1.53-.47,1.62-.12,.03-.34-.44-.53-.36-.69,.28-1.03,.42-.86,1.37,.12,.65,.37,1,.35,1.73-.02,.72-.11,1.14-.46,1.75-.68,1.2-2.09,2.6-3.4,1.2-.04-.04-.1,.01-.08,.06,1.32,2.41,3.91-.24,4.47-1.92,.31-.92,.05-1.48-.03-2.38-.17-2.07,.06-.44,.59-.68,.22-.1,.45-.12,.66-.35,.19-.22,.21-.57,.28-.84,.02-.16,.04-.32,.07-.48-.13-.98,.28-1.66,1.22-2.05,.17,.3,.69,.1,.57-.24Z"/>
          <path class="cls-1" d="M59.55,13.32c-.42,.08-.82,.43-1.11,.73-.36,.37-.68,.81-.92,1.28-.14,.28-.42,.77-.19,1.07,.06,.07,.17,.11,.24,.03,.17-.19,.21-.49,.31-.73,.17-.39,.4-.75,.67-1.08,.23-.28,.5-.59,.81-.79,.21-.14,.53-.13,.71-.27,0,0,.02-.02,.02-.03-.03-.22-.37-.24-.54-.21Z"/>
          <path class="cls-1" d="M15.21,39.85c-.52-.55-1.08-.76-1.65-.6,.05-1.4-.81-2.67-2.12-1.94-.79-1.73-4.02-.95-5.69-.1,.16-.84,.3-1.93-.37-2.22-.99-.43-1.25,1.61-1.45,2.04,0,0,0,0,0,0,.13-.16,.61-.97,.72-1.02,.83-.36,.41,1.18,.31,1.76-.04,.25,.23,.56,.48,.37,.96-.7,5.11-2.16,5.44-.19,.05,.29,.41,.31,.59,.16,1.32-.07,1.75,.48,1.28,1.67-.1,.37,.33,.56,.6,.35,1.61,.52,2.14,1.47,1.58,2.83-.13,.44-.27,.87-.44,1.29-.11,.3,.34,.47,.5,.21,.79-1.26,1.35-3.37,.2-4.61Z"/>
          <path class="cls-6" d="M39.19,11.74c-.18-.99-.79-1.73-1.8-1.19-.19,.1-.11,.44,.11,.42,2.43-.2,.49,4.6-.22,5.36-1.22,1.3-2.88,1.15-4.45,.71-1.66-.48-2.41-1.35-3.26-2.76-.03-.05-.1,0-.08,.05,.92,2.13,2.15,3.01,4.5,3.43,1.71,.31,3.11-.15,4.12-1.6,.83-1.2,1.33-2.95,1.06-4.41Z"/>
          <path class="cls-6" d="M15.49,22.94c-.2-.08-.32,.24-.14,.34,3.58,2.05,1.3,7.72-2.23,4.69-.11-.1-.28-.09-.36,.05-.48,.1-.95,.19-1.43,.29-.09-.15-.36-.14-.4,.05-.35,1.57-.88,3.14-1.82,4.46-2.58,3.61-6.23,1.07-6.71-2.31,0,0,0,0,0,0,.09,2.51,2.13,5.65,5.01,4.45,1.45-.6,2.38-2.19,3-3.53,.22-.47,.48-2.13,.83-2.36-.02,.01,.69,.24,.6,.29,.41-.21,1.03-.63,1.45-.64,1.12-.03,1.88,.74,3.18,.21,3.26-1.33,1.49-4.95-.96-5.97Z"/>
          <path class="cls-6" d="M26.54,48.42c-3.16,2.11-5.55-1.87-6.77-4.2,0,0-.02,0-.02,0,.75,2.81,3.7,7,7.04,4.63,.26-.18,.02-.62-.25-.43Z"/>
          <path class="cls-6" d="M36.56,44.68c-.02-.11-.18-.1-.21,0-.21,.79-.09,1.68-.5,2.43-.48,.86-1.39,.72-1.95,.07-.02-.02-.07-.01-.08,.02-.15,1.02,1.31,1.12,1.92,.7,.89-.6,1.02-2.26,.82-3.21Z"/>
          <path class="cls-6" d="M34.67,49.43c-.98-1.75-2.75-.73-2.95,.86-1.1-.08-3.07,.59-2.18,1.91,0,.01,.03,0,.03,0,.02-1.27,1.16-1.8,2.3-1.41,.15,.05,.3-.08,.3-.23,0-.56,.14-1.2,.68-1.48,.63-.33,1.14,.09,1.58,.54,.12,.13,.32-.03,.24-.19Z"/>
          <path class="cls-6" d="M44.21,38.74c-.01-.1-.15-.06-.16,.02-.2,1.56-.24,3.09-1.29,4.37-.93,1.14-2.85,2-4.37,1.73-.05,0-.07,.06-.02,.08,3.65,.95,6.32-2.94,5.84-6.2Z"/>
          <path class="cls-6" d="M54.67,22.04c-.01-.08-.14-.08-.16,0-.17,1.02-.02,2.45-.85,3.23-.37,.35-1.01,.34-1.31,.75-.46,.64-.29,1.4-.35,2.13-.03,.37-.1,.73-.2,1.08-.58,.36-1.16,.72-1.74,1.08-.98,.06-1.54-1.35-1.87-2.04-.02-.04-.09-.02-.08,.02,.15,2.24,3.33,3.71,4.08,1.04,.23-.81-.09-2.01,.26-2.72,.32-.65,.99-.64,1.46-1.09,.88-.85,.93-2.36,.75-3.49Z"/>
          <path class="cls-6" d="M23.7,4.96c-.48,2.18-3.13,4.87-5.57,3.48-.09-.05-.19,0-.22,.09-.97,.54-1.94,1.09-2.92,1.63-.07-.03-.15,.03-.17,.1-.44,1.26-2.92,5.57-5.21,3.72-.03-.03-.07,.01-.04,.04,.9,1.06,2.51,.22,3.43-.46,.95-.71,1.29-2.15,2.2-2.68,.58-.33,1.16-.11,1.79-.48,.64-.38,.76-1.2,1.5-1.42,.75-.22,1.48,.23,2.4-.17,1.52-.65,2.9-2.15,3-3.84,0-.11-.16-.13-.19-.03Z"/>
          <path class="cls-6" d="M26.62,21.11c-.69,.15-1.01,.45-1.71-.31-.09-.09-.24-.07-.31,.04-.18,.49-.58,.63-1.2,.42-.08-.24-.44-.14-.38,.1,.84,3.69-2.77,7.48-6.23,7.97-.01,0-.01,.02,0,.03,3.34,.53,6.53-3.59,6.74-6.59,.02-.23,.01-.45,0-.68,.15,.04,.28,.1,.54,0,.21-.08,.29-.35,.46-.44,.65-.34,.12-.07,.66-.07,.55,0,.9,.02,1.53-.12,.24-.05,.14-.43-.1-.37Z"/>
          <path class="cls-6" d="M34.7,27.37c-.48,.68-1.31,1.45-2.24,1-.38-.18-.57-.62-.82-.93-.24-.3-.42-.55-.8-.66-.08-.02-.19,.01-.23,.09-.48,1.02-1.69-.33-1.99-.79-.02-.04-.09-.01-.07,.03,.21,.6,.71,1.27,1.34,1.47,.3,.09,.44,0,.72-.04,.07-.01,.17-.22,.23-.22,.31,.02,.45,.48,.59,.68,.46,.67,.9,1.16,1.78,1.08,.9-.08,1.71-.71,1.76-1.63,0-.15-.19-.17-.26-.07Z"/>
          <path class="cls-6" d="M47.92,8.36c-.87,1.42-4.15,3.93-5.99,3.6-.17-.03-.37,.11-.3,.3,.32,.86,.52,1.85,.46,2.77-.02,.25-.53,2.61-1.08,1.76-.17-.27-.57-.03-.43,.25,.91,1.77-2.72,1.41-3.48,1.54-.13,.02-.13,.24,0,.26,1.24,.18,2.22,.56,3.34-.24,.44-.32,.7-.62,.75-.98,.97,.27,1.42-2.88,1.34-3.62-.04-.43-.3-1.24-.15-1.47,0,.01,1.77-.68,1.95-.79,1.54-.88,3.24-1.49,3.9-3.26,.07-.19-.21-.29-.31-.13Z"/>
          <path class="cls-6" d="M32.38,22.08c-.14-.32-.57-.35-.83-.22-.37,.18-.59,.49-.67,.84-.02,.04-.04,.07-.05,.11-.04,.1-.03,.19,0,.28-.03,.19-.03,.37,0,.56,.05,.28,.44,.52,.71,.4,.82-.34,1.21-1.14,.84-1.98Z"/>
          <path class="cls-6" d="M34.15,24.28c-.24,0-.24,.37,0,.37s.24-.37,0-.37Z"/>
          <path class="cls-6" d="M45.08,6.18c-.33-1.45-1.71-3.24-3.24-3.54-1.47-.29-2.8,1.35-2.62,2.73,0,.02,.03,.02,.03,0-.1-.86,.35-1.73,1.06-2.21,1.13-.77,2.1-.26,2.95,.51,.7,.63,1.28,1.33,1.56,2.23,.32,1.04,.25,2.2-.41,3.1-.82,1.12-2.21,1.46-3.22,.42-.6-.62-.95-1.56-.99-2.42-.05-1.01,.58-3.85,2.41-2.04,.54,.53,.95,2.83,.08,3.31-.63,.35-1.48-.83-1.18-1.37,.58-1.03,.69,0,.81,.32,.04,.11,.2,.07,.17-.05-.1-.48-.31-1.72-1.01-1.1-.56,.49-.19,2.23,.42,2.56,1.73,.9,2.13-4.23-.13-4.66-1.11-.21-1.61,1.3-1.77,2.13-.24,1.2,.13,2.63,1,3.51,.81,.82,1.89,.89,2.83,.25,1.19-.82,1.56-2.32,1.26-3.68Z"/>
        </g>
      </g>
    </g>
  </g>
</svg>